<svg width="32" height="23" viewBox="0 0 32 23" version="1.1" xmlns="http://www.w3.org/2000/svg" xmlns:xlink="http://www.w3.org/1999/xlink">
<g  fill="none">
<g>
<g>
<g>
<g>
<path d="M 29.648 10.807C 29.586 10.729 23.348 3.002 16 3.002C 8.652 3.002 2.412 10.729 2.35 10.807L 0 8.94C 0.289 8.575 7.191 5.72205e-08 16 5.72205e-08C 24.809 5.72205e-08 31.709 8.574 32 8.939L 29.648 10.807Z" transform="translate(0 4.68994)" fill="#262626"/>
</g>
</g>
<g>
<g>
<path d="M 7.723 15.448C 3.465 15.448 4.27246e-07 11.983 4.27246e-07 7.724C 4.27246e-07 3.465 3.465 -2.36511e-07 7.723 -2.36511e-07C 11.981 -2.36511e-07 15.446 3.465 15.446 7.724C 15.446 11.983 11.981 15.448 7.723 15.448ZM 7.723 3.002C 5.119 3.002 3.002 5.12 3.002 7.724C 3.002 10.328 5.119 12.447 7.723 12.447C 10.327 12.447 12.444 10.328 12.444 7.724C 12.444 5.12 10.327 3.002 7.723 3.002Z" transform="translate(8.27698 6.64795)" fill="#262626"/>
</g>
</g>
<g>
<g>
<path d="M 3.002 0L 0 0L 0 6.279L 3.002 6.279L 3.002 0Z" transform="translate(14.498 0)" fill="#262626"/>
</g>
</g>
<g>
<g>
<g>
<path d="M 6.282 0L 0 0L 0 3.001L 6.282 3.001L 6.282 0Z" transform="matrix(0.6029 0.7978 -0.7978 0.6029 3.9176 3.13574)" fill="#262626"/>
</g>
</g>
<g>
<g>
<path d="M 3.001 0L 0 0L 0 6.282L 3.001 6.282L 3.001 0Z" transform="matrix(0.7978 0.6029 -0.6029 0.7978 28.0797 3.13586)" fill="#262626"/>
</g>
</g>
</g>
</g>
</g>
</g>
</svg>
