<svg width="8" height="16" viewBox="0 0 8 16" version="1.1" xmlns="http://www.w3.org/2000/svg" xmlns:xlink="http://www.w3.org/1999/xlink">
<g>
<g >
<path d="M 8 2.5C 8 2.77614 7.77614 3 7.5 3L 6 3C 5 3 5 3.6 5 4L 5 5.9C 5 5.95523 5.04477 6 5.1 6L 7.5 6C 7.77614 6 8 6.22386 8 6.5L 8 8.5C 8 8.77614 7.77614 9 7.5 9L 5.1 9C 5.04477 9 5 9.04477 5 9.1L 5 15.5C 5 15.7761 4.77614 16 4.5 16L 2.5 16C 2.22386 16 2 15.7761 2 15.5L 2 9.1C 2 9.04477 1.95523 9 1.9 9L 0.5 9C 0.223858 9 0 8.77614 0 8.5L 0 6.5C 0 6.22386 0.223858 6 0.5 6L 1.9 6C 1.95523 6 2 5.95523 2 5.9L 2 3C 2 1.2 2 0 5 0L 7.5 0C 7.77614 0 8 0.223858 8 0.5L 8 2.5Z"/>
</g>
</g>
</svg>
