<svg width="126" height="110" viewBox="0 0 126 110" version="1.1" xmlns="http://www.w3.org/2000/svg" xmlns:xlink="http://www.w3.org/1999/xlink">
<g id="Canvas" fill="none">
<g id="Globous">
<g id="Group">
<g id="Vector">
<path d="M 43.148 0L -1.19019e-06 0L 5.887 11.794C 6.883 11.724 7.884 11.676 8.898 11.676C 16.471 11.676 23.575 13.666 29.733 17.137C 31.427 15.33 33.83 14.195 36.503 14.195C 41.632 14.195 45.793 18.353 45.793 23.483C 45.793 25.806 44.935 27.924 43.524 29.552C 48.471 36.498 51.391 44.989 51.391 54.166C 51.391 64.838 47.449 74.582 40.952 82.045L 50.559 101.293L 67.915 30.66L 43.148 0Z" transform="translate(57.3979 0)" fill="#464BD7"/>
</g>
<g id="Group_2">
<g id="Vector_2">
<path d="M 18.156 19.779C 21.824 17.113 25.931 15.016 30.354 13.626L 22.497 0L 2.75 0L -1.52588e-08 12.043L 18.156 19.779Z" transform="translate(23.1909 0)" fill="#46B4BE"/>
</g>
<g id="Vector_3">
<path d="M 17.055 5.052C 17.055 3.342 17.159 1.657 17.356 1.67847e-06L 7.37 2.646L -1.44958e-07 34.916L 23.221 59.176L 42.048 59.176L 49.129 46.253C 30.699 41.608 17.055 24.927 17.055 5.052Z" transform="translate(6.75195 49.115)" fill="#46B4BE"/>
</g>
</g>
<g id="Vector_4">
<path d="M 8.54492e-07 8.825L 8.632 22.789L 27.953 22.789L 14.812 -1.09863e-06C 10.576 3.882 5.548 6.908 8.54492e-07 8.825Z" transform="translate(80.179 85.502)" fill="#46B4BE"/>
</g>
<g id="Group_3">
<g id="Vector_5">
<path d="M 2.41701 1.209C 2.41601 0.540996 1.87901 0.000996765 1.20701 -3.23486e-06C 0.541006 0.000996765 0.00400546 0.540996 5.45761e-06 1.209C -0.00199454 1.871 0.541006 2.414 1.20701 2.414C 1.87301 2.414 2.41401 1.878 2.41701 1.209Z" transform="translate(5.7771 88.367)" fill="black"/>
</g>
<g id="Vector_6">
<path d="M 2.417 1.20801C 2.413 0.541006 1.876 0.00100553 1.212 5.52746e-06C 0.546 -0.00199447 0.000999611 0.539006 -3.89099e-07 1.20701C 0.000999611 1.87101 0.546 2.41201 1.21 2.41401C 1.878 2.41501 2.415 1.87601 2.417 1.20801Z" transform="translate(15.0581 88.375)" fill="black"/>
</g>
<g id="Vector_7">
<path d="M 2.412 1.20403C 2.415 0.538025 1.876 -0.00397696 1.208 2.30364e-05C 0.541999 -0.00297696 -9.46045e-07 0.53502 -9.46045e-07 1.20002C -9.46045e-07 1.87002 0.541001 2.41102 1.205 2.41002C 1.869 2.40902 2.416 1.86903 2.412 1.20403Z" transform="translate(24.342 88.387)" fill="black"/>
</g>
<g id="Vector_8">
<path d="M 2.414 1.21C 2.415 0.538998 1.87401 0.00199884 1.21001 -1.15967e-06C 0.542006 0.00199884 -0.00199338 0.540999 6.61596e-06 1.208C -0.00199338 1.874 0.540005 2.414 1.20401 2.417C 1.87101 2.412 2.412 1.879 2.414 1.21Z" transform="translate(33.623 88.391)" fill="black"/>
</g>
<g id="Vector_9">
<path d="M 1.209 2.418C 1.87671 2.418 2.418 1.87671 2.418 1.209C 2.418 0.541289 1.87671 0 1.209 0C 0.541287 0 0 0.541289 0 1.209C 0 1.87671 0.541287 2.418 1.209 2.418Z" transform="translate(10.644 96.789)" fill="black"/>
</g>
<g id="Vector_10">
<path d="M 2.417 1.209C 2.416 0.541003 1.881 0.0010036 1.211 3.60107e-06C 0.549 3.60107e-06 0.000999237 0.536998 -7.62939e-07 1.204C 0.000999237 1.873 0.547999 2.411 1.208 2.413C 1.876 2.414 2.415 1.876 2.417 1.209Z" transform="translate(19.925 96.799)" fill="black"/>
</g>
<g id="Vector_11">
<path d="M 2.417 1.209C 2.418 0.540004 1.879 4.74421e-06 1.209 4.74421e-06C 0.545001 -0.00199526 0.000999374 0.538007 -6.2561e-07 1.20501C 0.00399937 1.87101 0.543 2.41301 1.207 2.41301C 1.881 2.41301 2.418 1.875 2.417 1.209Z" transform="translate(29.2061 96.807)" fill="black"/>
</g>
<g id="Vector_12">
<path d="M 2.40901 1.209C 2.40901 0.542005 1.86801 0.00400492 1.20401 4.92413e-06C 0.536014 -0.000995076 -0.00198801 0.539999 1.199e-05 1.205C -0.00298801 1.873 0.534013 2.411 1.20001 2.412C 1.86601 2.418 2.40901 1.877 2.40901 1.209Z" transform="translate(38.4941 96.813)" fill="black"/>
</g>
<g id="Vector_13">
<path d="M 2.412 1.20801C 2.416 0.541006 1.876 0.00100595 1.206 5.9547e-06C 0.542 -0.00199405 0.00199982 0.539006 -1.83105e-07 1.20901C -1.83105e-07 1.86901 0.539 2.41601 1.206 2.41401C 1.874 2.41501 2.412 1.87401 2.412 1.20801Z" transform="translate(5.79199 71.527)" fill="black"/>
</g>
<g id="Vector_14">
<path d="M 2.41601 1.209C 2.41401 0.538996 1.87701 0.00299658 1.20901 -3.41797e-06C 0.546005 0.000996582 -0.000994549 0.535997 5.45132e-06 1.208C -0.00199455 1.874 0.542006 2.416 1.21101 2.417C 1.87401 2.415 2.41501 1.878 2.41601 1.209Z" transform="translate(15.073 71.534)" fill="black"/>
</g>
<g id="Vector_15">
<path d="M 2.41601 1.21C 2.41601 0.542001 1.87601 -0.000998255 1.20801 1.74521e-06C 0.542005 0.00200175 -0.00199496 0.540003 5.03935e-06 1.206C 0.00100504 1.875 0.542006 2.417 1.20601 2.414C 1.87301 2.417 2.41601 1.876 2.41601 1.21Z" transform="translate(24.355 71.541)" fill="black"/>
</g>
<g id="Vector_16">
<path d="M 2.41801 1.20703C 2.41601 0.538025 1.87401 2.44194e-05 1.21001 2.44194e-05C 0.544005 -0.00397558 -0.00199489 0.537026 5.10533e-06 1.20603C -0.00199489 1.87303 0.540005 2.41202 1.20601 2.40802C 1.87401 2.41202 2.41701 1.87503 2.41801 1.20703Z" transform="translate(10.657 79.954)" fill="black"/>
</g>
<g id="Vector_17">
<path d="M 2.412 1.209C 2.415 0.541 1.878 0.00100018 1.211 1.83105e-07C 0.543005 0.00200018 -0.000994019 0.542 5.98132e-06 1.209C -0.00199402 1.876 0.547006 2.414 1.20901 2.414C 1.87401 2.416 2.417 1.875 2.412 1.209Z" transform="translate(19.9402 79.958)" fill="black"/>
</g>
<g id="Vector_18">
<path d="M 2.41402 1.209C 2.41502 0.540997 1.87302 0.00299689 1.20502 -3.11279e-06C 0.541022 0.00299689 -0.00097766 0.540997 2.234e-05 1.208C -0.00397766 1.875 0.539022 2.415 1.20602 2.417C 1.87402 2.416 2.41302 1.879 2.41402 1.209Z" transform="translate(29.2251 79.964)" fill="black"/>
</g>
<g id="Vector_19">
<path d="M 2.415 1.209C 2.412 0.537999 1.872 -9.76563e-07 1.21 -9.76563e-07C 0.537 0.000999023 0.00200107 0.539 1.06812e-06 1.207C 0.00100107 1.874 0.536 2.416 1.203 2.415C 1.874 2.413 2.413 1.877 2.415 1.209Z" transform="translate(38.5051 79.974)" fill="black"/>
</g>
<g id="Vector_20">
<path d="M 2.41501 1.206C 2.41801 0.538 1.87601 0.000998962 1.21201 -1.0376e-06C 0.542006 0.000998962 -0.000994996 0.536001 5.00405e-06 1.204C -0.001995 1.869 0.544005 2.411 1.20801 2.412C 1.87201 2.414 2.41901 1.875 2.41501 1.206Z" transform="translate(10.6711 63.113)" fill="black"/>
</g>
<g id="Vector_21">
<path d="M 2.41703 1.208C 2.41303 0.544003 1.87703 0.00199893 1.20703 -1.06812e-06C 0.545033 0.000998932 -0.00296552 0.537997 3.44806e-05 1.205C -0.00496552 1.873 0.542034 2.413 1.21003 2.415C 1.87803 2.413 2.41503 1.872 2.41703 1.208Z" transform="translate(19.9541 63.12)" fill="black"/>
</g>
<g id="Vector_22">
<path d="M 2.418 1.21C 2.418 0.543004 1.876 0.00300487 1.214 4.86635e-06C 0.544 -0.00199513 0.00200042 0.541007 4.19617e-07 1.20401C 4.19617e-07 1.87601 0.544 2.41201 1.212 2.41601C 1.875 2.41601 2.415 1.878 2.418 1.21Z" transform="translate(10.6851 46.272)" fill="black"/>
</g>
<g id="Vector_23">
<path d="M 2.41503 1.21C 2.41503 0.541002 1.87703 0.00199878 1.21303 -1.2207e-06C 0.544034 -1.2207e-06 -0.000965519 0.540999 3.44814e-05 1.208C -0.00496552 1.876 0.541033 2.413 1.20703 2.416C 1.87703 2.414 2.41403 1.878 2.41503 1.21Z" transform="translate(19.968 46.28)" fill="black"/>
</g>
<g id="Vector_24">
<path d="M 2.417 1.21C 2.416 0.542998 1.88 0.0049993 1.208 -7.01904e-07C 0.546001 0.0039993 5.49316e-07 0.543001 5.49316e-07 1.205C 0.00200055 1.879 0.54 2.416 1.209 2.415C 1.877 2.416 2.416 1.881 2.417 1.21Z" transform="translate(29.249 46.286)" fill="black"/>
</g>
<g id="Vector_25">
<path d="M 2.41301 1.203C 2.41801 0.538002 1.87301 3.28388e-06 1.20901 3.28388e-06C 0.539012 -0.000996716 -0.00298745 0.537002 1.25542e-05 1.204C 0.00201255 1.872 0.539012 2.412 1.20501 2.41C 1.87101 2.414 2.41401 1.874 2.41301 1.203Z" transform="translate(5.80713 54.691)" fill="black"/>
</g>
<g id="Vector_26">
<path d="M 2.419 1.204C 2.419 0.537005 1.88 -0.000993689 1.214 6.31086e-06C 0.546001 -0.00199369 -0.000998593 0.537007 1.40708e-06 1.20001C -0.000998593 1.87101 0.548002 2.41301 1.206 2.41001C 1.876 2.41501 2.417 1.872 2.419 1.204Z" transform="translate(15.0852 54.7)" fill="black"/>
</g>
</g>
<g id="Group_4">
<g id="Vector_27">
<path d="M 3.35693e-06 1.207C 0.00200336 1.875 0.541001 2.415 1.213 2.415C 1.878 2.412 2.415 1.872 2.418 1.203C 2.418 0.541002 1.875 -0.000998985 1.208 1.01533e-06C 0.543003 0.00100102 0.00300336 0.539002 3.35693e-06 1.207Z" transform="translate(122.73 15.459)" fill="black"/>
</g>
<g id="Vector_28">
<path d="M -3.05176e-06 1.207C 0.00599695 1.874 0.542997 2.413 1.208 2.413C 1.873 2.414 2.417 1.872 2.418 1.205C 2.415 0.54 1.87 0.00100041 1.207 4.11987e-07C 0.537998 4.11987e-07 0.000996948 0.537999 -3.05176e-06 1.207Z" transform="translate(113.45 15.468)" fill="black"/>
</g>
<g id="Vector_29">
<path d="M 1.94983e-05 1.20801C -0.0019805 1.87401 0.53802 2.41501 1.20702 2.41001C 1.87302 2.41101 2.41402 1.87201 2.41302 1.20801C 2.41002 0.537006 1.87002 -0.00199407 1.20602 5.92934e-06C 0.541021 0.00200593 -0.0039805 0.544006 1.94983e-05 1.20801Z" transform="translate(104.171 15.475)" fill="black"/>
</g>
<g id="Vector_30">
<path d="M 1.31797e-06 1.209C -0.000998682 1.88 0.542003 2.416 1.206 2.418C 1.875 2.414 2.416 1.874 2.414 1.208C 2.415 0.541 1.871 0.00199954 1.207 -4.57764e-07C 0.541002 0.00699954 1.31797e-06 0.539999 1.31797e-06 1.209Z" transform="translate(94.8892 15.48)" fill="black"/>
</g>
<g id="Vector_31">
<path d="M -1.46876e-07 1.21C 0.000999853 1.876 0.546999 2.416 1.21 2.415C 1.876 2.417 2.418 1.874 2.417 1.207C 2.415 0.542 1.874 0.00199982 1.209 -1.83105e-07C 0.542 0.000999817 -0.00100015 0.542 -1.46876e-07 1.21Z" transform="translate(117.85 7.042)" fill="black"/>
</g>
<g id="Vector_32">
<path d="M 7.93457e-07 1.207C 0.00300079 1.875 0.539 2.415 1.209 2.414C 1.87 2.412 2.417 1.874 2.417 1.208C 2.415 0.539 1.868 0.00100012 1.208 1.18256e-07C 0.540001 0.00200012 0.00100079 0.541 7.93457e-07 1.207Z" transform="translate(108.568 7.051)" fill="black"/>
</g>
<g id="Vector_33">
<path d="M 7.59295e-06 1.207C 7.59295e-06 1.876 0.540007 2.415 1.21001 2.414C 1.87401 2.415 2.41701 1.874 2.41601 1.207C 2.41101 0.540002 1.87101 -0.000998673 1.20701 1.32687e-06C 0.534008 0.00300133 -0.00199241 0.540002 7.59295e-06 1.207Z" transform="translate(99.2881 7.06)" fill="black"/>
</g>
<g id="Vector_34">
<path d="M 4.61895e-06 1.20503C 4.61895e-06 1.87203 0.542998 2.41003 1.206 2.41203C 1.875 2.41303 2.413 1.87003 2.409 1.20503C 2.411 0.537035 1.873 3.42824e-05 1.206 3.42824e-05C 0.539998 -0.00496572 -0.000995381 0.538035 4.61895e-06 1.20503Z" transform="translate(90.0081 7.07196)" fill="black"/>
</g>
<g id="Vector_35">
<path d="M 1.24168e-05 1.20702C -0.00298758 1.87402 0.538012 2.41302 1.20901 2.41302C 1.87201 2.41302 2.41101 1.87102 2.41301 1.20202C 2.41101 0.542021 1.87201 -0.00397892 1.20501 2.10763e-05C 0.537014 -0.000978924 1.24168e-05 0.541022 1.24168e-05 1.20702Z" transform="translate(122.75 32.3)" fill="black"/>
</g>
<g id="Vector_36">
<path d="M -3.66211e-06 1.209C 0.00399634 1.88 0.542003 2.415 1.21 2.417C 1.874 2.415 2.419 1.879 2.417 1.207C 2.417 0.541 1.872 -2.44141e-07 1.204 -2.44141e-07C 0.539999 0.00199976 -3.66211e-06 0.539999 -3.66211e-06 1.209Z" transform="translate(113.465 32.306)" fill="black"/>
</g>
<g id="Vector_37">
<path d="M -5.13086e-07 1.20601C -5.13086e-07 1.87401 0.541999 2.41601 1.21 2.41401C 1.876 2.41001 2.419 1.87201 2.416 1.20601C 2.413 0.538011 1.872 -0.00298624 1.208 1.37596e-05C 0.542 -0.00198624 -0.00100051 0.540011 -5.13086e-07 1.20601Z" transform="translate(104.184 32.317)" fill="black"/>
</g>
<g id="Vector_38">
<path d="M -1.58691e-06 1.20205C 0.00399841 1.87105 0.546997 2.40905 1.211 2.40705C 1.877 2.40905 2.422 1.86705 2.419 1.19905C 2.419 0.53205 1.876 -0.00594981 1.21 5.01905e-05C 0.542998 -0.00394981 -1.58691e-06 0.53405 -1.58691e-06 1.20205Z" transform="translate(117.864 23.888)" fill="black"/>
</g>
<g id="Vector_39">
<path d="M 4.64075e-05 1.207C -0.00195359 1.875 0.536049 2.415 1.20305 2.414C 1.87005 2.411 2.41405 1.87 2.41105 1.203C 2.41205 0.536002 1.86205 -0.000998957 1.20105 1.04343e-06C 0.53405 -0.000998957 -0.00595359 0.542002 4.64075e-05 1.207Z" transform="translate(108.589 23.893)" fill="black"/>
</g>
<g id="Vector_40">
<path d="M 2.50244e-06 1.21C 0.0010025 1.878 0.544001 2.417 1.212 2.418C 1.876 2.414 2.417 1.875 2.415 1.208C 2.417 0.541 1.874 0.00200017 1.206 1.67847e-07C 0.539004 0.00300017 0.0010025 0.539999 2.50244e-06 1.21Z" transform="translate(99.301 23.899)" fill="black"/>
</g>
<g id="Vector_41">
<path d="M 3.72314e-06 1.208C 0.00400372 1.879 0.544997 2.416 1.207 2.415C 1.881 2.413 2.414 1.873 2.415 1.206C 2.412 0.540002 1.877 -0.00099767 1.21 2.33014e-06C 0.539003 0.00400233 3.72314e-06 0.540001 3.72314e-06 1.208Z" transform="translate(90.021 23.908)" fill="black"/>
</g>
<g id="Vector_42">
<path d="M 3.67551e-05 1.208C -0.00196324 1.877 0.541031 2.413 1.20503 2.412C 1.87503 2.411 2.41604 1.874 2.41504 1.206C 2.41504 0.542001 1.86803 -4.27246e-07 1.20503 -4.27246e-07C 0.541031 -4.27246e-07 -0.00496324 0.54 3.67551e-05 1.208Z" transform="translate(117.884 40.723)" fill="black"/>
</g>
<g id="Vector_43">
<path d="M -4.27246e-07 1.209C 0.00499957 1.873 0.542997 2.415 1.213 2.416C 1.874 2.415 2.422 1.876 2.418 1.209C 2.421 0.541 1.873 0.00100009 1.205 9.15527e-08C 0.538001 0.00400009 0.00199957 0.546 -4.27246e-07 1.209Z" transform="translate(108.598 40.729)" fill="black"/>
</g>
<g id="Vector_44">
<path d="M 3.72314e-06 1.207C 0.00100372 1.874 0.543997 2.413 1.206 2.415C 1.876 2.417 2.417 1.871 2.419 1.209C 2.417 0.538 1.872 0.00300082 1.203 8.23975e-07C 0.540999 8.23975e-07 0.00100372 0.538002 3.72314e-06 1.207Z" transform="translate(117.896 57.561)" fill="black"/>
</g>
<g id="Vector_45">
<path d="M -2.13623e-06 1.208C 0.000997864 1.877 0.54 2.415 1.204 2.416C 1.874 2.415 2.418 1.874 2.415 1.206C 2.419 0.538002 1.874 0.00100024 1.206 2.44141e-07C 0.536999 0.00200024 0.000997864 0.54 -2.13623e-06 1.208Z" transform="translate(108.615 57.569)" fill="black"/>
</g>
<g id="Vector_46">
<path d="M 1.5749e-06 1.207C 0.00200157 1.872 0.54 2.411 1.211 2.415C 1.873 2.409 2.418 1.86901 2.418 1.20801C 2.413 0.534007 1.875 -0.00199314 1.206 6.86052e-06C 0.537003 6.86052e-06 -0.000998425 0.535004 1.5749e-06 1.207Z" transform="translate(99.333 57.581)" fill="black"/>
</g>
<g id="Vector_47">
<path d="M 2.11891e-05 1.21001C -0.00397881 1.87401 0.543023 2.41201 1.20602 2.41001C 1.87702 2.41101 2.41602 1.871 2.41202 1.205C 2.40902 0.536004 1.87202 -0.00199395 1.20602 6.04644e-06C 0.539023 -0.00199395 -0.00297881 0.539005 2.11891e-05 1.21001Z" transform="translate(122.765 49.138)" fill="black"/>
</g>
<g id="Vector_48">
<path d="M 3.35693e-06 1.20901C 0.00100336 1.87601 0.540997 2.41401 1.206 2.41201C 1.875 2.41201 2.421 1.87201 2.419 1.20901C 2.419 0.538013 1.869 -0.00298713 1.21 1.28745e-05C 0.541002 -0.00298713 0.00100336 0.542013 3.35693e-06 1.20901Z" transform="translate(113.48 49.145)" fill="black"/>
</g>
<g id="Vector_49">
<path d="M -1.40381e-06 1.214C -1.40381e-06 1.878 0.546997 2.413 1.212 2.416C 1.878 2.416 2.418 1.877 2.419 1.21C 2.419 0.539 1.876 0.00100098 1.209 9.76563e-07C 0.541998 0.00300098 0.0019986 0.544002 -1.40381e-06 1.214Z" transform="translate(104.197 49.151)" fill="black"/>
</g>
</g>
<g id="Vector_50">
<path d="M 2.01416e-06 -3.05176e-07L 8.374 38.132L 22.541 17.701C 22.541 17.701 15.806 2.193 2.01416e-06 -3.05176e-07Z" transform="translate(71.2881 26.695)" fill="#FFB946"/>
</g>
<g id="Vector_51">
<path d="M 1.37329e-06 -3.41797e-06L 42.47 -3.41797e-06" stroke-width="3" stroke-miterlimit="10" transform="translate(57.3101 108.284)" stroke="black"/>
</g>
<g id="Vector_52">
<path d="M -6.40869e-07 14.789L 11.161 14.789L 19.573 2.74658e-06" stroke-width="3" stroke-miterlimit="10" transform="translate(36.772 93.495)" stroke="black"/>
</g>
<g id="Vector_53">
<path d="M 2.618 -7.32422e-07C 0.932 3.995 2.59399e-07 8.384 2.59399e-07 12.992" stroke-width="3" stroke-miterlimit="10" transform="translate(28.1279 41.168)" stroke="black"/>
</g>
<g id="Vector_54">
<path d="M 2.13623e-07 57.948C 8.879 63.955 19.744 65.768 29.824 63.387C 36.408 61.831 42.651 58.485 47.787 53.35C 62.52 38.616 62.52 14.734 47.787 -2.89917e-07" stroke-width="3" stroke-miterlimit="10" transform="translate(42.9509 23.879)" stroke="black"/>
</g>
<g id="Vector_55">
<path d="M 6.40869e-07 6.10352e-08L 30.846 24.232" stroke-width="3" stroke-miterlimit="10" transform="translate(53.978 83.736)" stroke="black"/>
</g>
<g id="Vector_56">
<path d="M 1.95313e-06 6.573L 6.571 1.67847e-07" stroke-width="3" stroke-miterlimit="10" transform="translate(84.052 24.024)" stroke="black"/>
</g>
<g id="Vector_57">
<path d="M -1.83105e-06 3.802C -1.83105e-06 5.903 1.703 7.605 3.803 7.605C 5.903 7.605 7.606 5.902 7.606 3.802C 7.606 1.702 5.903 -4.27246e-07 3.804 -4.27246e-07" stroke-width="3" stroke-miterlimit="10" transform="translate(89.4199 17.223)" stroke="black"/>
</g>
<g id="Vector_58">
<path d="M 27.865 13.932C 27.865 6.238 21.627 4.27246e-07 13.933 4.27246e-07C 6.239 4.27246e-07 7.01904e-07 6.238 7.01904e-07 13.932C 7.01904e-07 21.626 9.2 26.112 9.2 26.112L 27.864 26.112C 27.865 26.112 27.865 16.698 27.865 13.932Z" transform="translate(34.0891 37.152)" fill="#FFB946"/>
</g>
<g id="Vector_59">
<path d="M 1.52588e-07 5.49316e-07L 1.52588e-07 22.869C 1.52588e-07 22.869 6.931 20.726 11.566 12.881C 14.983 7.098 14.204 5.49316e-07 14.204 5.49316e-07L 1.52588e-07 5.49316e-07Z" transform="translate(34.0901 51.874)" fill="#FFB946"/>
</g>
<g id="Vector_60">
<path d="M 2.13623e-07 1.797L 18.07 23.432C 18.07 23.432 21.994 18.742 20.74 10.565C 19.814 4.54 15.186 5.64575e-07 15.186 5.64575e-07L 2.13623e-07 1.797Z" transform="translate(50.7009 26.058)" fill="#464BD7"/>
</g>
<g id="Vector_61">
<path d="M 0.171002 -1.83105e-07L 3.594 11.641L 3.05176e-07 23.775" stroke-width="3" stroke-miterlimit="10" transform="translate(35.9299 41.417)" stroke="black"/>
</g>
<g id="Vector_62">
<path d="M 11.051 22.102C 17.1543 22.102 22.102 17.1543 22.102 11.051C 22.102 4.9477 17.1543 0 11.051 0C 4.9477 0 0 4.9477 0 11.051C 0 17.1543 4.9477 22.102 11.051 22.102Z" transform="translate(16.5779 18.313)" fill="#EE2A7B"/>
</g>
<g id="Group_5">
<g id="Vector_63">
<path d="M 19.652 9.826C 19.652 15.2527 15.2527 19.652 9.826 19.652C 4.39925 19.652 -8.23975e-07 15.2527 -8.23975e-07 9.826C -8.23975e-07 4.39925 4.39925 2.59399e-07 9.826 2.59399e-07C 15.2527 2.59399e-07 19.652 4.39925 19.652 9.826Z" stroke-width="3" stroke-miterlimit="10" transform="translate(22.189 22.378)" stroke="black"/>
</g>
<g id="Vector_64">
<path d="M 30.673 -1.43433e-06L 0 -1.43433e-06" stroke-width="3" stroke-miterlimit="10" transform="translate(0 32.204)" stroke="black"/>
</g>
<g id="Vector_65">
<path d="M 22.87 5.417L 2.17438e-07 -4.88281e-07" stroke-width="3" stroke-miterlimit="10" transform="translate(7.49707 16.987)" stroke="black"/>
</g>
<g id="Vector_66">
<path d="M 2.17438e-07 5.417L 22.87 1.61743e-06" stroke-width="3" stroke-miterlimit="10" transform="translate(7.49707 42.004)" stroke="black"/>
</g>
</g>
<g id="Vector_67">
<path d="M 7.22055 23.293C 3.50955 21.618 0.715551 18.13 0.116552 13.803C -0.808448 7.106 3.87355 0.925001 10.5705 5.49316e-07C 10.1995 3.591 9.19755 13.066 9.19755 13.066C 9.19755 13.066 7.89255 19.84 7.22055 23.293Z" transform="translate(64.1445 39.374)" fill="#464BD7"/>
</g>
<g id="Vector_68">
<path d="M 2.13623e-06 3.05176e-08L 2.13623e-06 14.545L 10.252 20.065L 5.257 42.934" stroke-width="3" stroke-miterlimit="10" transform="translate(65.635 21.118)" stroke="black"/>
</g>
<g id="Vector_69">
<path d="M 1.0376e-06 3.17383e-06L 6.658 21.381L 27.338 21.381L 1.0376e-06 3.17383e-06Z" transform="translate(58.012 86.397)" fill="black"/>
</g>
<g id="Vector_70">
<path d="M 51.415 -1.28174e-06L 26.255 18.943L 26.255 26.456L 18.921 26.456L 18.921 30.79L 10.521 30.79L -1.89209e-06 38.712C -1.89209e-06 38.712 23.199 53.619 43.434 35.336C 53.834 25.938 54.12 8.596 51.415 -1.28174e-06Z" transform="translate(41.6841 42.544)" fill="black"/>
</g>
<g id="Vector_71">
<path d="M 6.10352e-08 -1.67847e-06L 8.216 -1.67847e-06L 19.608 12.907L 19.608 28.996L 11.853 28.996L 2.536 38.344" stroke-width="3" stroke-miterlimit="10" transform="translate(41.2361 33.885)" stroke="black"/>
</g>
<g id="Vector_72">
<path d="M 9.393 6.89C 15.027 2.568 22.078 -6.56128e-07 29.726 -6.56128e-07C 48.199 -6.56128e-07 63.174 14.974 63.174 33.448C 63.174 51.921 48.198 66.896 29.726 66.896C 20.962 66.896 12.986 63.525 7.021 58.008L -4.27246e-07 65.029" stroke-width="3" stroke-miterlimit="10" transform="translate(31.8479 20.713)" stroke="black"/>
</g>
</g>
</g>
</g>
</svg>

