<svg width="26" height="21" viewBox="0 0 26 21" version="1.1" xmlns="http://www.w3.org/2000/svg" xmlns:xlink="http://www.w3.org/1999/xlink">
<g id="Canvas" fill="none">
<path id="Union" fill-rule="evenodd" clip-rule="evenodd" d="M 4.85059 16.9022L 2.66113 19.0919L 4.0752 20.5061L 6.4541 18.1272C 8.25781 19.3205 10.4395 20.1673 13 20.1673C 21.667 20.1673 26 10.4173 26 10.4173C 26 10.4173 24.29 6.57076 20.8711 3.70975L 23.167 1.41422L 21.7529 0L 19.2363 2.51682C 17.4941 1.42445 15.415 0.667267 13 0.667267C 4.33301 0.667267 0 10.4622 0 10.4622C 0 10.4622 1.61621 14.0837 4.85059 16.9022ZM 8.03027 16.551C 9.4502 17.4143 11.1104 18.0006 13 18.0006C 18.7266 18.0006 22.3418 12.5883 23.5615 10.4173C 22.8818 9.20671 21.4531 6.98244 19.3262 5.25465L 16.5908 7.9903C 17.0596 8.68274 17.334 9.51804 17.334 10.4173C 17.334 12.8106 15.3936 14.7506 13 14.7506C 12.1006 14.7506 11.2656 14.4767 10.5732 14.0078L 8.03027 16.551ZM 9.21875 12.5344L 6.39258 15.36C 4.4209 13.6794 3.08887 11.6092 2.43848 10.4576C 3.65625 8.27795 7.27246 2.83394 13 2.83394C 14.75 2.83394 16.3027 3.33928 17.6504 4.103L 15.1172 6.6355C 14.4912 6.28424 13.7695 6.08394 13 6.08394C 10.6074 6.08394 8.66699 8.02419 8.66699 10.4173C 8.66699 11.1862 8.86719 11.9084 9.21875 12.5344ZM 12.165 12.4164C 12.4219 12.5243 12.7041 12.5839 13 12.5839C 14.1953 12.5839 15.167 11.6119 15.167 10.4173C 15.167 10.1213 15.1064 9.83902 14.999 9.58179L 12.165 12.4164ZM 13.4541 8.29852L 10.8818 10.8712C 10.8506 10.7248 10.834 10.5729 10.834 10.4173C 10.834 9.22263 11.8057 8.25061 13 8.25061C 13.1562 8.25061 13.3076 8.26714 13.4541 8.29852Z" transform="translate(0 0.332733)" fill="#BDBDBD"/>
</g>
</svg>
