<svg width="160" height="160" viewBox="0 0 160 160" version="1.1" xmlns="http://www.w3.org/2000/svg" xmlns:xlink="http://www.w3.org/1999/xlink">
<g id="Canvas" fill="none">
<g id="Component">
<g id="04">
<g id="Group">
<g id="Vector">
<path d="M 5.0384 24.0616L 3.24863e-06 69.08L 24.1335 69.08L 24.1335 2.90984L 0.387173 1.37687e-07L 5.0384 24.0616Z" transform="translate(103.688 33.5685)" fill="#FA3778"/>
</g>
<g id="Group_2">
<g id="Vector_2">
<path d="M 0.208527 15.7171C 0.208527 15.7171 0.208529 6.69453 7.18708 5.53008C 12.4204 4.65609 19.9801 7.56851 20.7072 13.8265C 21.5451 21.0366 22.0155 38.4226 22.0155 38.4226L 28.7031 55.8843L 37.9094 52.7794C 37.9094 52.7794 31.3197 44.049 29.3804 28.1376C 28.7786 23.1911 27.4428 12.1292 25.1164 7.18008C 23.1796 3.05851 19.4058 0 13.8729 0C 8.06101 0 -1.53504 3.78383 0.208527 15.7171Z" transform="translate(72.3687 26)" fill="black"/>
</g>
<g id="Vector_3">
<path d="M 32.1302 56.0312L 51.7567 56.0312C 51.7567 56.0312 48.3648 25.3249 47.0565 14.5544C 45.7551 3.84398 39.835 5.24521e-08 33.1475 5.24521e-08C 27.6232 5.24521e-08 20.4592 3.65578 13.0858 10.4775C 5.38007 17.6077 -8.12157e-07 27.3599 -8.12157e-07 27.3599L 19.0462 42.4952C 19.0462 42.4952 23.9901 41.4769 28.0602 44.3876C 33.0307 47.9428 32.1302 56.0312 32.1302 56.0312Z" transform="translate(74.4658 77.2281)" fill="#464BD7"/>
</g>
<g id="Vector_4">
<path d="M 35.7633 2.5177e-06L -2.88185e-07 12.2246L 43.1779 14.9901L 35.7633 2.5177e-06Z" transform="translate(82.6086 93.528)" fill="#1437A0"/>
</g>
<g id="Vector_5">
<path d="M 27.8139 7.50246C 24.089 6.00973 21.317 9.01839 20.3641 11.0809C 18.5767 14.9593 19.9177 18.09 20.2147 18.9871C 19.1734 19.5827 18.1295 20.925 17.8307 22.4152C 17.5328 23.9079 17.6813 25.5485 18.1303 27.6367C 14.5548 31.6646 5.31499 30.6196 1.88967 24.5035C -1.98978 17.5803 0.550447 8.20285 5.46694 3.92231C 12.3184 -2.04261 19.9718 -0.0694914 23.5842 2.43473C 27.1976 4.94066 28.1127 6.11027 28.1127 6.11027L 27.8139 7.50246Z" transform="translate(43.7195 103.952)" fill="#FFB946"/>
</g>
<g id="Vector_6">
<path d="M 8.73475 -2.36034e-07L 11.6407 31.6302C 11.6407 31.6302 8.10377 30.6109 5.63307 30.3213C 3.16152 30.0291 1.27287 31.3397 1.27287 31.3397C 1.27287 31.3397 -1.86229 23.0742 1.70812 12.1292C 4.03373 4.99555 8.73475 -2.36034e-07 8.73475 -2.36034e-07Z" transform="translate(59.0935 77.6166)" fill="#FFB946"/>
</g>
<g id="Vector_7">
<path d="M 30.4321 4.65781L 1.35553 7.21216e-08L 1.0152e-07 77.0378C 1.0152e-07 77.0378 4.84438 64.8106 18.0271 65.9751C 20.7399 56.2736 23.651 55.8851 23.651 55.8851L 31.9843 47.3481L 39.932 38.616L 35.2799 25.2278L 33.5364 12.0321L 30.4321 4.65781Z" transform="translate(35.2629 28.9107)" fill="#46B4BE"/>
</g>
<g id="Vector_8">
<path d="M 3.71734 28.6793C -4.23644 21.8025 3.71734 11.9438 3.71734 11.9438C 1.97464 10.3419 1.39173 6.41286 2.2648 4.08396C 3.2778 1.38122 6.04467 -0.136432 8.37114 0.00966208L 7.20705 7.57646L 8.08012 19.074L 10.2598 24.605L 14.4758 27.807L 14.6835 34.3554L 2.84599 42.5057C 2.84599 42.5057 1.87505 43.8833 0.520374 42.7971C -1.66016 35.0833 3.71734 28.6793 3.71734 28.6793Z" transform="translate(64.4971 35.887)" fill="black"/>
</g>
<g id="Vector_9">
<path d="M 1.21389 2.03252e-07L 1.46885 0.291328C 2.10069 1.00117 2.4458 1.95164 2.4458 2.9657C 2.4458 3.98234 2.10155 4.93281 1.46885 5.64179L 1.21389 5.9314C 0.432674 6.81312 8.90753e-07 7.98961 8.90753e-07 9.24172C 8.90753e-07 10.4955 0.430099 11.6729 1.21389 12.5546L 1.46885 12.8399C 2.77545 14.318 2.77545 16.7209 1.46885 18.1947L 1.21389 18.4852C -0.403482 20.3096 -0.403482 23.2796 1.21389 25.1058L 1.46885 25.3971C 2.77545 26.8692 2.77545 29.2729 1.46885 30.7501L 1.21389 31.0372C 0.430099 31.9172 8.90753e-07 33.0919 8.90753e-07 34.3492C 8.90753e-07 35.6039 0.432674 36.7769 1.21389 37.6595L 1.46885 37.9457C 2.10069 38.6607 2.4458 39.6112 2.4458 40.6244C 2.4458 41.6401 2.10155 42.5898 1.46885 43.3005L 1.21389 43.5892" stroke-width="3" stroke-miterlimit="10" transform="translate(92.6396 36.1853)" stroke="black"/>
</g>
<g id="Vector_10">
<path d="M 4.19178e-07 30.5542C 1.89037 19.7854 8.14093 12.8004 14.3941 8.72437C 14.8293 5.37711 16.5746 1.88375 18.6968 -7.08103e-07" stroke-width="3" stroke-miterlimit="10" transform="translate(52.0779 69.6682)" stroke="black"/>
</g>
<g id="Vector_11">
<path d="M 26.0893 8.6593C 26.0893 8.6593 24.3131 1.59524 15.7575 0.167819C 7.90676 -1.14273 0.783978 5.40742 0.0534148 13.3635C -0.708054 21.6823 6.9238 26.7569 6.9238 26.7569" stroke-width="3" stroke-miterlimit="10" transform="translate(41.7002 99.472)" stroke="black"/>
</g>
<g id="Vector_12">
<path d="M 41.5748 17.4368C 38.401 12.302 32.6054 9.88802 27.7387 7.45256C 19.2097 3.18318 13.7816 0.854282 13.7816 0.854282C 13.7816 0.854282 8.74232 -1.71869 3.36397 2.066C -0.89665 5.06178 -0.853727 11.8655 2.05565 14.5811" stroke-width="3" stroke-miterlimit="10" transform="translate(54.239 107.617)" stroke="black"/>
</g>
<g id="Vector_13">
<path d="M 3.92979e-07 1.99318e-06C 1.75902 0.894611 5.51313 3.22179 7.36658 7.52898" stroke-width="3" stroke-miterlimit="10" transform="translate(85.0276 122.545)" stroke="black"/>
</g>
<g id="Vector_14">
<path d="M -1.15274e-06 1.2064e-06C 1.29802 0.55086 4.09408 2.13039 5.69342 5.91507" stroke-width="3" stroke-miterlimit="10" transform="translate(81.5193 125.84)" stroke="black"/>
</g>
<g id="Vector_15">
<path d="M 4.4251 -1.88827e-06C 1.22642 0.146092 -0.081897 2.47328 0.00395067 5.79734" stroke-width="3" stroke-miterlimit="10" transform="translate(67.425 130.203)" stroke="black"/>
</g>
<g id="Vector_16">
<path d="M 0.801252 12.1619C 0.801252 12.1619 -0.903684 7.47054 0.660461 4.05968C 1.61165 1.97656 4.30727 0.34117 6.82432 -1.83582e-06" stroke-width="2.9302" stroke-miterlimit="10" transform="translate(61.478 120.952)" stroke="black"/>
</g>
<g id="Vector_17">
<path d="M -1.8863e-06 1.37168C -1.8863e-06 1.37168 5.15 0.449572 12.0178 0.0138687C 16.0089 -0.240506 19.5973 3.00707 20.5811 9.55722" stroke-width="3" stroke-miterlimit="10" transform="translate(90.7017 117.77)" stroke="black"/>
</g>
<g id="Group_3">
<g id="Group_4">
<g id="Vector_18">
<path d="M 2.06167 0.775697C 1.91144 0.216244 1.33798 -0.114616 0.779108 0.0366344C 0.221098 0.188744 -0.115425 0.763667 0.0365255 1.32312C 0.187617 1.88257 0.767088 2.21171 1.32682 2.06046C 1.88311 1.90835 2.21191 1.33429 2.06167 0.775697Z" transform="translate(39.613 83.0611)" fill="black"/>
</g>
<g id="Vector_19">
<path d="M 1.0482 2.0986C 1.6271 2.0986 2.0964 1.62881 2.0964 1.0493C 2.0964 0.469789 1.6271 2.04563e-06 1.0482 2.04563e-06C 0.469295 2.04563e-06 0 0.469789 0 1.0493C 0 1.62881 0.469295 2.0986 1.0482 2.0986Z" transform="translate(47.3914 80.9605)" fill="black"/>
</g>
<g id="Vector_20">
<path d="M 1.04734 2.09687C 1.62577 2.09687 2.09468 1.62747 2.09468 1.04843C 2.09468 0.469398 1.62577 0 1.04734 0C 0.468911 0 0 0.469398 0 1.04843C 0 1.62747 0.468911 2.09687 1.04734 2.09687Z" transform="translate(55.1685 78.8593)" fill="black"/>
</g>
<g id="Vector_21">
<path d="M 2.05595 0.776197C 1.90485 0.216744 1.33311 -0.114116 0.774241 0.0362749C 0.214514 0.189244 -0.116001 0.763307 0.0376665 1.32362C 0.186183 1.88135 0.760504 2.21221 1.31937 2.06096C 1.8791 1.90885 2.20618 1.33651 2.05595 0.776197Z" transform="translate(62.9443 76.7588)" fill="black"/>
</g>
</g>
<g id="Group_5">
<g id="Vector_22">
<path d="M 2.05831 0.776551C 1.90721 0.216239 1.33289 -0.114621 0.774884 0.0366292C 0.216016 0.188739 -0.114497 0.761944 0.0365944 1.3214C 0.188545 1.88085 0.761148 2.21084 1.31916 2.05959C 1.8806 1.9092 2.2094 1.33429 2.05831 0.776551Z" transform="translate(37.8274 91.1203)" fill="black"/>
</g>
<g id="Vector_23">
<path d="M 1.04734 2.09688C 1.62577 2.09688 2.09468 1.62747 2.09468 1.04844C 2.09468 0.469403 1.62577 0 1.04734 0C 0.468911 0 0 0.469403 0 1.04844C 0 1.62747 0.468911 2.09688 1.04734 2.09688Z" transform="translate(45.6033 89.0197)" fill="black"/>
</g>
<g id="Vector_24">
<path d="M 1.0482 2.0986C 1.6271 2.0986 2.0964 1.62881 2.0964 1.0493C 2.0964 0.469788 1.6271 0 1.0482 0C 0.469295 0 0 0.469788 0 1.0493C 0 1.62881 0.469295 2.0986 1.0482 2.0986Z" transform="translate(53.3782 86.9177)" fill="black"/>
</g>
<g id="Vector_25">
<path d="M 1.04648 2.09515C 1.62444 2.09515 2.09297 1.62614 2.09297 1.04758C 2.09297 0.469019 1.62444 0 1.04648 0C 0.468525 0 0 0.469019 0 1.04758C 0 1.62614 0.468525 2.09515 1.04648 2.09515Z" transform="translate(68.9314 82.7179)" fill="black"/>
</g>
</g>
<g id="Group_6">
<g id="Vector_26">
<path d="M 1.04734 2.09688C 1.62577 2.09688 2.09468 1.62747 2.09468 1.04844C 2.09468 0.469402 1.62577 0 1.04734 0C 0.468911 0 0 0.469402 0 1.04844C 0 1.62747 0.468911 2.09688 1.04734 2.09688Z" transform="translate(35.8083 68.9404)" fill="black"/>
</g>
<g id="Vector_27">
<path d="M 2.05757 0.77596C 1.90648 0.215648 1.33302 -0.113492 0.773291 0.0360389C 0.214423 0.187289 -0.114374 0.762209 0.0367178 1.32166C 0.186951 1.88111 0.761272 2.21197 1.31842 2.06158C 1.87901 1.91033 2.20866 1.33455 2.05757 0.77596Z" transform="translate(43.5859 66.8384)" fill="black"/>
</g>
<g id="Vector_28">
<path d="M 1.04562 2.09344C 1.62311 2.09344 2.09125 1.62481 2.09125 1.04672C 2.09125 0.468633 1.62311 0 1.04562 0C 0.468143 0 0 0.468633 0 1.04672C 0 1.62481 0.468143 2.09344 1.04562 2.09344Z" transform="translate(51.3625 64.7388)" fill="black"/>
</g>
<g id="Vector_29">
<path d="M 1.04562 2.09344C 1.62311 2.09344 2.09125 1.62481 2.09125 1.04672C 2.09125 0.468632 1.62311 0 1.04562 0C 0.468141 0 0 0.468632 0 1.04672C 0 1.62481 0.468141 2.09344 1.04562 2.09344Z" transform="translate(59.1375 62.6403)" fill="black"/>
</g>
<g id="Vector_30">
<path d="M 1.04734 2.09687C 1.62577 2.09687 2.09468 1.62747 2.09468 1.04844C 2.09468 0.469402 1.62577 0 1.04734 0C 0.468911 0 0 0.469402 0 1.04844C 0 1.62747 0.468911 2.09687 1.04734 2.09687Z" transform="translate(66.9121 60.5365)" fill="black"/>
</g>
</g>
<g id="Group_7">
<g id="Vector_31">
<path d="M 2.05938 0.776197C 1.90915 0.216744 1.33568 -0.114115 0.775956 0.0362751C 0.220522 0.187525 -0.114284 0.764167 0.0359492 1.32276C 0.186183 1.88135 0.765655 2.21135 1.32281 2.06268C 1.87996 1.91143 2.21047 1.33565 2.05938 0.776197Z" transform="translate(41.7952 74.8965)" fill="black"/>
</g>
<g id="Vector_32">
<path d="M 2.06142 0.772685C 1.91119 0.214951 1.33344 -0.115048 0.775428 0.0370615C 0.219135 0.187452 -0.113095 0.762373 0.0354212 1.32183C 0.187372 1.88042 0.764267 2.21128 1.32142 2.06089C 1.88029 1.9105 2.2108 1.33386 2.06142 0.772685Z" transform="translate(49.571 72.7971)" fill="black"/>
</g>
<g id="Vector_33">
<path d="M 1.04648 2.09516C 1.62444 2.09516 2.09296 1.62614 2.09296 1.04758C 2.09296 0.469016 1.62444 0 1.04648 0C 0.468526 0 0 0.469016 0 1.04758C 0 1.62614 0.468526 2.09516 1.04648 2.09516Z" transform="translate(57.3491 70.6969)" fill="black"/>
</g>
<g id="Vector_34">
<path d="M 1.04562 2.09344C 1.62311 2.09344 2.09125 1.62481 2.09125 1.04672C 2.09125 0.468632 1.62311 0 1.04562 0C 0.468142 0 0 0.468632 0 1.04672C 0 1.62481 0.468142 2.09344 1.04562 2.09344Z" transform="translate(65.126 68.5966)" fill="black"/>
</g>
<g id="Vector_35">
<path d="M 1.04734 2.09688C 1.62577 2.09688 2.09468 1.62747 2.09468 1.04844C 2.09468 0.469401 1.62577 0 1.04734 0C 0.468911 0 0 0.469401 0 1.04844C 0 1.62747 0.468911 2.09688 1.04734 2.09688Z" transform="translate(72.8984 66.4946)" fill="black"/>
</g>
</g>
<g id="Group_8">
<g id="Vector_36">
<path d="M 1.04734 2.09688C 1.62577 2.09688 2.09468 1.62747 2.09468 1.04844C 2.09468 0.469401 1.62577 0 1.04734 0C 0.468911 0 0 0.469401 0 1.04844C 0 1.62747 0.468911 2.09688 1.04734 2.09688Z" transform="translate(37.9885 60.7772)" fill="black"/>
</g>
<g id="Vector_37">
<path d="M 2.05979 0.772627C 1.90956 0.215752 1.33266 -0.115106 0.774655 0.0370032C 0.21922 0.186534 -0.114727 0.762315 0.0363645 1.32091C 0.188315 1.88122 0.763493 2.21036 1.31979 2.05997C 1.87951 1.90958 2.2126 1.33294 2.05979 0.772627Z" transform="translate(45.7642 58.6768)" fill="black"/>
</g>
<g id="Vector_38">
<path d="M 1.04734 2.09688C 1.62577 2.09688 2.09468 1.62747 2.09468 1.04844C 2.09468 0.469401 1.62577 0 1.04734 0C 0.46891 0 0 0.469401 0 1.04844C 0 1.62747 0.46891 2.09688 1.04734 2.09688Z" transform="translate(53.5413 56.5757)" fill="black"/>
</g>
<g id="Vector_39">
<path d="M 1.04648 2.09516C 1.62444 2.09516 2.09297 1.62614 2.09297 1.04758C 2.09297 0.469017 1.62444 0 1.04648 0C 0.468525 0 0 0.469017 0 1.04758C 0 1.62614 0.468525 2.09516 1.04648 2.09516Z" transform="translate(61.3176 54.4753)" fill="black"/>
</g>
<g id="Vector_40">
<path d="M 1.0482 2.09859C 1.6271 2.09859 2.0964 1.62881 2.0964 1.0493C 2.0964 0.469787 1.6271 0 1.0482 0C 0.469293 0 0 0.469787 0 1.0493C 0 1.62881 0.469293 2.09859 1.0482 2.09859Z" transform="translate(69.0911 52.3725)" fill="black"/>
</g>
</g>
<g id="Group_9">
<g id="Vector_41">
<path d="M 1.04734 2.09687C 1.62577 2.09687 2.09468 1.62747 2.09468 1.04844C 2.09468 0.469401 1.62577 0 1.04734 0C 0.468911 0 0 0.469401 0 1.04844C 0 1.62747 0.468911 2.09687 1.04734 2.09687Z" transform="translate(34.1821 46.655)" fill="black"/>
</g>
<g id="Vector_42">
<path d="M 1.0482 2.09859C 1.6271 2.09859 2.0964 1.62881 2.0964 1.0493C 2.0964 0.469786 1.6271 0 1.0482 0C 0.469295 0 0 0.469786 0 1.0493C 0 1.62881 0.469295 2.09859 1.0482 2.09859Z" transform="translate(41.9573 44.553)" fill="black"/>
</g>
<g id="Vector_43">
<path d="M 2.05772 0.773842C 1.90663 0.216967 1.33059 -0.113034 0.774295 0.0356381C 0.215426 0.188607 -0.113369 0.76267 0.0360058 1.3204C 0.187098 1.88072 0.761417 2.21158 1.32029 2.06118C 1.87572 1.90908 2.20795 1.33415 2.05772 0.773842Z" transform="translate(49.7341 42.454)" fill="black"/>
</g>
<g id="Vector_44">
<path d="M 1.04562 2.09344C 1.62311 2.09344 2.09125 1.6248 2.09125 1.04672C 2.09125 0.468632 1.62311 0 1.04562 0C 0.468141 0 0 0.468632 0 1.04672C 0 1.6248 0.468141 2.09344 1.04562 2.09344Z" transform="translate(57.5117 40.3541)" fill="black"/>
</g>
<g id="Vector_45">
<path d="M 2.05769 0.772035C 1.90745 0.21516 1.33399 -0.11398 0.774267 0.0364101C 0.217115 0.18766 -0.115116 0.761723 0.0368344 1.32032C 0.187068 1.88063 0.763106 2.21063 1.32283 2.05938C 1.87913 1.90899 2.20964 1.33321 2.05769 0.772035Z" transform="translate(65.2844 38.2535)" fill="black"/>
</g>
</g>
<g id="Group_10">
<g id="Vector_46">
<path d="M 2.06099 0.775135C 1.91076 0.216542 1.33643 -0.115178 0.778425 0.0369315C 0.218698 0.188181 -0.115249 0.763105 0.0367011 1.3217C 0.186935 1.88201 0.765548 2.21287 1.32442 2.06076C 1.88414 1.91037 2.21122 1.33631 2.06099 0.775135Z" transform="translate(32 54.8192)" fill="black"/>
</g>
<g id="Vector_47">
<path d="M 2.05745 0.774455C 1.90893 0.214143 1.33547 -0.114999 0.775739 0.03711C 0.216012 0.186641 -0.114501 0.760704 0.0365908 1.3193C 0.186824 1.87961 0.762862 2.20961 1.32001 2.05922C 1.87888 1.90883 2.20854 1.33391 2.05745 0.774455Z" transform="translate(39.7788 52.7195)" fill="black"/>
</g>
<g id="Vector_48">
<path d="M 1.04648 2.09516C 1.62444 2.09516 2.09296 1.62614 2.09296 1.04758C 2.09296 0.469016 1.62444 0 1.04648 0C 0.468526 0 0 0.469016 0 1.04758C 0 1.62614 0.468526 2.09516 1.04648 2.09516Z" transform="translate(47.5544 50.6177)" fill="black"/>
</g>
<g id="Vector_49">
<path d="M 2.05629 0.775343C 1.90606 0.216749 1.33431 -0.114111 0.775444 0.0362796C 0.215718 0.18753 -0.113937 0.761592 0.0362962 1.31933C 0.187388 1.88136 0.762568 2.21222 1.32058 2.05925C 1.8803 1.91058 2.20824 1.33565 2.05629 0.775343Z" transform="translate(55.3296 48.5172)" fill="black"/>
</g>
<g id="Vector_50">
<path d="M 2.06006 0.773659C 1.90983 0.213347 1.33293 -0.114935 0.774066 0.0371746C 0.218632 0.187565 -0.113599 0.761628 0.0357756 1.32022C 0.186009 1.88053 0.762907 2.20967 1.32006 2.06186C 1.87893 1.91061 2.21116 1.33483 2.06006 0.773659Z" transform="translate(63.1045 46.4168)" fill="black"/>
</g>
</g>
</g>
<g id="Vector_51">
<path d="M 40.3436 45.2134C 36.7286 41.5929 33.2543 35.4544 31.8155 29.6888C 30.0342 22.5552 29.1954 18.1294 27.9386 11.8396C 26.9694 6.98672 24.9005 0 13.6914 0C 6.68619 0 2.81102 4.75492 0.995346 9.50812C -0.307822 12.9138 0.0106749 15.7369 0.0982395 19.4287C 0.220143 24.4518 0.368657 30.1013 1.91477 33.3266C 3.07887 35.7517 5.83973 37.7652 9.32944 37.7652C 11.2936 37.7652 13.3282 37.4026 14.4915 37.1104" stroke-width="3" stroke-miterlimit="10" transform="translate(71.0977 26)" stroke="black"/>
</g>
<g id="Vector_52">
<path d="M 3.20641 -1.83582e-07L 10.9258 -1.83582e-07L 8.80196 2.53516L 5.15944 2.75344L 3.87516 9.81234L -7.5976e-07 10.3959L 3.20641 -1.83582e-07Z" transform="translate(78.1025 41.5109)" fill="black"/>
</g>
<g id="Vector_53">
<path d="M 6.1527 3.65922L 4.58341 -1.83582e-07L -1.33613e-06 -1.83582e-07L -1.33613e-06 1.84164L 6.1527 3.65922Z" transform="translate(71.3672 41.5109)" fill="black"/>
</g>
<g id="Vector_54">
<path d="M 2.41146 4.45843e-07L 3.52834 2.19226C 3.52834 2.19226 2.46726 2.75172 1.55212 2.46039C 0.951191 2.26617 0.132205 1.6818 5.23972e-08 0.350625L 2.41146 4.45843e-07Z" transform="translate(73.9458 42.9778)" fill="black"/>
</g>
<g id="Vector_55">
<path d="M 0.0127372 5.24521e-08C 0.0127372 5.24521e-08 -0.507502 5.13047 5.10178 8.29469C 7.74847 9.78828 10.4278 10.5652 12.8272 10.9338" stroke-width="3" stroke-miterlimit="10" transform="translate(67.04 77.2281)" stroke="black"/>
</g>
<g id="Vector_56">
<path d="M 23.2596 0.0729265C 23.2596 0.0729265 31.355 -1.09238 35.6182 5.89347C 25.0048 11.5696 -1.46712e-06 20.8827 -1.46712e-06 20.8827L 23.2596 0.0729265Z" transform="translate(86.0986 79.339)" fill="#1437A0"/>
</g>
<g id="Group_11">
<g id="Group_12">
<g id="Vector_57">
<path d="M 2.05928 0.773542C 1.90819 0.214949 1.33387 -0.115053 0.775862 0.0370562C 0.218711 0.184869 -0.115236 0.762368 0.0367141 1.32182C 0.187806 1.88041 0.764702 2.21042 1.32443 2.05831C 1.87815 1.90878 2.21295 1.33471 2.05928 0.773542Z" transform="translate(105.515 66.4678)" fill="black"/>
</g>
<g id="Vector_58">
<path d="M 2.06167 0.775195C 1.91144 0.215742 1.33797 -0.115119 0.779962 0.0369908C 0.221094 0.188241 -0.115427 0.76402 0.0365235 1.32261C 0.187615 1.88207 0.767086 2.21207 1.32681 2.05996C 1.8831 1.90871 2.2119 1.33465 2.06167 0.775195Z" transform="translate(113.289 64.3659)" fill="black"/>
</g>
<g id="Vector_59">
<path d="M 1.04906 2.10031C 1.62844 2.10031 2.09812 1.63014 2.09812 1.05015C 2.09812 0.470169 1.62844 0 1.04906 0C 0.46968 0 0 0.470169 0 1.05015C 0 1.63014 0.46968 2.10031 1.04906 2.10031Z" transform="translate(121.067 62.2639)" fill="black"/>
</g>
</g>
<g id="Group_13">
<g id="Vector_60">
<path d="M 1.0482 2.09859C 1.6271 2.09859 2.0964 1.62881 2.0964 1.0493C 2.0964 0.469786 1.6271 0 1.0482 0C 0.469293 0 -2.61986e-06 0.469786 -2.61986e-06 1.0493C -2.61986e-06 1.62881 0.469293 2.09859 1.0482 2.09859Z" transform="translate(101.708 52.3442)" fill="black"/>
</g>
<g id="Vector_61">
<path d="M 1.0482 2.09859C 1.6271 2.09859 2.0964 1.62881 2.0964 1.0493C 2.0964 0.469785 1.6271 0 1.0482 0C 0.469292 0 3.24863e-06 0.469785 3.24863e-06 1.0493C 3.24863e-06 1.62881 0.469292 2.09859 1.0482 2.09859Z" transform="translate(109.484 50.2439)" fill="black"/>
</g>
<g id="Vector_62">
<path d="M 2.05757 0.776759C 1.90648 0.216447 1.33302 -0.113553 0.773293 0.0359786C 0.214425 0.188088 -0.114373 0.76301 0.0367187 1.3216C 0.186952 1.88106 0.762128 2.21192 1.31842 2.06153C 1.87901 1.91113 2.20866 1.33449 2.05757 0.776759Z" transform="translate(117.262 48.1428)" fill="black"/>
</g>
</g>
<g id="Group_14">
<g id="Vector_63">
<path d="M 1.04648 2.09516C 1.62444 2.09516 2.09296 1.62614 2.09296 1.04758C 2.09296 0.469018 1.62444 0 1.04648 0C 0.468523 0 2.14829e-06 0.469018 2.14829e-06 1.04758C 2.14829e-06 1.62614 0.468523 2.09516 1.04648 2.09516Z" transform="translate(107.696 58.3048)" fill="black"/>
</g>
<g id="Vector_64">
<path d="M 2.05938 0.775401C 1.90914 0.215948 1.33568 -0.114052 0.775958 0.0363383C 0.220524 0.186729 -0.114282 0.764227 0.0359517 1.32196C 0.186185 1.88141 0.765657 2.21055 1.32281 2.06274C 1.87996 1.91063 2.21047 1.33485 2.05938 0.775401Z" transform="translate(115.47 56.2016)" fill="black"/>
</g>
<g id="Vector_65">
<path d="M 2.06092 0.772684C 1.91069 0.21495 1.33293 -0.115049 0.774923 0.0370601C 0.21863 0.187451 -0.1136 0.762371 0.0357745 1.32182C 0.186866 1.88128 0.763764 2.21214 1.32092 2.06089C 1.87978 1.90964 2.21116 1.333 2.06092 0.772684Z" transform="translate(123.246 54.1023)" fill="black"/>
</g>
</g>
<g id="Group_15">
<g id="Vector_66">
<path d="M 1.04648 2.09516C 1.62444 2.09516 2.09297 1.62614 2.09297 1.04758C 2.09297 0.469017 1.62444 0 1.04648 0C 0.468525 0 -2.77705e-06 0.469017 -2.77705e-06 1.04758C -2.77705e-06 1.62614 0.468525 2.09516 1.04648 2.09516Z" transform="translate(103.89 44.1826)" fill="black"/>
</g>
<g id="Vector_67">
<path d="M 1.0482 2.09859C 1.6271 2.09859 2.0964 1.62881 2.0964 1.0493C 2.0964 0.469787 1.6271 0 1.0482 0C 0.469293 0 -2.51507e-06 0.469787 -2.51507e-06 1.0493C -2.51507e-06 1.62881 0.469293 2.09859 1.0482 2.09859Z" transform="translate(111.664 42.0806)" fill="black"/>
</g>
<g id="Vector_68">
<path d="M 2.05929 0.773129C 1.90906 0.216254 1.33216 -0.114606 0.774155 0.0366444C 0.21872 0.186176 -0.115228 0.762816 0.0367222 1.32055C 0.187814 1.88086 0.763848 2.21086 1.32014 2.05961C 1.87987 1.90922 2.2121 1.33344 2.05929 0.773129Z" transform="translate(119.44 39.9815)" fill="black"/>
</g>
</g>
<g id="Group_16">
<g id="Vector_69">
<path d="M 2.06247 0.774456C 1.91052 0.214143 1.33448 -0.114998 0.778186 0.0371115C 0.217601 0.187502 -0.114628 0.761565 0.0364634 1.32102C 0.189272 1.88133 0.765311 2.21047 1.32332 2.06008C 1.88133 1.90969 2.21184 1.33305 2.06247 0.774456Z" transform="translate(97.9001 38.2253)" fill="black"/>
</g>
<g id="Vector_70">
<path d="M 2.06099 0.774782C 1.91076 0.217048 1.33643 -0.114671 0.778422 0.0365787C 0.218695 0.188688 -0.115251 0.76361 0.0366998 1.32134C 0.186933 1.88166 0.766405 2.21252 1.32441 2.06127C 1.88414 1.91002 2.21122 1.33681 2.06099 0.774782Z" transform="translate(105.675 36.1238)" fill="black"/>
</g>
<g id="Vector_71">
<path d="M 2.0583 0.774158C 1.90893 0.213846 1.33547 -0.114435 0.775742 0.036815C 0.216015 0.186346 -0.114499 0.760409 0.0365933 1.31986C 0.187685 1.88017 0.76286 2.20931 1.32087 2.05892C 1.8806 1.90939 2.20939 1.33447 2.0583 0.774158Z" transform="translate(113.454 34.0242)" fill="black"/>
</g>
</g>
</g>
<g id="Vector_72">
<path d="M 5.75392 -1.99318e-06C 3.56137 0.343748 -0.391059 1.80899 0.0313115 7.9432" stroke-width="3" stroke-miterlimit="10" transform="translate(62.2236 125.608)" stroke="black"/>
</g>
<g id="Vector_73">
<path d="M 9.45183 2.67506e-06C 9.45183 2.67506e-06 4.07175 3.92992 9.4315e-07 2.91156" stroke-width="3" stroke-miterlimit="10" transform="translate(85.2236 113.902)" stroke="black"/>
</g>
<g id="Vector_74">
<path d="M -1.08069e-07 -1.36375e-06C -1.08069e-07 -1.36375e-06 3.19868 6.40234 10.7584 5.67531" stroke-width="3" stroke-miterlimit="10" transform="translate(36.8132 120.307)" stroke="black"/>
</g>
<g id="Vector_75">
<path d="M -1.44092e-06 1.08539L 7.68079 -3.40938e-07C 7.68079 -3.40938e-07 6.10634 3.3593 2.97977 3.86804C 0.133063 4.33383 -1.44092e-06 1.08539 -1.44092e-06 1.08539Z" transform="translate(77.937 54.3302)" fill="black"/>
</g>
<g id="Vector_76">
<path d="M 7.85959e-07 0.000346846C 7.85959e-07 0.000346846 9.30417 -0.145743 14.2473 5.53215C 19.5784 11.6535 19.0444 19.5039 19.0444 19.5039" stroke-width="3" stroke-miterlimit="10" transform="translate(109.941 111.573)" stroke="black"/>
</g>
<g id="Vector_77">
<path d="M 4.05029 1.15156C 4.05029 0.0300785 3.14288 1.70469e-07 2.026 1.70469e-07C 0.905692 1.70469e-07 -6.28767e-07 0.0300785 -6.28767e-07 1.15156C -6.28767e-07 2.27047 0.906551 3.17797 2.026 3.17797C 3.14374 3.17883 4.05029 2.27047 4.05029 1.15156Z" transform="translate(83.0088 42.3428)" fill="black"/>
</g>
</g>
</g>
</g>
</g>
</g>
</svg>

