<svg width="106" height="109" viewBox="0 0 106 109" version="1.1" xmlns="http://www.w3.org/2000/svg" xmlns:xlink="http://www.w3.org/1999/xlink">
<g id="Canvas" fill="none">
<g id="Draft_07-15">
<g id="Group">
<g id="Group_2">
<g id="Vector">
<path d="M 0 61.3074L 0 3.42978L 28.7349 5.88761e-08L 18.2274 38.7994L 0 61.3074Z" transform="translate(0 9.60596)" fill="#46B4BE"/>
</g>
</g>
<g id="Group_3">
<g id="Vector_2">
<path d="M 4.53925 9.07521C 7.04622 9.07521 9.07851 7.04365 9.07851 4.53761C 9.07851 2.03156 7.04622 0 4.53925 0C 2.03229 0 0 2.03156 0 4.53761C 0 7.04365 2.03229 9.07521 4.53925 9.07521Z" transform="translate(38.5742 18.6211)" fill="#FA3778"/>
</g>
</g>
<g id="Group_4">
<g id="Vector_3">
<path d="M 19.532 39.6226C 19.532 32.3214 24.0953 26.1007 30.5216 23.6149L 25.4471 -3.2709e-09L 6.28994 2.85787L -3.1412e-07 37.8708L 17.156 52.0187L 20.9241 46.393C 20.0312 44.3154 19.532 42.0286 19.532 39.6226Z" transform="translate(60.5439 2.10425)" fill="#FFB946"/>
</g>
</g>
<g id="Group_5">
<g id="Vector_4">
<path d="M 34.7392 2.51205e-06L 0 8.3601L 7.33812 30.9401L 27.9243 30.9401L 34.7392 2.51205e-06Z" transform="translate(56.8267 69.1985)" fill="#46B4BE"/>
</g>
</g>
<g id="Group_6">
<g id="Vector_5">
<path d="M 37.098 36.5135L 0 42.3012L 17.512 5.57426L 30.2403 -4.44842e-07L 37.098 36.5135Z" transform="translate(3.85986 39.9734)" fill="#FA3778"/>
</g>
</g>
<g id="Group_7">
<g id="Vector_6">
<path d="M 42.8013 1.07285e-06L 46.3189 51.0095L 0 51.0095L 15.0108 1.07285e-06L 42.8013 1.07285e-06Z" transform="translate(13.0806 53.9873)" fill="#FA3778"/>
</g>
</g>
<g id="Group_8">
<g id="Vector_7">
<path d="M 8.11477e-07 2.35505e-07L 8.05006 53.3546L 19.7001 53.3546L 11.6947 18.628L 15.0296 12.3875L 8.11477e-07 2.35505e-07Z" transform="translate(51.708 46.7839)" fill="black"/>
</g>
</g>
<g id="Group_9">
<g id="Group_10">
<g id="Group_11">
<g id="Vector_8">
<path d="M 1.03531 2.06987C 1.6071 2.06987 2.07063 1.60652 2.07063 1.03494C 2.07063 0.463356 1.6071 0 1.03531 0C 0.463526 0 0 0.463356 0 1.03494C 0 1.60652 0.463526 2.06987 1.03531 2.06987Z" transform="translate(52.9902 97.0852)" fill="black"/>
</g>
</g>
<g id="Group_12">
<g id="Vector_9">
<path d="M 0.778761 0.0324893C 0.22465 0.175683 -0.109021 0.738169 0.0325095 1.29208C 0.173182 1.84427 0.737588 2.18211 1.29256 2.04063C 1.84667 1.89829 2.17948 1.33152 2.03795 0.780183C 1.89556 0.224559 1.33287 -0.108989 0.778761 0.0324893Z" transform="translate(51.0176 89.3733)" fill="black"/>
</g>
</g>
<g id="Group_13">
<g id="Vector_10">
<path d="M 1.03703 2.0733C 1.60976 2.0733 2.07406 1.60918 2.07406 1.03665C 2.07406 0.464123 1.60976 0 1.03703 0C 0.464293 0 0 0.464123 0 1.03665C 0 1.60918 0.464293 2.0733 1.03703 2.0733Z" transform="translate(49.042 81.6621)" fill="black"/>
</g>
</g>
<g id="Group_14">
<g id="Vector_11">
<path d="M 0.779329 0.0325796C 0.224359 0.174058 -0.108449 0.738253 0.0322231 1.29216C 0.174611 1.84522 0.737298 2.17962 1.29227 2.03729C 1.84638 1.89666 2.17919 1.33332 2.03766 0.777696C 1.89613 0.228074 1.33344 -0.109756 0.779329 0.0325796Z" transform="translate(47.0713 73.9539)" fill="black"/>
</g>
</g>
<g id="Group_15">
<g id="Vector_12">
<path d="M 1.03446 2.06816C 1.60577 2.06816 2.06891 1.60518 2.06891 1.03408C 2.06891 0.462971 1.60577 2.77372e-06 1.03446 2.77372e-06C 0.463142 2.77372e-06 0 0.462971 0 1.03408C 0 1.60518 0.463142 2.06816 1.03446 2.06816Z" transform="translate(45.0986 66.2444)" fill="black"/>
</g>
</g>
<g id="Group_16">
<g id="Vector_13">
<path d="M 1.03531 2.06988C 1.6071 2.06988 2.07063 1.60652 2.07063 1.03494C 2.07063 0.463357 1.6071 0 1.03531 0C 0.463527 0 0 0.463357 0 1.03494C 0 1.60652 0.463527 2.06988 1.03531 2.06988Z" transform="translate(43.125 58.5334)" fill="black"/>
</g>
</g>
<g id="Group_17">
<g id="Vector_14">
<path d="M 1.03445 2.06816C 1.60577 2.06816 2.06891 1.60519 2.06891 1.03408C 2.06891 0.462973 1.60577 0 1.03445 0C 0.46314 0 0 0.462973 0 1.03408C 0 1.60519 0.46314 2.06816 1.03445 2.06816Z" transform="translate(41.1533 50.825)" fill="black"/>
</g>
</g>
<g id="Group_18">
<g id="Vector_15">
<path d="M 1.03617 2.07159C 1.60843 2.07159 2.07234 1.60785 2.07234 1.03579C 2.07234 0.46374 1.60843 0 1.03617 0C 0.463909 0 0 0.46374 0 1.03579C 0 1.60785 0.463909 2.07159 1.03617 2.07159Z" transform="translate(39.1777 43.1123)" fill="black"/>
</g>
</g>
</g>
<g id="Group_19">
<g id="Group_20">
<g id="Vector_16">
<path d="M 0.778762 0.0325763C 0.22465 0.174055 -0.10902 0.739964 0.0325099 1.29216C 0.17404 1.84607 0.738446 2.18219 1.29342 2.03985C 1.84753 1.89838 2.18033 1.33332 2.03795 0.77855C 1.89642 0.22807 1.33202 -0.10976 0.778762 0.0325763Z" transform="translate(58.9512 91.2461)" fill="black"/>
</g>
</g>
<g id="Group_21">
<g id="Vector_17">
<path d="M 1.03532 2.06987C 1.6071 2.06987 2.07063 1.60652 2.07063 1.03494C 2.07063 0.46336 1.6071 2.14571e-06 1.03532 2.14571e-06C 0.463528 2.14571e-06 0 0.46336 0 1.03494C 0 1.60652 0.463528 2.06987 1.03532 2.06987Z" transform="translate(56.9785 83.5376)" fill="black"/>
</g>
</g>
<g id="Group_22">
<g id="Vector_18">
<path d="M 1.03617 2.07159C 1.60843 2.07159 2.07234 1.60785 2.07234 1.03579C 2.07234 0.463741 1.60843 0 1.03617 0C 0.46391 0 0 0.463741 0 1.03579C 0 1.60785 0.46391 2.07159 1.03617 2.07159Z" transform="translate(55.0039 75.825)" fill="black"/>
</g>
</g>
<g id="Group_23">
<g id="Vector_19">
<path d="M 1.03446 2.06816C 1.60577 2.06816 2.06891 1.60519 2.06891 1.03408C 2.06891 0.462976 1.60577 0 1.03446 0C 0.463143 0 0 0.462976 0 1.03408C 0 1.60519 0.463143 2.06816 1.03446 2.06816Z" transform="translate(53.0317 68.1165)" fill="black"/>
</g>
</g>
<g id="Group_24">
<g id="Vector_20">
<path d="M 1.0336 2.06645C 1.60444 2.06645 2.0672 1.60385 2.0672 1.03322C 2.0672 0.462588 1.60444 -3.08773e-06 1.0336 -3.08773e-06C 0.462759 -3.08773e-06 0 0.462588 0 1.03322C 0 1.60385 0.462759 2.06645 1.0336 2.06645Z" transform="translate(51.0605 60.408)" fill="black"/>
</g>
</g>
<g id="Group_25">
<g id="Vector_21">
<path d="M 0.778759 0.0327277C 0.224648 0.173349 -0.109019 0.738407 0.0325109 1.29317C 0.174041 1.84451 0.738444 2.18063 1.29256 2.03915C 1.84667 1.89767 2.18034 1.33176 2.03966 0.779565C 1.89728 0.225655 1.33287 -0.109608 0.778759 0.0327277Z" transform="translate(49.0854 52.6951)" fill="black"/>
</g>
</g>
<g id="Group_26">
<g id="Vector_22">
<path d="M 0.779847 0.0323143C 0.225736 0.17465 -0.109646 0.735421 0.0327416 1.2919C 0.175129 1.84581 0.738675 2.17936 1.29279 2.03874C 1.8469 1.8964 2.18056 1.3322 2.03989 0.779152C 1.8975 0.222669 1.33396 -0.108307 0.779847 0.0323143Z" transform="translate(47.1113 44.9854)" fill="black"/>
</g>
</g>
</g>
<g id="Group_27">
<g id="Group_28">
<g id="Vector_23">
<path d="M 1.03532 2.06988C 1.6071 2.06988 2.07063 1.60652 2.07063 1.03494C 2.07063 0.46336 1.6071 0 1.03532 0C 0.463527 0 0 0.46336 0 1.03494C 0 1.60652 0.463527 2.06988 1.03532 2.06988Z" transform="translate(38.9966 100.663)" fill="black"/>
</g>
</g>
<g id="Group_29">
<g id="Vector_24">
<path d="M 0.779613 0.0321591C 0.224644 0.174495 -0.109023 0.737838 0.0325074 1.29261C 0.174037 1.84394 0.738443 2.18178 1.29427 2.0403C 1.84752 1.89796 2.17948 1.33119 2.0388 0.778997C 1.89642 0.225086 1.33372 -0.108462 0.779613 0.0321591Z" transform="translate(37.0229 92.9517)" fill="black"/>
</g>
</g>
<g id="Group_30">
<g id="Vector_25">
<path d="M 0.778812 0.031991C 0.223843 0.174327 -0.108966 0.740241 0.0325638 1.29415C 0.173236 1.84635 0.736781 2.18161 1.29261 2.04099C 1.84672 1.89865 2.17953 1.33274 2.038 0.781399C 1.89647 0.227489 1.33207 -0.10863 0.778812 0.031991Z" transform="translate(35.0503 85.241)" fill="black"/>
</g>
</g>
<g id="Group_31">
<g id="Vector_26">
<path d="M 0.779614 0.0325767C 0.224645 0.174055 -0.109021 0.739114 0.0325087 1.29131C 0.174039 1.84608 0.737583 2.18048 1.29341 2.03815C 1.84752 1.89753 2.18033 1.33247 2.0388 0.7777C 1.89727 0.228077 1.33287 -0.109759 0.779614 0.0325767Z" transform="translate(33.0776 77.5317)" fill="black"/>
</g>
</g>
<g id="Group_32">
<g id="Vector_27">
<path d="M 1.03446 2.06816C 1.60577 2.06816 2.06891 1.60519 2.06891 1.03408C 2.06891 0.462974 1.60577 0 1.03446 0C 0.463142 0 0 0.462974 0 1.03408C 0 1.60519 0.463142 2.06816 1.03446 2.06816Z" transform="translate(31.1064 69.8225)" fill="black"/>
</g>
</g>
<g id="Group_33">
<g id="Vector_28">
<path d="M 1.03531 2.06987C 1.6071 2.06987 2.07063 1.60652 2.07063 1.03494C 2.07063 0.46336 1.6071 2.56438e-06 1.03531 2.56438e-06C 0.463527 2.56438e-06 0 0.46336 0 1.03494C 0 1.60652 0.463527 2.06987 1.03531 2.06987Z" transform="translate(29.1323 62.1123)" fill="black"/>
</g>
</g>
<g id="Group_34">
<g id="Vector_29">
<path d="M 1.03446 2.06816C 1.60577 2.06816 2.06891 1.60519 2.06891 1.03408C 2.06891 0.462973 1.60577 0 1.03446 0C 0.463141 0 0 0.462973 0 1.03408C 0 1.60519 0.463141 2.06816 1.03446 2.06816Z" transform="translate(27.1597 54.4031)" fill="black"/>
</g>
</g>
<g id="Group_35">
<g id="Vector_30">
<path d="M 0.779277 0.0326215C 0.225166 0.1741 -0.108502 0.740012 0.0321698 1.29392C 0.1737 1.84612 0.737247 2.18224 1.29393 2.0399C 1.84719 1.89928 2.18 1.33251 2.03761 0.780313C 1.89522 0.22726 1.33167 -0.109715 0.779277 0.0326215Z" transform="translate(25.1855 46.6895)" fill="black"/>
</g>
</g>
</g>
<g id="Group_36">
<g id="Group_37">
<g id="Vector_31">
<path d="M 0.778812 0.0326223C 0.223842 0.174101 -0.108967 0.740017 0.0325632 1.29221C 0.174093 1.84612 0.737638 2.18224 1.29261 2.04076C 1.84758 1.89928 2.17953 1.33337 2.03714 0.779459C 1.89647 0.227264 1.33378 -0.109714 0.778812 0.0326223Z" transform="translate(44.9575 94.824)" fill="black"/>
</g>
</g>
<g id="Group_38">
<g id="Vector_32">
<path d="M 1.03617 2.07159C 1.60843 2.07159 2.07234 1.60785 2.07234 1.03579C 2.07234 0.46374 1.60843 0 1.03617 0C 0.463909 0 0 0.46374 0 1.03579C 0 1.60785 0.463909 2.07159 1.03617 2.07159Z" transform="translate(42.9839 87.1155)" fill="black"/>
</g>
</g>
<g id="Group_39">
<g id="Vector_33">
<path d="M 1.03617 2.07159C 1.60843 2.07159 2.07234 1.60785 2.07234 1.03579C 2.07234 0.463738 1.60843 -3.1924e-06 1.03617 -3.1924e-06C 0.46391 -3.1924e-06 0 0.463738 0 1.03579C 0 1.60785 0.46391 2.07159 1.03617 2.07159Z" transform="translate(41.0107 79.4028)" fill="black"/>
</g>
</g>
<g id="Group_40">
<g id="Vector_34">
<path d="M 1.03446 2.06816C 1.60577 2.06816 2.06891 1.60519 2.06891 1.03408C 2.06891 0.462973 1.60577 0 1.03446 0C 0.463143 0 0 0.462973 0 1.03408C 0 1.60519 0.463143 2.06816 1.03446 2.06816Z" transform="translate(39.0391 71.6943)" fill="black"/>
</g>
</g>
<g id="Group_41">
<g id="Vector_35">
<path d="M 1.03445 2.06816C 1.60577 2.06816 2.06891 1.60519 2.06891 1.03408C 2.06891 0.462975 1.60577 0 1.03445 0C 0.463141 0 0 0.462975 0 1.03408C 0 1.60519 0.463141 2.06816 1.03445 2.06816Z" transform="translate(37.0659 63.9858)" fill="black"/>
</g>
</g>
<g id="Group_42">
<g id="Vector_36">
<path d="M 0.778297 0.0326755C 0.223328 0.174154 -0.109482 0.738354 0.0329057 1.29312C 0.173578 1.84446 0.736266 2.18144 1.29209 2.0391C 1.8462 1.89762 2.17987 1.33171 2.03748 0.779513C 1.89681 0.22646 1.33327 -0.109661 0.778297 0.0326755Z" transform="translate(35.0918 56.2732)" fill="black"/>
</g>
</g>
<g id="Group_43">
<g id="Vector_37">
<path d="M 0.778297 0.0323671C 0.223328 0.175561 -0.109481 0.735474 0.0329063 1.29196C 0.173579 1.84587 0.736266 2.18027 1.29209 2.03879C 1.8462 1.89645 2.17987 1.33311 2.03748 0.779204C 1.89424 0.221864 1.33241 -0.108254 0.778297 0.0323671Z" transform="translate(33.1191 48.5632)" fill="black"/>
</g>
</g>
</g>
<g id="Group_44">
<g id="Group_45">
<g id="Vector_38">
<path d="M 1.03617 2.07159C 1.60843 2.07159 2.07234 1.60785 2.07234 1.0358C 2.07234 0.463742 1.60843 0 1.03617 0C 0.46391 0 0 0.463742 0 1.0358C 0 1.60785 0.46391 2.07159 1.03617 2.07159Z" transform="translate(30.9629 98.4031)" fill="black"/>
</g>
</g>
<g id="Group_46">
<g id="Vector_39">
<path d="M 0.778761 0.0330035C 0.224649 0.174482 -0.109021 0.73354 0.0325092 1.28916C 0.174897 1.84307 0.737588 2.18177 1.29256 2.03857C 1.84753 1.89795 2.17948 1.33032 2.03881 0.776413C 1.89642 0.221645 1.33459 -0.109333 0.778761 0.0330035Z" transform="translate(28.9902 90.6941)" fill="black"/>
</g>
</g>
<g id="Group_47">
<g id="Vector_40">
<path d="M 1.03531 2.06988C 1.6071 2.06988 2.07063 1.60652 2.07063 1.03494C 2.07063 0.463357 1.6071 0 1.03531 0C 0.463527 0 0 0.463357 0 1.03494C 0 1.60652 0.463527 2.06988 1.03531 2.06988Z" transform="translate(27.0181 82.9827)" fill="black"/>
</g>
</g>
<g id="Group_48">
<g id="Vector_41">
<path d="M 1.03446 2.06816C 1.60577 2.06816 2.06891 1.60519 2.06891 1.03408C 2.06891 0.462976 1.60577 0 1.03446 0C 0.463142 0 0 0.462976 0 1.03408C 0 1.60519 0.463142 2.06816 1.03446 2.06816Z" transform="translate(25.0454 75.2734)" fill="black"/>
</g>
</g>
<g id="Group_49">
<g id="Vector_42">
<path d="M 0.779045 0.0328426C 0.224933 0.174321 -0.109592 0.73595 0.0327962 1.29072C 0.175184 1.84548 0.736157 2.17817 1.29113 2.03669C 1.84695 1.89436 2.17891 1.33188 2.03652 0.777109C 1.89499 0.224056 1.33316 -0.109493 0.779045 0.0328426Z" transform="translate(23.0723 67.564)" fill="black"/>
</g>
</g>
<g id="Group_50">
<g id="Vector_43">
<path d="M 0.777957 0.0327311C 0.223845 0.173352 -0.108964 0.738404 0.032566 1.29317C 0.173238 1.84451 0.737643 2.18149 1.29175 2.03915C 1.84672 1.89682 2.17953 1.33176 2.038 0.779562C 1.89647 0.225652 1.33293 -0.109605 0.777957 0.0327311Z" transform="translate(21.0986 59.8521)" fill="black"/>
</g>
</g>
<g id="Group_51">
<g id="Vector_44">
<path d="M 0.779847 0.0327083C 0.225735 0.174187 -0.109649 0.734959 0.0327393 1.29144C 0.175127 1.84535 0.737817 2.17975 1.29193 2.03828C 1.8469 1.89508 2.17971 1.3326 2.03904 0.778689C 1.89665 0.221349 1.33482 -0.10877 0.779847 0.0327083Z" transform="translate(19.125 52.1428)" fill="black"/>
</g>
</g>
</g>
<g id="Group_52">
<g id="Group_53">
<g id="Vector_45">
<path d="M 0.777155 0.0326748C 0.223044 0.174153 -0.108908 0.740069 0.0326217 1.29226C 0.173294 1.84617 0.737699 2.18229 1.29181 2.04082C 1.8485 1.89848 2.17959 1.33342 2.0372 0.779512C 1.89653 0.226459 1.3347 -0.109661 0.777155 0.0326748Z" transform="translate(16.9717 101.981)" fill="black"/>
</g>
</g>
<g id="Group_54">
<g id="Vector_46">
<path d="M 0.778243 0.0326123C 0.224132 0.174948 -0.109536 0.734856 0.0328522 1.29048C 0.173524 1.84439 0.737929 2.18223 1.2929 2.03989C 1.84787 1.8967 2.17982 1.33078 2.03743 0.776872C 1.8959 0.222962 1.33407 -0.108866 0.778243 0.0326123Z" transform="translate(14.9985 94.2708)" fill="black"/>
</g>
</g>
<g id="Group_55">
<g id="Vector_47">
<path d="M 0.777957 0.0324417C 0.223845 0.17392 -0.108964 0.737263 0.0325659 1.29289C 0.174954 1.84594 0.737643 2.18035 1.29175 2.03887C 1.84844 1.89653 2.17953 1.33319 2.03886 0.779279C 1.89647 0.225369 1.33464 -0.109037 0.777957 0.0324417Z" transform="translate(13.0249 86.5601)" fill="black"/>
</g>
</g>
<g id="Group_56">
<g id="Vector_48">
<path d="M 0.777958 0.0326734C 0.223846 0.175009 -0.108964 0.73921 0.0325665 1.29312C 0.174097 1.84703 0.735928 2.178 1.2909 2.03652C 1.84758 1.89419 2.17953 1.33428 2.038 0.780368C 1.89647 0.226458 1.33378 -0.109663 0.777958 0.0326734Z" transform="translate(11.0522 78.8503)" fill="black"/>
</g>
</g>
<g id="Group_57">
<g id="Vector_49">
<path d="M 1.03446 2.06816C 1.60577 2.06816 2.06891 1.60519 2.06891 1.03408C 2.06891 0.462975 1.60577 0 1.03446 0C 0.463142 0 0 0.462975 0 1.03408C 0 1.60519 0.463142 2.06816 1.03446 2.06816Z" transform="translate(9.08008 71.1421)" fill="black"/>
</g>
</g>
<g id="Group_58">
<g id="Vector_50">
<path d="M 0.777958 0.0327281C 0.223846 0.174207 -0.108964 0.738407 0.0325659 1.29317C 0.174096 1.84537 0.736785 2.18148 1.29175 2.03915C 1.84844 1.89681 2.17953 1.33176 2.038 0.779565C 1.89647 0.225655 1.3355 -0.109608 0.777958 0.0327281Z" transform="translate(7.10547 63.4302)" fill="black"/>
</g>
</g>
<g id="Group_59">
<g id="Vector_51">
<path d="M 0.778244 0.0329456C 0.224132 0.174424 -0.109536 0.735189 0.0328518 1.29253C 0.174382 1.84558 0.736213 2.17999 1.29118 2.03851C 1.84787 1.89617 2.17896 1.33283 2.03743 0.778919C 1.89419 0.222437 1.33407 -0.10939 0.778244 0.0329456Z" transform="translate(5.1333 55.7197)" fill="black"/>
</g>
</g>
</g>
<g id="Group_60">
<g id="Group_61">
<g id="Vector_52">
<path d="M 0.7755 0.0324472C 0.222247 0.173926 -0.108849 0.738127 0.0326811 1.29118C 0.174211 1.84509 0.735185 2.18035 1.28844 2.03801C 1.84598 1.89567 2.17965 1.33319 2.03726 0.778421C 1.89487 0.225368 1.33219 -0.109031 0.7755 0.0324472Z" transform="translate(25.0068 104.24)" fill="black"/>
</g>
</g>
<g id="Group_62">
<g id="Vector_53">
<path d="M 0.77584 0.0324959C 0.221728 0.173974 -0.109366 0.736461 0.033022 1.29123C 0.173694 1.84342 0.736384 2.18126 1.28964 2.03978C 1.84632 1.89744 2.17999 1.32981 2.0376 0.778476C 1.89607 0.224566 1.33252 -0.108983 0.77584 0.0324959Z" transform="translate(23.0327 96.5303)" fill="black"/>
</g>
</g>
<g id="Group_63">
<g id="Vector_54">
<path d="M 0.774985 0.0325656C 0.221731 0.174902 -0.109363 0.739959 0.0330243 1.29473C 0.173697 1.84692 0.735529 2.18218 1.28878 2.04156C 1.84547 1.89923 2.17913 1.33331 2.0376 0.781117C 1.89607 0.228064 1.33081 -0.10977 0.774985 0.0325656Z" transform="translate(21.0601 88.8184)" fill="black"/>
</g>
</g>
<g id="Group_64">
<g id="Vector_55">
<path d="M 0.775553 0.0327374C 0.221441 0.175073 -0.108795 0.739268 0.0327354 1.29146C 0.174265 1.84537 0.735237 2.18064 1.28935 2.03916C 1.84518 1.89682 2.1797 1.33262 2.03817 0.777854C 1.8975 0.225659 1.33224 -0.109599 0.775553 0.0327374Z" transform="translate(19.0864 81.1099)" fill="black"/>
</g>
</g>
<g id="Group_65">
<g id="Vector_56">
<path d="M 0.776871 0.0327175C 0.22276 0.175054 -0.108335 0.734969 0.0323374 1.28888C 0.175583 1.84279 0.735697 2.17719 1.28895 2.03571C 1.84564 1.89337 2.1793 1.33004 2.03863 0.776127C 1.89624 0.221359 1.33356 -0.108761 0.776871 0.0327175Z" transform="translate(17.1123 73.4014)" fill="black"/>
</g>
</g>
<g id="Group_66">
<g id="Vector_57">
<path d="M 0.775553 0.0331276C 0.221441 0.174606 -0.108795 0.736229 0.0327351 1.291C 0.174265 1.84576 0.735239 2.17931 1.28935 2.03783C 1.84518 1.8955 2.18056 1.33301 2.03817 0.778244C 1.89578 0.224334 1.33224 -0.110066 0.775553 0.0331276Z" transform="translate(15.1406 65.6899)" fill="black"/>
</g>
</g>
<g id="Group_67">
<g id="Vector_58">
<path d="M 0.77584 0.0332394C 0.221728 0.174718 -0.109366 0.733769 0.0330216 1.29111C 0.175409 1.84502 0.734667 2.17685 1.28878 2.03537C 1.84546 1.8939 2.17999 1.33312 2.0376 0.777499C 1.89607 0.222732 1.33167 -0.109954 0.77584 0.0332394Z" transform="translate(13.168 57.9814)" fill="black"/>
</g>
</g>
<g id="Group_68">
<g id="Vector_59">
<path d="M 0.775553 0.033015C 0.221441 0.174494 -0.108796 0.738692 0.0327344 1.29174C 0.174264 1.8448 0.736096 2.18177 1.28935 2.03944C 1.84603 1.89796 2.17884 1.3329 2.03817 0.779849C 1.89578 0.225939 1.33224 -0.110178 0.775553 0.033015Z" transform="translate(11.1943 50.2681)" fill="black"/>
</g>
</g>
</g>
</g>
<g id="Group_69">
<g id="Vector_60">
<path d="M 26.0192 108.424L 15.6301 27.7392L 23.7487 29.1429L 23.7487 20.2254L 25.6307 19.8336C 25.17 18.4119 24.4307 16.1371 23.8148 14.3005L 23.753 14.1136L 23.7487 13.9163C 23.6269 7.23684 18.9968 2.57234 12.4881 2.57234C 5.40988 2.57234 2.3108 7.32602 2.18214 7.52838L -1.51825e-06 6.16504C 0.156968 5.91295 3.93368 -2.45317e-09 12.4881 -2.45317e-09C 20.4189 -2.45317e-09 26.0793 5.61027 26.3169 13.6685C 27.2844 16.5641 28.5196 20.4072 28.5196 20.4072L 28.9579 21.7688L 26.322 22.3176L 26.322 32.198L 18.6271 30.8681L 28.5711 108.096L 26.0192 108.424Z" transform="translate(32.8359 0.452637)" fill="black"/>
</g>
</g>
<g id="Group_70">
<g id="Vector_61">
<path d="M 8.59645 3.44693L 5.75887e-07 23.6278L 18.2196 23.6278L 18.2196 -7.58848e-07L 8.59645 3.44693Z" transform="translate(24.4214 14.9651)" fill="black"/>
</g>
</g>
<g id="Group_71">
<g id="Vector_62">
<path d="M 17.5343 20.3489L 30.4667 6.21563L 37.3288 11.6458L 17.5343 39.1287L 1.2995 24.8308L 3.30923 18.9573L -3.1412e-07 -1.22986e-06L 17.5343 20.3489Z" transform="translate(57.542 40.2605)" fill="black"/>
</g>
</g>
<g id="Group_72">
<g id="Vector_63">
<path d="M 0.111448 16.8214L 0.017952 15.2565C -0.00349199 14.8981 -0.4521 6.39055 4.81196 0L 6.79853 1.63429C 3.43783 5.71488 2.73447 10.9281 2.60238 13.5082L 31.2112 6.00384L 31.8648 8.49215L 0.111448 16.8214Z" transform="translate(7.27539 72.2397)" fill="black"/>
</g>
</g>
<g id="Group_73">
<g id="Vector_64">
<path d="M 2.5724 -2.09344e-06L 0 -2.09344e-06L 0 26.8989L 2.5724 26.8989L 2.5724 -2.09344e-06Z" transform="matrix(0.974905 0.22262 -0.222774 0.97487 25.9839 82.2043)" fill="black"/>
</g>
</g>
<g id="Group_74">
<g id="Vector_65">
<path d="M 15.2012 2.61714C 15.2964 7.62634 6.79087 14.9138 1.5706e-07 15.9856L 1.5706e-07 1.68081C 1.5706e-07 1.68081 7.45134 -2.66387 15.2012 2.61714Z" transform="translate(39.5278 1.3374)" fill="black"/>
</g>
</g>
<g id="Group_75">
<g id="Vector_66">
<path d="M 6.7851 2.50974L 0.00538764 -2.09337e-07C 0.00538764 -2.09337e-07 -0.287109 4.2092 3.43813 5.16097C 6.40683 5.91895 6.7851 2.50974 6.7851 2.50974Z" transform="translate(52.0444 21.5913)" fill="black"/>
</g>
</g>
<g id="Group_76">
<g id="Vector_67">
<path d="M 0.91437 14.183L -3.1412e-07 11.7779C 7.19573 9.04263 9.25263 3.8868 8.8289 0.303536L 11.3842 4.44842e-07C 12.0867 5.93095 7.97715 11.4966 0.91437 14.183Z" transform="translate(22.9097 19.2976)" fill="black"/>
</g>
</g>
<g id="Group_77">
<g id="Vector_68">
<path d="M 1.94196 22.1315L -3.1412e-06 20.4432L 5.81646 13.7603C 4.51438 5.44392 10.0718 0.222935 10.3145 -5.23343e-07L 12.0566 1.89238L 11.1852 0.945763L 12.0592 1.88981C 11.8542 2.08188 7.04219 6.65978 8.45235 13.8958L 8.57243 14.5123L 1.94196 22.1315Z" transform="translate(83.4941 31.0952)" fill="black"/>
</g>
</g>
<g id="Group_78">
<g id="Vector_69">
<path d="M 15.3427 8.82528L -6.28241e-07 11.3496L 1.50193 5.77706C 1.50193 5.77706 3.85133 1.84996 7.40331 0.614377C 12.9882 -1.32945 18.338 1.96057 18.338 1.96057L 15.3427 8.82528Z" transform="translate(28.6646 68.1382)" fill="white"/>
</g>
</g>
<g id="Group_79">
<g id="Vector_70">
<path d="M 2.45404 12.1114L -8.90008e-07 11.3363C 1.01644 8.12087 3.78271 2.37084 10.8987 -1.04669e-06L 11.7127 2.44029C 5.67922 4.451 3.32124 9.36245 2.45404 12.1114Z" transform="translate(29.5825 62.8337)" fill="black"/>
</g>
</g>
<g id="Group_80">
<g id="Vector_71">
<path d="M 3.43103 -6.01845e-07L 8.63831e-07 1.92925L 3.43103 4.35926L 3.43103 -6.01845e-07Z" transform="translate(51.6963 13.75)" fill="black"/>
</g>
</g>
<g id="Group_81">
<g id="Vector_72">
<path d="M 0.391995 8.05227L -7.06771e-07 5.50995C 7.5071 4.35497 9.67294 0.17749 9.76214 -1.57003e-06L 12.0789 1.11982C 11.9709 1.34533 9.32469 6.67864 0.391995 8.05227Z" transform="translate(41.3345 64.1326)" fill="black"/>
</g>
</g>
<g id="Group_82">
<g id="Vector_73">
<path d="M 2.57157 0L 0 0L 0 14.0561L 2.57157 14.0561L 2.57157 0Z" transform="matrix(0.36612 0.930568 -0.930658 0.36589 41.3457 13.9829)" fill="black"/>
</g>
</g>
<g id="Group_83">
<g id="Vector_74">
<path d="M 1.9351 7.42548L 1.41354e-06 5.7286C 4.15498 0.992923 9.15142 0.0377286 9.36157 9.68186e-07L 9.82648 2.52947C 9.78273 2.5389 5.47335 3.39206 1.9351 7.42548Z" transform="translate(96.1733 31.825)" fill="black"/>
</g>
</g>
<g id="Group_84">
<g id="Vector_75">
<path d="M 1.15111 7.96996L -1.2303e-06 5.66858C 3.21487 4.06172 3.79815 0.0411574 3.80416 0L 6.35427 0.348123C 6.32339 0.567629 5.56771 5.76204 1.15111 7.96996Z" transform="translate(50.4609 0)" fill="black"/>
</g>
</g>
<g id="Group_85">
<g id="Vector_76">
<path d="M 21.4372 0L 0 0L 0 2.57402L 21.4372 2.57402L 21.4372 0Z" transform="matrix(0.141556 0.98993 -0.989945 0.141455 43.915 14.7815)" fill="black"/>
</g>
</g>
<g id="Group_86">
<g id="Vector_77">
<path d="M 1.56283 13.6797L 8.63831e-07 11.6364C 3.07335 9.287 3.95512 5.26472 2.35969 0.878885L 4.77857 1.88404e-06C 6.74798 5.41649 5.51624 10.6581 1.56283 13.6797Z" transform="translate(42.7969 64.948)" fill="black"/>
</g>
</g>
<g id="Group_87">
<g id="Vector_78">
<path d="M 6.64762 13.2904C 10.319 13.2904 13.2952 10.3153 13.2952 6.64521C 13.2952 2.97516 10.319 0 6.64762 0C 2.97624 0 0 2.97516 0 6.64521C 0 10.3153 2.97624 13.2904 6.64762 13.2904Z" transform="translate(22.3486 14.405)" fill="black"/>
</g>
</g>
<g id="Group_88">
<g id="Vector_79">
<path d="M 3.09736 13.732L 1.47363 11.7359C 4.14555 9.56567 5.02989 7.22398 4.14554 4.61735L 1.99686 7.25742L -3.66474e-07 5.63428L 4.58643 8.11182e-07L 5.53168 1.56484C 8.1933 5.97383 7.32954 10.2945 3.09736 13.732Z" transform="translate(96.2603 38.0774)" fill="black"/>
</g>
</g>
</g>
</g>
</g>
</svg>

