<svg width="97" height="98" viewBox="0 0 97 98" version="1.1" xmlns="http://www.w3.org/2000/svg" xmlns:xlink="http://www.w3.org/1999/xlink">
<g id="Canvas" fill="none">
<g id="Draft_07-13">
<g id="Group">
<g id="Group_2">
<g id="Vector">
<path d="M 24.6567 27.7465L 18.9872 30.3119L 4.20252 26.6757L -5.27497e-07 0L 32.0224 0L 24.6567 27.7465Z" transform="translate(12.2397 0)" fill="#46B4BE"/>
</g>
</g>
<g id="Group_3">
<g id="Vector_2">
<path d="M 50.9946 1.7027L 6.59837 0L 5.38964e-07 24.7838L 54.907 18.6245L 50.9946 1.7027Z" transform="translate(23.6904 73.2162)" fill="#FFB946"/>
</g>
</g>
<g id="Group_4">
<g id="Vector_3">
<path d="M 8.73044 -4.15699e-07L -1.63409e-07 21.3776L 46.1901 21.3776L 32.8844 -4.15699e-07L 8.73044 -4.15699e-07Z" transform="translate(4.79346 66.9738)" fill="#464BD7"/>
</g>
</g>
<g id="Group_5">
<g id="Vector_4">
<path d="M 19.5862 52.0936L 26.8512 15.8654L 17.0355 -2.54038e-07L 6.43379 -2.54038e-07C 6.43379 -2.54038e-07 15.8278 12.1444 13.1975 32.7782C 7.43256 32.7782 -4.24291e-07 32.7782 -4.24291e-07 32.7782L 0.175857 52.0929L 19.5862 52.0929L 19.5862 52.0936Z" transform="translate(17.1475 34.0177)" fill="#464BD7"/>
</g>
</g>
<g id="Group_6">
<g id="Vector_5">
<path d="M 27.7094 12.0941L -5.73366e-08 12.0941C -5.73366e-08 12.0941 1.04387 9.95551 3.05118 6.258C 5.67776 1.41778 12.6436 -0.996266 17.7615 0.386328C 24.9761 2.33573 33.9177 4.12395 33.9177 4.12395L 27.7094 12.0941Z" transform="translate(7.48145 54.5376)" fill="#464BD7"/>
</g>
</g>
<g id="Group_7">
<g id="Vector_6">
<path d="M 5.63642 4.35135L 26.9338 0L 31.2002 60.3672L 4.76014 54.1081L -1.23847e-06 33.8649L 5.63642 4.35135Z" transform="translate(51.7637 3.5946)" fill="#46B4BE"/>
</g>
</g>
<g id="Group_8">
<g id="Vector_7">
<path d="M 23.2972 23.8378L 11.0226 4.41492L -1.23847e-06 0L 8.07887 31.7641L 23.1852 31.7641L 23.2972 23.8378Z" transform="translate(61.5332 31.5946)" fill="white"/>
</g>
</g>
<g id="Group_9">
<g id="Group_10">
<g id="Group_11">
<g id="Vector_8">
<path d="M 0.90784 1.82832C 1.40923 1.82832 1.81568 1.41904 1.81568 0.914162C 1.81568 0.409284 1.40923 0 0.90784 0C 0.406454 0 0 0.409284 0 0.914162C 0 1.41904 0.406454 1.82832 0.90784 1.82832Z" transform="translate(10.6846 39.0374)" fill="black"/>
</g>
</g>
<g id="Group_12">
<g id="Vector_9">
<path d="M 1.73057 1.29841C 1.51939 1.75549 0.980549 1.95452 0.525126 1.74035C 0.0727093 1.52846 -0.127196 0.985111 0.0847333 0.526517C 0.295911 0.0694355 0.837759 -0.126565 1.29018 0.0853273C 1.74635 0.299489 1.9425 0.840571 1.73057 1.29841Z" transform="translate(17.0073 42.004)" fill="black"/>
</g>
</g>
<g id="Group_13">
<g id="Vector_10">
<path d="M 1.73005 1.29915C 1.51963 1.75623 0.978532 1.95374 0.523861 1.74109C 0.0714439 1.5292 -0.126206 0.985095 0.0842204 0.527257C 0.29615 0.0694191 0.837246 -0.126581 1.28966 0.0853113C 1.74283 0.297203 1.94198 0.841311 1.73005 1.29915Z" transform="translate(23.332 44.969)" fill="black"/>
</g>
</g>
<g id="Group_14">
<g id="Vector_11">
<path d="M 1.72955 1.29906C 1.51837 1.7569 0.977273 1.9529 0.524105 1.74101C 0.0701848 1.52912 -0.125965 0.985767 0.0844616 0.527173C 0.296391 0.0700922 0.835233 -0.127421 1.2899 0.0859839C 1.74232 0.297876 1.94073 0.841224 1.72955 1.29906Z" transform="translate(29.6548 47.9341)" fill="black"/>
</g>
</g>
<g id="Group_15">
<g id="Vector_12">
<path d="M 0.906338 1.82529C 1.40689 1.82529 1.81267 1.41669 1.81267 0.912651C 1.81267 0.408609 1.40689 0 0.906338 0C 0.405782 0 0 0.408609 0 0.912651C 0 1.41669 0.405782 1.82529 0.906338 1.82529Z" transform="translate(35.9795 50.8995)" fill="black"/>
</g>
</g>
</g>
<g id="Group_16">
<g id="Group_17">
<g id="Vector_13">
<path d="M 1.73069 1.29831C 1.51876 1.75615 0.977664 1.9529 0.525247 1.74101C 0.072079 1.5276 -0.127075 0.985009 0.0848546 0.527171C 0.296784 0.0700904 0.83713 -0.127423 1.2918 0.0859821C 1.74347 0.297117 1.94187 0.840469 1.73069 1.29831Z" transform="translate(16.6758 34.8202)" fill="black"/>
</g>
</g>
<g id="Group_18">
<g id="Vector_14">
<path d="M 1.73115 1.29748C 1.51922 1.75532 0.981885 1.95359 0.527214 1.74094C 0.0732942 1.52829 -0.127362 0.98343 0.0845679 0.526349C 0.296497 0.0685111 0.838344 -0.126733 1.29302 0.085916C 1.74769 0.298565 1.94308 0.839647 1.73115 1.29748Z" transform="translate(22.998 37.786)" fill="black"/>
</g>
</g>
<g id="Group_19">
<g id="Vector_15">
<path d="M 0.907089 1.82681C 1.40806 1.82681 1.81418 1.41786 1.81418 0.913405C 1.81418 0.408945 1.40806 0 0.907089 0C 0.406118 0 0 0.408945 0 0.913405C 0 1.41786 0.406118 1.82681 0.907089 1.82681Z" transform="translate(29.3247 40.7506)" fill="black"/>
</g>
</g>
<g id="Group_20">
<g id="Vector_16">
<path d="M 0.905584 1.82378C 1.40572 1.82378 1.81117 1.41552 1.81117 0.911891C 1.81117 0.408267 1.40572 0 0.905584 0C 0.405443 0 0 0.408267 0 0.911891C 0 1.41552 0.405443 1.82378 0.905584 1.82378Z" transform="translate(35.6494 43.7163)" fill="black"/>
</g>
</g>
</g>
<g id="Group_21">
<g id="Group_22">
<g id="Vector_17">
<path d="M 0.907088 1.82681C 1.40806 1.82681 1.81418 1.41786 1.81418 0.913403C 1.81418 0.408944 1.40806 -2.40182e-06 0.907088 -2.40182e-06C 0.406117 -2.40182e-06 0 0.408944 0 0.913403C 0 1.41786 0.406117 1.82681 0.907088 1.82681Z" transform="translate(5.3418 50.5914)" fill="black"/>
</g>
</g>
<g id="Group_23">
<g id="Vector_18">
<path d="M 0.90784 1.82832C 1.40923 1.82832 1.81568 1.41904 1.81568 0.914161C 1.81568 0.409283 1.40923 0 0.90784 0C 0.406454 0 0 0.409283 0 0.914161C 0 1.41904 0.406454 1.82832 0.90784 1.82832Z" transform="translate(11.6646 53.5541)" fill="black"/>
</g>
</g>
<g id="Group_24">
<g id="Vector_19">
<path d="M 1.7305 1.29989C 1.51932 1.75773 0.978227 1.95297 0.524307 1.74032C 0.0711393 1.52843 -0.126512 0.985839 0.0846659 0.528001C 0.295844 0.0694062 0.83694 -0.126593 1.29011 0.0852987C 1.74403 0.298704 1.94318 0.841296 1.7305 1.29989Z" transform="translate(17.9888 56.52)" fill="black"/>
</g>
</g>
<g id="Group_25">
<g id="Vector_20">
<path d="M 0.907087 1.82681C 1.40806 1.82681 1.81418 1.41787 1.81418 0.913408C 1.81418 0.408948 1.40806 0 0.907087 0C 0.406116 0 0 0.408948 0 0.913408C 0 1.41787 0.406116 1.82681 0.907087 1.82681Z" transform="translate(24.313 59.4863)" fill="black"/>
</g>
</g>
<g id="Group_26">
<g id="Vector_21">
<path d="M 0.907088 1.82681C 1.40806 1.82681 1.81418 1.41787 1.81418 0.913407C 1.81418 0.408947 1.40806 0 0.907088 0C 0.406117 0 0 0.408947 0 0.913407C 0 1.41787 0.406117 1.82681 0.907088 1.82681Z" transform="translate(30.6357 62.4513)" fill="black"/>
</g>
</g>
</g>
<g id="Group_27">
<g id="Group_28">
<g id="Vector_22">
<path d="M 0.907839 1.82832C 1.40923 1.82832 1.81568 1.41904 1.81568 0.914161C 1.81568 0.409283 1.40923 0 0.907839 0C 0.406453 0 0 0.409283 0 0.914161C 0 1.41904 0.406453 1.82832 0.907839 1.82832Z" transform="translate(11.334 46.3695)" fill="black"/>
</g>
</g>
<g id="Group_29">
<g id="Vector_23">
<path d="M 1.73052 1.29875C 1.51935 1.75584 0.982006 1.95486 0.527335 1.74221C 0.0726636 1.52881 -0.127241 0.984697 0.0846889 0.526103C 0.295115 0.069778 0.839217 -0.126979 1.29239 0.0856694C 1.74706 0.299075 1.94245 0.841673 1.73052 1.29875Z" transform="translate(17.6562 49.3365)" fill="black"/>
</g>
</g>
<g id="Group_30">
<g id="Vector_24">
<path d="M 0.907088 1.82681C 1.40806 1.82681 1.81418 1.41786 1.81418 0.913405C 1.81418 0.408945 1.40806 0 0.907088 0C 0.406117 0 0 0.408945 0 0.913405C 0 1.41786 0.406117 1.82681 0.907088 1.82681Z" transform="translate(23.9819 52.3018)" fill="black"/>
</g>
</g>
<g id="Group_31">
<g id="Vector_25">
<path d="M 0.906337 1.8253C 1.40689 1.8253 1.81267 1.41669 1.81267 0.912648C 1.81267 0.408606 1.40689 0 0.906337 0C 0.405782 0 0 0.408606 0 0.912648C 0 1.41669 0.405782 1.8253 0.906337 1.8253Z" transform="translate(30.3062 55.2675)" fill="black"/>
</g>
</g>
</g>
<g id="Group_32">
<g id="Group_33">
<g id="Vector_26">
<path d="M 0.90784 1.82832C 1.40923 1.82832 1.81568 1.41904 1.81568 0.914163C 1.81568 0.409285 1.40923 0 0.90784 0C 0.406454 0 0 0.409285 0 0.914163C 0 1.41904 0.406454 1.82832 0.90784 1.82832Z" transform="translate(5.99072 57.923)" fill="black"/>
</g>
</g>
<g id="Group_34">
<g id="Vector_27">
<path d="M 1.72974 1.29962C 1.51931 1.75594 0.981973 1.95421 0.527302 1.74156C 0.0726302 1.52816 -0.126523 0.98329 0.0839029 0.526965C 0.295832 0.0691278 0.83768 -0.126872 1.29235 0.0857763C 1.74702 0.298425 1.94242 0.840265 1.72974 1.29962Z" transform="translate(12.3145 60.8892)" fill="black"/>
</g>
</g>
<g id="Group_35">
<g id="Vector_28">
<path d="M 0.906337 1.8253C 1.40689 1.8253 1.81267 1.41669 1.81267 0.912648C 1.81267 0.408606 1.40689 -2.0785e-06 0.906337 -2.0785e-06C 0.405781 -2.0785e-06 0 0.408606 0 0.912648C 0 1.41669 0.405781 1.8253 0.906337 1.8253Z" transform="translate(18.6401 63.8552)" fill="black"/>
</g>
</g>
<g id="Group_36">
<g id="Vector_29">
<path d="M 1.72846 1.29984C 1.51728 1.75692 0.977689 1.95367 0.52377 1.74102C 0.0683469 1.52838 -0.126295 0.98654 0.0856347 0.528702C 0.296812 0.071621 0.83415 -0.127411 1.28882 0.0852379C 1.74349 0.297887 1.93964 0.840484 1.72846 1.29984Z" transform="translate(24.9629 66.819)" fill="black"/>
</g>
</g>
</g>
<g id="Group_37">
<g id="Group_38">
<g id="Vector_30">
<path d="M 0.907088 1.82681C 1.40806 1.82681 1.81418 1.41787 1.81418 0.913405C 1.81418 0.408945 1.40806 0 0.907088 0C 0.406117 0 0 0.408945 0 0.913405C 0 1.41787 0.406117 1.82681 0.907088 1.82681Z" transform="translate(0.649414 69.4756)" fill="black"/>
</g>
</g>
<g id="Group_39">
<g id="Vector_31">
<path d="M 1.73115 1.29885C 1.51922 1.75593 0.982637 1.95495 0.527215 1.7423C 0.0732947 1.5289 -0.127362 0.984031 0.084567 0.527707C 0.296496 0.0691119 0.838345 -0.126888 1.29302 0.0857608C 1.74844 0.299166 1.94384 0.839494 1.73115 1.29885Z" transform="translate(6.9707 72.4403)" fill="black"/>
</g>
</g>
<g id="Group_40">
<g id="Vector_32">
<path d="M 1.72926 1.29959C 1.51808 1.75667 0.978485 1.95418 0.523814 1.74078C 0.069894 1.52813 -0.126253 0.985534 0.0849248 0.528453C 0.297606 0.0691012 0.834945 -0.126904 1.28962 0.0857448C 1.74429 0.298394 1.94119 0.840991 1.72926 1.29959Z" transform="translate(13.2969 75.4053)" fill="black"/>
</g>
</g>
<g id="Group_41">
<g id="Vector_33">
<path d="M 1.72834 1.29945C 1.51716 1.75653 0.976817 1.95328 0.523649 1.74139C 0.0689776 1.52874 -0.126418 0.98615 0.085511 0.529069C 0.29744 0.0697183 0.834028 -0.127037 1.2887 0.0856113C 1.74262 0.299017 1.94027 0.840095 1.72834 1.29945Z" transform="translate(19.6201 78.3704)" fill="black"/>
</g>
</g>
</g>
<g id="Group_42">
<g id="Group_43">
<g id="Vector_34">
<path d="M 1.72944 1.30084C 1.51827 1.75792 0.978674 1.95392 0.524754 1.74127C 0.070834 1.52786 -0.126817 0.986786 0.0851129 0.528948C 0.297042 0.0703532 0.835884 -0.127165 1.29056 0.0854837C 1.74372 0.299646 1.94213 0.841486 1.72944 1.30084Z" transform="translate(0 62.1404)" fill="black"/>
</g>
</g>
<g id="Group_44">
<g id="Vector_35">
<path d="M 1.73088 1.29989C 1.5197 1.75773 0.98161 1.95449 0.526187 1.74032C 0.0730187 1.52843 -0.127638 0.986596 0.0850431 0.528002C 0.296221 0.0694067 0.83882 -0.126593 1.29124 0.0852993C 1.74666 0.297948 1.94356 0.841296 1.73088 1.29989Z" transform="translate(6.32275 65.1063)" fill="black"/>
</g>
</g>
<g id="Group_45">
<g id="Vector_36">
<path d="M 1.73071 1.30201C 1.52028 1.75909 0.979933 1.95357 0.52451 1.74168C 0.072093 1.52903 -0.12706 0.987198 0.0848696 0.52936C 0.297551 0.0700088 0.837896 -0.126746 1.29031 0.0851455C 1.74423 0.298551 1.94339 0.841897 1.73071 1.30201Z" transform="translate(12.647 68.0707)" fill="black"/>
</g>
</g>
<g id="Group_46">
<g id="Vector_37">
<path d="M 1.73035 1.30115C 1.51917 1.75899 0.978827 1.95347 0.525658 1.74158C 0.0717386 1.52969 -0.126663 0.987853 0.0845146 0.530015C 0.297196 0.0706629 0.836789 -0.127606 1.29071 0.0857996C 1.74388 0.299205 1.94228 0.84104 1.73035 1.30115Z" transform="translate(18.9697 71.0358)" fill="black"/>
</g>
</g>
<g id="Group_47">
<g id="Vector_38">
<path d="M 1.72917 1.30037C 1.51724 1.75745 0.980654 1.95496 0.525982 1.74231C 0.0720628 1.52891 -0.127089 0.987074 0.0848402 0.529236C 0.297521 0.0706416 0.837114 -0.12687 1.29103 0.0850215C 1.7457 0.29994 1.9411 0.840261 1.72917 1.30037Z" transform="translate(25.2935 74.0015)" fill="black"/>
</g>
</g>
</g>
</g>
<g id="Group_48">
<g id="Group_49">
<g id="Group_50">
<g id="Vector_39">
<path d="M 0.907842 1.82832C 1.40923 1.82832 1.81568 1.41904 1.81568 0.914162C 1.81568 0.409285 1.40923 0 0.907842 0C 0.406455 0 0 0.409285 0 0.914162C 0 1.41904 0.406455 1.82832 0.907842 1.82832Z" transform="translate(68.9917 11.5587)" fill="black"/>
</g>
</g>
<g id="Group_51">
<g id="Vector_40">
<path d="M 1.73057 1.29841C 1.51939 1.75549 0.980549 1.95452 0.525127 1.74035C 0.07271 1.52846 -0.127194 0.985111 0.0847355 0.526516C 0.295913 0.0694349 0.837758 -0.126565 1.29017 0.0853266C 1.74635 0.300246 1.9425 0.841327 1.73057 1.29841Z" transform="translate(75.3145 14.5254)" fill="black"/>
</g>
</g>
<g id="Group_52">
<g id="Vector_41">
<path d="M 1.73005 1.29915C 1.51963 1.75623 0.978535 1.95374 0.523863 1.7411C 0.0714461 1.5292 -0.12621 0.985096 0.0842169 0.527258C 0.296147 0.0694199 0.837246 -0.12658 1.28966 0.0853121C 1.74283 0.297961 1.94198 0.842069 1.73005 1.29915Z" transform="translate(81.6392 17.4904)" fill="black"/>
</g>
</g>
</g>
<g id="Group_53">
<g id="Group_54">
<g id="Vector_42">
<path d="M 1.73115 1.29748C 1.51922 1.75532 0.981886 1.95359 0.527215 1.74094C 0.0732949 1.5283 -0.127359 0.983431 0.0845701 0.52635C 0.296499 0.068512 0.838343 -0.126731 1.29301 0.0859175C 1.74769 0.299323 1.94233 0.839647 1.73115 1.29748Z" transform="translate(81.3052 10.3074)" fill="black"/>
</g>
</g>
</g>
<g id="Group_55">
<g id="Group_56">
<g id="Vector_43">
<path d="M 0.907843 1.82832C 1.40923 1.82832 1.81568 1.41904 1.81568 0.914162C 1.81568 0.409285 1.40923 0 0.907843 0C 0.406456 0 2.10999e-06 0.409285 2.10999e-06 0.914162C 2.10999e-06 1.41904 0.406456 1.82832 0.907843 1.82832Z" transform="translate(69.9717 26.0763)" fill="black"/>
</g>
</g>
<g id="Group_57">
<g id="Vector_44">
<path d="M 1.7305 1.29989C 1.51932 1.75773 0.978228 1.95297 0.524308 1.74032C 0.07114 1.52843 -0.12651 0.985837 0.0846681 0.528C 0.295846 0.0694051 0.83694 -0.126594 1.29011 0.0852977C 1.74403 0.297946 1.94318 0.84054 1.7305 1.29989Z" transform="translate(76.2959 29.0422)" fill="black"/>
</g>
</g>
</g>
<g id="Group_58">
<g id="Group_59">
<g id="Vector_45">
<path d="M 0.90784 1.82832C 1.40923 1.82832 1.81568 1.41904 1.81568 0.914163C 1.81568 0.409285 1.40923 0 0.90784 0C 0.406454 0 0 0.409285 0 0.914163C 0 1.41904 0.406454 1.82832 0.90784 1.82832Z" transform="translate(69.6411 18.8917)" fill="black"/>
</g>
</g>
<g id="Group_60">
<g id="Vector_46">
<path d="M 1.73052 1.29875C 1.51934 1.75583 0.982006 1.95486 0.527334 1.74221C 0.0726629 1.52881 -0.12724 0.984697 0.0846896 0.526103C 0.295116 0.0697784 0.839215 -0.126979 1.29238 0.0856697C 1.74705 0.298318 1.94245 0.840913 1.73052 1.29875Z" transform="translate(75.9634 21.8588)" fill="black"/>
</g>
</g>
<g id="Group_61">
<g id="Vector_47">
<path d="M 0.90709 1.82681C 1.40806 1.82681 1.81418 1.41786 1.81418 0.913404C 1.81418 0.408945 1.40806 0 0.90709 0C 0.406119 0 0 0.408945 0 0.913404C 0 1.41786 0.406119 1.82681 0.90709 1.82681Z" transform="translate(82.2891 24.8231)" fill="black"/>
</g>
</g>
</g>
</g>
<g id="Group_62">
<g id="Vector_48">
<path d="M -1.35314e-06 2.41103L 2.76485 5.19438L 7.83989 3.92908L 8.00221 2.78259L 6.37592 -6.5819e-07L 2.96175 2.45643L -1.35314e-06 2.41103Z" transform="translate(44.3687 18.4551)" fill="black"/>
</g>
</g>
<g id="Group_63">
<g id="Vector_49">
<path d="M 5.96301e-07 27.1116L 13.4079 27.1116L 19.8845 1.94941L 19.5336 1.03925e-07L 7.09062 1.03925e-07L 5.96301e-07 27.1116Z" transform="translate(25.3213 3.71265)" fill="black"/>
</g>
</g>
<g id="Group_64">
<g id="Vector_50">
<path d="M 3.20524 0L 3.20524 3.5L -1.23847e-06 1.89189L 3.20524 0Z" transform="translate(46.7847 12.9595)" fill="black"/>
</g>
</g>
<g id="Group_65">
<g id="Vector_51">
<path d="M 41.3142 11.5201L 4.12824e-07 11.5201L 4.12824e-07 9.24984L 41.3142 9.24984C 44.7765 9.24984 45.897 6.64584 45.897 5.38508C 45.897 4.13341 45.2056 2.27027 43.3005 2.27027C 41.7313 2.27027 40.8889 3.528 40.8776 4.20227L 38.623 4.16368C 38.6568 2.15297 40.5447 2.67895e-06 43.3005 2.67895e-06C 46.4509 2.67895e-06 48.1516 2.77427 48.1516 5.38508C 48.1508 7.93232 46.03 11.5201 41.3142 11.5201Z" transform="translate(48.8486 53.399)" fill="black"/>
</g>
</g>
<g id="Group_66">
<g id="Vector_52">
<path d="M -5.73366e-07 3.97373L 9.64053 0L 11.1436 5.86487L -5.73366e-07 3.97373Z" transform="translate(44.002 24.2162)" fill="black"/>
</g>
</g>
<g id="Group_67">
<g id="Vector_53">
<path d="M 18.6445 10.6324L 3.21085e-07 10.6324L 0.913098 4.61888e-08L 22.2105 5.88378L 18.6445 10.6324Z" transform="translate(51.7817 53.1516)" fill="black"/>
</g>
</g>
<g id="Group_68">
<g id="Vector_54">
<path d="M 15.3153 27.7412C 14.1369 24.0308 12.8059 19.3987 11.7365 15.677C 10.9873 13.0677 10.3402 10.8141 9.96143 9.63351C 8.54331 5.20724 6.39471 2.91276 3.10153 2.38757L 8.22617 18.9227L 6.07456 19.6L 7.33909e-07 -1.61661e-07L 1.53236 -1.61661e-07C 6.72087 -1.61661e-07 10.1801 2.92335 12.107 8.9373C 12.4963 10.1519 13.1479 12.4206 13.9024 15.0474C 14.9673 18.7555 16.2938 23.3709 17.4624 27.051L 15.3153 27.7412Z" transform="translate(62.396 28.983)" fill="black"/>
</g>
</g>
<g id="Group_69">
<g id="Vector_55">
<path d="M 2.9347 6.15394C 2.78515 6.01773 1.4324 4.71686 2.56868e-06 0.781728L 2.11629 1.01615e-06C 3.34578 3.37665 4.44601 4.46865 4.45653 4.47924L 2.9347 6.15394Z" transform="translate(80.0117 61.7263)" fill="black"/>
</g>
</g>
<g id="Group_70">
<g id="Vector_56">
<path d="M 8.3126 5.61981C 8.20062 5.473 5.49063 2.00554 0.11724 2.28705L -2.43107e-06 0.0198059C 6.59762 -0.329816 9.97046 4.0624 10.1102 4.25008L 8.3126 5.61981Z" transform="translate(62.2769 37.1945)" fill="black"/>
</g>
</g>
<g id="Group_71">
<g id="Vector_57">
<path d="M 14.3661 12.5478C 14.212 12.1686 10.4747 3.24649 1.83477e-07 2.25967L 0.209675 -1.15472e-06C 12.0807 1.11773 16.2825 11.2643 16.4553 11.6957L 14.3661 12.5478Z" transform="translate(70.6011 52.1973)" fill="black"/>
</g>
</g>
<g id="Group_72">
<g id="Vector_58">
<path d="M 2.26632 0L 0 0L 0 9.68454L 2.26632 9.68454L 2.26632 0Z" transform="matrix(0.54345 0.839441 -0.835974 0.54877 78.2715 55.5671)" fill="black"/>
</g>
</g>
<g id="Group_73">
<g id="Vector_59">
<path d="M 2.25525 0L 0 0L 0 30.9964L 2.25525 30.9964L 2.25525 0Z" transform="matrix(0.975008 0.22217 -0.219256 0.975667 45.6079 27.3823)" fill="black"/>
</g>
</g>
<g id="Group_74">
<g id="Vector_60">
<path d="M 11.8064 21.0333C 11.7794 10.7997 7.69634 4.28324 -5.27497e-07 2.19157L 0.586939 1.2471e-06C 9.37074 2.38757 14.0309 9.66 14.061 21.028L 11.8064 21.0333Z" transform="translate(17.0303 35.7545)" fill="black"/>
</g>
</g>
<g id="Group_75">
<g id="Vector_61">
<path d="M 14.21 0L 0 0L 0 2.25896L 14.21 2.25896L 14.21 0Z" transform="matrix(0.530172 0.84789 -0.844556 0.535468 32.123 28.5054)" fill="black"/>
</g>
</g>
<g id="Group_76">
<g id="Vector_62">
<path d="M -1.23847e-06 7.08778L 12.9886 7.08778C 12.9886 7.08778 11.5163 2.70238 6.30152 1.06249C 4.04695 0.353407 1.75932 1.61661e-06 1.75932 1.61661e-06L -1.23847e-06 7.08778Z" transform="translate(41.9937 59.886)" fill="white"/>
</g>
</g>
<g id="Group_77">
<g id="Vector_63">
<path d="M 29.8828 26.0271L 19.4404 24.4092L 19.7838 22.1654L 27.6282 23.3808L 27.6282 15.7716L 29.8061 15.7716L 27.3938 10.0354L 27.3938 9.80454C 27.3938 6.45514 26.3266 2.43903 21.2433 2.32249C 17.4143 2.2347 13.6244 2.28011 12.0371 2.30735C 11.36 4.23784 9.51879 9.4746 8.45989 12.4449C 7.02298 16.4761 4.27692 19.0809 0.519302 19.9769L 2.17879e-07 17.7671C 3.76438 16.8689 5.5252 13.9606 6.33834 11.6775C 7.65276 7.9906 10.1734 0.808974 10.1734 0.808218L 10.4326 0.0696232L 11.2097 0.051461C 11.2593 0.0499474 16.2449 -0.0635661 21.2959 0.051461C 26.5355 0.172542 29.5702 3.63698 29.6468 9.5707L 33.2083 18.0418L 29.8821 18.0418L 29.8821 26.0271L 29.8828 26.0271Z" transform="translate(23.7642 3.64001)" fill="black"/>
</g>
</g>
<g id="Group_78">
<g id="Vector_64">
<path d="M 2.81671 1.84755e-07L 7.26121 0.0749184L 10.0125 11.8039L 2.29347e-07 9.03795L 2.81671 1.84755e-07Z" transform="translate(39.4966 49.4307)" fill="black"/>
</g>
</g>
<g id="Group_79">
<g id="Vector_65">
<path d="M 4.03943 2.17568C 4.03943 2.17568 17.5255 0.407892 21.7273 0C 27.3637 1.7027 31.4971 8.89189 32.1276 14.9459C 32.0607 14.9459 -7.10974e-07 18.3514 -7.10974e-07 18.3514L 4.03943 2.17568Z" transform="translate(30.7876 73.4054)" fill="black"/>
</g>
</g>
<g id="Group_80">
<g id="Vector_66">
<path d="M 9.76454 17.1882L -7.10974e-07 24.9601L 5.95056 0.0885426L 12.228 -1.29329e-06L 9.76454 17.1882Z" transform="translate(30.7876 66.7966)" fill="black"/>
</g>
</g>
<g id="Group_81">
<g id="Vector_67">
<path d="M 30.5449 14.8892C 28.9938 10.9836 25.3293 8.20627 20.2272 7.07038C 9.97797 4.78876 0.0984492 2.22335 -2.98151e-07 2.19762L 0.563642 2.72514e-06C 0.662091 0.0249757 10.5048 2.5813 20.7142 4.85384C 26.5656 6.15773 30.8004 9.42162 32.6371 14.0469L 30.5449 14.8892Z" transform="translate(23.9292 53.5776)" fill="black"/>
</g>
</g>
<g id="Group_82">
<g id="Vector_68">
<path d="M 3.36983 8.34703C 3.20675 4.40508 0.0323158 1.80638 3.4402e-07 1.78065L 1.39934 -2.17087e-06C 1.56317 0.130917 5.41622 3.248 5.62289 8.25167L 3.36983 8.34703Z" transform="translate(47.8311 64.9169)" fill="black"/>
</g>
</g>
<g id="Group_83">
<g id="Vector_69">
<path d="M 2.2558 0L 0 0L 0 26.9405L 2.2558 26.9405L 2.2558 0Z" transform="matrix(0.935078 0.354442 -0.350159 0.93669 17.124 66.6929)" fill="black"/>
</g>
</g>
<g id="Group_84">
<g id="Vector_70">
<path d="M 16.3794 5.46454L -7.10974e-07 7.37762L 9.16332 -4.15699e-07L 11.1 0.176325L 16.3794 5.46454Z" transform="translate(33.3242 66.9738)" fill="white"/>
</g>
</g>
<g id="Group_85">
<g id="Vector_71">
<path d="M 0.201409 12.4282L 1.37608e-07 10.167L 47.4136 5.88378C 51.2741 5.14746 53.2349 3.33124 53.7707 -1.06234e-06L 55.996 0.362488C 54.9656 6.77827 49.5532 7.79232 47.7751 8.12605L 47.6691 8.14119L 0.201409 12.4282Z" transform="translate(36.5112 63.8113)" fill="black"/>
</g>
</g>
<g id="Group_86">
<g id="Vector_72">
<path d="M 34.3701 4.84097C 33.2744 3.136 32.1907 2.27027 29.3049 2.27027L 5.73366e-09 2.27027L 5.73366e-09 -4.15699e-07L 29.3049 -4.15699e-07C 32.6439 -4.15699e-07 34.5949 1.01178 36.264 3.60897L 34.3701 4.84097Z" transform="translate(11.0605 65.8386)" fill="black"/>
</g>
</g>
<g id="Group_87">
<g id="Vector_73">
<path d="M 9.89831 14.7068L 7.65426 14.4911C 8.31936 7.45708 4.15292 3.19351 6.8804e-07 2.20973L 0.517048 0C 5.75216 1.24032 10.6558 6.69049 9.89831 14.7068Z" transform="translate(15.4365 41.3379)" fill="black"/>
</g>
</g>
<g id="Group_88">
<g id="Vector_74">
<path d="M 0.546358 10.9208L -4.58693e-08 8.71859C 4.69101 7.5373 7.42054 4.60411 8.11344 1.73208e-08L 10.3432 0.339784C 9.51353 5.85881 6.12566 9.51773 0.546358 10.9208Z" transform="translate(40.0293 2.10071)" fill="black"/>
</g>
</g>
<g id="Group_89">
<g id="Vector_75">
<path d="M -1.23847e-06 23.8378L 5.16672 -2.54038e-07C 5.16672 -2.54038e-07 5.16672 0.0151352 6.28273 0.0151352C 10.1456 0.0151352 13.2486 1.72238 14.2789 6.43243C 15.5002 12.0135 18.2244 23.4595 18.2244 23.4595L 12.7759 29.5135L 8.43359 26.6023L -1.23847e-06 23.8378Z" transform="translate(40.1147 34.0177)" fill="black"/>
</g>
</g>
</g>
</g>
</g>
</svg>

