<svg width="160" height="160" viewBox="0 0 160 160" version="1.1" xmlns="http://www.w3.org/2000/svg" xmlns:xlink="http://www.w3.org/1999/xlink">
<g id="Canvas" fill="none">
<g id="Component">
<g id="01">
<g id="Group">
<g id="Vector">
<path d="M 6.35998 5.51802L 7.44962 21.0816L -1.35039e-06 24.0131L 1.09057 32.0804L 21.4399 -4.04459e-07L 6.35998 5.51802Z" transform="translate(92.4841 35.9111)" fill="#46B4BE"/>
</g>
<g id="Group_2">
<g id="Group_3">
<g id="Vector_2">
<path d="M 1.00945 2.03683C 1.56695 2.03683 2.0189 1.58087 2.0189 1.01841C 2.0189 0.455959 1.56695 0 1.00945 0C 0.451947 0 0 0.455959 0 1.01841C 0 1.58087 0.451947 2.03683 1.00945 2.03683Z" transform="translate(103.299 77.1777)" fill="black"/>
</g>
<g id="Vector_3">
<path d="M 1.01037 2.03868C 1.56838 2.03868 2.02074 1.58231 2.02074 1.01934C 2.02074 0.456375 1.56838 0 1.01037 0C 0.452358 0 0 0.456375 0 1.01934C 0 1.58231 0.452358 2.03868 1.01037 2.03868Z" transform="translate(111.06 77.1768)" fill="black"/>
</g>
<g id="Vector_4">
<path d="M 2.02166 1.01841C 2.02166 0.456658 1.5681 -5.10895e-07 1.00945 -5.10895e-07C 0.453559 -5.10895e-07 -2.13812e-06 0.455728 -2.13812e-06 1.01841C -2.13812e-06 1.5811 0.453559 2.03683 1.00945 2.03683C 1.5681 2.0359 2.02166 1.5811 2.02166 1.01841Z" transform="translate(118.823 77.1777)" fill="black"/>
</g>
<g id="Vector_5">
<path d="M 1.00945 2.03683C 1.56695 2.03683 2.01889 1.58087 2.01889 1.01841C 2.01889 0.455959 1.56695 0 1.00945 0C 0.451948 0 2.19439e-06 0.455959 2.19439e-06 1.01841C 2.19439e-06 1.58087 0.451948 2.03683 1.00945 2.03683Z" transform="translate(126.587 77.1777)" fill="black"/>
</g>
<g id="Vector_6">
<path d="M 1.00853 2.03496C 1.56552 2.03496 2.01705 1.57942 2.01705 1.01748C 2.01705 0.455543 1.56552 0 1.00853 0C 0.451533 0 0 0.455543 0 1.01748C 0 1.57942 0.451533 2.03496 1.00853 2.03496Z" transform="translate(134.35 77.1786)" fill="black"/>
</g>
</g>
<g id="Group_4">
<g id="Vector_7">
<path d="M 1.01037 2.03869C 1.56838 2.03869 2.02074 1.58231 2.02074 1.01934C 2.02074 0.456376 1.56838 0 1.01037 0C 0.452357 0 0 0.456376 0 1.01934C 0 1.58231 0.452357 2.03869 1.01037 2.03869Z" transform="translate(107.374 84.2805)" fill="black"/>
</g>
<g id="Vector_8">
<path d="M 2.02074 1.01841C 2.02074 0.455729 1.57179 -5.67661e-08 1.01406 -5.67661e-08C 0.456329 -5.67661e-08 -2.13812e-06 0.454799 -2.13812e-06 1.01841C -2.13812e-06 1.58203 0.455407 2.03682 1.01406 2.03682C 1.57179 2.03682 2.02074 1.58203 2.02074 1.01841Z" transform="translate(115.135 84.2814)" fill="black"/>
</g>
<g id="Vector_9">
<path d="M 1.00945 2.03682C 1.56695 2.03682 2.0189 1.58087 2.0189 1.01841C 2.0189 0.455959 1.56695 0 1.00945 0C 0.451947 0 0 0.455959 0 1.01841C 0 1.58087 0.451947 2.03682 1.00945 2.03682Z" transform="translate(122.901 84.2814)" fill="black"/>
</g>
<g id="Vector_10">
<path d="M 1.00853 2.03496C 1.56552 2.03496 2.01705 1.57942 2.01705 1.01748C 2.01705 0.455543 1.56552 0 1.00853 0C 0.451533 0 0 0.455543 0 1.01748C 0 1.57942 0.451533 2.03496 1.00853 2.03496Z" transform="translate(130.664 84.2823)" fill="black"/>
</g>
</g>
<g id="Group_5">
<g id="Vector_11">
<path d="M 1.00945 2.03682C 1.56695 2.03682 2.0189 1.58087 2.0189 1.01841C 2.0189 0.455959 1.56695 0 1.00945 0C 0.451947 0 0 0.455959 0 1.01841C 0 1.58087 0.451947 2.03682 1.00945 2.03682Z" transform="translate(103.299 62.9693)" fill="black"/>
</g>
<g id="Vector_12">
<path d="M 1.01037 2.03868C 1.56838 2.03868 2.02074 1.58231 2.02074 1.01934C 2.02074 0.456375 1.56838 0 1.01037 0C 0.452358 0 0 0.456375 0 1.01934C 0 1.58231 0.452358 2.03868 1.01037 2.03868Z" transform="translate(111.06 62.9683)" fill="black"/>
</g>
<g id="Vector_13">
<path d="M 2.02166 1.01841C 2.02166 0.455728 1.5681 -9.08258e-07 1.00945 -9.08258e-07C 0.453559 -9.08258e-07 -2.13812e-06 0.454798 -2.13812e-06 1.01841C -2.13812e-06 1.58203 0.453559 2.03682 1.00945 2.03682C 1.5681 2.03682 2.02166 1.58203 2.02166 1.01841Z" transform="translate(118.823 62.9692)" fill="black"/>
</g>
<g id="Vector_14">
<path d="M 1.00945 2.03682C 1.56695 2.03682 2.01889 1.58087 2.01889 1.01841C 2.01889 0.455959 1.56695 0 1.00945 0C 0.451948 0 2.19439e-06 0.455959 2.19439e-06 1.01841C 2.19439e-06 1.58087 0.451948 2.03682 1.00945 2.03682Z" transform="translate(126.587 62.9692)" fill="black"/>
</g>
<g id="Vector_15">
<path d="M 1.00853 2.03496C 1.56552 2.03496 2.01705 1.57942 2.01705 1.01748C 2.01705 0.455542 1.56552 0 1.00853 0C 0.451533 0 0 0.455542 0 1.01748C 0 1.57942 0.451533 2.03496 1.00853 2.03496Z" transform="translate(134.35 62.9702)" fill="black"/>
</g>
</g>
<g id="Group_6">
<g id="Vector_16">
<path d="M 1.01037 2.03868C 1.56838 2.03868 2.02074 1.58231 2.02074 1.01934C 2.02074 0.456375 1.56838 0 1.01037 0C 0.452357 0 0 0.456375 0 1.01934C 0 1.58231 0.452357 2.03868 1.01037 2.03868Z" transform="translate(107.374 70.073)" fill="black"/>
</g>
<g id="Vector_17">
<path d="M 2.02074 1.01841C 2.02074 0.455728 1.57179 -9.65024e-07 1.01406 -9.65024e-07C 0.456329 -9.65024e-07 -2.13812e-06 0.454798 -2.13812e-06 1.01841C -2.13812e-06 1.58017 0.455407 2.03682 1.01406 2.03682C 1.57179 2.03682 2.02074 1.5811 2.02074 1.01841Z" transform="translate(115.135 70.0739)" fill="black"/>
</g>
<g id="Vector_18">
<path d="M 1.00945 2.03682C 1.56695 2.03682 2.0189 1.58087 2.0189 1.01841C 2.0189 0.455959 1.56695 0 1.00945 0C 0.451947 0 0 0.455959 0 1.01841C 0 1.58087 0.451947 2.03682 1.00945 2.03682Z" transform="translate(122.901 70.0739)" fill="black"/>
</g>
<g id="Vector_19">
<path d="M 1.00853 2.03496C 1.56552 2.03496 2.01705 1.57942 2.01705 1.01748C 2.01705 0.455542 1.56552 0 1.00853 0C 0.451533 0 0 0.455542 0 1.01748C 0 1.57942 0.451533 2.03496 1.00853 2.03496Z" transform="translate(130.664 70.0749)" fill="black"/>
</g>
</g>
<g id="Group_7">
<g id="Vector_20">
<path d="M 1.01037 2.03868C 1.56838 2.03868 2.02074 1.58231 2.02074 1.01934C 2.02074 0.456375 1.56838 0 1.01037 0C 0.452357 0 0 0.456375 0 1.01934C 0 1.58231 0.452357 2.03868 1.01037 2.03868Z" transform="translate(107.374 55.8646)" fill="black"/>
</g>
<g id="Vector_21">
<path d="M 2.02074 1.01841C 2.02074 0.456658 1.57179 4.11554e-07 1.01406 4.11554e-07C 0.456329 4.11554e-07 -2.13812e-06 0.455727 -2.13812e-06 1.01841C -2.13812e-06 1.5811 0.455407 2.03775 1.01406 2.03775C 1.57179 2.03682 2.02074 1.5811 2.02074 1.01841Z" transform="translate(115.135 55.8655)" fill="black"/>
</g>
<g id="Vector_22">
<path d="M 1.00945 2.03682C 1.56695 2.03682 2.0189 1.58086 2.0189 1.01841C 2.0189 0.455958 1.56695 0 1.00945 0C 0.451947 0 0 0.455958 0 1.01841C 0 1.58086 0.451947 2.03682 1.00945 2.03682Z" transform="translate(122.901 55.8655)" fill="black"/>
</g>
<g id="Vector_23">
<path d="M 1.00853 2.03497C 1.56552 2.03497 2.01705 1.57942 2.01705 1.01748C 2.01705 0.455542 1.56552 0 1.00853 0C 0.451533 0 0 0.455542 0 1.01748C 0 1.57942 0.451533 2.03497 1.00853 2.03497Z" transform="translate(130.664 55.8665)" fill="black"/>
</g>
</g>
<g id="Group_8">
<g id="Vector_24">
<path d="M 2.02074 1.01841C 2.02074 0.456658 1.56718 1.41915e-08 1.01129 1.41915e-08C 0.453559 1.41915e-08 -9.56529e-07 0.455728 -9.56529e-07 1.01841C -9.56529e-07 1.58296 0.452637 2.03682 1.01129 2.03682C 1.56718 2.03682 2.02074 1.58389 2.02074 1.01841Z" transform="translate(107.374 41.657)" fill="black"/>
</g>
<g id="Vector_25">
<path d="M 2.02074 1.01841C 2.02074 0.456658 1.57179 1.41915e-08 1.01406 1.41915e-08C 0.456329 1.41915e-08 -2.13812e-06 0.455728 -2.13812e-06 1.01841C -2.13812e-06 1.58296 0.455407 2.03682 1.01406 2.03682C 1.57179 2.03682 2.02074 1.58389 2.02074 1.01841Z" transform="translate(115.135 41.657)" fill="black"/>
</g>
<g id="Vector_26">
<path d="M 2.0189 1.01841C 2.0189 0.456658 1.56718 1.41915e-08 1.00945 1.41915e-08C 0.451718 1.41915e-08 1.18159e-06 0.455728 1.18159e-06 1.01841C 1.18159e-06 1.58296 0.450796 2.03682 1.00945 2.03682C 1.56718 2.03682 2.0189 1.58389 2.0189 1.01841Z" transform="translate(122.901 41.657)" fill="black"/>
</g>
<g id="Vector_27">
<path d="M 2.01705 1.01841C 2.01705 0.456658 1.56533 1.41915e-08 1.0076 1.41915e-08C 0.449873 1.41915e-08 -1.0128e-06 0.455728 -1.0128e-06 1.01841C -1.0128e-06 1.58296 0.448951 2.03682 1.0076 2.03682C 1.56533 2.03682 2.01705 1.58389 2.01705 1.01841Z" transform="translate(130.664 41.657)" fill="black"/>
</g>
</g>
<g id="Group_9">
<g id="Vector_28">
<path d="M 2.0189 1.01655C 2.0189 0.453867 1.56718 7.09577e-07 1.00945 7.09577e-07C 0.451718 7.09577e-07 1.23786e-06 0.452937 1.23786e-06 1.01655C 1.23786e-06 1.5811 0.450796 2.03682 1.00945 2.03682C 1.56718 2.03682 2.0189 1.5811 2.0189 1.01655Z" transform="translate(103.298 48.7636)" fill="black"/>
</g>
<g id="Vector_29">
<path d="M 2.02074 1.01655C 2.02074 0.453867 1.56994 7.09577e-07 1.01129 7.09577e-07C 0.455404 7.09577e-07 5.62664e-08 0.452937 5.62664e-08 1.01655C 5.62664e-08 1.5811 0.455404 2.03682 1.01129 2.03682C 1.56994 2.03682 2.02074 1.5811 2.02074 1.01655Z" transform="translate(111.059 48.7636)" fill="black"/>
</g>
<g id="Vector_30">
<path d="M 2.02166 1.01655C 2.02166 0.453867 1.5681 7.09577e-07 1.00945 7.09577e-07C 0.453559 7.09577e-07 -2.13812e-06 0.452937 -2.13812e-06 1.01655C -2.13812e-06 1.5811 0.453559 2.03682 1.00945 2.03682C 1.5681 2.03682 2.02166 1.5811 2.02166 1.01655Z" transform="translate(118.823 48.7636)" fill="black"/>
</g>
<g id="Vector_31">
<path d="M 2.01889 1.01655C 2.01889 0.453867 1.56534 7.09577e-07 1.00945 7.09577e-07C 0.451719 7.09577e-07 2.19439e-06 0.452937 2.19439e-06 1.01655C 2.19439e-06 1.5811 0.450797 2.03682 1.00945 2.03682C 1.56534 2.03682 2.01889 1.5811 2.01889 1.01655Z" transform="translate(126.586 48.7636)" fill="black"/>
</g>
<g id="Vector_32">
<path d="M 2.01705 1.01655C 2.01705 0.453867 1.5681 7.09577e-07 1.00945 7.09577e-07C 0.452639 7.09577e-07 0 0.452937 0 1.01655C 0 1.5811 0.451717 2.03682 1.00945 2.03682C 1.5681 2.03682 2.01705 1.5811 2.01705 1.01655Z" transform="translate(134.35 48.7636)" fill="black"/>
</g>
</g>
</g>
<g id="Vector_33">
<path d="M 4.50131e-07 5.49942L 26.1645 6.24427e-07L 31.2993 56.074L 18.2613 65.9921L 2.99792 59.9431L 0.272871 38.495L 4.50131e-07 5.49942Z" transform="translate(75.1316 69.4768)" fill="#464BD7"/>
</g>
<g id="Group_10">
<g id="Group_11">
<g id="Group_12">
<g id="Vector_34">
<path d="M 1.00945 2.03683C 1.56695 2.03683 2.0189 1.58087 2.0189 1.01841C 2.0189 0.455959 1.56695 0 1.00945 0C 0.451947 0 0 0.455959 0 1.01841C 0 1.58087 0.451947 2.03683 1.00945 2.03683Z" transform="translate(104.413 130.733)" fill="black"/>
</g>
<g id="Vector_35">
<path d="M 1.01037 2.03869C 1.56838 2.03869 2.02074 1.58231 2.02074 1.01934C 2.02074 0.456377 1.56838 0 1.01037 0C 0.452359 0 0 0.456377 0 1.01934C 0 1.58231 0.452359 2.03869 1.01037 2.03869Z" transform="translate(104.412 122.901)" fill="black"/>
</g>
<g id="Vector_36">
<path d="M 1.00945 -2.49771e-06C 0.451718 -2.49771e-06 9.00263e-07 0.457585 9.00263e-07 1.0212C 9.00263e-07 1.58202 0.450796 2.03961 1.00945 2.03961C 1.5681 2.03961 2.0189 1.58202 2.0189 1.0212C 2.01797 0.457585 1.56718 -2.49771e-06 1.00945 -2.49771e-06Z" transform="translate(104.413 115.068)" fill="black"/>
</g>
<g id="Vector_37">
<path d="M 1.00945 2.03682C 1.56695 2.03682 2.0189 1.58086 2.0189 1.01841C 2.0189 0.455958 1.56695 0 1.00945 0C 0.451947 0 0 0.455958 0 1.01841C 0 1.58086 0.451947 2.03682 1.00945 2.03682Z" transform="translate(104.413 107.238)" fill="black"/>
</g>
<g id="Vector_38">
<path d="M 1.00853 2.03497C 1.56552 2.03497 2.01705 1.57942 2.01705 1.01748C 2.01705 0.455544 1.56552 0 1.00853 0C 0.451534 0 0 0.455544 0 1.01748C 0 1.57942 0.451534 2.03497 1.00853 2.03497Z" transform="translate(104.413 99.4078)" fill="black"/>
</g>
<g id="Vector_39">
<path d="M 1.00945 2.03682C 1.56695 2.03682 2.0189 1.58087 2.0189 1.01841C 2.0189 0.455962 1.56695 2.10035e-06 1.00945 2.10035e-06C 0.451947 2.10035e-06 0 0.455962 0 1.01841C 0 1.58087 0.451947 2.03682 1.00945 2.03682Z" transform="translate(104.413 91.5758)" fill="black"/>
</g>
<g id="Vector_40">
<path d="M 1.00945 -2.55448e-07C 0.451718 -2.55448e-07 9.00263e-07 0.452938 9.00263e-07 1.01841C 9.00263e-07 1.5811 0.450796 2.03496 1.00945 2.03496C 1.5681 2.03496 2.0189 1.58203 2.0189 1.01841C 2.01797 0.453868 1.56718 -2.55448e-07 1.00945 -2.55448e-07Z" transform="translate(104.413 83.7457)" fill="black"/>
</g>
<g id="Vector_41">
<path d="M 1.01037 2.03868C 1.56838 2.03868 2.02074 1.58231 2.02074 1.01934C 2.02074 0.456375 1.56838 0 1.01037 0C 0.452359 0 0 0.456375 0 1.01934C 0 1.58231 0.452359 2.03868 1.01037 2.03868Z" transform="translate(104.412 75.9119)" fill="black"/>
</g>
</g>
<g id="Group_13">
<g id="Vector_42">
<path d="M 1.00945 2.89507e-06C 0.452641 2.89507e-06 1.85679e-06 0.457585 1.85679e-06 1.01841C 1.85679e-06 1.58109 0.451719 2.03961 1.00945 2.03961C 1.56718 2.03961 2.01981 1.58202 2.01981 1.01841C 2.01981 0.457585 1.5681 2.89507e-06 1.00945 2.89507e-06Z" transform="translate(111.453 126.619)" fill="black"/>
</g>
<g id="Vector_43">
<path d="M 1.01037 2.03868C 1.56838 2.03868 2.02073 1.58231 2.02073 1.01934C 2.02073 0.456372 1.56838 -3.00861e-06 1.01037 -3.00861e-06C 0.45236 -3.00861e-06 2.36319e-06 0.456372 2.36319e-06 1.01934C 2.36319e-06 1.58231 0.45236 2.03868 1.01037 2.03868Z" transform="translate(111.452 118.789)" fill="black"/>
</g>
<g id="Vector_44">
<path d="M 1.00945 2.03682C 1.56695 2.03682 2.01889 1.58087 2.01889 1.01841C 2.01889 0.455959 1.56695 0 1.00945 0C 0.451948 0 0 0.455959 0 1.01841C 0 1.58087 0.451948 2.03682 1.00945 2.03682Z" transform="translate(111.453 110.957)" fill="black"/>
</g>
<g id="Vector_45">
<path d="M 1.00853 2.03496C 1.56552 2.03496 2.01705 1.57942 2.01705 1.01748C 2.01705 0.455545 1.56552 0 1.00853 0C 0.451535 0 0 0.455545 0 1.01748C 0 1.57942 0.451535 2.03496 1.00853 2.03496Z" transform="translate(111.454 103.126)" fill="black"/>
</g>
<g id="Vector_46">
<path d="M 1.00853 2.03496C 1.56552 2.03496 2.01705 1.57942 2.01705 1.01748C 2.01705 0.455539 1.56552 2.10035e-06 1.00853 2.10035e-06C 0.451535 2.10035e-06 0 0.455539 0 1.01748C 0 1.57942 0.451535 2.03496 1.00853 2.03496Z" transform="translate(111.454 95.2961)" fill="black"/>
</g>
<g id="Vector_47">
<path d="M 1.01037 2.03868C 1.56838 2.03868 2.02073 1.58231 2.02073 1.01934C 2.02073 0.456374 1.56838 0 1.01037 0C 0.45236 0 2.36319e-06 0.456374 2.36319e-06 1.01934C 2.36319e-06 1.58231 0.45236 2.03868 1.01037 2.03868Z" transform="translate(111.452 87.4622)" fill="black"/>
</g>
<g id="Vector_48">
<path d="M 1.00945 -1.07856e-06C 0.452641 -1.07856e-06 1.85679e-06 0.452937 1.85679e-06 1.01841C 1.85679e-06 1.58017 0.451719 2.03682 1.00945 2.03682C 1.56718 2.03682 2.01981 1.5811 2.01981 1.01841C 2.01981 0.452937 1.5681 -1.07856e-06 1.00945 -1.07856e-06Z" transform="translate(111.453 79.6331)" fill="black"/>
</g>
</g>
<g id="Group_14">
<g id="Vector_49">
<path d="M 1.00945 2.03683C 1.56695 2.03683 2.0189 1.58087 2.0189 1.01841C 2.0189 0.455959 1.56695 0 1.00945 0C 0.451946 0 0 0.455959 0 1.01841C 0 1.58087 0.451946 2.03683 1.00945 2.03683Z" transform="translate(90.3296 130.733)" fill="black"/>
</g>
<g id="Vector_50">
<path d="M 1.01037 2.03869C 1.56838 2.03869 2.02074 1.58231 2.02074 1.01934C 2.02074 0.456377 1.56838 0 1.01037 0C 0.452359 0 0 0.456377 0 1.01934C 0 1.58231 0.452359 2.03869 1.01037 2.03869Z" transform="translate(90.3286 122.901)" fill="black"/>
</g>
<g id="Vector_51">
<path d="M 1.01037 -2.49771e-06C 0.452639 -2.49771e-06 1.0128e-06 0.457585 1.0128e-06 1.0212C 1.0128e-06 1.58202 0.451717 2.03961 1.01037 2.03961C 1.56718 2.03961 2.01982 1.58202 2.01982 1.0212C 2.01982 0.457585 1.5681 -2.49771e-06 1.01037 -2.49771e-06Z" transform="translate(90.3286 115.068)" fill="black"/>
</g>
<g id="Vector_52">
<path d="M 1.00945 2.03682C 1.56695 2.03682 2.0189 1.58086 2.0189 1.01841C 2.0189 0.455958 1.56695 0 1.00945 0C 0.451946 0 0 0.455958 0 1.01841C 0 1.58086 0.451946 2.03682 1.00945 2.03682Z" transform="translate(90.3296 107.238)" fill="black"/>
</g>
<g id="Vector_53">
<path d="M 1.00853 2.03497C 1.56552 2.03497 2.01705 1.57942 2.01705 1.01748C 2.01705 0.455544 1.56552 0 1.00853 0C 0.451533 0 0 0.455544 0 1.01748C 0 1.57942 0.451533 2.03497 1.00853 2.03497Z" transform="translate(90.3303 99.4078)" fill="black"/>
</g>
<g id="Vector_54">
<path d="M 1.00945 2.03682C 1.56695 2.03682 2.0189 1.58087 2.0189 1.01841C 2.0189 0.455962 1.56695 2.10035e-06 1.00945 2.10035e-06C 0.451946 2.10035e-06 0 0.455962 0 1.01841C 0 1.58087 0.451946 2.03682 1.00945 2.03682Z" transform="translate(90.3296 91.5758)" fill="black"/>
</g>
<g id="Vector_55">
<path d="M 1.01037 -2.55448e-07C 0.452639 -2.55448e-07 1.0128e-06 0.452938 1.0128e-06 1.01841C 1.0128e-06 1.5811 0.451717 2.03496 1.01037 2.03496C 1.56718 2.03496 2.01982 1.58203 2.01982 1.01841C 2.01982 0.453868 1.5681 -2.55448e-07 1.01037 -2.55448e-07Z" transform="translate(90.3286 83.7457)" fill="black"/>
</g>
<g id="Vector_56">
<path d="M 1.01037 2.03868C 1.56838 2.03868 2.02074 1.58231 2.02074 1.01934C 2.02074 0.456375 1.56838 0 1.01037 0C 0.452359 0 0 0.456375 0 1.01934C 0 1.58231 0.452359 2.03868 1.01037 2.03868Z" transform="translate(90.3289 75.9119)" fill="black"/>
</g>
</g>
<g id="Group_15">
<g id="Vector_57">
<path d="M 1.00945 2.89507e-06C 0.451718 2.89507e-06 9.56529e-07 0.457585 9.56529e-07 1.01841C 9.56529e-07 1.58109 0.450796 2.03961 1.00945 2.03961C 1.5681 2.03961 2.0189 1.58202 2.0189 1.01841C 2.0189 0.457585 1.56718 2.89507e-06 1.00945 2.89507e-06Z" transform="translate(97.3706 126.619)" fill="black"/>
</g>
<g id="Vector_58">
<path d="M 1.01037 2.03868C 1.56838 2.03868 2.02074 1.58231 2.02074 1.01934C 2.02074 0.456372 1.56838 -3.00861e-06 1.01037 -3.00861e-06C 0.452359 -3.00861e-06 0 0.456372 0 1.01934C 0 1.58231 0.452359 2.03868 1.01037 2.03868Z" transform="translate(97.3696 118.789)" fill="black"/>
</g>
<g id="Vector_59">
<path d="M 1.00945 2.03682C 1.56695 2.03682 2.0189 1.58087 2.0189 1.01841C 2.0189 0.455959 1.56695 0 1.00945 0C 0.451947 0 0 0.455959 0 1.01841C 0 1.58087 0.451947 2.03682 1.00945 2.03682Z" transform="translate(97.3706 110.957)" fill="black"/>
</g>
<g id="Vector_60">
<path d="M 1.00853 2.03496C 1.56552 2.03496 2.01705 1.57942 2.01705 1.01748C 2.01705 0.455545 1.56552 0 1.00853 0C 0.451534 0 0 0.455545 0 1.01748C 0 1.57942 0.451534 2.03496 1.00853 2.03496Z" transform="translate(97.3718 103.126)" fill="black"/>
</g>
<g id="Vector_61">
<path d="M 1.00853 2.03496C 1.56552 2.03496 2.01705 1.57942 2.01705 1.01748C 2.01705 0.455539 1.56552 2.10035e-06 1.00853 2.10035e-06C 0.451534 2.10035e-06 0 0.455539 0 1.01748C 0 1.57942 0.451534 2.03496 1.00853 2.03496Z" transform="translate(97.3718 95.2961)" fill="black"/>
</g>
<g id="Vector_62">
<path d="M 1.01037 2.03868C 1.56838 2.03868 2.02074 1.58231 2.02074 1.01934C 2.02074 0.456374 1.56838 0 1.01037 0C 0.452359 0 0 0.456374 0 1.01934C 0 1.58231 0.452359 2.03868 1.01037 2.03868Z" transform="translate(97.3696 87.4622)" fill="black"/>
</g>
<g id="Vector_63">
<path d="M 1.00945 -1.07856e-06C 0.451718 -1.07856e-06 9.56529e-07 0.452937 9.56529e-07 1.01841C 9.56529e-07 1.58017 0.450796 2.03682 1.00945 2.03682C 1.5681 2.03682 2.0189 1.5811 2.0189 1.01841C 2.0189 0.452937 1.56718 -1.07856e-06 1.00945 -1.07856e-06Z" transform="translate(97.3706 79.6331)" fill="black"/>
</g>
</g>
<g id="Group_16">
<g id="Vector_64">
<path d="M 1.00945 2.89507e-06C 0.451717 2.89507e-06 5.62664e-08 0.457585 5.62664e-08 1.01841C 5.62664e-08 1.58109 0.450795 2.03961 1.00945 2.03961C 1.5681 2.03961 2.0189 1.58202 2.0189 1.01841C 2.01797 0.457585 1.56718 2.89507e-06 1.00945 2.89507e-06Z" transform="translate(83.2883 126.619)" fill="black"/>
</g>
<g id="Vector_65">
<path d="M 1.01037 2.03868C 1.56838 2.03868 2.02074 1.58231 2.02074 1.01934C 2.02074 0.456372 1.56838 -3.00861e-06 1.01037 -3.00861e-06C 0.452359 -3.00861e-06 0 0.456372 0 1.01934C 0 1.58231 0.452359 2.03868 1.01037 2.03868Z" transform="translate(83.2876 118.789)" fill="black"/>
</g>
<g id="Vector_66">
<path d="M 1.00945 2.03682C 1.56695 2.03682 2.0189 1.58087 2.0189 1.01841C 2.0189 0.455959 1.56695 0 1.00945 0C 0.451946 0 0 0.455959 0 1.01841C 0 1.58087 0.451946 2.03682 1.00945 2.03682Z" transform="translate(83.2883 110.957)" fill="black"/>
</g>
<g id="Vector_67">
<path d="M 1.00853 2.03496C 1.56552 2.03496 2.01705 1.57942 2.01705 1.01748C 2.01705 0.455545 1.56552 0 1.00853 0C 0.451533 0 0 0.455545 0 1.01748C 0 1.57942 0.451533 2.03496 1.00853 2.03496Z" transform="translate(83.2896 103.126)" fill="black"/>
</g>
<g id="Vector_68">
<path d="M 1.00853 2.03496C 1.56552 2.03496 2.01705 1.57942 2.01705 1.01748C 2.01705 0.455539 1.56552 2.10035e-06 1.00853 2.10035e-06C 0.451533 2.10035e-06 0 0.455539 0 1.01748C 0 1.57942 0.451533 2.03496 1.00853 2.03496Z" transform="translate(83.2896 95.2961)" fill="black"/>
</g>
<g id="Vector_69">
<path d="M 1.01037 2.03868C 1.56838 2.03868 2.02074 1.58231 2.02074 1.01934C 2.02074 0.456374 1.56838 0 1.01037 0C 0.452359 0 0 0.456374 0 1.01934C 0 1.58231 0.452359 2.03868 1.01037 2.03868Z" transform="translate(83.2876 87.4622)" fill="black"/>
</g>
<g id="Vector_70">
<path d="M 1.00945 -1.07856e-06C 0.451717 -1.07856e-06 5.62664e-08 0.452937 5.62664e-08 1.01841C 5.62664e-08 1.58017 0.450795 2.03682 1.00945 2.03682C 1.5681 2.03682 2.0189 1.5811 2.0189 1.01841C 2.01797 0.452937 1.56718 -1.07856e-06 1.00945 -1.07856e-06Z" transform="translate(83.2886 79.6331)" fill="black"/>
</g>
</g>
<g id="Group_17">
<g id="Vector_71">
<path d="M 1.00945 2.89507e-06C 0.451717 2.89507e-06 -3.37599e-07 0.457585 -3.37599e-07 1.01841C -3.37599e-07 1.58109 0.450795 2.03961 1.00945 2.03961C 1.56902 2.03961 2.01889 1.58202 2.01889 1.01841C 2.01889 0.457585 1.56994 2.89507e-06 1.00945 2.89507e-06Z" transform="translate(69.2046 126.619)" fill="black"/>
</g>
<g id="Vector_72">
<path d="M 1.00945 -3.00861e-06C 0.451717 -3.00861e-06 -3.37599e-07 0.452937 -3.37599e-07 1.01655C -3.37599e-07 1.5783 0.450795 2.03868 1.00945 2.03868C 1.56902 2.03868 2.01889 1.57923 2.01889 1.01655C 2.01889 0.452937 1.56994 -3.00861e-06 1.00945 -3.00861e-06Z" transform="translate(69.2046 118.789)" fill="black"/>
</g>
<g id="Vector_73">
<path d="M 1.00945 -2.83831e-07C 0.451717 -2.83831e-07 -3.37599e-07 0.455728 -3.37599e-07 1.01934C -3.37599e-07 1.5811 0.450795 2.03776 1.00945 2.03776C 1.56902 2.03776 2.01889 1.58203 2.01889 1.01934C 2.01889 0.456658 1.56994 -2.83831e-07 1.00945 -2.83831e-07Z" transform="translate(69.2046 110.956)" fill="black"/>
</g>
<g id="Vector_74">
<path d="M 1.00945 9.08258e-07C 0.451717 9.08258e-07 -3.37599e-07 0.455729 -3.37599e-07 1.01934C -3.37599e-07 1.5811 0.450795 2.03496 1.00945 2.03496C 1.56902 2.03496 2.01889 1.58203 2.01889 1.01934C 2.01889 0.456659 1.56994 9.08258e-07 1.00945 9.08258e-07Z" transform="translate(69.2046 103.126)" fill="black"/>
</g>
<g id="Vector_75">
<path d="M 1.00945 2.10035e-06C 0.451717 2.10035e-06 -3.37599e-07 0.452935 -3.37599e-07 1.01655C -3.37599e-07 1.58016 0.450795 2.03496 1.00945 2.03496C 1.56902 2.03496 2.01889 1.58016 2.01889 1.01655C 2.01889 0.452935 1.56994 2.10035e-06 1.00945 2.10035e-06Z" transform="translate(69.2046 95.2961)" fill="black"/>
</g>
<g id="Vector_76">
<path d="M 1.00945 1.27724e-06C 0.451717 1.27724e-06 -3.37599e-07 0.456656 -3.37599e-07 1.02027C -3.37599e-07 1.58109 0.450795 2.03868 1.00945 2.03868C 1.56902 2.03868 2.01889 1.58109 2.01889 1.02027C 2.01889 0.456656 1.56994 1.27724e-06 1.00945 1.27724e-06Z" transform="translate(69.2046 87.4632)" fill="black"/>
</g>
<g id="Vector_77">
<path d="M 1.00945 -1.07856e-06C 0.451717 -1.07856e-06 -3.37599e-07 0.452937 -3.37599e-07 1.01841C -3.37599e-07 1.58017 0.450795 2.03682 1.00945 2.03682C 1.56902 2.03682 2.01889 1.5811 2.01889 1.01841C 2.01889 0.452937 1.56994 -1.07856e-06 1.00945 -1.07856e-06Z" transform="translate(69.2046 79.6331)" fill="black"/>
</g>
</g>
<g id="Group_18">
<g id="Vector_78">
<path d="M 1.00668 -3.40597e-07C 0.449873 -3.40597e-07 -1.40666e-06 0.455728 -1.40666e-06 1.01841C -1.40666e-06 1.5811 0.448951 2.03683 1.00668 2.03683C 1.56626 2.03683 2.01889 1.58203 2.01889 1.01841C 2.01889 0.455728 1.56626 -3.40597e-07 1.00668 -3.40597e-07Z" transform="translate(76.2488 130.733)" fill="black"/>
</g>
<g id="Vector_79">
<path d="M 1.00668 1.87328e-06C 0.449873 1.87328e-06 -1.40666e-06 0.454801 -1.40666e-06 1.01841C -1.40666e-06 1.57924 0.448951 2.03869 1.00668 2.03869C 1.56626 2.03869 2.01889 1.57924 2.01889 1.01841C 2.01889 0.454801 1.56626 1.87328e-06 1.00668 1.87328e-06Z" transform="translate(76.2488 122.901)" fill="black"/>
</g>
<g id="Vector_80">
<path d="M 1.00668 -2.49771e-06C 0.449873 -2.49771e-06 -1.40666e-06 0.457585 -1.40666e-06 1.0212C -1.40666e-06 1.58202 0.448951 2.03961 1.00668 2.03961C 1.56626 2.03961 2.01889 1.58202 2.01889 1.0212C 2.01889 0.457585 1.56626 -2.49771e-06 1.00668 -2.49771e-06Z" transform="translate(76.2488 115.068)" fill="black"/>
</g>
<g id="Vector_81">
<path d="M 1.00668 -1.30562e-06C 0.449873 -1.30562e-06 -1.40666e-06 0.457588 -1.40666e-06 1.01841C -1.40666e-06 1.5811 0.448951 2.03775 1.00668 2.03775C 1.56626 2.03775 2.01889 1.58203 2.01889 1.01841C 2.01889 0.457588 1.56626 -1.30562e-06 1.00668 -1.30562e-06Z" transform="translate(76.2488 107.238)" fill="black"/>
</g>
<g id="Vector_82">
<path d="M 1.00668 -1.13532e-07C 0.449873 -1.13532e-07 -1.40666e-06 0.45294 -1.40666e-06 1.01655C -1.40666e-06 1.58017 0.448951 2.03497 1.00668 2.03497C 1.56626 2.03497 2.01889 1.58017 2.01889 1.01655C 2.01889 0.45294 1.56626 -1.13532e-07 1.00668 -1.13532e-07Z" transform="translate(76.2488 99.4078)" fill="black"/>
</g>
<g id="Vector_83">
<path d="M 1.00668 2.10035e-06C 0.449873 2.10035e-06 -1.40666e-06 0.454801 -1.40666e-06 1.01841C -1.40666e-06 1.58203 0.448951 2.03682 1.00668 2.03682C 1.56626 2.03682 2.01889 1.58203 2.01889 1.01841C 2.01889 0.454801 1.56626 2.10035e-06 1.00668 2.10035e-06Z" transform="translate(76.2488 91.5758)" fill="black"/>
</g>
<g id="Vector_84">
<path d="M 1.00668 -2.55448e-07C 0.449873 -2.55448e-07 -1.40666e-06 0.452938 -1.40666e-06 1.01841C -1.40666e-06 1.5811 0.448951 2.03496 1.00668 2.03496C 1.56626 2.03496 2.01889 1.58203 2.01889 1.01841C 2.01889 0.453868 1.56626 -2.55448e-07 1.00668 -2.55448e-07Z" transform="translate(76.2488 83.7457)" fill="black"/>
</g>
<g id="Vector_85">
<path d="M 1.00668 -5.67661e-07C 0.449873 -5.67661e-07 -1.40666e-06 0.457587 -1.40666e-06 1.02027C -1.40666e-06 1.58203 0.448951 2.03961 1.00668 2.03961C 1.56626 2.03961 2.01889 1.58203 2.01889 1.02027C 2.01889 0.457587 1.56626 -5.67661e-07 1.00668 -5.67661e-07Z" transform="translate(76.2488 75.9119)" fill="black"/>
</g>
</g>
</g>
</g>
<g id="Vector_86">
<path d="M 16.353 2.21388e-06L -2.36319e-06 7.82922L 9.81146 15.5282L 19.0781 8.37887L 16.353 2.21388e-06Z" transform="translate(83.0364 97.944)" fill="white"/>
</g>
<g id="Vector_87">
<path d="M 43.8828 12.7213L 31.161 25.9197L 11.7197 5.57197C 11.7197 5.57197 3.54366 6.04909 8.43996e-08 1.53269e-06" stroke-width="3" stroke-miterlimit="10" transform="translate(27.1628 74.1513)" stroke="black"/>
</g>
<g id="Vector_88">
<path d="M 2.70079e-06 -3.54788e-07L 1.72574 30.0185" stroke-width="3" stroke-miterlimit="10" transform="translate(80.4924 56.5063)" stroke="black"/>
</g>
<g id="Vector_89">
<path d="M -6.18931e-07 19.0643L 11.6275 3.29984L 24.3466 -8.51492e-07" stroke-width="3" stroke-miterlimit="10" transform="translate(57.0544 67.2577)" stroke="black"/>
</g>
<g id="Vector_90">
<path d="M 1.15346e-06 59.5952L 5.72481 37.4878L 0.363215 2.83831e-08" stroke-width="3" stroke-miterlimit="10" transform="translate(68.8628 71.4736)" stroke="black"/>
</g>
<g id="Vector_91">
<path d="M 31.0181 15.398C 29.9285 17.4144 28.6425 18.2356 27.0218 18.0543C 25.4012 17.8757 24.3134 16.6824 23.8543 14.7181C 22.0262 6.89265 20.8444 -3.54788e-08 20.8444 -3.54788e-08L 2.85687 -3.54788e-08L 3.22101 5.13298L -7.8773e-07 12.3316" stroke-width="3" stroke-miterlimit="10" transform="translate(73.4563 40.1279)" stroke="black"/>
</g>
<g id="Vector_92">
<path d="M 13.4455 1.58482L 9.81238 2.56603L 3.45332 -1.27724e-07L 1.59115 4.46985L 2.90665 5.06788L -2.81332e-08 14.4168L 10.902 12.034L 11.2652 6.16906L 13.4455 1.58482Z" transform="translate(70.8623 50.6413)" fill="black"/>
</g>
<g id="Vector_93">
<path d="M 14.8237 0.891926L 14.5665 1.1263C 13.7681 1.84337 12.7034 2.234 11.5685 2.234C 10.4337 2.234 9.36619 1.84244 8.57246 1.1263L 8.30788 0.891926C 7.66534 0.314361 6.80247 2.49771e-06 5.88521 2.49771e-06C 4.9698 2.49771e-06 4.10877 0.314361 3.46439 0.891926L 3.20257 1.1263C 2.32127 1.91406 1.15141 2.27678 -1.65986e-06 2.22841" stroke-width="3" stroke-miterlimit="10" transform="translate(68.4709 107.645)" stroke="black"/>
</g>
<g id="Vector_94">
<path d="M 3.85433 7.77713C 5.98302 7.77713 7.70867 6.03616 7.70867 3.88857C 7.70867 1.74097 5.98302 0 3.85433 0C 1.72564 0 0 1.74097 0 3.88857C 0 6.03616 1.72564 7.77713 3.85433 7.77713Z" transform="translate(71.0442 28)" fill="black"/>
</g>
<g id="Vector_95">
<path d="M 3.85433 7.77713C 5.98302 7.77713 7.70867 6.03616 7.70867 3.88857C 7.70867 1.74097 5.98302 0 3.85433 0C 1.72564 0 -2.64452e-06 1.74097 -2.64452e-06 3.88857C -2.64452e-06 6.03616 1.72564 7.77713 3.85433 7.77713Z" transform="translate(80.6812 28)" fill="black"/>
</g>
<g id="Vector_96">
<path d="M 3.85434 7.77713C 5.98303 7.77713 7.70867 6.03616 7.70867 3.88857C 7.70867 1.74097 5.98303 0 3.85434 0C 1.72565 0 0 1.74097 0 3.88857C 0 6.03616 1.72565 7.77713 3.85434 7.77713Z" transform="translate(76.3203 64.7084)" fill="#FA3778"/>
</g>
<g id="Vector_97">
<path d="M 3.85433 7.77713C 5.98302 7.77713 7.70867 6.03616 7.70867 3.88857C 7.70867 1.74097 5.98302 2.15711e-06 3.85433 2.15711e-06C 1.72564 2.15711e-06 -1.91306e-06 1.74097 -1.91306e-06 3.88857C -1.91306e-06 6.03616 1.72564 7.77713 3.85433 7.77713Z" transform="translate(79.5916 96.3293)" fill="black"/>
</g>
<g id="Vector_98">
<path d="M 3.85433 7.77713C 5.98302 7.77713 7.70867 6.03616 7.70867 3.88857C 7.70867 1.74097 5.98302 0 3.85433 0C 1.72564 0 0 1.74097 0 3.88857C 0 6.03616 1.72564 7.77713 3.85433 7.77713Z" transform="translate(90.3184 28)" fill="black"/>
</g>
<g id="Vector_99">
<path d="M 1.26941 7.09577e-07L 5.72296 7.09577e-07L 6.9048 3.43377L 0 3.43377L 1.26941 7.09577e-07Z" transform="translate(74.3127 44.5782)" fill="black"/>
</g>
<g id="Vector_100">
<path d="M 13.8815 -3.12214e-07L -3.20719e-06 2.84225" stroke-width="3" stroke-miterlimit="10" transform="translate(87.033 58.1823)" stroke="black"/>
</g>
<g id="Vector_101">
<path d="M 16.8075 32.0814L -3.31972e-06 4.67539L 6.54066 1.24885e-06L 13.3551 1.24885e-06" stroke-width="3" stroke-miterlimit="10" transform="translate(82.2188 101.537)" stroke="black"/>
</g>
<g id="Vector_102">
<path d="M 32.8803 59.8789L 12.248 8.53513L 0.832448 8.53513L -5.62664e-08 7.09577e-07" stroke-width="3.028" stroke-miterlimit="10" transform="translate(92.3022 59.9242)" stroke="black"/>
</g>
<g id="Vector_103">
<path d="M 14.1719 1.87328e-06C 14.1719 1.87328e-06 10.5102 0.859375 6.94721 2.86551C 4.13551 4.44846 1.27218 7.51671 -2.36319e-06 11.1821" stroke-width="3" stroke-miterlimit="10" transform="translate(83.0364 108.136)" stroke="black"/>
</g>
<g id="Vector_104">
<path d="M 2.70079e-06 4.88465L 23.9704 -1.41915e-07L 31.6727 5.55151L 52.1474 53.2783L 24.6139 72.1603L 2.70079e-06 4.88465Z" transform="translate(80.4924 63.8397)" fill="#FA3778"/>
</g>
<g id="Vector_105">
<path d="M 5.99583 13.2645C 5.99583 13.2645 4.81492 6.96705 4.26917 3.85043C 3.84327 1.41276 2.63562 -4.11554e-07 5.62664e-07 -4.11554e-07" stroke-width="3" stroke-miterlimit="10" transform="translate(81.6741 40.127)" stroke="black"/>
</g>
<g id="Vector_106">
<path d="M 11.4468 -5.39278e-07L 13.6271 15.2139L 1.6354 28.5964C 1.6354 28.5964 1.81701 19.7972 1.74426e-06 15.2139C 4.36044 8.79926 11.4468 -5.39278e-07 11.4468 -5.39278e-07Z" transform="translate(57.7803 70.5576)" fill="black"/>
</g>
<g id="Vector_107">
<path d="M 7.31464e-07 -1.22047e-06C 3.27079 -1.22047e-06 9.26663 1.10026 10.5407 7.69901C 10.5407 7.69901 17.2611 12.9436 23.2578 17.3418C 27.5178 20.4687 25.0739 29.2382 23.9833 30.6128" stroke-width="3" stroke-miterlimit="10" transform="translate(34.1589 67.8074)" stroke="black"/>
</g>
<g id="Group_19">
<g id="Vector_108">
<path d="M 12.5937 10.0613C 12.5937 10.0613 10.6006 10.226 8.07004 10.4352C 4.7467 10.7105 3.49757 9.64096 2.21709 6.14674C 1.15141 3.22916 -1.68799e-07 1.13532e-07 -1.68799e-07 1.13532e-07L 10.3406 0.712422L 12.5937 10.0613Z" transform="translate(28.8342 64.7111)" fill="#FFB946"/>
</g>
<g id="Vector_109">
<path d="M 20.3602 9.43511C 18.9369 9.5523 17.6924 8.48552 17.5753 7.05137C 17.4591 5.6163 18.5156 4.35793 19.938 4.24167C 20.1713 4.22214 20.3944 4.24446 20.6138 4.28539C 19.6375 1.59566 16.9825 -0.222598 14.0169 0.0220073L 5.94129 1.83283C 2.50088 2.77962 -0.270263 5.27869 0.0210478 8.87057L 0.0883442 9.68715C 0.377811 13.279 3.50203 15.9529 7.06321 15.6581L 15.231 14.9838C 18.357 14.7253 20.7788 12.2625 21.1272 9.23515C 20.8885 9.33745 20.634 9.41279 20.3602 9.43511Z" transform="translate(19 54.6957)" fill="#FFB946"/>
</g>
</g>
<g id="Vector_110">
<path d="M 2.58216 5.21017C 4.00824 5.21017 5.16431 4.04384 5.16431 2.60509C 5.16431 1.16634 4.00824 0 2.58216 0C 1.15607 0 0 1.16634 0 2.60509C 0 4.04384 1.15607 5.21017 2.58216 5.21017Z" transform="translate(29.7969 61.376)" fill="black"/>
</g>
<g id="Group_20">
<g id="Vector_111">
<path d="M 42.5332 7.3796e-07L 42.8245 3.51933L 28.5604 16.2788L 12.8518 6.10675C 9.32655 9.16664 4.89052 11.1802 4.92331e-08 11.6545L 13.5681 33.8987L 33.0896 41.1038L 45.3698 20.7709L 42.5332 7.3796e-07Z" transform="translate(28.5825 83.1691)" fill="#46B4BE"/>
</g>
<g id="Vector_112">
<path d="M 2.82922 18.8615C 2.82922 21.3178 2.44941 23.6839 1.7534 25.9067L 10.7352 32.7026L 22.6356 17.3046L 20.2728 2.55448e-07L -1.12533e-07 7.66645C 1.80225 10.9914 2.82922 14.8046 2.82922 18.8615Z" transform="translate(46.6829 52.7042)" fill="#46B4BE"/>
</g>
</g>
<g id="Vector_113">
<path d="M -5.34531e-07 1.39077e-06L 2.36183 4.21594" stroke-width="3" stroke-miterlimit="10" transform="translate(66.1387 67.4409)" stroke="black"/>
</g>
<g id="Group_21">
<g id="Vector_114">
<path d="M -2.53199e-06 1.36239e-06L 34.5222 18.1473L 47.2412 36.4787L 23.3279 44.3153L -2.53199e-06 1.36239e-06Z" transform="translate(89.759 76.8642)" fill="#E62D73"/>
</g>
<g id="Vector_115">
<path d="M 25.5846 10.824C 24.5761 6.27137 20.7614 0.222284 12.6554 1.02179e-06L 2.75705e-06 7.49439C 2.75705e-06 7.49439 14.7647 9.57121 25.5846 10.824Z" transform="translate(90.6199 62.5264)" fill="#E62D73"/>
</g>
<g id="Vector_116">
<path d="M 25.8003 11.1811L 24.7107 2.20051L 6.18931e-07 1.6746e-06L 25.8003 11.1811Z" transform="translate(95.0281 75.3975)" fill="#E62D73"/>
</g>
</g>
<g id="Vector_117">
<path d="M 3.63309 1.98682e-07C 2.54159 4.03365 4.64198e-07 7.69901 4.64198e-07 7.69901L 13.8078 21.6313L 15.8073 8.2496C 15.8073 8.2496 9.44732 3.85043 3.63309 1.98682e-07Z" transform="translate(44.8794 78.6425)" fill="black"/>
</g>
</g>
</g>
</g>
</g>
</svg>

