<svg width="160" height="160" viewBox="0 0 160 160" version="1.1" xmlns="http://www.w3.org/2000/svg" xmlns:xlink="http://www.w3.org/1999/xlink">
<g id="Canvas" fill="none">
<g id="Component">
<g id="02">
<g id="Group">
<g id="Vector">
<path d="M 17.9333 11.3051L 19.7802 3.27039L 20.4486 -1.2648e-06L 28.4604 1.92719L 30.0045 2.64212L 27.5904 16.8493L 26.5564 22.7392L 24.8314 28.63L -9.4413e-07 21.007L 6.20901 7.8397L 17.9333 11.3051Z" transform="translate(63.0166 66.6755)" fill="#464BD7"/>
</g>
<g id="Vector_2">
<path d="M -3.4332e-07 74.1367L 20.6164 -1.09233e-06C 20.6164 -1.09233e-06 30.0485 5.02992 35.1391 9.05668C 40.0309 12.9233 44.8637 20.4672 44.0706 27.5082C 41.2337 52.6879 15.0233 70.7815 -3.4332e-07 74.1367Z" transform="translate(34.0508 56.8633)" fill="#464BD7"/>
</g>
<g id="Vector_3">
<path d="M -1.4305e-07 51.5887L 24.3729 23.0745L 31.8082 -5.7491e-07L 58.4489 19.4905L 48.3615 22.0893L 39.3091 23.3891L 30.0504 42.8655L -1.4305e-07 51.5887Z" transform="translate(26.0364 64.9866)" fill="#464BD7"/>
</g>
<g id="Vector_4">
<path d="M 23.8095 34.9965L 12.4583 33.319L 10.8637 43.7462L 1.60216e-06 40.3674L 4.19341 77.9355L 37.7641 70.773L 53.6283 2.01218e-07L 24.4779 8.77221L 23.8095 34.9965Z" transform="translate(78.0183 51.386)" fill="#46B4BE"/>
</g>
<g id="Group_2">
<g id="Group_3">
<g id="Vector_5">
<path d="M 1.90887 0.83383C 1.83855 0.305406 1.35574 -0.0619474 0.832623 0.00869749C 0.308565 0.0784005 -0.0617465 0.562556 0.00856541 1.09004C 0.0798148 1.61752 0.563561 1.98582 1.08856 1.91423C 1.6098 1.84453 1.98105 1.36131 1.90887 0.83383Z" transform="translate(79.4929 112.857)" fill="black"/>
</g>
<g id="Vector_6">
<path d="M 1.90976 0.833815C 1.83945 0.306333 1.35852 -0.0619691 0.833527 0.00867584C 0.310406 0.0793208 -0.0617828 0.564418 0.00852915 1.09002C 0.0788411 1.61844 0.565399 1.98673 1.0904 1.91609C 1.61258 1.8445 1.97914 1.3613 1.90976 0.833815Z" transform="translate(86.7932 111.87)" fill="black"/>
</g>
<g id="Vector_7">
<path d="M 0.958116 1.92531C 1.48727 1.92531 1.91624 1.49431 1.91624 0.962655C 1.91624 0.430995 1.48727 -3.04702e-06 0.958116 -3.04702e-06C 0.428963 -3.04702e-06 3.03266e-06 0.430995 3.03266e-06 0.962655C 3.03266e-06 1.49431 0.428963 1.92531 0.958116 1.92531Z" transform="translate(94.0964 110.884)" fill="black"/>
</g>
<g id="Vector_8">
<path d="M 0.957181 1.92342C 1.48582 1.92342 1.91436 1.49285 1.91436 0.961715C 1.91436 0.430576 1.48582 0 0.957181 0C 0.428545 0 -2.74656e-06 0.430576 -2.74656e-06 0.961715C -2.74656e-06 1.49285 0.428545 1.92342 0.957181 1.92342Z" transform="translate(101.399 109.899)" fill="black"/>
</g>
<g id="Vector_9">
<path d="M 0.956239 1.92154C 1.48436 1.92154 1.91249 1.49139 1.91249 0.960769C 1.91249 0.43015 1.48436 0 0.956239 0C 0.428121 0 0 0.43015 0 0.960769C 0 1.49139 0.428121 1.92154 0.956239 1.92154Z" transform="translate(108.699 108.914)" fill="black"/>
</g>
<g id="Vector_10">
<path d="M 0.958115 1.92531C 1.48727 1.92531 1.91624 1.49432 1.91624 0.962656C 1.91624 0.430996 1.48727 -1.95469e-06 0.958115 -1.95469e-06C 0.428962 -1.95469e-06 2.05992e-06 0.430996 2.05992e-06 0.962656C 2.05992e-06 1.49432 0.428962 1.92531 0.958115 1.92531Z" transform="translate(115.999 107.926)" fill="black"/>
</g>
<g id="Vector_11">
<path d="M 1.90591 0.833814C 1.83654 0.306332 1.3556 -0.0619625 0.830605 0.00868245C 0.305609 0.0793274 -0.0609496 0.562534 0.00842489 1.09002C 0.0787368 1.6175 0.559673 1.98673 1.08467 1.91609C 1.61248 1.8445 1.9781 1.3613 1.90591 0.833814Z" transform="translate(123.3 106.939)" fill="black"/>
</g>
<g id="Vector_12">
<path d="M 0.958119 1.92531C 1.48727 1.92531 1.91623 1.49431 1.91623 0.962654C 1.91623 0.430995 1.48727 3.56444e-06 0.958119 3.56444e-06C 0.428965 3.56444e-06 0 0.430995 0 0.962654C 0 1.49431 0.428965 1.92531 0.958119 1.92531Z" transform="translate(130.601 105.953)" fill="black"/>
</g>
</g>
<g id="Group_4">
<g id="Vector_13">
<path d="M 0.957183 1.92342C 1.48582 1.92342 1.91436 1.49285 1.91436 0.961714C 1.91436 0.430575 1.48582 -1.95469e-06 0.957183 -1.95469e-06C 0.428547 -1.95469e-06 0 0.430575 0 0.961714C 0 1.49285 0.428547 1.92342 0.957183 1.92342Z" transform="translate(84.2197 118.993)" fill="black"/>
</g>
<g id="Vector_14">
<path d="M 0.958116 1.92531C 1.48727 1.92531 1.91624 1.49431 1.91624 0.962651C 1.91624 0.430992 1.48727 0 0.958116 0C 0.428962 0 2.51768e-06 0.430992 2.51768e-06 0.962651C 2.51768e-06 1.49431 0.428962 1.92531 0.958116 1.92531Z" transform="translate(91.5188 118.007)" fill="black"/>
</g>
<g id="Vector_15">
<path d="M 0.958117 1.92531C 1.48727 1.92531 1.91624 1.49431 1.91624 0.962654C 1.91624 0.430995 1.48727 -3.10451e-06 0.958117 -3.10451e-06C 0.428964 -3.10451e-06 -3.26154e-06 0.430995 -3.26154e-06 0.962654C -3.26154e-06 1.49431 0.428964 1.92531 0.958117 1.92531Z" transform="translate(98.821 117.02)" fill="black"/>
</g>
<g id="Vector_16">
<path d="M 0.957182 1.92342C 1.48582 1.92342 1.91436 1.49285 1.91436 0.961715C 1.91436 0.430576 1.48582 0 0.957182 0C 0.428546 0 0 0.430576 0 0.961715C 0 1.49285 0.428546 1.92342 0.957182 1.92342Z" transform="translate(106.122 116.035)" fill="black"/>
</g>
<g id="Vector_17">
<path d="M 0.957177 1.92343C 1.48581 1.92343 1.91436 1.49285 1.91436 0.96171C 1.91436 0.430571 1.48581 0 0.957177 0C 0.428541 0 0 0.430571 0 0.96171C 0 1.49285 0.428541 1.92343 0.957177 1.92343Z" transform="translate(113.424 115.049)" fill="black"/>
</g>
<g id="Vector_18">
<path d="M 0.957179 1.92342C 1.48582 1.92342 1.91436 1.49285 1.91436 0.961714C 1.91436 0.430574 1.48582 -2.5296e-06 0.957179 -2.5296e-06C 0.428543 -2.5296e-06 2.91822e-06 0.430574 2.91822e-06 0.961714C 2.91822e-06 1.49285 0.428543 1.92342 0.957179 1.92342Z" transform="translate(120.724 114.062)" fill="black"/>
</g>
<g id="Vector_19">
<path d="M 0.957181 1.92343C 1.48582 1.92343 1.91436 1.49285 1.91436 0.961709C 1.91436 0.43057 1.48582 0 0.957181 0C 0.428545 0 -2.34602e-06 0.43057 -2.34602e-06 0.961709C -2.34602e-06 1.49285 0.428545 1.92343 0.957181 1.92343Z" transform="translate(128.025 113.076)" fill="black"/>
</g>
</g>
<g id="Group_5">
<g id="Vector_20">
<path d="M 1.90888 0.834029C 1.83857 0.305605 1.35389 -0.0626897 0.831702 0.00889718C 0.307644 0.0786002 -0.061727 0.562749 0.00858494 1.09023C 0.0788969 1.61771 0.563581 1.98695 1.08764 1.91536C 1.60982 1.84566 1.98013 1.36057 1.90888 0.834029Z" transform="translate(77.7122 99.5485)" fill="black"/>
</g>
<g id="Vector_21">
<path d="M 1.90886 0.833775C 1.83855 0.308176 1.35856 -0.0620023 0.834497 0.00864263C 0.308564 0.0792875 -0.061743 0.564385 0.00856892 1.08998C 0.0798184 1.61841 0.565433 1.98764 1.08855 1.917C 1.61449 1.84635 1.97917 1.36126 1.90886 0.833775Z" transform="translate(85.0117 98.5616)" fill="black"/>
</g>
<g id="Vector_22">
<path d="M 0.958114 1.92531C 1.48727 1.92531 1.91623 1.49432 1.91623 0.962657C 1.91623 0.430997 1.48727 0 0.958114 0C 0.428961 0 0 0.430997 0 0.962657C 0 1.49432 0.428961 1.92531 0.958114 1.92531Z" transform="translate(92.3157 97.5756)" fill="black"/>
</g>
<g id="Vector_23">
<path d="M 0.956242 1.92154C 1.48436 1.92154 1.91249 1.49139 1.91249 0.960769C 1.91249 0.43015 1.48436 0 0.956242 0C 0.428124 0 2.46046e-06 0.43015 2.46046e-06 0.960769C 2.46046e-06 1.49139 0.428124 1.92154 0.956242 1.92154Z" transform="translate(99.6179 96.5903)" fill="black"/>
</g>
<g id="Vector_24">
<path d="M 0.956244 1.92154C 1.48436 1.92154 1.91248 1.49139 1.91248 0.960771C 1.91248 0.430152 1.48436 3.50695e-06 0.956244 3.50695e-06C 0.428126 3.50695e-06 -2.2888e-06 0.430152 -2.2888e-06 0.960771C -2.2888e-06 1.49139 0.428126 1.92154 0.956244 1.92154Z" transform="translate(106.918 95.605)" fill="black"/>
</g>
<g id="Vector_25">
<path d="M 0.95812 1.92531C 1.48727 1.92531 1.91623 1.49432 1.91623 0.962658C 1.91623 0.430998 1.48727 0 0.95812 0C 0.428967 0 0 0.430998 0 0.962658C 0 1.49432 0.428967 1.92531 0.95812 1.92531Z" transform="translate(114.218 94.617)" fill="black"/>
</g>
<g id="Vector_26">
<path d="M 0.958116 1.92531C 1.48727 1.92531 1.91624 1.49431 1.91624 0.962653C 1.91624 0.430994 1.48727 2.87455e-06 0.958116 2.87455e-06C 0.428962 2.87455e-06 2.51768e-06 0.430994 2.51768e-06 0.962653C 2.51768e-06 1.49431 0.428962 1.92531 0.958116 1.92531Z" transform="translate(121.519 93.6307)" fill="black"/>
</g>
<g id="Vector_27">
<path d="M 0.958117 1.92531C 1.48727 1.92531 1.91624 1.49432 1.91624 0.962656C 1.91624 0.430997 1.48727 0 0.958117 0C 0.428964 0 -3.26154e-06 0.430997 -3.26154e-06 0.962656C -3.26154e-06 1.49432 0.428964 1.92531 0.958117 1.92531Z" transform="translate(128.821 92.6445)" fill="black"/>
</g>
</g>
<g id="Group_6">
<g id="Vector_28">
<path d="M 0.958119 1.92531C 1.48727 1.92531 1.91623 1.49431 1.91623 0.962651C 1.91623 0.430992 1.48727 0 0.958119 0C 0.428965 0 0 0.430992 0 0.962651C 0 1.49431 0.428965 1.92531 0.958119 1.92531Z" transform="translate(82.4375 105.684)" fill="black"/>
</g>
<g id="Vector_29">
<path d="M 1.90885 0.83452C 1.8376 0.30798 1.35667 -0.0612561 0.83167 0.00844692C 0.309487 0.0790918 -0.061759 0.56513 0.00855298 1.09167C 0.0779274 1.61821 0.56448 1.98745 1.08666 1.91774C 1.61072 1.8471 1.97916 1.36106 1.90885 0.83452Z" transform="translate(89.7388 104.697)" fill="black"/>
</g>
<g id="Vector_30">
<path d="M 0.959054 1.92719C 1.48873 1.92719 1.91811 1.49578 1.91811 0.963599C 1.91811 0.431419 1.48873 0 0.959054 0C 0.429382 0 3.49042e-06 0.431419 3.49042e-06 0.963599C 3.49042e-06 1.49578 0.429382 1.92719 0.959054 1.92719Z" transform="translate(97.0381 103.71)" fill="black"/>
</g>
<g id="Vector_31">
<path d="M 0.958118 1.92531C 1.48727 1.92531 1.91624 1.49431 1.91624 0.962652C 1.91624 0.430993 1.48727 0 0.958118 0C 0.428964 0 -2.80378e-06 0.430993 -2.80378e-06 0.962652C -2.80378e-06 1.49431 0.428964 1.92531 0.958118 1.92531Z" transform="translate(104.341 102.725)" fill="black"/>
</g>
<g id="Vector_32">
<path d="M 0.956245 1.92154C 1.48436 1.92154 1.91248 1.49139 1.91248 0.960771C 1.91248 0.430151 1.48436 2.93204e-06 0.956245 2.93204e-06C 0.428126 2.93204e-06 -1.94548e-06 0.430151 -1.94548e-06 0.960771C -1.94548e-06 1.49139 0.428126 1.92154 0.956245 1.92154Z" transform="translate(111.644 101.742)" fill="black"/>
</g>
<g id="Vector_33">
<path d="M 0.958115 1.92531C 1.48727 1.92531 1.91624 1.49432 1.91624 0.962658C 1.91624 0.430998 1.48727 0 0.958115 0C 0.428961 0 0 0.430998 0 0.962658C 0 1.49432 0.428961 1.92531 0.958115 1.92531Z" transform="translate(118.943 100.753)" fill="black"/>
</g>
<g id="Vector_34">
<path d="M 1.90448 0.83452C 1.83417 0.30798 1.35417 -0.0612566 0.828239 0.00844635C 0.303243 0.0790913 -0.06238 0.565131 0.00886941 1.08979C 0.0791814 1.61821 0.559181 1.98839 1.08324 1.91774C 1.61011 1.8471 1.97479 1.362 1.90448 0.83452Z" transform="translate(126.245 99.7665)" fill="black"/>
</g>
</g>
<g id="Group_7">
<g id="Vector_35">
<path d="M 0.95718 1.92343C 1.48582 1.92343 1.91436 1.49285 1.91436 0.961711C 1.91436 0.430571 1.48582 0 0.95718 0C 0.428544 0 0 0.430571 0 0.961711C 0 1.49285 0.428544 1.92343 0.95718 1.92343Z" transform="translate(80.6575 92.377)" fill="black"/>
</g>
<g id="Vector_36">
<path d="M 0.95812 1.92531C 1.48727 1.92531 1.91623 1.49431 1.91623 0.962655C 1.91623 0.430995 1.48727 -2.75957e-06 0.95812 -2.75957e-06C 0.428966 -2.75957e-06 0 0.430995 0 0.962655C 0 1.49431 0.428966 1.92531 0.95812 1.92531Z" transform="translate(87.9578 91.3908)" fill="black"/>
</g>
<g id="Vector_37">
<path d="M 1.90867 0.83307C 1.83929 0.30653 1.35462 -0.0627079 0.830558 0.00887897C 0.308374 0.0785819 -0.0609968 0.562731 0.0083777 1.08927C 0.0786897 1.61769 0.563369 1.98505 1.08461 1.91534C 1.61055 1.8447 1.97992 1.36055 1.90867 0.83307Z" transform="translate(95.259 90.4052)" fill="black"/>
</g>
<g id="Vector_38">
<path d="M 1.90777 0.83475C 1.83652 0.306326 1.35277 -0.0619682 0.830587 0.00867669C 0.306528 0.0793216 -0.0609678 0.563477 0.00840665 1.09002C 0.0796561 1.6175 0.561529 1.98674 1.08559 1.91609C 1.60777 1.8445 1.97808 1.36035 1.90777 0.83475Z" transform="translate(102.56 89.4182)" fill="black"/>
</g>
<g id="Vector_39">
<path d="M 0.957181 1.92342C 1.48582 1.92342 1.91436 1.49285 1.91436 0.961714C 1.91436 0.430575 1.48582 -2.18466e-06 0.957181 -2.18466e-06C 0.428545 -2.18466e-06 -2.861e-06 0.430575 -2.861e-06 0.961714C -2.861e-06 1.49285 0.428545 1.92342 0.957181 1.92342Z" transform="translate(109.862 88.4331)" fill="black"/>
</g>
<g id="Vector_40">
<path d="M 0.95812 1.92531C 1.48727 1.92531 1.91623 1.49431 1.91623 0.962652C 1.91623 0.430993 1.48727 0 0.95812 0C 0.428967 0 0 0.430993 0 0.962652C 0 1.49431 0.428967 1.92531 0.95812 1.92531Z" transform="translate(117.162 87.4451)" fill="black"/>
</g>
<g id="Vector_41">
<path d="M 0.957178 1.92342C 1.48581 1.92342 1.91436 1.49285 1.91436 0.961713C 1.91436 0.430574 1.48581 -3.33448e-06 0.957178 -3.33448e-06C 0.428542 -3.33448e-06 0 0.430574 0 0.961713C 0 1.49285 0.428542 1.92342 0.957178 1.92342Z" transform="translate(124.464 86.4598)" fill="black"/>
</g>
</g>
<g id="Group_8">
<g id="Vector_42">
<path d="M 0.958116 1.92531C 1.48727 1.92531 1.91624 1.49431 1.91624 0.962655C 1.91624 0.430995 1.48727 0 0.958116 0C 0.428962 0 0 0.430995 0 0.962655C 0 1.49431 0.428962 1.92531 0.958116 1.92531Z" transform="translate(78.876 79.0676)" fill="black"/>
</g>
<g id="Vector_43">
<path d="M 1.90793 0.832872C 1.83762 0.306332 1.3548 -0.0619639 0.831683 0.00868097C 0.308562 0.0793259 -0.0617455 0.563478 0.00856641 1.09002C 0.0779409 1.61938 0.563564 1.98579 1.08575 1.91515C 1.61074 1.84545 1.97824 1.36035 1.90793 0.832872Z" transform="translate(86.178 78.0831)" fill="black"/>
</g>
<g id="Vector_44">
<path d="M 0.959057 1.92719C 1.48873 1.92719 1.91811 1.49577 1.91811 0.963595C 1.91811 0.431415 1.48873 0 0.959057 0C 0.429386 0 0 0.431415 0 0.963595C 0 1.49577 0.429386 1.92719 0.959057 1.92719Z" transform="translate(93.4775 77.0942)" fill="black"/>
</g>
<g id="Vector_45">
<path d="M 0.958114 1.92531C 1.48727 1.92531 1.91623 1.49432 1.91623 0.962656C 1.91623 0.430996 1.48727 0 0.958114 0C 0.428961 0 0 0.430996 0 0.962656C 0 1.49432 0.428961 1.92531 0.958114 1.92531Z" transform="translate(100.78 76.109)" fill="black"/>
</g>
<g id="Vector_46">
<path d="M 0.956241 1.92154C 1.48436 1.92154 1.91249 1.49139 1.91249 0.960771C 1.91249 0.430151 1.48436 0 0.956241 0C 0.428123 0 0 0.430151 0 0.960771C 0 1.49139 0.428123 1.92154 0.956241 1.92154Z" transform="translate(108.083 75.1255)" fill="black"/>
</g>
<g id="Vector_47">
<path d="M 0.958118 1.92531C 1.48727 1.92531 1.91623 1.49431 1.91623 0.962654C 1.91623 0.430995 1.48727 0 0.958118 0C 0.428965 0 0 0.430995 0 0.962654C 0 1.49431 0.428965 1.92531 0.958118 1.92531Z" transform="translate(115.381 74.1365)" fill="black"/>
</g>
<g id="Vector_48">
<path d="M 1.90448 0.833068C 1.8351 0.306528 1.35511 -0.0627091 0.828242 0.00887771C 0.303246 0.0785807 -0.0623763 0.563676 0.00887319 1.08833C 0.0791851 1.6177 0.559178 1.98599 1.08324 1.91535C 1.61011 1.84659 1.97479 1.36243 1.90448 0.833068Z" transform="translate(122.684 73.1519)" fill="black"/>
</g>
</g>
<g id="Group_9">
<g id="Vector_49">
<path d="M 1.90982 0.832902C 1.83951 0.304478 1.35482 -0.0619296 0.833577 0.00871535C 0.307644 0.0784183 -0.0617295 0.561629 0.00858247 1.08817C 0.0807694 1.61754 0.563579 1.98583 1.08764 1.91613C 1.6117 1.84454 1.97919 1.36038 1.90982 0.832902Z" transform="translate(75.9312 86.242)" fill="black"/>
</g>
<g id="Vector_50">
<path d="M 1.90886 0.833067C 1.83762 0.306527 1.35762 -0.06271 0.833558 0.00887679C 0.308562 0.0795217 -0.061745 0.563677 0.00856698 1.09022C 0.0779414 1.6177 0.564501 1.98694 1.08856 1.91629C 1.61262 1.84565 1.97824 1.36243 1.90886 0.833067Z" transform="translate(83.2324 85.2547)" fill="black"/>
</g>
<g id="Vector_51">
<path d="M 1.9054 0.833102C 1.83602 0.304678 1.35509 -0.0626752 0.830097 0.00891163C 0.304163 0.0786146 -0.0623957 0.561826 0.0088537 1.08837C 0.0782282 1.61773 0.561033 1.98509 1.08415 1.91444C 1.61009 1.84474 1.97571 1.36153 1.9054 0.833102Z" transform="translate(90.5361 84.2694)" fill="black"/>
</g>
<g id="Vector_52">
<path d="M 0.95624 1.92154C 1.48436 1.92154 1.91249 1.49139 1.91249 0.96077C 1.91249 0.430151 1.48436 0 0.95624 0C 0.428122 0 0 0.430151 0 0.96077C 0 1.49139 0.428122 1.92154 0.95624 1.92154Z" transform="translate(97.8376 83.2827)" fill="black"/>
</g>
<g id="Vector_53">
<path d="M 0.956242 1.92154C 1.48436 1.92154 1.91248 1.49139 1.91248 0.960769C 1.91248 0.43015 1.48436 0 0.956242 0C 0.428124 0 2.91822e-06 0.43015 2.91822e-06 0.960769C 2.91822e-06 1.49139 0.428124 1.92154 0.956242 1.92154Z" transform="translate(105.138 82.2975)" fill="black"/>
</g>
<g id="Vector_54">
<path d="M 1.90867 0.833104C 1.8393 0.30468 1.35461 -0.0626736 0.830556 0.00891324C 0.308372 0.0795582 -0.0609986 0.562769 0.00837587 1.08931C 0.0786878 1.61773 0.563373 1.98509 1.08649 1.91633C 1.61055 1.84662 1.98086 1.36247 1.90867 0.833104Z" transform="translate(112.437 81.3099)" fill="black"/>
</g>
<g id="Vector_55">
<path d="M 0.957177 1.92343C 1.48581 1.92343 1.91436 1.49285 1.91436 0.961713C 1.91436 0.430574 1.48581 0 0.957177 0C 0.428541 0 0 0.430574 0 0.961713C 0 1.49285 0.428541 1.92343 0.957177 1.92343Z" transform="translate(119.739 80.3232)" fill="black"/>
</g>
<g id="Vector_56">
<path d="M 0.958116 1.92531C 1.48727 1.92531 1.91624 1.49431 1.91624 0.962654C 1.91624 0.430995 1.48727 0 0.958116 0C 0.428962 0 2.46046e-06 0.430995 2.46046e-06 0.962654C 2.46046e-06 1.49431 0.428962 1.92531 0.958116 1.92531Z" transform="translate(127.04 79.3369)" fill="black"/>
</g>
</g>
</g>
<g id="Vector_57">
<path d="M 54.5049 0L 2.2888e-07 25.8306L 0.0825008 32.2047L 50.393 23.3938L 54.5049 0Z" transform="translate(74.7004 26)" fill="#FFB946"/>
</g>
<g id="Vector_58">
<path d="M 17.2789 5.78535L -3.1471e-07 -2.58709e-07" stroke-width="3" stroke-miterlimit="10" transform="translate(65.6848 64.914)" stroke="black"/>
</g>
<g id="Vector_59">
<path d="M 0.748218 3.01828e-07L 5.42349 7.04377L 11.4328 6.03967L 11.0981 18.1152L 9.76408 27.8435L 1.41665 24.153L 3.41913 17.4446C 3.41913 17.4446 -1.92364 7.04377 0.748218 3.01828e-07Z" transform="translate(82.0483 41.767)" fill="white"/>
</g>
<g id="Group_10">
<g id="Vector_60">
<path d="M 3.65716 7.34895C 5.67695 7.34895 7.31432 5.70384 7.31432 3.67448C 7.31432 1.64512 5.67695 0 3.65716 0C 1.63737 0 0 1.64512 0 3.67448C 0 5.70384 1.63737 7.34895 3.65716 7.34895Z" transform="translate(123.892 34.1637)" fill="black"/>
</g>
<g id="Vector_61">
<path d="M 2.06998 4.15957C 3.21321 4.15957 4.13997 3.22842 4.13997 2.07979C 4.13997 0.931152 3.21321 0 2.06998 0C 0.926764 0 0 0.931152 0 2.07979C 0 3.22842 0.926764 4.15957 2.06998 4.15957Z" transform="translate(136.86 32.6406)" fill="black"/>
</g>
</g>
<g id="Vector_62">
<path d="M -1.4305e-06 0.484173C 2.61654 -0.129025 5.46839 -0.356031 7.87587 1.00412C 9.44899 1.89236 10.7418 3.67827 11.6333 6.1612C 13.3846 8.8052 15.3196 11.7808 15.3196 11.7808L 13.0096 12.4514C 13.0096 12.4514 13.8871 14.7168 14.0108 17.6113C 14.1149 20.0283 12.5071 23.2714 12.5071 23.2714" stroke-width="3" stroke-miterlimit="10" transform="translate(56.6826 38.8763)" stroke="black"/>
</g>
<g id="Vector_63">
<path d="M 4.75684 -1.29355e-06L 11.518 29.312L -2.5749e-06 27.0476" stroke-width="3" stroke-miterlimit="10" transform="translate(90.2263 57.616)" stroke="black"/>
</g>
<g id="Vector_64">
<path d="M 2.861e-07 20.6603L 29.0538 28.7167L 33.4094 2.5159L 23.8948 -1.2648e-06" stroke-width="3" stroke-miterlimit="10" transform="translate(59.5703 66.6755)" stroke="black"/>
</g>
<g id="Vector_65">
<path d="M 24.0851 4.09623e-07C 21.957 5.15708 23.0586 8.52919 23.7101 10.6938C 24.6476 13.8078 26.546 20.0933 26.546 20.0933L 21.3308 37.9909L 1.25884e-06 31.7375" stroke-width="3" stroke-miterlimit="10" transform="translate(58.8784 40.0056)" stroke="black"/>
</g>
<g id="Vector_66">
<path d="M 1.37328e-06 21.5128L 2.20967 10.9132L 2.12904 -2.01218e-07" stroke-width="3" stroke-miterlimit="10" transform="translate(90.7271 48.1816)" stroke="black"/>
</g>
<g id="Vector_67">
<path d="M 20.4439 -1.03484e-06C 20.4439 -1.03484e-06 20.0258 8.19104 15.5258 16.2351C 9.4593 27.0787 6.0081e-07 33.5959 6.0081e-07 33.5959" stroke-width="3" stroke-miterlimit="10" transform="translate(56.9199 91.7016)" stroke="black"/>
</g>
<g id="Vector_68">
<path d="M 4.14845e-07 4.41928L 0.274685 4.58317C 2.02217 5.62212 4.44465 5.1521 5.68214 3.53386L 5.87902 3.2786C 6.87651 1.97119 8.83868 1.5916 10.2515 2.42991L 10.5252 2.59475C 11.368 3.09869 12.3937 3.26541 13.4193 3.0676C 14.4477 2.86886 15.3336 2.32913 15.9308 1.54638L 16.1258 1.29112C 16.6105 0.660025 17.3324 0.227678 18.1592 0.0666072C 18.988 -0.0935212 19.8167 0.0364652 20.4973 0.441496L 20.7748 0.607277C 21.6289 1.11498 22.6461 1.25909 23.607 1.08766" stroke-width="3" stroke-miterlimit="10" transform="translate(33.2324 38.1964)" stroke="black"/>
</g>
<g id="Vector_69">
<path d="M -1.16228e-08 6.03151C 0.829681 5.86856 1.6603 6.00137 2.33904 6.4064L 2.6156 6.57312C 3.45935 7.07234 4.48684 7.24283 5.50777 7.04314C 6.53526 6.8444 7.42588 6.30561 8.02306 5.52287L 8.21619 5.2676C 9.21555 3.95926 11.1768 3.57872 12.5877 4.4208L 12.8652 4.58376C 14.6118 5.62271 17.0361 5.15269 18.2727 3.53445L 18.4686 3.27824C 19.4652 1.97178 21.4273 1.59124 22.8401 2.43144L 23.1158 2.59534C 23.9567 3.10022 24.9832 3.266 26.0079 3.06725C 27.0363 2.8685 27.9232 2.32877 28.5223 1.54697L 28.7135 1.29076C 29.2001 0.65967 29.922 0.228265 30.7479 0.0662531C 31.5766 -0.0938754 32.4063 0.0379948 33.086 0.443026L 33.3644 0.60598C 34.2194 1.11557 35.2357 1.25874 36.1985 1.08825" stroke-width="3" stroke-miterlimit="10" transform="translate(21 47.0189)" stroke="black"/>
</g>
<g id="Vector_70">
<path d="M -7.1525e-09 5.45755L 0.194061 5.20229C 1.19437 3.89583 3.1556 3.51435 4.56559 4.35361L 4.84402 4.51845C 6.5887 5.5574 9.01305 5.08643 10.2515 3.47008L 10.4455 3.21387C 11.4421 1.90741 13.4043 1.52781 14.818 2.36613L 15.0927 2.53003C 15.9346 3.03302 16.9611 3.20163 17.9867 3.00382C 19.0133 2.80413 19.9011 2.26441 20.5001 1.4826L 20.6933 1.22734C 21.178 0.595301 21.8979 0.163897 22.7258 7.76128e-07" stroke-width="3" stroke-miterlimit="10" transform="translate(29.0813 53.4912)" stroke="black"/>
</g>
<g id="Vector_71">
<path d="M 26.7917 16.8719C 25.5382 12.8461 22.7014 7.7521 16.273 5.54892C 6.00651 2.02704 2.43185e-07 -7.76128e-07 2.43185e-07 -7.76128e-07" stroke-width="3" stroke-miterlimit="10" transform="translate(49.9124 59.6167)" stroke="black"/>
</g>
<g id="Vector_72">
<path d="M 22.0817 12.7377L 17.8489 -3.162e-07C 16.0274 4.81798 14.2733 7.58538 9.01493 9.59923L 8.0108e-07 12.6181" stroke-width="3" stroke-miterlimit="10" transform="translate(96.2488 34.4322)" stroke="black"/>
</g>
<g id="Vector_73">
<path d="M 7.1525e-07 1.76047L 6.26151 -8.76737e-07" stroke-width="3" stroke-miterlimit="10" transform="translate(70.9561 53.3405)" stroke="black"/>
</g>
<g id="Vector_74">
<path d="M 6.22909 14.3079L 13.775 11.6988C 16.0315 11.0404 17.329 8.66672 16.6699 6.39666C 16.0146 4.12943 13.6512 2.8258 11.3937 3.48609L 0.515072 6.79321C 0.515072 6.79321 -0.863039 2.64212 0.889134 -5.60537e-07" stroke-width="3" stroke-miterlimit="10" transform="translate(86.4685 43.0244)" stroke="black"/>
</g>
<g id="Vector_75">
<path d="M 7.19822 7.6937L 5.44886 8.21365C 3.19138 8.87583 0.826083 7.57219 0.170776 5.30308C -0.486407 3.03491 0.811083 0.66312 3.06763 -5.7491e-08" stroke-width="3" stroke-miterlimit="10" transform="translate(78.978 51.3276)" stroke="black"/>
</g>
<g id="Vector_76">
<path d="M 2.17436e-06 1.59834C 1.12781 1.22062 2.43654 0.906958 3.72466 0.558443C 10.2346 -1.20297 16.4952 1.56537 17.7486 3.82977" stroke-width="3" stroke-miterlimit="10" transform="translate(102.496 47.9688)" stroke="black"/>
</g>
<g id="Vector_77">
<path d="M -8.583e-08 3.45972L 3.91122 1.00609e-07L 5.00621 4.08893L -8.583e-08 3.45972Z" transform="translate(61.1792 46.6406)" fill="black"/>
</g>
<g id="Vector_78">
<path d="M 9.59242 4.69648L 5.722e-08 1.32229e-06L 1.04343 11.112L 9.59242 4.69648Z" transform="translate(62.9041 58.782)" fill="black"/>
</g>
<g id="Vector_79">
<path d="M 3.55279 1.34128C 3.29123 0.37109 2.29655 -0.19878 1.3328 0.0640191C 0.369999 0.330586 -0.199056 1.33092 0.0643792 2.29734C 0.32969 3.2647 1.32155 3.83646 2.28623 3.57178C 3.24904 3.30709 3.81623 2.3077 3.55279 1.34128Z" transform="translate(90.8191 41.4656)" fill="black"/>
</g>
<g id="Vector_80">
<path d="M -1.40189e-06 29.539L 1.72405 2.93204e-06" stroke-width="3" stroke-miterlimit="10" transform="translate(75.7776 92.7933)" stroke="black"/>
</g>
<g id="Vector_81">
<path d="M 6.46588 2.06968e-06C 6.46588 2.06968e-06 4.13809 4.15863 -1.00135e-06 5.9775" stroke-width="3" stroke-miterlimit="10" transform="translate(59.397 88.6347)" stroke="black"/>
</g>
<g id="Vector_82">
<path d="M 1.80749 3.63209C 2.80573 3.63209 3.61497 2.81902 3.61497 1.81605C 3.61497 0.813073 2.80573 0 1.80749 0C 0.80924 0 0 0.813073 0 1.81605C 0 2.81902 0.80924 3.63209 1.80749 3.63209Z" transform="translate(43.6216 98.5147)" fill="black"/>
</g>
<g id="Vector_83">
<path d="M 11.2677 27.6589L 4.9584 -2.87455e-07L 2.66998 0.613199L 1.0003 9.33361L 2.50311 9.92231L 2.97544e-06 25.4359L 11.2677 27.6589Z" transform="translate(90.4766 59.269)" fill="black"/>
</g>
<g id="Vector_84">
<path d="M 8.2969e-07 -1.12107e-06L 9.31117 3.11874L 8.96524 10.3961L 4.13809 7.624L 8.2969e-07 -1.12107e-06Z" transform="translate(71.9846 67.5844)" fill="black"/>
</g>
</g>
</g>
</g>
</g>
</svg>

