<svg width="160" height="160" viewBox="0 0 160 160" version="1.1" xmlns="http://www.w3.org/2000/svg" xmlns:xlink="http://www.w3.org/1999/xlink">
<g id="Canvas" fill="none">
<g id="Component">
<g id="03">
<g id="Group">
<g id="Vector">
<path d="M 61.6228 72.5287L 45.075 64.4127L 18.5004 73.1135L 4.40053e-07 20.2424L 73.4809 -5.23031e-09L 61.6228 72.5287Z" transform="translate(49.4536 26.7543)" fill="#FFB946"/>
</g>
<g id="Vector_2">
<path d="M 12.6147 0.251437L 5.04688 25.1809L -1.44959e-06 0L 12.6147 0.251437Z" transform="translate(85.1938 26)" fill="white"/>
</g>
<g id="Vector_3">
<path d="M 23.8648 19.9687C 23.8648 19.9687 26.4366 15.5475 24.8004 9.26576C 23.9759 6.1017 21.6696 1.48807 14.9763 0.190387C 5.38473 -1.67093 -0.22706 10.6605 0.00704719 13.4541C 0.239458 16.2453 16.8467 20.2016 23.8648 19.9687Z" transform="translate(48.8953 39.0346)" fill="black"/>
</g>
<g id="Vector_4">
<path d="M 43.4829 4.11987e-07C 38.9551 10.557 34.7836 17.2159 34.7836 17.2159C 29.6502 20.6196 14.6063 32.4371 9.46014 37.2448C 7.04951 39.4993 3.91027 41.6374 -4.69174e-08 43.2683" stroke-width="3" stroke-miterlimit="10" transform="translate(34.3569 88.7649)" stroke="black"/>
</g>
<g id="Vector_5">
<path d="M 23.085 -2.21443e-06C 23.085 -2.21443e-06 16.3994 2.25872 13.1049 4.65666C 7.86126 8.47378 4.28858 17.442 3.68868e-07 20.5791" stroke-width="3" stroke-miterlimit="10" transform="translate(40.5371 101.918)" stroke="black"/>
</g>
<g id="Vector_6">
<path d="M 0.370579 4.37737e-07C 0.370579 4.37737e-07 -5.12585 30.4805 26.2174 36.9951L 25.0468 10.2381L 0.370579 4.37737e-07Z" transform="translate(39.6577 79.4777)" fill="#FA3778"/>
</g>
<g id="Vector_7">
<path d="M 0.000855795 13.9796C 0.000855795 13.9796 -0.136555 8.85215 3.06885 4.85278C 5.26997 2.10469 9.20569 -0.0325314 14.4231 0.000374856L 14.4231 13.9796L 0.000855795 13.9796Z" transform="translate(64.7471 66.406)" fill="#464BD7"/>
</g>
<g id="Vector_8">
<path d="M -7.1185e-08 21.6937L 12.0955 3.90488C 12.0955 3.90488 32.4841 1.08422 36.6293 4.7636e-07C 37.5004 2.81981 37.6803 10.1334 31.3941 16.4869C 24.4837 23.4731 -7.1185e-08 21.6937 -7.1185e-08 21.6937Z" transform="translate(36.397 48.7247)" fill="black"/>
</g>
<g id="Vector_9">
<path d="M 3.72104e-08 20.9005C 1.74563 15.1875 10.9038 1.02997e-07 25.516 1.02997e-07C 34.2399 1.02997e-07 38.6905 5.32153 39.1816 9.47447C 39.8381 15.023 33.1499 20.9005 27.2608 20.9005C 14.3934 20.9005 5.01634 20.9005 3.72104e-08 20.9005Z" transform="translate(34.2053 38.5272)" fill="black"/>
</g>
<g id="Vector_10">
<path d="M 17.6821 19.6222C 17.3717 19.6222 10.977 20.0095 5.83 14.8905C -1.2297 7.86881 0.0994557 -2.57492e-08 0.0994557 -2.57492e-08L 44.3067 -2.57492e-08C 44.3067 -2.57492e-08 39.98 12.4099 35.7703 18.6924C 31.4452 25.1446 26.104 36.0644 26.104 36.0644C 26.104 36.0644 16.4344 31.4103 17.6821 19.6222Z" transform="translate(39.928 79.4786)" fill="#FA3778"/>
</g>
<g id="Vector_11">
<path d="M 14.5783 7.71694C 17.3248 9.72759 22.8823 16.5586 28.5238 28.5964L 19.4021 28.5964L 7.24793e-07 10.4709L 0.701474 6.98119L 6.54907 1.39046e-06L 8.38206 5.50547C 9.91139 5.83622 12.1821 5.96194 14.5783 7.71694Z" transform="translate(80.4543 99.7201)" fill="black"/>
</g>
<g id="Vector_12">
<path d="M 16.2091 8.62012C 16.2091 8.62012 17.6282 4.5718 17.7368 3.13996C 17.8453 1.70812 12.7094 -0.641727 11.7068 0.164054C 8.78047 2.51305 4.61828 5.39868 4.61828 5.39868C 4.61828 5.39868 1.5189 6.40275 0.708007 6.90478C -0.103735 7.40681 0.00483614 8.62012 0.00483614 8.62012L 6.81006 8.62012L 11.0851 7.72575L 11.1758 8.62012L 16.2091 8.62012Z" transform="translate(47.5259 125.38)" fill="black"/>
</g>
<g id="Vector_13">
<path d="M 0.0190218 7.44441L 5.86577 7.44441L 10.3096 6.048L 10.3096 7.44441L 14.6609 7.44441C 14.6609 7.44441 15.5439 5.66831 15.5439 2.72531C 15.5439 1.78537 15.0231 0.540002 14.6753 2.16293e-06L 8.59618 0.776251L 3.56032 4.73344C 3.56032 4.73344 1.63912 5.31731 1.03688 5.73665C -0.22526 6.61584 0.0190218 7.44441 0.0190218 7.44441Z" transform="translate(90.3381 124.539)" fill="black"/>
</g>
<g id="Vector_14">
<path d="M 15.1381 18.2015C 16.9906 14.7016 25.2149 0.0279298 25.2149 0.0279298C 25.2149 0.0279298 40.7618 -0.596445 38.7821 4.05937C 37.0678 8.09249 24.1258 22.9855 24.1258 22.9855C 24.1258 22.9855 22.8916 29.063 20.6159 33.1063C 16.7947 39.8917 8.37273 45.4748 8.37273 45.4748L 0 42.293C 0 42.293 10.4585 27.0423 15.1381 18.2015Z" transform="translate(57.1885 83.7166)" fill="white"/>
</g>
<g id="Vector_15">
<path d="M -1.0613e-06 53.2052C 7.695 46.6805 17.2824 38.7745 18.2078 29.3212C 18.2078 29.3212 24.4735 22.3366 30.5281 15.6853C 33.2297 12.7187 36.2044 8.40712 33.429 -1.59645e-06" stroke-width="3" stroke-miterlimit="10" transform="translate(63.3696 76.5694)" stroke="black"/>
</g>
<g id="Vector_16">
<path d="M 23.7806 35.577C 13.4883 36.2815 5.53545 33.7174 0.858395 28.8329C 1.79398 23.9155 2.52005 22.7377 2.14429 16.4467C 1.50304 5.74622 6.47137e-07 2.39316 6.47137e-07 2.39316C 1.6396 1.1385 5.54987 -0.117001 9.08184 0.00871794C 13.4968 0.166499 15.5961 0.928406 15.5961 0.928406C 15.5961 0.928406 21.2071 22.9351 23.7806 35.577Z" transform="translate(79.5178 54.6011)" fill="#464BD7"/>
</g>
<g id="Vector_17">
<path d="M 13.3696 -1.31321e-06C 13.4714 7.95994 13.222 15.5123 11.6027 21.5831C 8.79005 32.1317 -1.29427e-07 30.6298 -1.29427e-07 30.6298L -1.29427e-07 8.03081L 4.84501 4.95703C 4.84501 4.95703 9.08014 2.25872 13.3696 -1.31321e-06Z" transform="translate(71.3198 59.6293)" fill="#FA3778"/>
</g>
<g id="Vector_18">
<path d="M 4.8564 10.9367C 11.218 7.263 7.76409 1.33896e-06 7.76409 1.33896e-06C 7.76409 1.33896e-06 3.89283 2.49244 0.930016 4.07869C -2.05909 5.68013 2.94707 12.0395 4.8564 10.9367Z" transform="translate(78.4836 58.0718)" fill="#FA3778"/>
</g>
<g id="Vector_19">
<path d="M -6.21251e-07 26.2254L 17.5343 -1.02997e-06" stroke-width="3" stroke-miterlimit="10" transform="translate(55.4226 101.541)" stroke="black"/>
</g>
<g id="Vector_20">
<path d="M -3.10626e-06 1.59645e-06C -3.10626e-06 1.59645e-06 9.58737 3.63572 10.327 16.1781L 0.986473 16.7231L -3.10626e-06 1.59645e-06Z" transform="translate(95.3284 70.458)" fill="#464BD7"/>
</g>
<g id="Vector_21">
<path d="M -1.44959e-06 2.00728L -1.44959e-06 20.4601L 6.03929 23.5077C 6.03929 23.5077 6.87902 18.8215 6.20639 12.1297C 5.62536 6.34247 2.84322 4.37736e-07 2.84322 4.37736e-07L -1.44959e-06 2.00728Z" transform="translate(104.703 42.5636)" fill="#464BD7"/>
</g>
<g id="Vector_22">
<path d="M 1.29427e-07 5.2097L 29.0047 15.9135L 28.7511 9.37951C 28.7511 9.37951 20.5522 4.36005 15.3798 1.34786C 14.1881 0.655141 11.2999 -1.3707 6.42269 1.47358C 3.63121 3.10033 1.29427e-07 5.2097 1.29427e-07 5.2097Z" transform="translate(81.5449 49.3724)" fill="#464BD7"/>
</g>
<g id="Vector_23">
<path d="M 36.005 -2.57492e-07L 0.600518 1.86806C 0.600518 1.86806 -1.67015 12.9667 2.61927 20.4964L 36.005 -2.57492e-07Z" transform="translate(35.6482 82.8012)" fill="#E62D73"/>
</g>
<g id="Vector_24">
<path d="M 3.73667 16.7307L 37.7119 4.37737e-07L 37.6678 4.43981L 0.477834 27.9382C -0.22364 26.5435 -0.804668 19.4088 3.73667 16.7307Z" transform="translate(70.7766 40.1379)" fill="white"/>
</g>
<g id="Vector_25">
<path d="M 2.26983 15.8102L -3.62397e-07 3.0899e-07" stroke-width="3" stroke-miterlimit="10" transform="translate(96.9258 61.2612)" stroke="black"/>
</g>
<g id="Group_2">
<g id="Vector_26">
<path d="M 1.26839e-06 7.58889C 1.26839e-06 7.58889 5.95447 3.05121 16.424 0.541052C 19.5768 -0.214948 22.2385 -0.450354 22.7322 1.67083C 23.1274 3.37268 21.8492 4.80789 18.5691 5.56052C 8.24805 7.93061 1.26839e-06 7.58889 1.26839e-06 7.58889Z" transform="translate(70.7871 33.2383)" fill="black"/>
</g>
<g id="Vector_27">
<path d="M 8.96387 11.7559C 7.38534 13.289 1.36556 15.3106 1.36556 15.3106C 1.36556 15.3106 0.551277 11.0176 0.244223 8.01385C -0.311358 2.57757 -0.426715 -0.172211 5.66941 0.00835166C 9.52539 0.125633 11.7884 0.982883 12.238 3.02898C 13.1973 7.3996 10.5449 10.2219 8.96387 11.7559Z" transform="translate(76.2947 35.6273)" fill="white"/>
</g>
<g id="Vector_28">
<path d="M 5.43595e-07 2.76075L 6.18094 4.37737e-07L 10.8495 9.45253L 2.10273 14.1379L 5.43595e-07 2.76075Z" transform="translate(81.6621 42.5636)" fill="white"/>
</g>
<g id="Vector_29">
<path d="M 0.028867 9.55664C 0.028867 9.55664 3.56083 7.54936 7.59834 6.12679C 8.43807 8.38636 10.7512 12.6937 10.7512 12.6937L 13.9481 14.4074C 13.9481 14.4074 16.0924 9.09595 15.4621 6.21032C 14.9176 3.72126 12.7623 0.2332 9.36347 0.0188872C 6.75436 -0.147332 2.57097 0.763918 0.787172 3.53395C -0.0500161 4.83079 -0.0406866 8.14251 0.028867 9.55664Z" transform="translate(75.7041 31.2512)" fill="black"/>
</g>
<g id="Vector_30">
<path d="M -1.16485e-06 1.28746e-08L 2.5175 11.2818L 7.9851 9.18928" stroke-width="3" stroke-miterlimit="10" transform="translate(76.1165 38.8115)" stroke="black"/>
</g>
<g id="Vector_31">
<path d="M 2.58855e-08 0.752625L 4.62532 -1.22309e-07L 4.0375 5.64638L 1.21973 6.94153L 2.58855e-08 0.752625Z" transform="translate(80.1902 35.7048)" fill="black"/>
</g>
<g id="Vector_32">
<path d="M 0.0262608 2.43071C 0.278181 0.798899 1.52336 -0.330882 2.71849 0.087618C 4.61001 0.749118 4.14435 5.46062 2.04501 5.60912C 0.867691 5.69181 -0.180704 3.76468 0.0262608 2.43071Z" transform="translate(83.4019 39.3803)" fill="white"/>
</g>
<g id="Vector_33">
<path d="M -1.52724e-06 9.70481L 1.80924 -7.72476e-08L 14.5486 0.502875L 14.468 7.01494L -1.52724e-06 9.70481Z" transform="translate(75.5635 28.7599)" fill="black"/>
</g>
</g>
<g id="Vector_34">
<path d="M 1.68256e-07 16.8151C 1.68256e-07 16.8151 4.28942 22.0852 8.578 23.3398L 22.0332 -1.13297e-06L 1.68256e-07 16.8151Z" transform="translate(50.6294 86.4825)" fill="#E62D73"/>
</g>
<g id="Vector_35">
<path d="M -2.58855e-07 6.63188L 7.2726 6.63188C 7.2726 6.63188 7.35657 1.32384 2.22741 7.72476e-07C 1.30201 2.82994 -2.58855e-07 6.63188 -2.58855e-07 6.63188Z" transform="translate(67.7446 72.8619)" fill="white"/>
</g>
<g id="Vector_36">
<path d="M 8.013 0.20059C 3.64724 -1.03972 0.678484 3.76712 0.149198 6.51521C -0.258793 8.63893 0.145805 10.1518 1.66241 11.6604C 3.8067 13.7934 8.01215 17.1827 8.01215 17.1827C 8.01215 17.1827 10.1149 14.0448 10.8715 12.2873C 11.2591 11.387 11.7545 9.65228 12.0514 6.58693C 12.3576 4.62437 10.8316 1.00215 8.013 0.20059Z" transform="translate(59.9402 42.4475)" fill="white"/>
</g>
<g id="Vector_37">
<path d="M 16.988 12.0462L 5.21398 4.63486e-07L -1.16485e-06 3.67959L 12.6155 17.7348L 16.988 12.0462Z" transform="translate(63.0752 45.8273)" fill="white"/>
</g>
<g id="Group_3">
<g id="Vector_38">
<path d="M -1.44959e-06 7.91016L -1.44959e-06 -2.40023e-07C -1.44959e-06 -2.40023e-07 4.11723 -0.00590622 5.29965 2.93203C 5.97228 4.60519 3.78559 8.45353 3.78559 8.45353L -1.44959e-06 7.91016Z" transform="translate(104.703 36.2018)" fill="white"/>
</g>
<g id="Vector_39">
<path d="M 2.43323e-06 0.784319C 2.43323e-06 0.784319 5.92902 -1.85156 8.07416 2.54101L 1.46826 5.75907L 2.43323e-06 0.784319Z" transform="translate(104.873 36.2587)" fill="white"/>
</g>
</g>
<g id="Vector_40">
<path d="M 1.29427e-08 4.76803L 20.436 8.53284C 20.436 8.53284 21.9501 2.75991 27.2481 9.01222e-07" stroke-width="3" stroke-miterlimit="10" transform="translate(41.5466 69.6683)" stroke="black"/>
</g>
<g id="Vector_41">
<path d="M 1.50136e-06 11.8775L 17.3672 18.3195C 17.3672 18.3195 20.2732 10.9358 18.1662 7.85351e-07" stroke-width="3" stroke-miterlimit="10" transform="translate(94.6956 48.3375)" stroke="black"/>
</g>
<g id="Vector_42">
<path d="M 1.13896e-06 28.82C 5.46675 17.7356 5.46675 10.2068 5.46675 10.2068C 5.46675 10.2068 9.6705 6.19144 7.48465 -3.60489e-07" stroke-width="3" stroke-miterlimit="10" transform="translate(80.1472 58.0398)" stroke="black"/>
</g>
<g id="Vector_43">
<path d="M 4.86949 -5.14984e-08L 9.49651 5.17641C 9.49651 5.17641 4.71427 9.04922 1.60302 8.65603C -1.50399 8.262 0.0762299 2.38359 4.86949 -5.14984e-08Z" transform="translate(31 125.258)" fill="black"/>
</g>
<g id="Group_4">
<g id="Group_5">
<g id="Vector_44">
<path d="M 1.31373 0.079096C 0.841276 -0.126779 0.291631 0.082468 0.0804252 0.55328C -0.128236 1.02072 0.0829687 1.57337 0.553728 1.78262C 1.02703 1.99019 1.58007 1.77419 1.78873 1.30506C 1.99824 0.837623 1.78619 0.290033 1.31373 0.079096Z" transform="translate(106.06 98.7618)" fill="black"/>
</g>
<g id="Vector_45">
<path d="M 1.31441 0.081054C 0.842801 -0.12904 0.289764 0.0835896 0.0802546 0.553558C -0.128406 1.02353 0.0836449 1.57196 0.556101 1.78121C 1.02856 1.98708 1.57905 1.77699 1.78856 1.30787C 1.99807 0.8379 1.78517 0.28946 1.31441 0.081054Z" transform="translate(108.977 92.2284)" fill="black"/>
</g>
<g id="Vector_46">
<path d="M 1.3144 0.0800793C 0.84194 -0.128327 0.291447 0.084296 0.0810895 0.552577C -0.129268 1.02339 0.0836376 1.57099 0.55779 1.77855C 1.03025 1.98527 1.57904 1.77686 1.78939 1.30858C 1.9989 0.836924 1.78685 0.289329 1.3144 0.0800793Z" transform="translate(111.893 85.697)" fill="black"/>
</g>
<g id="Vector_47">
<path d="M 0.933034 1.85625C 1.44834 1.85625 1.86608 1.44071 1.86608 0.928124C 1.86608 0.415535 1.44834 0 0.933034 0C 0.417732 0 0 0.415535 0 0.928124C 0 1.44071 0.417732 1.85625 0.933034 1.85625Z" transform="translate(114.81 79.1672)" fill="black"/>
</g>
<g id="Vector_48">
<path d="M 0.934733 1.85963C 1.45097 1.85963 1.86946 1.44333 1.86946 0.929812C 1.86946 0.416291 1.45097 0 0.934733 0C 0.418494 0 2.32969e-06 0.416291 2.32969e-06 0.929812C 2.32969e-06 1.44333 0.418494 1.85963 0.934733 1.85963Z" transform="translate(117.726 72.6315)" fill="black"/>
</g>
<g id="Vector_49">
<path d="M 1.31446 0.0804615C 0.842003 -0.127945 0.289813 0.0821502 0.0811524 0.552963C -0.129205 1.02293 0.0836959 1.56968 0.554455 1.78062C 1.02946 1.98734 1.57825 1.77725 1.78946 1.30643C 1.99812 0.834776 1.78607 0.288868 1.31446 0.0804615Z" transform="translate(120.642 66.0989)" fill="black"/>
</g>
<g id="Vector_50">
<path d="M 1.31372 0.080712C 0.840416 -0.128538 0.289929 0.0832416 0.0812681 0.552367C -0.129089 1.02149 0.082963 1.56908 0.555419 1.77833C 1.02787 1.98843 1.57752 1.77496 1.78873 1.30668C 1.99823 0.83418 1.78618 0.287431 1.31372 0.080712Z" transform="translate(123.56 59.5672)" fill="black"/>
</g>
</g>
<g id="Group_6">
<g id="Vector_51">
<path d="M 0.933886 1.85794C 1.44966 1.85794 1.86777 1.44203 1.86777 0.928971C 1.86777 0.415916 1.44966 -1.95694e-06 0.933886 -1.95694e-06C 0.418116 -1.95694e-06 3.2098e-06 0.415916 3.2098e-06 0.928971C 3.2098e-06 1.44203 0.418116 1.85794 0.933886 1.85794Z" transform="translate(110.632 104.496)" fill="black"/>
</g>
<g id="Vector_52">
<path d="M 1.31407 0.0812167C 0.842459 -0.128877 0.291965 0.0829031 0.0807598 0.552028C -0.128749 1.02031 0.0833024 1.57297 0.555758 1.778C 1.02737 1.98978 1.5804 1.77631 1.78906 1.30549C 1.99942 0.83637 1.78652 0.288779 1.31407 0.0812167Z" transform="translate(113.549 97.9632)" fill="black"/>
</g>
<g id="Vector_53">
<path d="M 1.31216 0.0797801C 0.8431 -0.128626 0.289219 0.0856894 0.080558 0.554814C -0.128103 1.0231 0.0822533 1.57406 0.553861 1.78078C 1.02716 1.98919 1.57765 1.77572 1.78547 1.30912C 1.99667 0.839999 1.78377 0.28903 1.31216 0.0797801Z" transform="translate(116.467 91.429)" fill="black"/>
</g>
<g id="Vector_54">
<path d="M 1.31562 0.0808318C 0.842314 -0.129262 0.290125 0.0850494 0.0806158 0.551643C -0.128893 1.02161 0.0840062 1.56921 0.556462 1.78014C 1.02807 1.98686 1.58111 1.77508 1.78892 1.30595C 1.99758 0.837672 1.78723 0.287551 1.31562 0.0808318Z" transform="translate(119.381 84.8982)" fill="black"/>
</g>
<g id="Vector_55">
<path d="M 1.31157 0.0808947C 0.841659 -0.127512 0.289474 0.0800502 0.0816615 0.550863C -0.129544 1.02083 0.0833572 1.57011 0.554117 1.77852C 1.02742 1.98692 1.57791 1.77514 1.78742 1.30518C 1.99863 0.836895 1.78403 0.28677 1.31157 0.0808947Z" transform="translate(122.3 78.3658)" fill="black"/>
</g>
<g id="Vector_56">
<path d="M 1.31329 0.0803498C 0.841681 -0.128056 0.291188 0.0828794 0.0799821 0.552004C -0.128679 1.02282 0.0850749 1.57126 0.556682 1.77882C 1.02914 1.98807 1.57963 1.77629 1.78913 1.30716C 1.99864 0.836348 1.78744 0.287912 1.31329 0.0803498Z" transform="translate(125.214 71.8332)" fill="black"/>
</g>
<g id="Vector_57">
<path d="M 0.933883 1.85794C 1.44965 1.85794 1.86777 1.44202 1.86777 0.928969C 1.86777 0.415914 1.44965 0 0.933883 0C 0.418113 0 0 0.415914 0 0.928969C 0 1.44202 0.418113 1.85794 0.933883 1.85794Z" transform="translate(128.132 65.3002)" fill="black"/>
</g>
</g>
<g id="Group_7">
<g id="Vector_58">
<path d="M 1.31289 0.0804943C 0.842128 -0.127912 0.29164 0.0821806 0.0812822 0.551306C -0.129075 1.02296 0.0829775 1.57393 0.554585 1.78149C 1.02789 1.9899 1.58262 1.77558 1.78959 1.30646C 2.00079 0.83649 1.78534 0.2889 1.31289 0.0804943Z" transform="translate(94.1453 93.4988)" fill="black"/>
</g>
<g id="Vector_59">
<path d="M 0.934732 1.85962C 1.45097 1.85962 1.86946 1.44334 1.86946 0.929814C 1.86946 0.416293 1.45097 -2.78091e-06 0.934732 -2.78091e-06C 0.418494 -2.78091e-06 0 0.416293 0 0.929814C 0 1.44334 0.418494 1.85962 0.934732 1.85962Z" transform="translate(97.063 86.966)" fill="black"/>
</g>
<g id="Vector_60">
<path d="M 1.31208 0.0790964C 0.841325 -0.126779 0.289134 0.0824684 0.0804727 0.553281C -0.129036 1.02409 0.0847108 1.57085 0.557167 1.77841C 1.02708 1.98597 1.57927 1.77672 1.78878 1.30928C 2.00083 0.839315 1.78539 0.290034 1.31208 0.0790964Z" transform="translate(99.9785 80.433)" fill="black"/>
</g>
<g id="Vector_61">
<path d="M 1.31233 0.0808939C 0.841567 -0.127512 0.291074 0.0800494 0.07902 0.550862C -0.127096 1.01999 0.0832645 1.56927 0.55572 1.77768C 1.02818 1.98693 1.57952 1.77683 1.79072 1.30686C 1.99938 0.835206 1.78478 0.287613 1.31233 0.0808939Z" transform="translate(102.895 73.9023)" fill="black"/>
</g>
<g id="Vector_62">
<path d="M 1.31394 0.0792954C 0.842329 -0.128267 0.290987 0.0860452 0.08063 0.554326C -0.128879 1.02261 0.0840208 1.57189 0.555628 1.77945C 1.02808 1.99039 1.58112 1.77692 1.78809 1.30779C 1.99844 0.838668 1.78639 0.287702 1.31394 0.0792954Z" transform="translate(105.811 67.3673)" fill="black"/>
</g>
<g id="Vector_63">
<path d="M 1.31364 0.0797402C 0.839484 -0.126979 0.289839 0.0814288 0.0811778 0.552241C -0.128331 1.02221 0.0811766 1.57065 0.554481 1.7799C 1.02609 1.98661 1.57743 1.77736 1.78864 1.30655C 1.9973 0.834051 1.7844 0.288146 1.31364 0.0797402Z" transform="translate(108.729 60.8363)" fill="black"/>
</g>
<g id="Vector_64">
<path d="M 1.31409 0.0807252C 0.842479 -0.128525 0.290288 0.0832585 0.0816274 0.55154C -0.129578 1.02151 0.0833287 1.57079 0.555784 1.78004C 1.02824 1.98676 1.58042 1.77751 1.79078 1.30754C 1.99944 0.836727 1.78654 0.287444 1.31409 0.0807252Z" transform="translate(111.644 54.303)" fill="black"/>
</g>
</g>
<g id="Group_8">
<g id="Vector_65">
<path d="M 0.935584 1.86131C 1.45229 1.86131 1.87116 1.44465 1.87116 0.930659C 1.87116 0.416672 1.45229 0 0.935584 0C 0.418877 0 0 0.416672 0 0.930659C 0 1.44465 0.418877 1.86131 0.935584 1.86131Z" transform="translate(98.717 99.2316)" fill="black"/>
</g>
<g id="Vector_66">
<path d="M 1.31442 0.080842C 0.841963 -0.128408 0.28978 0.0825279 0.0802711 0.552497C -0.12839 1.02078 0.0836619 1.57428 0.555269 1.78184C 1.02688 1.98856 1.58076 1.77593 1.79027 1.30765C 2.00063 0.839369 1.78603 0.289248 1.31442 0.080842Z" transform="translate(101.635 92.6986)" fill="black"/>
</g>
<g id="Vector_67">
<path d="M 1.31387 0.0794211C 0.841412 -0.128141 0.289222 0.085324 0.0814091 0.554449C -0.128948 1.02189 0.0822562 1.5737 0.554712 1.78211C 1.02717 1.99051 1.57936 1.77789 1.78887 1.30961C 1.99838 0.840484 1.78548 0.290359 1.31387 0.0794211Z" transform="translate(104.552 86.1652)" fill="black"/>
</g>
<g id="Vector_68">
<path d="M 0.933884 1.85794C 1.44965 1.85794 1.86777 1.44202 1.86777 0.928969C 1.86777 0.415913 1.44965 0 0.933884 0C 0.418113 0 0 0.415913 0 0.928969C 0 1.44202 0.418113 1.85794 0.933884 1.85794Z" transform="translate(107.467 79.6338)" fill="black"/>
</g>
<g id="Vector_69">
<path d="M 1.31338 0.080002C 0.840927 -0.12756 0.290432 0.0825354 0.0817716 0.550817C -0.129434 1.02079 0.0826252 1.56838 0.555081 1.77847C 1.02838 1.98603 1.57888 1.7751 1.79093 1.30597C 1.99874 0.836848 1.78414 0.290096 1.31338 0.080002Z" transform="translate(110.385 73.1025)" fill="black"/>
</g>
<g id="Vector_70">
<path d="M 1.31388 0.0807118C 0.842275 -0.128538 0.29094 0.0832414 0.0797348 0.552366C -0.128078 1.02318 0.0839724 1.57162 0.557276 1.77833C 1.02888 1.98758 1.58023 1.77749 1.79143 1.30668C 1.99755 0.837555 1.78719 0.288274 1.31388 0.0807118Z" transform="translate(113.3 66.5695)" fill="black"/>
</g>
<g id="Vector_71">
<path d="M 1.31242 0.0806057C 0.840817 -0.1278 0.292019 0.0814511 0.0799653 0.552264C -0.128696 1.02223 0.0850576 1.56983 0.557513 1.77739C 1.02827 1.98495 1.58046 1.77654 1.78912 1.30742C 1.99863 0.834917 1.78403 0.287324 1.31242 0.0806057Z" transform="translate(116.217 60.039)" fill="black"/>
</g>
</g>
<g id="Group_9">
<g id="Vector_72">
<path d="M 1.31293 0.0810965C 0.842168 -0.128153 0.29168 0.0810949 0.0804747 0.552751C -0.129034 1.02356 0.0847128 1.57032 0.557168 1.78041C 1.02878 1.98797 1.58097 1.77704 1.78793 1.30791C 1.99914 0.838786 1.78623 0.289503 1.31293 0.0810965Z" transform="translate(86.804 93.969)" fill="black"/>
</g>
<g id="Vector_73">
<path d="M 0.934734 1.85962C 1.45097 1.85962 1.86947 1.44333 1.86947 0.929813C 1.86947 0.416292 1.45097 2.52342e-06 0.934734 2.52342e-06C 0.418496 2.52342e-06 -2.69209e-06 0.416292 -2.69209e-06 0.929813C -2.69209e-06 1.44333 0.418496 1.85962 0.934734 1.85962Z" transform="translate(89.7202 87.4368)" fill="black"/>
</g>
<g id="Vector_74">
<path d="M 1.31217 0.0810564C 0.841407 -0.129037 0.289216 0.0835856 0.0805556 0.553554C -0.128105 1.02015 0.0822509 1.57196 0.553858 1.78121C 1.02716 1.98962 1.57766 1.77615 1.78632 1.30787C 1.99752 0.837058 1.78462 0.287775 1.31217 0.0810564Z" transform="translate(92.6387 80.9036)" fill="black"/>
</g>
<g id="Vector_75">
<path d="M 0.934733 1.85963C 1.45097 1.85963 1.86946 1.44333 1.86946 0.929812C 1.86946 0.416291 1.45097 0 0.934733 0C 0.418494 0 1.91552e-06 0.416291 1.91552e-06 0.929812C 1.91552e-06 1.44333 0.418494 1.85963 0.934733 1.85963Z" transform="translate(95.5549 74.3713)" fill="black"/>
</g>
<g id="Vector_76">
<path d="M 1.31145 0.0801006C 0.839847 -0.127462 0.288504 0.0817892 0.0815393 0.552602C -0.128818 1.02173 0.0815381 1.57101 0.554842 1.77773C 1.0273 1.98782 1.57779 1.77604 1.78984 1.30607C 1.99681 0.836944 1.78476 0.289351 1.31145 0.0801006Z" transform="translate(98.4719 67.8391)" fill="black"/>
</g>
<g id="Vector_77">
<path d="M 1.31366 0.0809123C 0.842057 -0.129181 0.289867 0.084288 0.07951 0.554257C -0.127454 1.02169 0.0829063 1.57182 0.55621 1.77938C 1.02867 1.98694 1.58001 1.77601 1.78952 1.30519C 1.99733 0.8386 1.78442 0.289319 1.31366 0.0809123Z" transform="translate(101.387 61.3059)" fill="black"/>
</g>
<g id="Vector_78">
<path d="M 0.933887 1.85794C 1.44966 1.85794 1.86777 1.44203 1.86777 0.92897C 1.86777 0.415915 1.44966 0 0.933887 0C 0.418117 0 -2.01907e-06 0.415915 -2.01907e-06 0.92897C -2.01907e-06 1.44203 0.418117 1.85794 0.933887 1.85794Z" transform="translate(104.303 54.7752)" fill="black"/>
</g>
</g>
<g id="Group_10">
<g id="Vector_79">
<path d="M 0.933035 1.85625C 1.44834 1.85625 1.86607 1.44071 1.86607 0.928125C 1.86607 0.415536 1.44834 0 0.933035 0C 0.417733 0 0 0.415536 0 0.928125C 0 1.44071 0.417733 1.85625 0.933035 1.85625Z" transform="translate(86.5576 62.5774)" fill="black"/>
</g>
<g id="Vector_80">
<path d="M 1.31298 0.079801C 0.840526 -0.127761 0.290881 0.0831758 0.0805232 0.554832C -0.128138 1.02143 0.082224 1.57155 0.555528 1.77996C 1.02629 1.98752 1.57847 1.77574 1.78883 1.30746C 1.99664 0.838331 1.78459 0.289895 1.31298 0.079801Z" transform="translate(89.4729 56.0429)" fill="black"/>
</g>
</g>
<g id="Group_11">
<g id="Vector_81">
<path d="M 1.31171 0.080985C 0.840952 -0.128265 0.29046 0.0818276 0.0809507 0.551796C -0.128558 1.02176 0.0826469 1.57189 0.552558 1.78114C 1.02586 1.99039 1.58059 1.77523 1.78926 1.30611C 1.99961 0.836981 1.78501 0.290235 1.31171 0.080985Z" transform="translate(82.2332 88.235)" fill="black"/>
</g>
<g id="Vector_82">
<path d="M 1.31233 0.0805516C 0.83987 -0.128698 0.290226 0.0839306 0.0824138 0.553899C -0.12964 1.02218 0.0815681 1.56977 0.554872 1.77818C 1.02818 1.98911 1.57951 1.7748 1.78902 1.30737C 1.99853 0.839085 1.78478 0.290645 1.31233 0.0805516Z" transform="translate(85.1497 81.7022)" fill="black"/>
</g>
<g id="Vector_83">
<path d="M 1.31221 0.0806817C 0.841448 -0.128568 0.29096 0.0832104 0.0806023 0.554023C -0.128907 1.02399 0.0839921 1.5699 0.557296 1.77662C 1.0289 1.98671 1.5794 1.77746 1.78891 1.30918C 1.99757 0.838367 1.78636 0.289932 1.31221 0.0806817Z" transform="translate(88.0649 75.1707)" fill="black"/>
</g>
<g id="Vector_84">
<path d="M 1.31253 0.0810132C 0.840071 -0.128237 0.290425 0.0818567 0.0809157 0.550138C -0.128593 1.02179 0.0826175 1.56939 0.554225 1.7778C 1.02753 1.9862 1.57886 1.77611 1.78668 1.30529C 1.99788 0.83617 1.78329 0.288576 1.31253 0.0810132Z" transform="translate(90.9824 68.6397)" fill="black"/>
</g>
<g id="Vector_85">
<path d="M 1.31287 0.0799208C 0.840415 -0.128485 0.289921 0.0849835 0.0804122 0.554108C -0.128249 1.0207 0.0829553 1.57336 0.554563 1.78261C 1.02787 1.99186 1.58006 1.77755 1.78956 1.30842C 1.99823 0.838453 1.78787 0.290015 1.31287 0.0799208Z" transform="translate(93.8984 62.1043)" fill="black"/>
</g>
<g id="Vector_86">
<path d="M 1.31213 0.0802451C 0.842222 -0.127317 0.291734 0.0810872 0.0805282 0.5519C -0.128133 1.02187 0.0822225 1.57115 0.555526 1.77956C 1.02713 1.98965 1.57848 1.77787 1.78968 1.30706C 2.00004 0.834556 1.78628 0.287808 1.31213 0.0802451Z" transform="translate(96.8152 55.5734)" fill="black"/>
</g>
<g id="Vector_87">
<path d="M 0.934736 1.85962C 1.45097 1.85962 1.86947 1.44333 1.86947 0.929813C 1.86947 0.416292 1.45097 0 0.934736 0C 0.418497 0 0 0.416292 0 0.929813C 0 1.44333 0.418497 1.85962 0.934736 1.85962Z" transform="translate(99.7305 49.0403)" fill="black"/>
</g>
</g>
</g>
<g id="Vector_88">
<path d="M 4.20545 2.15905C 2.3538 3.83221 0.840581 7.42743 -3.36511e-07 10.6067C 2.38094 10.6067 5.7492 10.6067 8.92916 10.6067C 12.11 10.6067 16.4825 9.52161 17.4071 7.42996C 17.9983 6.09177 15.3043 1.32374 12.1083 0.403209C 8.24211 -0.710541 5.83742 0.68249 4.20545 2.15905Z" transform="translate(55.6753 41.1564)" fill="black"/>
</g>
<g id="Vector_89">
<path d="M 3.89925 7.75744C 6.05274 7.75744 7.79849 6.02088 7.79849 3.87872C 7.79849 1.73656 6.05274 0 3.89925 0C 1.74575 0 0 1.73656 0 3.87872C 0 6.02088 1.74575 7.75744 3.89925 7.75744Z" transform="translate(64.3909 44.9591)" fill="#FA3778"/>
</g>
<g id="Vector_90">
<path d="M 0 14.5555L 15.1381 5.85562L 9.58738 1.49345e-06" stroke-width="3" stroke-miterlimit="10" transform="translate(84.4373 92.841)" stroke="black"/>
</g>
<g id="Vector_91">
<path d="M 2.69209e-06 -1.99556e-07L 2.69209e-06 11.2109C 2.69209e-06 11.2109 4.60326 9.70481 4.60326 5.35528C 4.60326 0.837844 2.69209e-06 -1.99556e-07 2.69209e-06 -1.99556e-07Z" transform="translate(104.389 33.6131)" fill="white"/>
</g>
<g id="Vector_92">
<path d="M -5.6948e-07 15.3908L 24.5567 3.21865e-07" stroke-width="3" stroke-miterlimit="10" transform="translate(79.0544 48.3383)" stroke="black"/>
</g>
</g>
</g>
</g>
</g>
</svg>

