<svg width="113" height="92" viewBox="0 0 113 92" version="1.1" xmlns="http://www.w3.org/2000/svg" xmlns:xlink="http://www.w3.org/1999/xlink">
<g id="Canvas" fill="none">
<g id="Draft_07-14">
<g id="Group">
<g id="Group_2">
<g id="Vector">
<path d="M 8.06957 13.2355L 8.06957 24.4714L 19.5576 15.5809L 19.5576 4.51528L 14.6864 2.95222L 15.0473 0.0656689L 3.09447 2.20226e-07L 1.2333e-06 1.79543L 8.06957 13.2355Z" transform="translate(62.2305 12.7571)" fill="#46B4BE"/>
</g>
</g>
<g id="Group_3">
<g id="Vector_2">
<path d="M 15.1209 13.4123L 14.5154 9.17561L 10.4142 5.47939L 8.32359 7.04723e-07L -4.18441e-07 4.83064L 15.1209 13.4123Z" transform="translate(35.2769 25.3647)" fill="#46B4BE"/>
</g>
</g>
<g id="Group_4">
<g id="Vector_3">
<path d="M 25.7913 7.93223L 24.3119 -1.76181e-07L 6.59162 -1.76181e-07L -3.19337e-07 35.1949L 21.6324 35.1949L 25.7913 7.93223Z" transform="translate(16.8066 54.7029)" fill="#FA3778"/>
</g>
</g>
<g id="Group_5">
<g id="Vector_4">
<path d="M 29.9423 0.19412L 19.9632 -5.72588e-07L 23.0216 25.0062L 1.63961 50.153L -8.8093e-08 77.4251L 3.67901 77.3991L 29.9423 35.4944L 29.9423 0.19412Z" transform="translate(74.9824 13.5703)" fill="#46B4BE"/>
</g>
</g>
<g id="Group_6">
<g id="Vector_5">
<path d="M 1.47868 0.537619L 4.6049 1.81492L 7.5305 7.96687L 8.6736 17.6159L 15.3294 24.8099L 20.7087 24.8099L 25.6181 17.6159L 22.0539 7.12472L 16.2705 1.74492L 18.5574 1.32136e-07L 24.6092 5.24413L 30.5268 16.8091L 24.2058 33.4818L 24.1726 38.9294L 4.43675 42.6256L -2.29042e-06 37.7871L -2.29042e-06 25.6167L 3.89911 17.6159L 3.89911 6.55462L 1.47868 0.537619Z" transform="translate(48.5156 38.5757)" fill="#FFB946"/>
</g>
</g>
<g id="Group_7">
<g id="Vector_6">
<path d="M 0.0663939 -1.76181e-07C 0.0223727 1.58255 -7.04744e-07 6.73575 -7.04744e-07 7.16946C -7.04744e-07 13.9449 5.49037 19.4366 12.2682 19.4366C 19.0438 19.4366 24.5356 13.9449 24.5356 7.16946C 24.5356 6.70905 24.5111 1.67275 24.4606 -1.76181e-07L 0.0663939 -1.76181e-07Z" transform="translate(48.5127 72.5635)" fill="#FFB946"/>
</g>
</g>
<g id="Group_8">
<g id="Vector_7">
<path d="M 0.47485 37.9343L 1.58567e-06 35.8213C 7.01018 34.2467 11.1626 29.8736 12.5258 28.4368L 12.6911 28.2636C 14.2628 26.6226 16.6068 23.451 17.4237 22.3303C 16.8103 19.9273 13.941 9.06303 10.1761 0.907819L 12.1426 5.39554e-07C 16.4661 9.36757 19.6168 22.1708 19.6479 22.2986L 19.7655 22.7806L 19.4768 23.1855C 19.3469 23.3666 16.2806 27.6445 14.2564 29.7596L 14.0969 29.9263C 12.6196 31.4828 8.12731 36.2146 0.47485 37.9343Z" transform="translate(78.5674 15.6155)" fill="black"/>
</g>
</g>
<g id="Group_9">
<g id="Vector_8">
<path d="M 6.02724 0L 0 0L 0 2.16429L 6.02724 2.16429L 6.02724 0Z" transform="matrix(0.159001 0.987278 -0.98728 0.158992 50.7583 32.6543)" fill="black"/>
</g>
</g>
<g id="Group_10">
<g id="Vector_9">
<path d="M 5.19566 19.0396C 3.44492 18.9689 0.702627 17.3806 0.0906618 14.0705C -0.332229 11.7879 0.802936 10.4558 1.8681 9.83157C 1.74975 7.54254 2.06079 4.66465 3.86637 2.5986C 5.27144 0.990076 7.34548 0.120503 10.03 0.0165878C 16.4781 -0.233098 19.478 2.38283 20.0878 4.70145C 20.8628 7.65511 22.4267 16.3205 22.4931 16.6878L 20.362 17.071C 20.3469 16.9823 18.7484 8.12273 17.9935 5.25062C 17.5714 3.63992 14.9395 1.99026 10.1152 2.17933C 8.0491 2.25943 6.49465 2.88004 5.49732 4.02239C 3.98617 5.75143 3.89379 8.44891 4.08215 10.4067L 4.16947 11.316L 3.28832 11.5548C 2.97368 11.6501 1.92728 12.0968 2.22028 13.6757C 2.65038 15.9951 4.50432 16.8451 5.28443 16.8762L 5.19566 19.0396Z" transform="translate(44.5024 16.0291)" fill="black"/>
</g>
</g>
<g id="Group_11">
<g id="Vector_10">
<path d="M 1.69517 4.80674L 1.05711e-06 3.45944C 0.10392 3.3281 2.59436 0.244553 7.26997 0.023732C 11.229 -0.171832 12.8318 0.901962 12.9999 1.02392L 11.7269 2.77605C 11.7248 2.77605 10.5218 2.03782 7.37101 2.18648C 3.71293 2.35967 1.77528 4.70715 1.69517 4.80674Z" transform="translate(64.5264 36.4067)" fill="black"/>
</g>
</g>
<g id="Group_12">
<g id="Vector_11">
<path d="M 1.98744 7.10091L 1.27735e-06 6.24361C 0.0295892 6.17433 3.04611 -0.606891 10.9115 0.0440253L 10.7296 2.20172C 4.43531 1.66338 2.08415 6.88009 1.98744 7.10091Z" transform="translate(74.6689 31.3501)" fill="black"/>
</g>
</g>
<g id="Group_13">
<g id="Vector_12">
<path d="M 10.542 5.33079L 8.377 5.33079L 8.377 2.86496C 7.35875 2.37281 4.68645 1.47437 0.819082 3.0562L -9.69023e-07 1.05221C 6.06986 -1.42877 9.92641 1.24056 10.0873 1.35602L 10.542 1.68004L 10.542 5.33079Z" transform="translate(79.6948 7.28125)" fill="black"/>
</g>
</g>
<g id="Group_14">
<g id="Vector_13">
<path d="M 6.7244 22.1723L 4.55943 22.1723L 4.55943 7.80883L -2.64279e-07 6.19525L -2.64279e-07 -3.08316e-07L 2.16497 -3.08316e-07L 2.16497 4.66466L 6.7244 6.27824L 6.7244 22.1723Z" transform="translate(76.5562 10.3525)" fill="black"/>
</g>
</g>
<g id="Group_15">
<g id="Vector_14">
<path d="M 26.5014 38.9698C 19.4299 38.627 12.3656 35.9274 8.06452 31.923C 5.15985 29.2183 0.419283 24.4801 0.372375 24.4324L -5.72604e-07 24.0601L 0.0627835 23.5376C 0.114743 23.1054 1.42816 12.8105 9.64567 -1.21124e-07L 11.4679 1.16833C 4.54356 11.9618 2.66436 21.0797 2.28982 23.2872C 3.47983 24.4736 7.14585 28.1092 9.53959 30.3383C 13.4228 33.9537 20.1213 36.4924 26.6046 36.8071L 26.5014 38.9698Z" transform="translate(14.5645 14.5042)" fill="black"/>
</g>
</g>
<g id="Group_16">
<g id="Vector_15">
<path d="M 9.58216 3.00522C 6.76698 1.89245 3.64076 1.88452 0.776502 2.98646L -1.25532e-06 0.965151C 3.37158 -0.33163 7.0578 -0.320805 10.3789 0.992573L 9.58216 3.00522Z" transform="translate(24.0122 6.85889)" fill="black"/>
</g>
</g>
<g id="Group_17">
<g id="Vector_16">
<path d="M 2.16497 23.5333L -8.58906e-07 23.5333L -8.58906e-07 7.40616L 4.53923 5.99391L 4.53923 -6.60678e-08L 6.7042 -6.60678e-08L 6.7042 7.58801L 2.16497 9.00025L 2.16497 23.5333Z" transform="translate(30.9575 9.39502)" fill="black"/>
</g>
</g>
<g id="Group_18">
<g id="Vector_17">
<path d="M 11.1489 8.74696C 11.1121 8.68417 7.33204 2.28687 -9.46999e-07 2.16491L 0.0368054 9.46972e-07C 8.62236 0.142885 12.8527 7.3643 13.0281 7.67172L 11.1489 8.74696Z" transform="translate(29.5347 31.1726)" fill="black"/>
</g>
</g>
<g id="Group_19">
<g id="Vector_18">
<path d="M 13.8082 5.16259C 13.7699 5.13228 9.9798 2.16491 6.51296 2.16491C 3.03962 2.16491 1.20589 3.31087 1.18713 3.32242L 1.36544e-06 1.51111C 0.0938168 1.44977 2.336 8.36859e-07 6.51224 8.36859e-07C 10.7411 8.36859e-07 14.9758 3.3253 15.1541 3.46674L 13.8082 5.16259Z" transform="translate(39.6484 36.4297)" fill="black"/>
</g>
</g>
<g id="Group_20">
<g id="Vector_19">
<path d="M 2.49116 6.18587L 9.21412 11.6984L 12.0387 6.18587L 11.2319 -7.92813e-07L 2.73088e-06 -7.92813e-07L 2.49116 6.18587Z" transform="translate(55.5728 33.4658)" fill="black"/>
</g>
</g>
<g id="Group_21">
<g id="Vector_20">
<path d="M 2.29042e-06 1.54647L 5.29408 6.92627L 8.11865 2.75737L 5.49758 2.75737L 1.79909 5.72588e-07L 2.29042e-06 1.54647Z" transform="translate(60.6353 29.364)" fill="black"/>
</g>
</g>
<g id="Group_22">
<g id="Vector_21">
<path d="M 4.43675 6.2537L 2.73088e-06 2.75809L 3.22725 2.75809L 7.05998 9.68994e-07L 9.68175 0.404116L 10.2879 1.74853L 4.43675 6.2537Z" transform="translate(52.4155 29.3635)" fill="black"/>
</g>
</g>
<g id="Group_23">
<g id="Vector_22">
<path d="M 2.68684e-06 1.07524C 2.68684e-06 1.07524 1.45991 -0.000720722 3.79592 9.13398e-07C 4.55655 9.13398e-07 5.10934 0.444529 5.10934 0.806068C 5.10934 1.27657 4.08675 1.7478 2.55467 1.68069C 1.0796 1.61574 2.68684e-06 1.07524 2.68684e-06 1.07524Z" transform="translate(58.1987 28.5574)" fill="black"/>
</g>
</g>
<g id="Group_24">
<g id="Vector_23">
<path d="M 6.85647 18.4342C 6.82904 18.3245 4.10479 7.37152 3.06343 4.64012C 2.64992 3.55767 2.2126 2.79201 2.20232e-08 2.05378L 0.684854 -1.23327e-06C 3.47478 0.93091 4.43747 2.16996 5.08624 3.86797C 6.1745 6.72132 8.84463 17.4564 8.95793 17.9125L 6.85647 18.4342Z" transform="translate(36.4385 46.8269)" fill="black"/>
</g>
</g>
<g id="Group_25">
<g id="Vector_24">
<path d="M 2.16499 2.15825e-06L 0 2.15825e-06L 0 18.3327L 2.16499 18.3327L 2.16499 2.15825e-06Z" transform="matrix(0.953691 0.300788 -0.300804 0.953686 43.5796 73.4814)" fill="black"/>
</g>
</g>
<g id="Group_26">
<g id="Vector_25">
<path d="M 1.27735e-06 2.52861L 1.31919 -1.07911e-06L 5.84903 0.645864L 5.04222 2.52861L 1.27735e-06 2.52861Z" transform="translate(53.29 23.3384)" fill="black"/>
</g>
</g>
<g id="Group_27">
<g id="Vector_26">
<path d="M 0.606193 2.66428L -2.24637e-06 0.781532L 3.47117 -8.80904e-07L 3.90128 2.66428L 0.606193 2.66428Z" transform="translate(60.9541 23.2029)" fill="black"/>
</g>
</g>
<g id="Group_28">
<g id="Vector_27">
<path d="M 31.1994 7.53028L 32.4089 -2.24631e-06L 2.20106 -2.24631e-06L 1.07914e-06 7.53028L 31.1994 7.53028Z" transform="translate(42.0596 70.5125)" fill="black"/>
</g>
</g>
<g id="Group_29">
<g id="Vector_28">
<path d="M 12.7257 25.4507C 19.7539 25.4507 25.4514 19.7533 25.4514 12.7253C 25.4514 5.69733 19.7539 0 12.7257 0C 5.69749 0 0 5.69733 0 12.7253C 0 19.7533 5.69749 25.4507 12.7257 25.4507Z" fill="black"/>
</g>
</g>
<g id="Group_30">
<g id="Vector_29">
<path d="M 10.3276 20.6547C 16.0314 20.6547 20.6553 16.031 20.6553 10.3273C 20.6553 4.62371 16.0314 0 10.3276 0C 4.62384 0 0 4.62371 0 10.3273C 0 16.031 4.62384 20.6547 10.3276 20.6547Z" transform="translate(92.3447 2.57837)" fill="black"/>
</g>
</g>
<g id="Group_31">
<g id="Vector_30">
<path d="M 0.621345 6.79782L -1.894e-06 4.72456C 3.8919 3.55839 5.22985 0.144327 5.2847 -1.98204e-07L 7.31328 0.756997C 7.244 0.942458 5.5712 5.31486 0.621345 6.79782Z" transform="translate(81.6211 37.1182)" fill="black"/>
</g>
</g>
<g id="Group_32">
<g id="Vector_31">
<path d="M 6.95678 5.93113C 2.84405 5.18352 0.114744 1.42018 5.06534e-07 1.25998L 1.76012 -2.64271e-07C 1.78322 0.0317518 4.10695 3.21273 7.34358 3.80158L 6.95678 5.93113Z" transform="translate(28.1187 37.9451)" fill="black"/>
</g>
</g>
<g id="Group_33">
<g id="Vector_32">
<path d="M 40.8234 0L 0 0L 0 2.16491L 40.8234 2.16491L 40.8234 0Z" transform="translate(36.8154 11.6421)" fill="black"/>
</g>
</g>
<g id="Group_34">
<g id="Group_35">
<g id="Group_36">
<g id="Vector_33">
<path d="M 0.871041 1.74203C 1.3521 1.74203 1.74208 1.35206 1.74208 0.871012C 1.74208 0.389964 1.3521 -2.2463e-06 0.871041 -2.2463e-06C 0.389979 -2.2463e-06 0 0.389964 0 0.871012C 0 1.35206 0.389979 1.74203 0.871041 1.74203Z" transform="translate(30.9102 82.9607)" fill="black"/>
</g>
</g>
<g id="Group_37">
<g id="Vector_34">
<path d="M 1.70975 0.63164C 1.57696 0.167627 1.0949 -0.0986534 0.632313 0.0341279C 0.171895 0.166187 -0.0994503 0.64896 0.0340564 1.11153C 0.166842 1.57482 0.651795 1.84039 1.11221 1.7076C 1.57552 1.57554 1.84253 1.09421 1.70975 0.63164Z" transform="translate(37.3477 81.1152)" fill="black"/>
</g>
</g>
<g id="Group_38">
<g id="Vector_35">
<path d="M 1.71032 0.630976C 1.57754 0.166964 1.09402 -0.098595 0.631443 0.034186C 0.170304 0.166245 -0.0988735 0.648295 0.0339113 1.11159C 0.166696 1.57415 0.650207 1.84044 1.11062 1.70766C 1.57321 1.57488 1.84238 1.09282 1.71032 0.630976Z" transform="translate(43.7871 79.2708)" fill="black"/>
</g>
</g>
<g id="Group_39">
<g id="Vector_36">
<path d="M 0.87104 1.74204C 1.3521 1.74204 1.74208 1.35207 1.74208 0.871017C 1.74208 0.389968 1.3521 0 0.87104 0C 0.389978 0 0 0.389968 0 0.871017C 0 1.35207 0.389978 1.74204 0.87104 1.74204Z" transform="translate(50.2266 77.425)" fill="black"/>
</g>
</g>
<g id="Group_40">
<g id="Vector_37">
<path d="M 0.870319 1.74059C 1.35098 1.74059 1.74064 1.35095 1.74064 0.870297C 1.74064 0.389646 1.35098 0 0.870319 0C 0.389653 0 0 0.389646 0 0.870297C 0 1.35095 0.389653 1.74059 0.870319 1.74059Z" transform="translate(56.667 75.5806)" fill="black"/>
</g>
</g>
<g id="Group_41">
<g id="Vector_38">
<path d="M 0.871041 1.74204C 1.3521 1.74204 1.74208 1.35207 1.74208 0.871019C 1.74208 0.389969 1.3521 0 0.871041 0C 0.389979 0 0 0.389969 0 0.871019C 0 1.35207 0.389979 1.74204 0.871041 1.74204Z" transform="translate(63.105 73.7346)" fill="black"/>
</g>
</g>
<g id="Group_42">
<g id="Vector_39">
<path d="M 1.70658 0.631588C 1.5738 0.168298 1.0939 -0.09871 0.62987 0.0340711C 0.166567 0.167574 -0.0990005 0.648187 0.0345059 1.11076C 0.167291 1.57405 0.647191 1.84105 1.10977 1.70827C 1.57452 1.57549 1.83937 1.09488 1.70658 0.631588Z" transform="translate(69.5435 71.8892)" fill="black"/>
</g>
</g>
<g id="Group_43">
<g id="Vector_40">
<path d="M 0.871763 1.74347C 1.35322 1.74347 1.74352 1.35319 1.74352 0.871741C 1.74352 0.390293 1.35322 2.55463e-06 0.871763 2.55463e-06C 0.390302 2.55463e-06 0 0.390293 0 0.871741C 0 1.35319 0.390302 1.74347 0.871763 1.74347Z" transform="translate(75.9829 70.0427)" fill="black"/>
</g>
</g>
</g>
<g id="Group_44">
<g id="Group_45">
<g id="Vector_41">
<path d="M 1.71104 0.630866C 1.57825 0.168298 1.09474 -0.0987045 0.6336 0.0340766C 0.170295 0.166858 -0.0988842 0.649629 0.0339009 1.11148C 0.167408 1.57477 0.650917 1.84105 1.1135 1.70827C 1.57464 1.57621 1.84382 1.09344 1.71104 0.630866Z" transform="translate(35.9634 87.8323)" fill="black"/>
</g>
</g>
<g id="Group_46">
<g id="Vector_42">
<path d="M 0.871762 1.74347C 1.35322 1.74347 1.74352 1.35318 1.74352 0.871733C 1.74352 0.390287 1.35322 0 0.871762 0C 0.390301 0 0 0.390287 0 0.871733C 0 1.35318 0.390301 1.74347 0.871762 1.74347Z" transform="translate(42.4028 85.9866)" fill="black"/>
</g>
</g>
<g id="Group_47">
<g id="Vector_43">
<path d="M 0.871038 1.74203C 1.3521 1.74203 1.74208 1.35207 1.74208 0.871017C 1.74208 0.389967 1.3521 0 0.871038 0C 0.389977 0 0 0.389967 0 0.871017C 0 1.35207 0.389977 1.74203 0.871038 1.74203Z" transform="translate(48.8433 84.1421)" fill="black"/>
</g>
</g>
<g id="Group_48">
<g id="Vector_44">
<path d="M 0.869594 1.73914C 1.34986 1.73914 1.73919 1.34982 1.73919 0.869572C 1.73919 0.38932 1.34986 0 0.869594 0C 0.389329 0 0 0.38932 0 0.869572C 0 1.34982 0.389329 1.73914 0.869594 1.73914Z" transform="translate(55.2842 82.2976)" fill="black"/>
</g>
</g>
<g id="Group_49">
<g id="Vector_45">
<path d="M 0.870319 1.74059C 1.35098 1.74059 1.74064 1.35094 1.74064 0.870293C 1.74064 0.389643 1.35098 0 0.870319 0C 0.389656 0 0 0.389643 0 0.870293C 0 1.35094 0.389656 1.74059 0.870319 1.74059Z" transform="translate(61.7217 80.4524)" fill="black"/>
</g>
</g>
<g id="Group_50">
<g id="Vector_46">
<path d="M 1.71033 0.630923C 1.57682 0.167633 1.09403 -0.098653 0.631445 0.034128C 0.170304 0.166187 -0.0988713 0.648965 0.0339142 1.11153C 0.167421 1.5741 0.650931 1.8411 1.11135 1.70832C 1.57466 1.57554 1.84311 1.09349 1.71033 0.630923Z" transform="translate(68.1587 78.6062)" fill="black"/>
</g>
</g>
<g id="Group_51">
<g id="Vector_47">
<path d="M 1.70828 0.631847C 1.57549 0.168555 1.09559 -0.099175 0.63084 0.0343282C 0.168976 0.16711 -0.0987633 0.649167 0.0340226 1.11174C 0.166808 1.57431 0.649604 1.84203 1.11075 1.70925C 1.57622 1.57647 1.84106 1.09514 1.70828 0.631847Z" transform="translate(74.5986 76.76)" fill="black"/>
</g>
</g>
</g>
<g id="Group_52">
<g id="Group_53">
<g id="Vector_48">
<path d="M 0.871042 1.74204C 1.35211 1.74204 1.74208 1.35207 1.74208 0.871018C 1.74208 0.389968 1.35211 0 0.871042 0C 0.38998 0 0 0.389968 0 0.871018C 0 1.35207 0.38998 1.74204 0.871042 1.74204Z" transform="translate(27.5625 71.2803)" fill="black"/>
</g>
</g>
<g id="Group_54">
<g id="Vector_49">
<path d="M 1.71021 0.632304C 1.5767 0.168293 1.09464 -0.0987135 0.632775 0.0340673C 0.171635 0.166848 -0.0989878 0.649624 0.0337973 1.11291C 0.166582 1.57476 0.651536 1.84104 1.11268 1.70898C 1.57526 1.57548 1.84227 1.09343 1.71021 0.632304Z" transform="translate(33.9995 69.4336)" fill="black"/>
</g>
</g>
<g id="Group_55">
<g id="Vector_50">
<path d="M 1.71064 0.631641C 1.57713 0.16763 1.09434 -0.098655 0.631036 0.0341258C 0.169897 0.166907 -0.0992813 0.648961 0.0342254 1.11225C 0.166289 1.5741 0.650522 1.8411 1.11094 1.70904C 1.57352 1.57626 1.84342 1.09421 1.71064 0.631641Z" transform="translate(40.4395 67.5881)" fill="black"/>
</g>
</g>
<g id="Group_56">
<g id="Vector_51">
<path d="M 0.87104 1.74202C 1.3521 1.74202 1.74208 1.35206 1.74208 0.871016C 1.74208 0.389969 1.3521 2.02608e-06 0.87104 2.02608e-06C 0.389978 2.02608e-06 0 0.389969 0 0.871016C 0 1.35206 0.389978 1.74202 0.87104 1.74202Z" transform="translate(46.8789 65.7439)" fill="black"/>
</g>
</g>
<g id="Group_57">
<g id="Vector_52">
<path d="M 0.869592 1.73914C 1.34986 1.73914 1.73919 1.34982 1.73919 0.869567C 1.73919 0.389317 1.34986 0 0.869592 0C 0.389329 0 1.93804e-06 0.389317 1.93804e-06 0.869567C 1.93804e-06 1.34982 0.389329 1.73914 0.869592 1.73914Z" transform="translate(53.3193 63.9001)" fill="black"/>
</g>
</g>
<g id="Group_58">
<g id="Vector_53">
<path d="M 0.871039 1.74203C 1.3521 1.74203 1.74208 1.35206 1.74208 0.871014C 1.74208 0.389965 1.3521 -2.3344e-06 0.871039 -2.3344e-06C 0.389978 -2.3344e-06 0 0.389965 0 0.871014C 0 1.35206 0.389978 1.74203 0.871039 1.74203Z" transform="translate(59.7573 62.0535)" fill="black"/>
</g>
</g>
<g id="Group_59">
<g id="Vector_54">
<path d="M 0.870322 1.74058C 1.35099 1.74058 1.74065 1.35094 1.74065 0.870291C 1.74065 0.389642 1.35099 -2.15821e-06 0.870322 -2.15821e-06C 0.389656 -2.15821e-06 -2.29043e-06 0.389642 -2.29043e-06 0.870291C -2.29043e-06 1.35094 0.389656 1.74058 0.870322 1.74058Z" transform="translate(66.1963 60.209)" fill="black"/>
</g>
</g>
<g id="Group_60">
<g id="Vector_55">
<path d="M 0.872484 1.74491C 1.35434 1.74491 1.74497 1.3543 1.74497 0.872455C 1.74497 0.390611 1.35434 0 0.872484 0C 0.390625 0 0 0.390611 0 0.872455C 0 1.3543 0.390625 1.74491 0.872484 1.74491Z" transform="translate(72.6338 58.3616)" fill="black"/>
</g>
</g>
</g>
<g id="Group_61">
<g id="Group_62">
<g id="Vector_56">
<path d="M 1.71031 0.631383C 1.57753 0.167372 1.09402 -0.0981918 0.633601 0.0338674C 0.170296 0.166648 -0.0988844 0.648702 0.033901 1.11199C 0.166686 1.57456 0.650198 1.84012 1.11278 1.70734C 1.57392 1.576 1.84382 1.09395 1.71031 0.631383Z" transform="translate(32.6157 76.1509)" fill="black"/>
</g>
</g>
<g id="Group_63">
<g id="Vector_57">
<path d="M 0.871762 1.74348C 1.35322 1.74348 1.74352 1.35319 1.74352 0.871739C 1.74352 0.390292 1.35322 0 0.871762 0C 0.390301 0 0 0.390292 0 0.871739C 0 1.35319 0.390301 1.74348 0.871762 1.74348Z" transform="translate(39.0542 74.3054)" fill="black"/>
</g>
</g>
<g id="Group_64">
<g id="Vector_58">
<path d="M 0.871763 1.74348C 1.35322 1.74348 1.74353 1.35319 1.74353 0.87174C 1.74353 0.390292 1.35322 0 0.871763 0C 0.390302 0 0 0.390292 0 0.87174C 0 1.35319 0.390302 1.74348 0.871763 1.74348Z" transform="translate(45.4951 72.4602)" fill="black"/>
</g>
</g>
<g id="Group_65">
<g id="Vector_59">
<path d="M 0.870317 1.74059C 1.35098 1.74059 1.74064 1.35095 1.74064 0.870299C 1.74064 0.389648 1.35098 0 0.870317 0C 0.389653 0 2.07019e-06 0.389648 2.07019e-06 0.870299C 2.07019e-06 1.35095 0.389653 1.74059 0.870317 1.74059Z" transform="translate(51.936 70.6157)" fill="black"/>
</g>
</g>
<g id="Group_66">
<g id="Vector_60">
<path d="M 0.870321 1.74059C 1.35098 1.74059 1.74064 1.35095 1.74064 0.870299C 1.74064 0.389648 1.35098 0 0.870321 0C 0.389657 0 0 0.389648 0 0.870299C 0 1.35095 0.389657 1.74059 0.870321 1.74059Z" transform="translate(58.374 68.7712)" fill="black"/>
</g>
</g>
<g id="Group_67">
<g id="Vector_61">
<path d="M 0.87176 1.74348C 1.35322 1.74348 1.74352 1.35318 1.74352 0.871737C 1.74352 0.390289 1.35322 -1.93799e-06 0.87176 -1.93799e-06C 0.3903 -1.93799e-06 0 0.390289 0 0.871737C 0 1.35318 0.3903 1.74348 0.87176 1.74348Z" transform="translate(64.812 66.9238)" fill="black"/>
</g>
</g>
<g id="Group_68">
<g id="Vector_62">
<path d="M 0.871039 1.74203C 1.3521 1.74203 1.74208 1.35207 1.74208 0.871016C 1.74208 0.389967 1.3521 0 0.871039 0C 0.389978 0 0 0.389967 0 0.871016C 0 1.35207 0.389978 1.74203 0.871039 1.74203Z" transform="translate(71.251 65.0793)" fill="black"/>
</g>
</g>
</g>
<g id="Group_69">
<g id="Group_70">
<g id="Vector_63">
<path d="M 1.71098 0.630665C 1.57747 0.167374 1.09468 -0.0981859 0.633543 0.0338739C 0.170961 0.166655 -0.0989375 0.648706 0.0338475 1.11128C 0.167354 1.57457 0.650142 1.84085 1.11345 1.70807C 1.57386 1.57529 1.84304 1.09324 1.71098 0.630665Z" transform="translate(29.2676 64.4695)" fill="black"/>
</g>
</g>
<g id="Group_71">
<g id="Vector_64">
<path d="M 0.871763 1.74347C 1.35322 1.74347 1.74353 1.35318 1.74353 0.871733C 1.74353 0.390287 1.35322 0 0.871763 0C 0.390302 0 0 0.390287 0 0.871733C 0 1.35318 0.390302 1.74347 0.871763 1.74347Z" transform="translate(35.707 62.6235)" fill="black"/>
</g>
</g>
<g id="Group_72">
<g id="Vector_65">
<path d="M 0.87104 1.74203C 1.3521 1.74203 1.74208 1.35206 1.74208 0.871013C 1.74208 0.389966 1.3521 0 0.87104 0C 0.389978 0 0 0.389966 0 0.871013C 0 1.35206 0.389978 1.74203 0.87104 1.74203Z" transform="translate(42.1475 60.7783)" fill="black"/>
</g>
</g>
<g id="Group_73">
<g id="Vector_66">
<path d="M 1.70633 0.630517C 1.57355 0.167226 1.09076 -0.0990553 0.628896 0.0344475C 0.166313 0.166507 -0.098534 0.647837 0.0342511 1.10968C 0.167036 1.5737 0.646938 1.8407 1.1088 1.70792C 1.57066 1.57514 1.83984 1.09381 1.70633 0.630517Z" transform="translate(48.5874 58.9341)" fill="black"/>
</g>
</g>
<g id="Group_74">
<g id="Vector_67">
<path d="M 0.870321 1.74059C 1.35099 1.74059 1.74064 1.35095 1.74064 0.870295C 1.74064 0.389645 1.35099 0 0.870321 0C 0.389657 0 0 0.389645 0 0.870295C 0 1.35095 0.389657 1.74059 0.870321 1.74059Z" transform="translate(55.0249 57.0886)" fill="black"/>
</g>
</g>
<g id="Group_75">
<g id="Vector_68">
<path d="M 1.71028 0.630518C 1.57677 0.167227 1.09398 -0.0990597 0.631392 0.0344431C 0.170973 0.166503 -0.0989247 0.64856 0.0338607 1.11041C 0.167368 1.57442 0.650156 1.83998 1.1113 1.70792C 1.57388 1.57514 1.84306 1.09309 1.71028 0.630518Z" transform="translate(61.4629 55.2437)" fill="black"/>
</g>
</g>
<g id="Group_76">
<g id="Vector_69">
<path d="M 1.70892 0.631181C 1.57614 0.167891 1.09624 -0.0991168 0.631496 0.0343857C 0.169638 0.167167 -0.0988191 0.648501 0.0339651 1.11107C 0.167471 1.57436 0.65026 1.84064 1.1114 1.70786C 1.57614 1.57508 1.84171 1.09447 1.70892 0.631181Z" transform="translate(67.9023 53.3977)" fill="black"/>
</g>
</g>
</g>
<g id="Group_77">
<g id="Group_78">
<g id="Vector_70">
<path d="M 1.71031 0.630207C 1.57752 0.167637 1.09401 -0.0986498 0.633596 0.0341316C 0.170292 0.166913 -0.098884 0.64897 0.033901 1.11082C 0.167408 1.57627 0.650196 1.84039 1.11278 1.70761C 1.57392 1.57627 1.84382 1.09566 1.71031 0.630207Z" transform="translate(25.9199 52.7881)" fill="black"/>
</g>
</g>
<g id="Group_79">
<g id="Vector_71">
<path d="M 1.70948 0.631129C 1.5767 0.168559 1.09679 -0.0991719 0.634209 0.0343313C 0.171626 0.167113 -0.0989939 0.649171 0.0337912 1.11174C 0.167298 1.57648 0.651529 1.84059 1.11411 1.70781C 1.57669 1.57503 1.84299 1.09587 1.70948 0.631129Z" transform="translate(32.3584 50.9429)" fill="black"/>
</g>
</g>
<g id="Group_80">
<g id="Vector_72">
<path d="M 1.70971 0.630466C 1.5762 0.167896 1.09485 -0.099113 0.631551 0.03439C 0.168969 0.167171 -0.0987652 0.648507 0.0340197 1.11108C 0.167526 1.57581 0.649593 1.84065 1.11145 1.70787C 1.57404 1.57581 1.84177 1.09592 1.70971 0.630466Z" transform="translate(38.7993 49.0974)" fill="black"/>
</g>
</g>
<g id="Group_81">
<g id="Vector_73">
<path d="M 1.707 0.630208C 1.57421 0.167639 1.09143 -0.098648 0.628843 0.0341333C 0.166983 0.166915 -0.0985883 0.647523 0.0341966 1.10937C 0.167703 1.57483 0.646882 1.84039 1.10874 1.70761C 1.57132 1.57555 1.83978 1.09566 1.707 0.630208Z" transform="translate(45.2397 47.2524)" fill="black"/>
</g>
</g>
<g id="Group_82">
<g id="Vector_74">
<path d="M 1.70687 0.63087C 1.57409 0.1683 1.09347 -0.0987053 0.631606 0.0340759C 0.168302 0.166857 -0.0987136 0.648187 0.0340713 1.11076C 0.167578 1.57549 0.648926 1.84033 1.11079 1.70755C 1.57337 1.57477 1.83966 1.0956 1.70687 0.63087Z" transform="translate(51.6777 45.4075)" fill="black"/>
</g>
</g>
<g id="Group_83">
<g id="Vector_75">
<path d="M 1.7096 0.630259C 1.57682 0.166969 1.09331 -0.0985923 0.631444 0.0341886C 0.170304 0.166248 -0.0988709 0.648298 0.0339142 1.11014C 0.167421 1.5756 0.650208 1.84044 1.11135 1.70766C 1.57393 1.5756 1.84311 1.09499 1.7096 0.630259Z" transform="translate(58.1152 43.562)" fill="black"/>
</g>
</g>
</g>
<g id="Group_84">
<g id="Group_85">
<g id="Vector_76">
<path d="M 1.70826 0.628875C 1.57547 0.166307 1.09341 -0.0985309 0.632269 0.0342499C 0.168966 0.167031 -0.0987706 0.646917 0.0340142 1.10876C 0.167521 1.5735 0.64959 1.84122 1.11217 1.70772C 1.57331 1.57566 1.84176 1.09289 1.70826 0.628875Z" transform="translate(24.2139 59.5996)" fill="black"/>
</g>
</g>
<g id="Group_86">
<g id="Vector_77">
<path d="M 1.7099 0.628823C 1.57711 0.166976 1.09577 -0.0985845 0.633183 0.0341965C 0.172044 0.166978 -0.0985781 0.647586 0.0334852 1.10943C 0.166992 1.57417 0.651944 1.84045 1.11308 1.70839C 1.57494 1.57633 1.84268 1.09428 1.7099 0.628823Z" transform="translate(30.6523 57.7539)" fill="black"/>
</g>
</g>
<g id="Group_87">
<g id="Vector_78">
<path d="M 1.71068 0.628161C 1.57789 0.166313 1.09438 -0.0985262 0.631799 0.034255C 0.171381 0.167036 -0.0985177 0.647645 0.0335458 1.10877C 0.167774 1.57423 0.650563 1.84051 1.1117 1.70845C 1.57356 1.57567 1.84347 1.0929 1.71068 0.628161Z" transform="translate(37.0918 55.9092)" fill="black"/>
</g>
</g>
<g id="Group_88">
<g id="Vector_79">
<path d="M 1.70893 0.62816C 1.57614 0.166313 1.09263 -0.0985254 0.632214 0.0342555C 0.169632 0.167036 -0.0988229 0.646923 0.033962 1.10877C 0.167468 1.5735 0.650257 1.84051 1.11212 1.70773C 1.57326 1.57567 1.84243 1.09361 1.70893 0.62816Z" transform="translate(43.5308 54.064)" fill="black"/>
</g>
</g>
<g id="Group_89">
<g id="Vector_80">
<path d="M 1.70611 0.628826C 1.57332 0.166978 1.09414 -0.098583 0.631556 0.0341983C 0.168972 0.16698 -0.098766 0.646867 0.0340195 1.10872C 0.167527 1.57345 0.649593 1.84045 1.11146 1.70767C 1.57476 1.57561 1.83961 1.09428 1.70611 0.628826Z" transform="translate(49.9707 52.218)" fill="black"/>
</g>
</g>
<g id="Group_90">
<g id="Vector_81">
<path d="M 1.70831 0.628877C 1.57624 0.16631 1.09418 -0.0985333 0.632321 0.0342472C 0.168297 0.167028 -0.0987167 0.646918 0.0340676 1.10876C 0.167574 1.5735 0.64892 1.84122 1.1115 1.70771C 1.5748 1.57493 1.84181 1.09289 1.70831 0.628877Z" transform="translate(56.4082 50.3735)" fill="black"/>
</g>
</g>
<g id="Group_91">
<g id="Vector_82">
<path d="M 1.70693 0.629136C 1.57415 0.166568 1.09496 -0.0989968 0.630939 0.0345055C 0.167636 0.167286 -0.0986523 0.646456 0.0341324 1.1083C 0.167639 1.57303 0.647537 1.84148 1.11084 1.70798C 1.57414 1.57447 1.84044 1.09387 1.70693 0.629136Z" transform="translate(62.8477 48.5281)" fill="black"/>
</g>
</g>
<g id="Group_92">
<g id="Vector_83">
<path d="M 1.71031 0.628162C 1.57753 0.166316 1.09402 -0.0985286 0.632163 0.0342523C 0.170302 0.166312 -0.0988775 0.64692 0.0339073 1.10877C 0.166692 1.5735 0.650205 1.84051 1.11206 1.70772C 1.57393 1.57494 1.8431 1.0929 1.71031 0.628162Z" transform="translate(69.2866 46.6831)" fill="black"/>
</g>
</g>
</g>
</g>
</g>
</g>
</g>
</svg>

