<svg width="111" height="108" viewBox="0 0 111 108" version="1.1" xmlns="http://www.w3.org/2000/svg" xmlns:xlink="http://www.w3.org/1999/xlink">
<g id="Canvas" fill="none">
<g id="Draft_07-16">
<g id="Group">
<g id="Group_2">
<g id="Vector">
<path d="M 24.8531 10.7154C 22.1766 2.60296 18.1947 -5.67769e-07 11.3346 -5.67769e-07C 6.43309 -5.67769e-07 1.29872 -5.67769e-07 1.29872 -5.67769e-07L 0.930543 19.4106L 17.4802 25.3463L 17.07 30.6977L 0.716187 30.6977L 5.1306e-07 68.482L 40.4201 59.6905C 40.4201 59.6905 30.0421 26.4457 24.8531 10.7154Z" transform="translate(69.3369 33.8511)" fill="#46B4BE"/>
</g>
</g>
<g id="Group_3">
<g id="Vector_2">
<path d="M 32.9085 14.5097C 32.9085 14.5097 30.8171 -0.277634 16.8069 0.00397264C 9.22219 0.157038 1.28265e-06 0.849635 1.28265e-06 0.849635L 1.28265e-06 14.5097L 32.9085 14.5097Z" transform="translate(78.0913 53.5825)" fill="#46B4BE"/>
</g>
</g>
<g id="Group_4">
<g id="Vector_3">
<path d="M 6.38264 33.1518L 6.1767 32.9928C 4.59806 31.7505 4.17523 29.4402 5.20412 27.726L 5.34619 27.4934C 5.59501 27.0774 5.68075 26.5463 5.5824 26.0076C 5.48489 25.4706 5.21506 25.0063 4.82586 24.7002L 4.61823 24.537C 3.86842 23.9518 3.35313 23.0816 3.17072 22.0905C 2.98915 21.0951 3.16148 20.0981 3.65491 19.2778L 3.79108 19.0512C 4.31982 18.17 4.08445 16.888 3.2758 16.2529L 3.07237 16.0939C 1.50046 14.855 1.07596 12.5455 2.10401 10.8321L 2.24607 10.5987C 2.49656 10.1827 2.5823 9.65243 2.48311 9.1129C 2.38476 8.57336 2.11662 8.10994 1.72994 7.80719L 1.52063 7.64228C 0.769138 7.05624 0.254694 6.18605 0.0706031 5.19323C -0.110966 4.20465 0.0605143 3.20761 0.552264 2.38647L 0.691803 2.1556C 0.958272 1.71078 1.03897 1.12981 0.9112 0.568288L 3.3691 -4.64538e-07C 3.6465 1.21522 3.46157 2.44651 2.85046 3.46892L 2.71008 3.69894C 2.5386 3.98647 2.48059 4.35349 2.55036 4.7315C 2.62013 5.11036 2.80506 5.43425 3.06817 5.64059L 3.27832 5.8055C 4.15422 6.49049 4.75273 7.5019 4.96372 8.6537C 5.17387 9.80465 4.9738 10.9641 4.39883 11.9188L 4.25761 12.1505C 3.9012 12.745 4.06932 13.6567 4.62328 14.093L 4.82502 14.2512C 6.65332 15.6863 7.14591 18.3704 5.94974 20.3645L 5.81272 20.5928C 5.63872 20.8812 5.58156 21.2499 5.65133 21.6313C 5.72026 22.0076 5.90435 22.3298 6.16829 22.5362L 6.37844 22.7011C 7.25434 23.3886 7.85285 24.4 8.06384 25.5484C 8.27315 26.6951 8.07393 27.8545 7.50148 28.811L 7.35858 29.0452C 7.00133 29.6397 7.1686 30.5514 7.7234 30.9869L 7.9201 31.14L 6.38264 33.1518Z" transform="translate(59.9473 21.671)" fill="black"/>
</g>
</g>
<g id="Group_5">
<g id="Vector_4">
<path d="M 7.49979 28.8135L 5.33945 27.5036C 5.59499 27.0774 5.68073 26.5471 5.58238 26.0085C 5.48403 25.4715 5.2142 25.0063 4.825 24.7002L 4.61822 24.5378C 3.86841 23.9526 3.35312 23.0825 3.17071 22.0913C 2.98914 21.0943 3.16146 20.0964 3.65573 19.2778L 3.78855 19.0554C 4.31897 18.1708 4.0836 16.8888 3.27494 16.2537L 3.06984 16.093C 1.4996 14.8567 1.07594 12.5471 2.10399 10.833L 2.24353 10.603C 2.49655 10.1827 2.58229 9.65328 2.4831 9.11374C 2.38475 8.57505 2.1166 8.11078 1.72908 7.80803L 1.51809 7.64228C 0.769121 7.05708 0.254676 6.18689 0.0705849 5.19408C -0.110984 4.20381 0.0605021 3.20676 0.553092 2.38562L 0.689264 2.15814C 0.958255 1.70994 1.03895 1.12981 0.911182 0.568289L 3.36909 -2.21946e-06C 3.64649 1.21607 3.46155 2.44736 2.84876 3.46977L 2.71259 3.69725C 2.53858 3.98731 2.48142 4.35433 2.55119 4.73235C 2.62096 5.1112 2.80589 5.4351 3.069 5.64144L 3.28083 5.80719C 4.15421 6.49133 4.75355 7.50359 4.96454 8.65454C 5.17469 9.80465 4.97463 10.9641 4.39882 11.9197L 4.26012 12.1488C 3.90203 12.7467 4.0693 13.6583 4.6241 14.0939L 4.82753 14.2537C 6.6533 15.6863 7.14673 18.3704 5.94972 20.3653L 5.81522 20.5903C 5.63954 20.882 5.58238 21.2499 5.65215 21.6313C 5.72108 22.0076 5.90517 22.3298 6.16912 22.5362L 6.37927 22.7011C 7.25433 23.3886 7.85283 24.4 8.06382 25.5467C 8.27313 26.6977 8.07307 27.8562 7.49979 28.8135Z" transform="translate(67.4487 65.0968)" fill="black"/>
</g>
</g>
<g id="Group_6">
<g id="Vector_5">
<path d="M 1.12873e-06 6.20211L 9.80641 10.4304L 11.4876 6.20211L 8.05544 4.43975L 2.59156 -6.19384e-07L 1.12873e-06 6.20211Z" transform="translate(59.5288 15.3641)" fill="black"/>
</g>
</g>
<g id="Group_7">
<g id="Vector_6">
<path d="M 29.9984 1.08392e-06C 26.3536 0.38647 22.8844 1.36152 19.6834 2.82622L 28.3533 19.277L 22.259 25.8309L 3.03876 19.5222C 1.09109 23.7996 7.6959e-08 28.5539 7.6959e-08 33.5662C 7.6959e-08 35.4317 0.157192 37.26 0.446357 39.0452L 35.474 50.1911L 44.8534 44.148L 29.9984 1.08392e-06Z" transform="translate(19.8413 45.4174)" fill="#464BD7"/>
</g>
</g>
<g id="Group_8">
<g id="Vector_7">
<path d="M 27.8204 28.6816L -8.65788e-08 37.3099L -8.65788e-08 -1.22586e-07L 28.0944 4.79154L 27.8204 28.6816Z" transform="translate(6.4165 10.9954)" fill="#FFB946"/>
</g>
</g>
<g id="Group_9">
<g id="Vector_8">
<path d="M 8.57241 87.5214L 7.25771 85.3556L 21.2999 76.7239L 13.6454 21.4909L 4.83932 21.4909L 3.44477 14.0237L -5.64366e-07 12.5336L 3.43888 4.78393C 3.5179 4.09302 3.79445 1.77336 4.13994 1.03231e-07L 6.61382 0.487104C 6.23303 2.44736 5.92537 5.23298 5.92285 5.26173L 5.90099 5.45793L 3.34474 11.2194L 5.67403 12.2266L 6.93072 18.9539L 15.8394 18.9539L 24.0243 78.0203L 8.57241 87.5214Z" transform="translate(41.2139 12.8727)" fill="black"/>
</g>
</g>
<g id="Group_10">
<g id="Vector_9">
<path d="M 20.0953 20.9066L 4.41566 6.61649L 3.59142e-07 6.61649L 3.59142e-07 4.07949L 5.38823 4.07949L 19.7406 17.1603L 32.5656 -9.03269e-07L 34.5813 1.52474L 20.0953 20.9066Z" transform="translate(22.9292 37.4165)" fill="black"/>
</g>
</g>
<g id="Group_11">
<g id="Vector_10">
<path d="M 17.4693 24.7687L -6.15672e-07 1.5315L 2.01155 9.29076e-07L 17.5878 20.7205L 31.8973 3.85793L 33.8155 5.50444L 17.4693 24.7687Z" transform="translate(26.4097 53.4867)" fill="black"/>
</g>
</g>
<g id="Group_12">
<g id="Vector_11">
<path d="M 18.7815 13.7378L 2.65124 13.7378L -1.43657e-06 0.499789L 2.4722 3.87115e-07L 4.71491 11.2008L 18.7815 11.2008L 18.7815 13.7378Z" transform="translate(66.7368 21.5814)" fill="black"/>
</g>
</g>
<g id="Group_13">
<g id="Vector_12">
<path d="M 7.82176 9.24905C 4.96457 7.15941 4.33496 4.26216 4.23577 2.537L -2.82183e-07 2.537L -2.82183e-07 2.06461e-07L 6.98032 2.06461e-07L 6.76933 1.45201C 6.75168 1.58985 6.33054 5.02241 9.30457 7.19746L 7.82176 9.24905Z" transform="translate(10.6772 41.496)" fill="black"/>
</g>
</g>
<g id="Group_14">
<g id="Vector_13">
<path d="M 26.1073 18.0524L 3.59187 18.0524L -6.41325e-08 -2.58077e-07L 14.0195 -2.58077e-07L 14.0195 2.537L 3.07659 2.537L 5.6589 15.5154L 26.1073 15.5154L 26.1073 18.0524Z" transform="translate(11.2051 20.3552)" fill="black"/>
</g>
</g>
<g id="Group_15">
<g id="Vector_14">
<path d="M 0 18.5032L 0 -8.00038e-07L 9.27263 4.49049L 8.17901 6.77632L 2.52179 4.03636L 2.52179 14.4643L 8.43791 11.5983L 14.9332 11.5983L 14.9332 14.1353L 9.01456 14.1353L 0 18.5032Z" transform="translate(0 20.1624)" fill="black"/>
</g>
</g>
<g id="Group_16">
<g id="Vector_15">
<path d="M 9.01754 18.1141C 8.84942 18.1141 8.6813 18.109 8.5115 18.0997C 6.10907 17.967 3.9025 16.9014 2.2978 15.0993C 0.693105 13.298 -0.118072 10.9759 0.0139018 8.56063C 0.287096 3.57374 4.55229 -0.248673 9.49752 0.0126379C 10.9383 0.0929762 12.2967 0.501433 13.5366 1.22871L 12.2656 3.42067C 11.3737 2.89805 10.3961 2.60291 9.35966 2.54625C 5.8115 2.34329 2.72819 5.10862 2.53233 8.69932C 2.43734 10.4389 3.02072 12.1099 4.1757 13.4063C 5.33068 14.7035 6.91941 15.4706 8.64851 15.5661C 10.3625 15.6608 12.037 15.0748 13.3273 13.9128C 14.6168 12.7509 15.3792 11.1534 15.4742 9.4156L 17.9926 9.55429C 17.8606 11.9695 16.8015 14.1885 15.0102 15.8029C 13.3466 17.3031 11.235 18.1141 9.01754 18.1141Z" transform="translate(15.7095 3.30573)" fill="black"/>
</g>
</g>
<g id="Group_17">
<g id="Vector_16">
<path d="M 6.0834 12.2402C 9.44317 12.2402 12.1668 9.50011 12.1668 6.12008C 12.1668 2.74005 9.44317 0 6.0834 0C 2.72363 0 0 2.74005 0 6.12008C 0 9.50011 2.72363 12.2402 6.0834 12.2402Z" transform="translate(18.6304 20.9615)" fill="black"/>
</g>
</g>
<g id="Group_18">
<g id="Vector_17">
<path d="M 2.54028 11.8283L 5.64366e-07 4.90346e-07L 9.15326 4.90346e-07L 9.15326 2.537L 3.1245 2.537L 5.00491 11.2939L 2.54028 11.8283Z" transform="translate(32.2334 20.0778)" fill="black"/>
</g>
</g>
<g id="Group_19">
<g id="Vector_18">
<path d="M 6.75924 10.0981L 6.54151e-07 16.8981L 17.1373 37.9171L 31.8847 20.3315L 29.837 3.355e-07L 16.0453 18.1345L 6.75924 10.0981Z" transform="translate(26.8018 37.7666)" fill="black"/>
</g>
</g>
<g id="Group_20">
<g id="Vector_19">
<path d="M 15.4678 0L 0 0L 0 2.537L 15.4678 2.537L 15.4678 0Z" transform="translate(67.4253 63.956)" fill="black"/>
</g>
</g>
<g id="Group_21">
<g id="Vector_20">
<path d="M 18.1712 12.9514C 15.8982 12.9514 13.6992 12.208 11.8591 10.7983L -4.61754e-07 2.04482L 1.49206 3.09692e-07L 13.3697 8.76702C 15.0727 10.0727 17.1583 10.6292 19.2547 10.34C 20.9183 10.1133 22.4339 9.38097 23.63 8.24271L 20.7863 6.17505L 22.2641 4.11839L 27.2883 7.77167L 26.5049 8.80677C 24.8136 11.041 22.3582 12.4786 19.5926 12.855C 19.1177 12.9192 18.6428 12.9514 18.1712 12.9514Z" transform="translate(54.5347 10.077)" fill="black"/>
</g>
</g>
<g id="Group_22">
<g id="Vector_21">
<path d="M 7.87219 13.6693L -5.00233e-07 10.5091L 3.93399 1.26458e-06L 6.29355 0.89387L 3.23125 9.07569L 6.39022 10.3433L 7.1518 8.23425L 9.52228 9.09937L 7.87219 13.6693Z" transform="translate(14.9829 48.0186)" fill="black"/>
</g>
</g>
<g id="Group_23">
<g id="Vector_22">
<path d="M 5.39075 0L 0 0L 0 2.537L 5.39075 2.537L 5.39075 0Z" transform="translate(55.8999 0)" fill="black"/>
</g>
</g>
<g id="Group_24">
<g id="Vector_23">
<path d="M 4.4829 19.463L -1.6931e-06 -1.29038e-06L 15.3174 -1.29038e-06L 15.3174 2.537L 3.17325 2.537L 6.93913 18.8905L 4.4829 19.463Z" transform="translate(94.0098 70.3806)" fill="black"/>
</g>
</g>
<g id="Group_25">
<g id="Vector_24">
<path d="M 6.65669 13.3937C 10.3331 13.3937 13.3134 10.3954 13.3134 6.69683C 13.3134 2.99827 10.3331 0 6.65669 0C 2.9803 0 0 2.99827 0 6.69683C 0 10.3954 2.9803 13.3937 6.65669 13.3937Z" transform="translate(53.6343 12.2148)" fill="black"/>
</g>
</g>
<g id="Group_26">
<g id="Vector_25">
<path d="M 7.45609 6.41184C 2.86812 6.41184 0.115165 1.42918 2.77052e-06 1.21776L 2.21245 5.16154e-07C 2.23347 0.0389012 4.37194 3.87484 7.45609 3.87484L 7.45609 6.41184Z" transform="translate(68.5034 60.0296)" fill="black"/>
</g>
</g>
<g id="Group_27">
<g id="Vector_26">
<path d="M -8.46549e-07 3.09692e-07L 3.42795 1.84778L -8.46549e-07 3.60677L -8.46549e-07 3.09692e-07Z" transform="translate(47.8979 18.5336)" fill="black"/>
</g>
</g>
<g id="Group_28">
<g id="Vector_27">
<path d="M -1.257e-06 9.06639L 7.10052 2.58077e-07L 13.1091 38.4643L 12.0163 39.2888L -1.257e-06 9.06639Z" transform="translate(51.0396 50.6807)" fill="black"/>
</g>
</g>
<g id="Group_29">
<g id="Group_30">
<g id="Group_31">
<g id="Vector_28">
<path d="M 0.988543 1.98901C 1.5345 1.98901 1.97709 1.54375 1.97709 0.994502C 1.97709 0.445253 1.5345 -3.09692e-06 0.988543 -3.09692e-06C 0.442586 -3.09692e-06 0 0.445253 0 0.994502C 0 1.54375 0.442586 1.98901 0.988543 1.98901Z" transform="translate(88.1245 90.2452)" fill="black"/>
</g>
</g>
<g id="Group_32">
<g id="Vector_29">
<path d="M 0.989383 1.9907C 1.5358 1.9907 1.97877 1.54507 1.97877 0.99535C 1.97877 0.445634 1.5358 0 0.989383 0C 0.442963 0 0 0.445634 0 0.99535C 0 1.54507 0.442963 1.9907 0.989383 1.9907Z" transform="translate(88.124 82.5936)" fill="black"/>
</g>
</g>
<g id="Group_33">
<g id="Vector_30">
<path d="M 0.989383 2.78723e-06C 0.442155 2.78723e-06 -7.69589e-07 0.44736 -7.69589e-07 0.997889C -7.69589e-07 1.54419 0.441314 1.99239 0.989383 1.99239C 1.53493 1.99239 1.97708 1.54503 1.97708 0.997889C 1.97708 0.44736 1.53493 2.78723e-06 0.989383 2.78723e-06Z" transform="translate(88.124 74.9421)" fill="black"/>
</g>
</g>
<g id="Group_34">
<g id="Vector_31">
<path d="M 0.989383 1.9907C 1.5358 1.9907 1.97877 1.54507 1.97877 0.995349C 1.97877 0.445633 1.5358 0 0.989383 0C 0.442963 0 0 0.445633 0 0.995349C 0 1.54507 0.442963 1.9907 0.989383 1.9907Z" transform="translate(88.124 67.2922)" fill="black"/>
</g>
</g>
<g id="Group_35">
<g id="Vector_32">
<path d="M 0.987702 1.98731C 1.53319 1.98731 1.9754 1.54244 1.9754 0.993659C 1.9754 0.444877 1.53319 0 0.987702 0C 0.44221 0 0 0.444877 0 0.993659C 0 1.54244 0.44221 1.98731 0.987702 1.98731Z" transform="translate(88.1255 59.6448)" fill="black"/>
</g>
</g>
<g id="Group_36">
<g id="Vector_33">
<path d="M 0.988543 1.98901C 1.5345 1.98901 1.97709 1.54375 1.97709 0.994504C 1.97709 0.445255 1.5345 0 0.988543 0C 0.442586 0 0 0.445255 0 0.994504C 0 1.54375 0.442586 1.98901 0.988543 1.98901Z" transform="translate(88.1245 51.9932)" fill="black"/>
</g>
</g>
<g id="Group_37">
<g id="Vector_34">
<path d="M 0.989383 2.32269e-07C 0.442155 2.32269e-07 -7.69589e-07 0.442282 -7.69589e-07 0.994502C -7.69589e-07 1.54503 0.441314 1.98816 0.989383 1.98816C 1.53493 1.98816 1.97708 1.54588 1.97708 0.994502C 1.97708 0.442282 1.53493 2.32269e-07 0.989383 2.32269e-07Z" transform="translate(88.124 44.3442)" fill="black"/>
</g>
</g>
<g id="Group_38">
<g id="Vector_35">
<path d="M 0.990224 1.99239C 1.53711 1.99239 1.98045 1.54638 1.98045 0.996194C 1.98045 0.446011 1.53711 0 0.990224 0C 0.443339 0 0 0.446011 0 0.996194C 0 1.54638 0.443339 1.99239 0.990224 1.99239Z" transform="translate(88.123 36.6892)" fill="black"/>
</g>
</g>
</g>
<g id="Group_39">
<g id="Group_40">
<g id="Vector_36">
<path d="M 0.988545 -2.16784e-06C 0.442997 -2.16784e-06 3.07836e-07 0.447357 3.07836e-07 0.995348C 3.07836e-07 1.54419 0.442157 1.99239 0.988545 1.99239C 1.53493 1.99239 1.97792 1.54503 1.97792 0.995348C 1.97792 0.447357 1.53493 -2.16784e-06 0.988545 -2.16784e-06Z" transform="translate(95.022 86.2266)" fill="black"/>
</g>
</g>
<g id="Group_41">
<g id="Vector_37">
<path d="M 0.988545 -6.19384e-07C 0.442997 -6.19384e-07 3.07836e-07 0.442286 3.07836e-07 0.992815C 3.07836e-07 1.54165 0.442157 1.99155 0.988545 1.99155C 1.53493 1.99155 1.97792 1.5425 1.97792 0.992815C 1.97792 0.442286 1.53493 -6.19384e-07 0.988545 -6.19384e-07Z" transform="translate(95.022 78.5776)" fill="black"/>
</g>
</g>
<g id="Group_42">
<g id="Vector_38">
<path d="M 0.989386 1.9907C 1.53581 1.9907 1.97876 1.54506 1.97876 0.995346C 1.97876 0.445631 1.53581 2.78723e-06 0.989386 2.78723e-06C 0.442964 2.78723e-06 0 0.445631 0 0.995346C 0 1.54506 0.442964 1.9907 0.989386 1.9907Z" transform="translate(95.021 70.9252)" fill="black"/>
</g>
</g>
<g id="Group_43">
<g id="Vector_39">
<path d="M 0.987704 1.98732C 1.5332 1.98732 1.9754 1.54244 1.9754 0.993658C 1.9754 0.444876 1.5332 -2.11623e-06 0.987704 -2.11623e-06C 0.442212 -2.11623e-06 0 0.444876 0 0.993658C 0 1.54244 0.442212 1.98732 0.987704 1.98732Z" transform="translate(95.0225 63.2761)" fill="black"/>
</g>
</g>
<g id="Group_44">
<g id="Vector_40">
<path d="M 0.988545 1.989C 1.5345 1.989 1.97708 1.54375 1.97708 0.994505C 1.97708 0.445256 1.5345 0 0.988545 0C 0.442588 0 0 0.445256 0 0.994505C 0 1.54375 0.442588 1.989 0.988545 1.989Z" transform="translate(95.022 55.6262)" fill="black"/>
</g>
</g>
<g id="Group_45">
<g id="Vector_41">
<path d="M 0.989386 1.9907C 1.53581 1.9907 1.97876 1.54507 1.97876 0.99535C 1.97876 0.445634 1.53581 0 0.989386 0C 0.442964 0 0 0.445634 0 0.99535C 0 1.54507 0.442964 1.9907 0.989386 1.9907Z" transform="translate(95.021 47.9746)" fill="black"/>
</g>
</g>
<g id="Group_46">
<g id="Vector_42">
<path d="M 0.988545 1.98901C 1.5345 1.98901 1.97708 1.54375 1.97708 0.994503C 1.97708 0.445254 1.5345 0 0.988545 0C 0.442588 0 0 0.445254 0 0.994503C 0 1.54375 0.442588 1.98901 0.988545 1.98901Z" transform="translate(95.022 40.3256)" fill="black"/>
</g>
</g>
</g>
<g id="Group_47">
<g id="Group_48">
<g id="Vector_43">
<path d="M 0.988541 1.98901C 1.5345 1.98901 1.97708 1.54375 1.97708 0.994502C 1.97708 0.445253 1.5345 -3.09692e-06 0.988541 -3.09692e-06C 0.442585 -3.09692e-06 -2.92444e-06 0.445253 -2.92444e-06 0.994502C -2.92444e-06 1.54375 0.442585 1.98901 0.988541 1.98901Z" transform="translate(74.3281 90.2452)" fill="black"/>
</g>
</g>
<g id="Group_49">
<g id="Vector_44">
<path d="M 0.989382 1.9907C 1.5358 1.9907 1.97877 1.54507 1.97877 0.99535C 1.97877 0.445634 1.5358 0 0.989382 0C 0.442961 0 -2.46269e-06 0.445634 -2.46269e-06 0.99535C -2.46269e-06 1.54507 0.442961 1.9907 0.989382 1.9907Z" transform="translate(74.3276 82.5936)" fill="black"/>
</g>
</g>
<g id="Group_50">
<g id="Vector_45">
<path d="M 0.989382 2.78723e-06C 0.442153 2.78723e-06 -2.46269e-06 0.44736 -2.46269e-06 0.997889C -2.46269e-06 1.54419 0.441312 1.99239 0.989382 1.99239C 1.53493 1.99239 1.97793 1.54503 1.97793 0.997889C 1.97709 0.44736 1.53493 2.78723e-06 0.989382 2.78723e-06Z" transform="translate(74.3276 74.9421)" fill="black"/>
</g>
</g>
<g id="Group_51">
<g id="Vector_46">
<path d="M 0.989382 1.9907C 1.5358 1.9907 1.97877 1.54507 1.97877 0.995349C 1.97877 0.445633 1.5358 0 0.989382 0C 0.442961 0 -2.46269e-06 0.445633 -2.46269e-06 0.995349C -2.46269e-06 1.54507 0.442961 1.9907 0.989382 1.9907Z" transform="translate(74.3276 67.2922)" fill="black"/>
</g>
</g>
<g id="Group_52">
<g id="Vector_47">
<path d="M 0.988541 1.98901C 1.5345 1.98901 1.97708 1.54375 1.97708 0.994504C 1.97708 0.445255 1.5345 0 0.988541 0C 0.442585 0 -2.92444e-06 0.445255 -2.92444e-06 0.994504C -2.92444e-06 1.54375 0.442585 1.98901 0.988541 1.98901Z" transform="translate(74.3281 51.9932)" fill="black"/>
</g>
</g>
<g id="Group_53">
<g id="Vector_48">
<path d="M 0.989382 2.32269e-07C 0.442153 2.32269e-07 -2.46269e-06 0.442282 -2.46269e-06 0.994502C -2.46269e-06 1.54503 0.441312 1.98816 0.989382 1.98816C 1.53493 1.98816 1.97793 1.54588 1.97793 0.994502C 1.97709 0.442282 1.53493 2.32269e-07 0.989382 2.32269e-07Z" transform="translate(74.3276 44.3442)" fill="black"/>
</g>
</g>
<g id="Group_54">
<g id="Vector_49">
<path d="M 0.990222 1.99239C 1.53711 1.99239 1.98045 1.54638 1.98045 0.996194C 1.98045 0.446011 1.53711 0 0.990222 0C 0.443337 0 -2.00093e-06 0.446011 -2.00093e-06 0.996194C -2.00093e-06 1.54638 0.443337 1.99239 0.990222 1.99239Z" transform="translate(74.3267 36.6892)" fill="black"/>
</g>
</g>
</g>
<g id="Group_55">
<g id="Group_56">
<g id="Vector_50">
<path d="M 0.989383 -2.16784e-06C 0.442154 -2.16784e-06 -1.38526e-06 0.447357 -1.38526e-06 0.995348C -1.38526e-06 1.54419 0.441314 1.99239 0.989383 1.99239C 1.53577 1.99239 1.97793 1.54503 1.97793 0.995348C 1.97709 0.447357 1.53577 -2.16784e-06 0.989383 -2.16784e-06Z" transform="translate(81.2251 86.2266)" fill="black"/>
</g>
</g>
<g id="Group_57">
<g id="Vector_51">
<path d="M 0.989383 1.9907C 1.5358 1.9907 1.97877 1.54507 1.97877 0.99535C 1.97877 0.445634 1.5358 0 0.989383 0C 0.442962 0 0 0.445634 0 0.99535C 0 1.54507 0.442962 1.9907 0.989383 1.9907Z" transform="translate(81.2251 78.5776)" fill="black"/>
</g>
</g>
<g id="Group_58">
<g id="Vector_52">
<path d="M 0.989383 1.9907C 1.5358 1.9907 1.97877 1.54506 1.97877 0.995346C 1.97877 0.445631 1.5358 2.78723e-06 0.989383 2.78723e-06C 0.442962 2.78723e-06 0 0.445631 0 0.995346C 0 1.54506 0.442962 1.9907 0.989383 1.9907Z" transform="translate(81.2251 70.9252)" fill="black"/>
</g>
</g>
<g id="Group_59">
<g id="Vector_53">
<path d="M 0.988543 1.989C 1.5345 1.989 1.97709 1.54375 1.97709 0.994505C 1.97709 0.445256 1.5345 0 0.988543 0C 0.442586 0 0 0.445256 0 0.994505C 0 1.54375 0.442586 1.989 0.988543 1.989Z" transform="translate(81.2261 55.6262)" fill="black"/>
</g>
</g>
<g id="Group_60">
<g id="Vector_54">
<path d="M 0.989383 1.9907C 1.5358 1.9907 1.97877 1.54507 1.97877 0.99535C 1.97877 0.445634 1.5358 0 0.989383 0C 0.442962 0 0 0.445634 0 0.99535C 0 1.54507 0.442962 1.9907 0.989383 1.9907Z" transform="translate(81.2251 47.9746)" fill="black"/>
</g>
</g>
<g id="Group_61">
<g id="Vector_55">
<path d="M 0.988543 1.98901C 1.5345 1.98901 1.97709 1.54375 1.97709 0.994503C 1.97709 0.445254 1.5345 0 0.988543 0C 0.442586 0 0 0.445254 0 0.994503C 0 1.54375 0.442586 1.98901 0.988543 1.98901Z" transform="translate(81.2261 40.3256)" fill="black"/>
</g>
</g>
</g>
<g id="Group_62">
<g id="Group_63">
<g id="Vector_56">
<path d="M 0.987701 -2.16784e-06C 0.442153 -2.16784e-06 2.87314e-06 0.447357 2.87314e-06 0.995348C 2.87314e-06 1.54419 0.441313 1.99239 0.987701 1.99239C 1.53493 1.99239 1.97709 1.54503 1.97709 0.995348C 1.97625 0.447357 1.53493 -2.16784e-06 0.987701 -2.16784e-06Z" transform="translate(67.4292 86.2266)" fill="black"/>
</g>
</g>
<g id="Group_64">
<g id="Vector_57">
<path d="M 0.987701 -6.19384e-07C 0.442153 -6.19384e-07 2.87314e-06 0.442286 2.87314e-06 0.992815C 2.87314e-06 1.54165 0.441313 1.99155 0.987701 1.99155C 1.53493 1.99155 1.97709 1.5425 1.97709 0.992815C 1.97625 0.442286 1.53493 -6.19384e-07 0.987701 -6.19384e-07Z" transform="translate(67.4292 78.5776)" fill="black"/>
</g>
</g>
<g id="Group_65">
<g id="Vector_58">
<path d="M 0.989382 1.9907C 1.5358 1.9907 1.97877 1.54506 1.97877 0.995346C 1.97877 0.445631 1.5358 2.78723e-06 0.989382 2.78723e-06C 0.442961 2.78723e-06 -2.6166e-06 0.445631 -2.6166e-06 0.995346C -2.6166e-06 1.54506 0.442961 1.9907 0.989382 1.9907Z" transform="translate(67.4277 70.9252)" fill="black"/>
</g>
</g>
</g>
</g>
<g id="Group_66">
<g id="Group_67">
<g id="Group_68">
<g id="Group_69">
<g id="Vector_59">
<path d="M 0.988541 1.98901C 1.5345 1.98901 1.97708 1.54375 1.97708 0.9945C 1.97708 0.445251 1.5345 0 0.988541 0C 0.442585 0 0 0.445251 0 0.9945C 0 1.54375 0.442585 1.98901 0.988541 1.98901Z" transform="translate(52.7817 106.011)" fill="black"/>
</g>
</g>
<g id="Group_70">
<g id="Vector_60">
<path d="M 0.988541 -2.06461e-06C 0.442153 -2.06461e-06 3.07836e-07 0.44482 3.07836e-07 0.995348C 3.07836e-07 1.54249 0.441313 1.99239 0.988541 1.99239C 1.53577 1.99239 1.97708 1.54334 1.97708 0.995348C 1.97708 0.44482 1.53493 -2.06461e-06 0.988541 -2.06461e-06Z" transform="translate(52.7817 98.3594)" fill="black"/>
</g>
</g>
<g id="Group_71">
<g id="Vector_61">
<path d="M 0.988541 8.77461e-07C 0.442153 8.77461e-07 3.07836e-07 0.447358 3.07836e-07 0.997887C 3.07836e-07 1.54419 0.441313 1.99239 0.988541 1.99239C 1.53577 1.99239 1.97708 1.54503 1.97708 0.997887C 1.97708 0.447358 1.53493 8.77461e-07 0.988541 8.77461e-07Z" transform="translate(52.7817 90.7078)" fill="black"/>
</g>
</g>
<g id="Group_72">
<g id="Vector_62">
<path d="M 0.988541 2.42592e-06C 0.442153 2.42592e-06 3.07836e-07 0.447355 3.07836e-07 0.994501C 3.07836e-07 1.54418 0.441313 1.9907 0.988541 1.9907C 1.53577 1.9907 1.97708 1.54503 1.97708 0.994501C 1.97708 0.447355 1.53493 2.42592e-06 0.988541 2.42592e-06Z" transform="translate(52.7817 83.0588)" fill="black"/>
</g>
</g>
<g id="Group_73">
<g id="Vector_63">
<path d="M 0.987701 1.98732C 1.53319 1.98732 1.9754 1.54244 1.9754 0.993658C 1.9754 0.444876 1.53319 -2.47754e-06 0.987701 -2.47754e-06C 0.442208 -2.47754e-06 0 0.444876 0 0.993658C 0 1.54244 0.442208 1.98732 0.987701 1.98732Z" transform="translate(52.7827 75.4097)" fill="black"/>
</g>
</g>
<g id="Group_74">
<g id="Vector_64">
<path d="M 0.988541 1.989C 1.5345 1.989 1.97708 1.54376 1.97708 0.994506C 1.97708 0.445257 1.5345 0 0.988541 0C 0.442585 0 0 0.445257 0 0.994506C 0 1.54376 0.442585 1.989 0.988541 1.989Z" transform="translate(52.7817 67.7581)" fill="black"/>
</g>
</g>
<g id="Group_75">
<g id="Vector_65">
<path d="M 0.987701 1.98732C 1.53319 1.98732 1.9754 1.54244 1.9754 0.993656C 1.9754 0.444874 1.53319 2.013e-06 0.987701 2.013e-06C 0.442208 2.013e-06 0 0.444874 0 0.993656C 0 1.54244 0.442208 1.98732 0.987701 1.98732Z" transform="translate(52.7827 60.1091)" fill="black"/>
</g>
</g>
<g id="Group_76">
<g id="Vector_66">
<path d="M 0.990223 1.99239C 1.53711 1.99239 1.98044 1.54638 1.98044 0.996195C 1.98044 0.446012 1.53711 0 0.990223 0C 0.443337 0 0 0.446012 0 0.996195C 0 1.54638 0.443337 1.99239 0.990223 1.99239Z" transform="translate(52.7803 52.4558)" fill="black"/>
</g>
</g>
</g>
<g id="Group_77">
<g id="Group_78">
<g id="Vector_67">
<path d="M 0.98938 2.83884e-06C 0.442992 2.83884e-06 1.84701e-06 0.447355 1.84701e-06 0.995347C 1.84701e-06 1.54418 0.442151 1.99239 0.98938 1.99239C 1.53661 1.99239 1.97876 1.54503 1.97876 0.995347C 1.97876 0.448201 1.53577 2.83884e-06 0.98938 2.83884e-06Z" transform="translate(59.6792 101.992)" fill="black"/>
</g>
</g>
<g id="Group_79">
<g id="Vector_68">
<path d="M 0.98938 1.9907C 1.5358 1.9907 1.97876 1.54506 1.97876 0.995347C 1.97876 0.445632 1.5358 -2.52915e-06 0.98938 -2.52915e-06C 0.442959 -2.52915e-06 0 0.445632 0 0.995347C 0 1.54506 0.442959 1.9907 0.98938 1.9907Z" transform="translate(59.6792 94.3434)" fill="black"/>
</g>
</g>
<g id="Group_80">
<g id="Vector_69">
<path d="M 0.98938 1.9907C 1.5358 1.9907 1.97876 1.54507 1.97876 0.995351C 1.97876 0.445635 1.5358 0 0.98938 0C 0.442959 0 0 0.445635 0 0.995351C 0 1.54507 0.442959 1.9907 0.98938 1.9907Z" transform="translate(59.6792 86.6909)" fill="black"/>
</g>
</g>
<g id="Group_81">
<g id="Vector_70">
<path d="M 0.987698 1.98732C 1.53319 1.98732 1.9754 1.54244 1.9754 0.993656C 1.9754 0.444874 1.53319 2.42592e-06 0.987698 2.42592e-06C 0.442206 2.42592e-06 0 0.444874 0 0.993656C 0 1.54244 0.442206 1.98732 0.987698 1.98732Z" transform="translate(59.6807 79.0419)" fill="black"/>
</g>
</g>
<g id="Group_82">
<g id="Vector_71">
<path d="M 0.987698 1.98732C 1.53319 1.98732 1.9754 1.54244 1.9754 0.993657C 1.9754 0.444876 1.53319 -2.47754e-06 0.987698 -2.47754e-06C 0.442206 -2.47754e-06 0 0.444876 0 0.993657C 0 1.54244 0.442206 1.98732 0.987698 1.98732Z" transform="translate(59.6807 71.3928)" fill="black"/>
</g>
</g>
<g id="Group_83">
<g id="Vector_72">
<path d="M 0.98938 1.39361e-06C 0.442992 1.39361e-06 1.84701e-06 0.446514 1.84701e-06 0.997042C 1.84701e-06 1.54419 0.442151 1.99239 0.98938 1.99239C 1.53661 1.99239 1.97876 1.54503 1.97876 0.997042C 1.97876 0.446514 1.53577 1.39361e-06 0.98938 1.39361e-06Z" transform="translate(59.6792 63.7396)" fill="black"/>
</g>
</g>
<g id="Group_84">
<g id="Vector_73">
<path d="M 0.98938 2.94207e-06C 0.442992 2.94207e-06 1.84701e-06 0.442281 1.84701e-06 0.995347C 1.84701e-06 1.54334 0.442151 1.98985 0.98938 1.98985C 1.53661 1.98985 1.97876 1.54418 1.97876 0.995347C 1.97876 0.443127 1.53577 2.94207e-06 0.98938 2.94207e-06Z" transform="translate(59.6792 56.0905)" fill="black"/>
</g>
</g>
</g>
<g id="Group_85">
<g id="Group_86">
<g id="Vector_74">
<path d="M 0.988542 1.98901C 1.5345 1.98901 1.97708 1.54375 1.97708 0.9945C 1.97708 0.445251 1.5345 0 0.988542 0C 0.442586 0 0 0.445251 0 0.9945C 0 1.54375 0.442586 1.98901 0.988542 1.98901Z" transform="translate(38.9858 106.011)" fill="black"/>
</g>
</g>
<g id="Group_87">
<g id="Vector_75">
<path d="M 0.990223 -2.06461e-06C 0.442995 -2.06461e-06 -9.23507e-07 0.44482 -9.23507e-07 0.995348C -9.23507e-07 1.54249 0.442154 1.99239 0.990223 1.99239C 1.53577 1.99239 1.97876 1.54334 1.97876 0.995348C 1.97792 0.44482 1.53577 -2.06461e-06 0.990223 -2.06461e-06Z" transform="translate(38.9844 98.3594)" fill="black"/>
</g>
</g>
<g id="Group_88">
<g id="Vector_76">
<path d="M 0.990223 8.77461e-07C 0.442995 8.77461e-07 -9.23507e-07 0.447358 -9.23507e-07 0.997887C -9.23507e-07 1.54419 0.442154 1.99239 0.990223 1.99239C 1.53577 1.99239 1.97876 1.54503 1.97876 0.997887C 1.97792 0.447358 1.53577 8.77461e-07 0.990223 8.77461e-07Z" transform="translate(38.9844 90.7078)" fill="black"/>
</g>
</g>
<g id="Group_89">
<g id="Vector_77">
<path d="M 0.990223 2.42592e-06C 0.442995 2.42592e-06 -9.23507e-07 0.447355 -9.23507e-07 0.994501C -9.23507e-07 1.54418 0.442154 1.9907 0.990223 1.9907C 1.53577 1.9907 1.97876 1.54503 1.97876 0.994501C 1.97792 0.447355 1.53577 2.42592e-06 0.990223 2.42592e-06Z" transform="translate(38.9844 83.0588)" fill="black"/>
</g>
</g>
<g id="Group_90">
<g id="Vector_78">
<path d="M 0.987702 1.98732C 1.53319 1.98732 1.9754 1.54244 1.9754 0.993658C 1.9754 0.444876 1.53319 -2.47754e-06 0.987702 -2.47754e-06C 0.442209 -2.47754e-06 0 0.444876 0 0.993658C 0 1.54244 0.442209 1.98732 0.987702 1.98732Z" transform="translate(38.9868 75.4097)" fill="black"/>
</g>
</g>
<g id="Group_91">
<g id="Vector_79">
<path d="M 0.988542 1.989C 1.5345 1.989 1.97708 1.54376 1.97708 0.994506C 1.97708 0.445257 1.5345 0 0.988542 0C 0.442586 0 0 0.445257 0 0.994506C 0 1.54376 0.442586 1.989 0.988542 1.989Z" transform="translate(38.9858 67.7581)" fill="black"/>
</g>
</g>
<g id="Group_92">
<g id="Vector_80">
<path d="M 0.987702 1.98732C 1.53319 1.98732 1.9754 1.54244 1.9754 0.993656C 1.9754 0.444874 1.53319 2.013e-06 0.987702 2.013e-06C 0.442209 2.013e-06 0 0.444874 0 0.993656C 0 1.54244 0.442209 1.98732 0.987702 1.98732Z" transform="translate(38.9868 60.1091)" fill="black"/>
</g>
</g>
<g id="Group_93">
<g id="Vector_81">
<path d="M 0.990223 1.99239C 1.53711 1.99239 1.98045 1.54638 1.98045 0.996195C 1.98045 0.446012 1.53711 0 0.990223 0C 0.443338 0 0 0.446012 0 0.996195C 0 1.54638 0.443338 1.99239 0.990223 1.99239Z" transform="translate(38.9844 52.4558)" fill="black"/>
</g>
</g>
</g>
<g id="Group_94">
<g id="Group_95">
<g id="Vector_82">
<path d="M 0.988541 2.83884e-06C 0.442153 2.83884e-06 -3.07836e-07 0.447355 -3.07836e-07 0.995347C -3.07836e-07 1.54418 0.441312 1.99239 0.988541 1.99239C 1.53577 1.99239 1.97708 1.54503 1.97708 0.995347C 1.97708 0.448201 1.53493 2.83884e-06 0.988541 2.83884e-06Z" transform="translate(45.8833 101.992)" fill="black"/>
</g>
</g>
<g id="Group_96">
<g id="Vector_83">
<path d="M 0.989381 1.9907C 1.5358 1.9907 1.97877 1.54506 1.97877 0.995347C 1.97877 0.445632 1.5358 -2.52915e-06 0.989381 -2.52915e-06C 0.44296 -2.52915e-06 0 0.445632 0 0.995347C 0 1.54506 0.44296 1.9907 0.989381 1.9907Z" transform="translate(45.8823 94.3434)" fill="black"/>
</g>
</g>
<g id="Group_97">
<g id="Vector_84">
<path d="M 0.989381 1.9907C 1.5358 1.9907 1.97877 1.54507 1.97877 0.995351C 1.97877 0.445635 1.5358 0 0.989381 0C 0.44296 0 0 0.445635 0 0.995351C 0 1.54507 0.44296 1.9907 0.989381 1.9907Z" transform="translate(45.8823 86.6909)" fill="black"/>
</g>
</g>
<g id="Group_98">
<g id="Vector_85">
<path d="M 0.9877 1.98732C 1.53319 1.98732 1.9754 1.54244 1.9754 0.993656C 1.9754 0.444874 1.53319 2.42592e-06 0.9877 2.42592e-06C 0.442208 2.42592e-06 0 0.444874 0 0.993656C 0 1.54244 0.442208 1.98732 0.9877 1.98732Z" transform="translate(45.8838 79.0419)" fill="black"/>
</g>
</g>
<g id="Group_99">
<g id="Vector_86">
<path d="M 0.9877 1.98732C 1.53319 1.98732 1.9754 1.54244 1.9754 0.993657C 1.9754 0.444876 1.53319 -2.47754e-06 0.9877 -2.47754e-06C 0.442208 -2.47754e-06 0 0.444876 0 0.993657C 0 1.54244 0.442208 1.98732 0.9877 1.98732Z" transform="translate(45.8838 71.3928)" fill="black"/>
</g>
</g>
<g id="Group_100">
<g id="Vector_87">
<path d="M 0.988541 1.39361e-06C 0.442153 1.39361e-06 -3.07836e-07 0.446514 -3.07836e-07 0.997042C -3.07836e-07 1.54419 0.441312 1.99239 0.988541 1.99239C 1.53577 1.99239 1.97708 1.54503 1.97708 0.997042C 1.97708 0.446514 1.53493 1.39361e-06 0.988541 1.39361e-06Z" transform="translate(45.8833 63.7396)" fill="black"/>
</g>
</g>
<g id="Group_101">
<g id="Vector_88">
<path d="M 0.988541 2.94207e-06C 0.442153 2.94207e-06 -3.07836e-07 0.442281 -3.07836e-07 0.995347C -3.07836e-07 1.54334 0.441312 1.98985 0.988541 1.98985C 1.53577 1.98985 1.97708 1.54418 1.97708 0.995347C 1.97708 0.443127 1.53493 2.94207e-06 0.988541 2.94207e-06Z" transform="translate(45.8833 56.0905)" fill="black"/>
</g>
</g>
</g>
<g id="Group_102">
<g id="Group_103">
<g id="Vector_89">
<path d="M 0.987702 2.83884e-06C 0.442154 2.83884e-06 7.43937e-07 0.447355 7.43937e-07 0.995347C 7.43937e-07 1.54418 0.441314 1.99239 0.987702 1.99239C 1.53493 1.99239 1.97708 1.54503 1.97708 0.995347C 1.97624 0.448201 1.53493 2.83884e-06 0.987702 2.83884e-06Z" transform="translate(32.0869 101.992)" fill="black"/>
</g>
</g>
<g id="Group_104">
<g id="Vector_90">
<path d="M 0.987702 -2.52915e-06C 0.442154 -2.52915e-06 7.43937e-07 0.442284 7.43937e-07 0.992812C 7.43937e-07 1.54165 0.441314 1.99154 0.987702 1.99154C 1.53493 1.99154 1.97708 1.54249 1.97708 0.992812C 1.97624 0.442284 1.53493 -2.52915e-06 0.987702 -2.52915e-06Z" transform="translate(32.0869 94.3434)" fill="black"/>
</g>
</g>
<g id="Group_105">
<g id="Vector_91">
<path d="M 0.989383 1.9907C 1.5358 1.9907 1.97876 1.54507 1.97876 0.995351C 1.97876 0.445635 1.5358 0 0.989383 0C 0.442962 0 0 0.445635 0 0.995351C 0 1.54507 0.442962 1.9907 0.989383 1.9907Z" transform="translate(32.0854 86.6909)" fill="black"/>
</g>
</g>
<g id="Group_106">
<g id="Vector_92">
<path d="M 0.987702 1.98732C 1.53319 1.98732 1.9754 1.54244 1.9754 0.993656C 1.9754 0.444874 1.53319 2.42592e-06 0.987702 2.42592e-06C 0.442209 2.42592e-06 0 0.444874 0 0.993656C 0 1.54244 0.442209 1.98732 0.987702 1.98732Z" transform="translate(32.0869 79.0419)" fill="black"/>
</g>
</g>
<g id="Group_107">
<g id="Vector_93">
<path d="M 0.987702 1.98732C 1.53319 1.98732 1.9754 1.54244 1.9754 0.993657C 1.9754 0.444876 1.53319 -2.47754e-06 0.987702 -2.47754e-06C 0.442209 -2.47754e-06 0 0.444876 0 0.993657C 0 1.54244 0.442209 1.98732 0.987702 1.98732Z" transform="translate(32.0869 71.3928)" fill="black"/>
</g>
</g>
<g id="Group_108">
<g id="Vector_94">
<path d="M 0.987702 1.39361e-06C 0.442154 1.39361e-06 7.43937e-07 0.446514 7.43937e-07 0.997042C 7.43937e-07 1.54419 0.441314 1.99239 0.987702 1.99239C 1.53493 1.99239 1.97708 1.54503 1.97708 0.997042C 1.97624 0.446514 1.53493 1.39361e-06 0.987702 1.39361e-06Z" transform="translate(32.0869 63.7396)" fill="black"/>
</g>
</g>
<g id="Group_109">
<g id="Vector_95">
<path d="M 0.987702 2.94207e-06C 0.442154 2.94207e-06 7.43937e-07 0.442281 7.43937e-07 0.995347C 7.43937e-07 1.54334 0.441314 1.98985 0.987702 1.98985C 1.53493 1.98985 1.97708 1.54418 1.97708 0.995347C 1.97624 0.443127 1.53493 2.94207e-06 0.987702 2.94207e-06Z" transform="translate(32.0869 56.0905)" fill="black"/>
</g>
</g>
</g>
<g id="Group_110">
<g id="Group_111">
<g id="Vector_96">
<path d="M 0.988542 2.83884e-06C 0.442154 2.83884e-06 6.54151e-07 0.447355 6.54151e-07 0.995347C 6.54151e-07 1.54418 0.441313 1.99239 0.988542 1.99239C 1.53661 1.99239 1.97792 1.54503 1.97792 0.995347C 1.97708 0.448201 1.53661 2.83884e-06 0.988542 2.83884e-06Z" transform="translate(18.2905 101.992)" fill="black"/>
</g>
</g>
<g id="Group_112">
<g id="Vector_97">
<path d="M 0.988542 -2.52915e-06C 0.442154 -2.52915e-06 6.54151e-07 0.442284 6.54151e-07 0.992812C 6.54151e-07 1.54165 0.441313 1.99154 0.988542 1.99154C 1.53661 1.99154 1.97792 1.54249 1.97792 0.992812C 1.97708 0.442284 1.53661 -2.52915e-06 0.988542 -2.52915e-06Z" transform="translate(18.2905 94.3434)" fill="black"/>
</g>
</g>
<g id="Group_113">
<g id="Vector_98">
<path d="M 0.988542 8.77461e-07C 0.442154 8.77461e-07 6.54151e-07 0.444822 6.54151e-07 0.996196C 6.54151e-07 1.54503 0.441313 1.99154 0.988542 1.99154C 1.53661 1.99154 1.97792 1.54588 1.97792 0.996196C 1.97708 0.444822 1.53661 8.77461e-07 0.988542 8.77461e-07Z" transform="translate(18.2905 86.6909)" fill="black"/>
</g>
</g>
<g id="Group_114">
<g id="Vector_99">
<path d="M 0.988542 2.42592e-06C 0.442154 2.42592e-06 6.54151e-07 0.445663 6.54151e-07 0.996191C 6.54151e-07 1.54418 0.441313 1.98732 0.988542 1.98732C 1.53661 1.98732 1.97792 1.54503 1.97792 0.996191C 1.97708 0.445663 1.53661 2.42592e-06 0.988542 2.42592e-06Z" transform="translate(18.2905 79.0419)" fill="black"/>
</g>
</g>
<g id="Group_115">
<g id="Vector_100">
<path d="M 0.988542 -2.47754e-06C 0.442154 -2.47754e-06 6.54151e-07 0.44313 6.54151e-07 0.992812C 6.54151e-07 1.5425 0.441313 1.98816 0.988542 1.98816C 1.53661 1.98816 1.97792 1.54334 1.97792 0.992812C 1.97708 0.44313 1.53661 -2.47754e-06 0.988542 -2.47754e-06Z" transform="translate(18.2905 71.3928)" fill="black"/>
</g>
</g>
<g id="Group_116">
<g id="Vector_101">
<path d="M 0.988542 1.39361e-06C 0.442154 1.39361e-06 6.54151e-07 0.446514 6.54151e-07 0.997042C 6.54151e-07 1.54419 0.441313 1.99239 0.988542 1.99239C 1.53661 1.99239 1.97792 1.54503 1.97792 0.997042C 1.97708 0.446514 1.53661 1.39361e-06 0.988542 1.39361e-06Z" transform="translate(18.2905 63.7396)" fill="black"/>
</g>
</g>
<g id="Group_117">
<g id="Vector_102">
<path d="M 0.988542 2.94207e-06C 0.442154 2.94207e-06 6.54151e-07 0.442281 6.54151e-07 0.995347C 6.54151e-07 1.54334 0.441313 1.98985 0.988542 1.98985C 1.53661 1.98985 1.97792 1.54418 1.97792 0.995347C 1.97708 0.443127 1.53661 2.94207e-06 0.988542 2.94207e-06Z" transform="translate(18.2905 56.0905)" fill="black"/>
</g>
</g>
</g>
<g id="Group_118">
<g id="Group_119">
<g id="Vector_103">
<path d="M 0.986021 1.90977e-06C 0.440473 1.90977e-06 3.46315e-07 0.445664 3.46315e-07 0.994501C 3.46315e-07 1.54418 0.439633 1.98985 0.986021 1.98985C 1.53409 1.98985 1.97708 1.54503 1.97708 0.994501C 1.97624 0.446509 1.53409 1.90977e-06 0.986021 1.90977e-06Z" transform="translate(25.1909 106.01)" fill="black"/>
</g>
</g>
<g id="Group_120">
<g id="Vector_104">
<path d="M 0.986021 -2.06461e-06C 0.440473 -2.06461e-06 3.46315e-07 0.44482 3.46315e-07 0.995348C 3.46315e-07 1.54249 0.439633 1.99239 0.986021 1.99239C 1.53409 1.99239 1.97708 1.54334 1.97708 0.995348C 1.97624 0.44482 1.53409 -2.06461e-06 0.986021 -2.06461e-06Z" transform="translate(25.1909 98.3594)" fill="black"/>
</g>
</g>
<g id="Group_121">
<g id="Vector_105">
<path d="M 0.986021 8.77461e-07C 0.440473 8.77461e-07 3.46315e-07 0.447358 3.46315e-07 0.997887C 3.46315e-07 1.54419 0.439633 1.99239 0.986021 1.99239C 1.53409 1.99239 1.97708 1.54503 1.97708 0.997887C 1.97624 0.447358 1.53409 8.77461e-07 0.986021 8.77461e-07Z" transform="translate(25.1909 90.7078)" fill="black"/>
</g>
</g>
<g id="Group_122">
<g id="Vector_106">
<path d="M 0.986021 2.42592e-06C 0.440473 2.42592e-06 3.46315e-07 0.447355 3.46315e-07 0.994501C 3.46315e-07 1.54418 0.439633 1.9907 0.986021 1.9907C 1.53409 1.9907 1.97708 1.54503 1.97708 0.994501C 1.97624 0.447355 1.53409 2.42592e-06 0.986021 2.42592e-06Z" transform="translate(25.1909 83.0588)" fill="black"/>
</g>
</g>
<g id="Group_123">
<g id="Vector_107">
<path d="M 0.986021 -2.47754e-06C 0.440473 -2.47754e-06 3.46315e-07 0.442284 3.46315e-07 0.992812C 3.46315e-07 1.54334 0.439633 1.98816 0.986021 1.98816C 1.53409 1.98816 1.97708 1.54334 1.97708 0.992812C 1.97708 0.442284 1.53409 -2.47754e-06 0.986021 -2.47754e-06Z" transform="translate(25.1909 75.4097)" fill="black"/>
</g>
</g>
<g id="Group_124">
<g id="Vector_108">
<path d="M 0.986021 4.64538e-07C 0.440473 4.64538e-07 3.46315e-07 0.444823 3.46315e-07 0.995351C 3.46315e-07 1.54588 0.439633 1.98985 0.986021 1.98985C 1.53409 1.98985 1.97708 1.54588 1.97708 0.995351C 1.97708 0.444823 1.53409 4.64538e-07 0.986021 4.64538e-07Z" transform="translate(25.1909 67.7581)" fill="black"/>
</g>
</g>
<g id="Group_125">
<g id="Vector_109">
<path d="M 0.986021 2.013e-06C 0.440473 2.013e-06 3.46315e-07 0.443127 3.46315e-07 0.994501C 3.46315e-07 1.54588 0.439633 1.98816 0.986021 1.98816C 1.53409 1.98816 1.97708 1.54588 1.97708 0.994501C 1.97708 0.443127 1.53409 2.013e-06 0.986021 2.013e-06Z" transform="translate(25.1909 60.1091)" fill="black"/>
</g>
</g>
<g id="Group_126">
<g id="Vector_110">
<path d="M 0.986021 -1.03231e-07C 0.440473 -1.03231e-07 3.46315e-07 0.447358 3.46315e-07 0.997041C 3.46315e-07 1.54503 0.439633 1.99324 0.986021 1.99324C 1.53409 1.99324 1.97708 1.54588 1.97708 0.997041C 1.97624 0.448204 1.53409 -1.03231e-07 0.986021 -1.03231e-07Z" transform="translate(25.1909 52.455)" fill="black"/>
</g>
</g>
</g>
</g>
</g>
<g id="Group_127">
<g id="Vector_111">
<path d="M 13.4941 -3.54856e-08C 9.38611 -3.54856e-08 5.71102 1.84947 3.23714 4.75941L 4.28368 10.6317L 0.3396 10.6317C 0.126088 11.5789 -9.74813e-07 12.5598 -9.74813e-07 13.5738L 26.9882 13.5738C 26.9882 6.07696 20.946 -3.54856e-08 13.4941 -3.54856e-08Z" transform="translate(44.9854 2.10907)" fill="black"/>
</g>
</g>
</g>
</g>
</g>
</svg>

