<svg width="49" height="66" viewBox="0 0 49 66" version="1.1" xmlns="http://www.w3.org/2000/svg" xmlns:xlink="http://www.w3.org/1999/xlink">
<g id="Canvas" fill="none">
<g id="me">
<g id="Group">
<g id="Group_2">
<path id="Vector" d="M 0.951217 -6.31015e-07C 0.424341 -0.000789113 5.84334e-07 0.421839 5.84334e-07 0.949333C -0.000788151 1.47604 0.421974 1.90182 0.947272 1.9034C 1.47494 1.90261 1.90006 1.47998 1.90085 0.95485C 1.90322 0.428144 1.4773 0.00157633 0.951217 -6.31015e-07Z" transform="translate(17.7876 64.0967)" fill="black"/>
<path id="Vector_2" d="M 0.953584 4.42256e-06C 0.428287 -0.00157255 0.00237082 0.423423 4.61652e-06 0.948554C -0.00157285 1.47526 0.423554 1.90104 0.94964 1.90104C 1.47494 1.9042 1.90243 1.47999 1.9048 0.95407C 1.90401 0.426574 1.48046 0.00158139 0.953584 4.42256e-06Z" transform="translate(10.4658 64.0824)" fill="black"/>
<path id="Vector_3" d="M 0.951999 1.9034C 1.47777 1.9034 1.904 1.47731 1.904 0.9517C 1.904 0.42609 1.47777 0 0.951999 0C 0.426224 0 0 0.42609 0 0.9517C 0 1.47731 0.426224 1.9034 0.951999 1.9034Z" transform="translate(47.0962 50.8777)" fill="black"/>
<path id="Vector_4" d="M 0.952002 1.90341C 1.47778 1.90341 1.904 1.47731 1.904 0.951703C 1.904 0.426093 1.47778 0 0.952002 0C 0.426226 0 0 0.426093 0 0.951703C 0 1.47731 0.426226 1.90341 0.952002 1.90341Z" transform="translate(39.7754 50.8635)" fill="black"/>
<path id="Vector_5" d="M 0.955956 3.23542e-06C 0.429871 -0.00157373 0.000797831 0.424206 9.09634e-06 0.950125C -0.00235711 1.47447 0.427503 1.9034 0.9528 1.90183C 1.47573 1.9034 1.9048 1.47841 1.90559 0.954859C 1.90717 0.425786 1.47968 -0.000785249 0.955956 3.23542e-06Z" transform="translate(32.4536 50.8501)" fill="black"/>
<path id="Vector_6" d="M 0.952004 1.9034C 1.47778 1.9034 1.904 1.47731 1.904 0.9517C 1.904 0.42609 1.47778 0 0.952004 0C 0.426227 0 0 0.42609 0 0.9517C 0 1.47731 0.426227 1.9034 0.952004 1.9034Z" transform="translate(25.1333 50.8335)" fill="black"/>
<path id="Vector_7" d="M 0.946486 1.90183C 1.47415 1.90341 1.89928 1.47763 1.90085 0.953286C 1.90243 0.426579 1.4773 -0.00156728 0.951217 9.68218e-06C 0.42592 -0.00235577 0.000792938 0.422638 4.2038e-06 0.950922C -0.00157326 1.47447 0.4204 1.90183 0.946486 1.90183Z" transform="translate(17.8145 50.8209)" fill="black"/>
<path id="Vector_8" d="M 0.951214 1.90341C 1.47572 1.90341 1.90479 1.47921 1.90558 0.95329C 1.90479 0.426582 1.48282 9.30321e-06 0.95358 9.30321e-06C 0.429072 -0.00235615 0.00315627 0.423424 1.33244e-06 0.949344C -0.000787402 1.47526 0.423551 1.90262 0.951214 1.90341Z" transform="translate(10.4917 50.8052)" fill="black"/>
<path id="Vector_9" d="M 0.947271 1.90498C 1.47572 1.90498 1.89927 1.4792 1.90085 0.954066C 1.90164 0.428147 1.47888 0.0015772 0.952003 2.31151e-07C 0.42434 -0.000788253 0.000789924 0.423417 1.18965e-06 0.951702C -0.000787545 1.47526 0.421185 1.90261 0.947271 1.90498Z" transform="translate(3.1748 50.7894)" fill="black"/>
<path id="Vector_10" d="M 0.955158 1.63626e-06C 0.429861 1.63626e-06 0.00157906 0.424208 1.59314e-06 0.950916C -0.000787141 1.47684 0.427496 1.9034 0.952004 1.90104C 1.47651 1.90498 1.90716 1.47999 1.90716 0.954068C 1.90795 0.428937 1.48203 0.00157861 0.955158 1.63626e-06Z" transform="translate(43.2363 57.5089)" fill="black"/>
<path id="Vector_11" d="M 0.951213 1.90182C 1.47655 1.90182 1.90243 1.47608 1.90243 0.950909C 1.90243 0.425735 1.47655 2.98376e-06 0.951213 2.98376e-06C 0.425872 2.98376e-06 0 0.425735 0 0.950909C 0 1.47608 0.425872 1.90182 0.951213 1.90182Z" transform="translate(35.9165 57.4955)" fill="black"/>
<path id="Vector_12" d="M 0.955157 2.79278e-07C 0.429071 -0.000788205 0.00157819 0.423419 7.22108e-07 0.94855C 7.22108e-07 1.47605 0.425127 1.90183 0.951213 1.90262C 1.47651 1.90262 1.90558 1.47999 1.90558 0.954066C 1.90637 0.425781 1.48045 2.79278e-07 0.955157 2.79278e-07Z" transform="translate(28.5947 57.4805)" fill="black"/>
<path id="Vector_13" d="M 0.951214 1.90182C 1.47655 1.90182 1.90243 1.47609 1.90243 0.950915C 1.90243 0.42574 1.47655 0 0.951214 0C 0.425873 0 0 0.42574 0 0.950915C 0 1.47609 0.425873 1.90182 0.951214 1.90182Z" transform="translate(21.2778 57.4655)" fill="black"/>
<path id="Vector_14" d="M 0.954368 9.06944e-07C 0.430649 -0.000787576 0.000788812 0.42263 7.82283e-08 0.948548C 7.82283e-08 1.47604 0.425916 1.9034 0.952002 1.90261C 1.47493 1.90419 1.904 1.47919 1.90558 0.954064C 1.90637 0.425781 1.47888 0.00157787 0.954368 9.06944e-07Z" transform="translate(6.6333 57.4355)" fill="black"/>
<path id="Vector_15" d="M 0.950436 1.90262C 1.47494 1.90419 1.90559 1.47841 1.90638 0.951706C 1.90638 0.426575 1.48204 4.60722e-06 0.954377 4.60722e-06C 0.429869 -0.00157236 0.000798444 0.421843 9.70964e-06 0.948551C -0.00235649 1.47605 0.425927 1.89946 0.950436 1.90262Z" transform="translate(43.2646 44.2332)" fill="black"/>
<path id="Vector_16" d="M 0.948849 1.9034C 1.47415 1.90498 1.9048 1.47998 1.90637 0.953277C 1.90637 0.428936 1.47809 0.00157792 0.952005 9.53031e-07C 0.425919 -0.00078753 0.00315695 0.423416 2.01651e-06 0.948546C -0.000786718 1.47683 0.421974 1.90261 0.948849 1.9034Z" transform="translate(35.9453 44.2174)" fill="black"/>
<path id="Vector_17" d="M 0.952003 1.9034C 1.47778 1.9034 1.90401 1.47731 1.90401 0.9517C 1.90401 0.42609 1.47778 0 0.952003 0C 0.426227 0 0 0.42609 0 0.9517C 0 1.47731 0.426227 1.9034 0.952003 1.9034Z" transform="translate(28.623 44.2024)" fill="black"/>
</g>
<path id="Vector_18" d="M 7.22108e-08 3.12814e-07C 7.22108e-08 0.591364 0.0283943 1.77567 0.126986 2.89847C 0.511888 7.29979 2.6044 10.5121 2.6044 10.5121C 2.6044 10.5121 2.57995 10.8835 2.57995 12.0244C 2.57995 13.338 3.66446 15.7476 6.52362 15.7476L 8.21782 15.7476" transform="translate(6.56055 26.5687)" stroke="black" stroke-width="3" stroke-miterlimit="10"/>
<path id="Vector_19" d="M 6.01757e-09 0.765939C 3.9208 -1.17846 6.48576 1.19251 6.48576 1.19251L 5.69545 9.67581L 9.85366 9.67581" transform="translate(5.4668 20.7059)" stroke="black" stroke-width="3" stroke-miterlimit="10"/>
<path id="Vector_20" d="M 0 2.44011C 0 2.44011 1.94423 -0.854178 4.77894 0.212641C 7.38334 1.19194 7.13253 4.91595 5.49275 7.55895C 4.64486 8.92382 3.26536 9.71625 1.50806 9.99616" transform="translate(30.8306 19.989)" stroke="black" stroke-width="3" stroke-miterlimit="10"/>
<path id="Vector_21" d="M 1.53961 8.3603C 2.64068 6.44665 1.71786 4.55508 0 3.48195L 0 4.5719e-07" transform="translate(15.6475 45.1636)" stroke="black" stroke-width="3" stroke-miterlimit="10"/>
<path id="Vector_22" d="M 7.19667 19.1207C 7.19667 19.1207 4.56782 18.2014 2.59599 17.2812C 0.515305 16.3106 -0.0659925 15.4086 0.00578234 12.7861L 0.00578234 3.12814e-07" transform="translate(35.2681 28.4413)" stroke="black" stroke-width="3" stroke-miterlimit="10"/>
<path id="Vector_23" d="M 5.90333 2.18805L 0.00123497 2.18805C 0.00123497 2.18805 -0.11471 1.44376e-07 1.90051 1.44376e-07C 4.10738 1.44376e-07 5.90333 2.18805 5.90333 2.18805Z" transform="translate(12.2803 33.1123)" fill="black"/>
<path id="Vector_24" d="M 0.182531 2.08012C 0.182531 2.08012 -0.404287 0.561495 0.526419 0.0884041C 1.45634 -0.385475 2.98569 1.20017 2.98569 1.20017L 3.31933 2.08012L 0.182531 2.08012Z" transform="translate(10.7217 33.2202)" fill="black"/>
<path id="Vector_25" d="M 7.74379 1.37391C 5.55348 -0.398604 2.02231 -0.523973 -1.68492e-07 1.39599" transform="translate(15.1934 20.9252)" stroke="black" stroke-width="3" stroke-miterlimit="10"/>
<path id="Vector_26" d="M 24.4863 3.12814e-07C 15.12 0.295682 4.17635 6.99779 -6.01756e-08 16.4896" transform="translate(14.4292 41.7471)" stroke="black" stroke-width="3" stroke-miterlimit="10"/>
<path id="Vector_27" d="M -2.7079e-08 6.95207C 0.748509 6.7305 1.37792 6.27397 1.76676 5.65422L 1.9253 5.40191C 2.40406 4.6355 3.18254 4.06464 4.10615 3.79497C 5.03212 3.52531 5.9928 3.58918 6.8123 3.9779L 7.0781 4.108C 8.44971 4.75141 10.2204 4.23337 11.0336 2.95366L 11.189 2.70214C 12.1891 1.11334 14.3786 0.474668 16.0744 1.27656L 16.3434 1.40429C 17.0043 1.71811 17.7796 1.76463 18.5282 1.54858C 19.279 1.32938 19.9069 0.870486 20.2918 0.251526L 20.4519 3.42892e-07" transform="translate(2.70117 11.3589)" stroke="black" stroke-width="3" stroke-miterlimit="10"/>
<path id="Vector_28" d="M -7.71001e-09 6.95285C 0.746931 6.7305 1.37634 6.27476 1.76598 5.65422L 1.92372 5.40269C 2.40248 4.6355 3.18175 4.06542 4.10615 3.79576C 5.03055 3.5261 5.99201 3.58918 6.81151 3.97869L 7.07731 4.108C 8.44892 4.75141 10.2188 4.23337 11.032 2.95445L 11.1882 2.70214C 12.1875 1.11413 14.3778 0.475456 16.0728 1.27656L 16.3418 1.40429C 17.0035 1.7189 17.7781 1.76542 18.5274 1.54858C 19.2775 1.33017 19.9045 0.871275 20.2902 0.252315L 20.4495 3.00783e-08" transform="translate(1 6.20691)" stroke="black" stroke-width="3" stroke-miterlimit="10"/>
<path id="Vector_29" d="M 0.808141 16.8483C 0.954057 16.1671 0.864141 15.4779 0.544704 14.9071L 0.413774 14.6745C 0.0162524 13.9719 -0.0981138 13.1172 0.0848724 12.2759C 0.268647 11.4346 0.72927 10.7084 1.38471 10.2306L 1.60003 10.0784C 2.694 9.27809 3.04341 7.66722 2.38561 6.48292L 2.25547 6.25268C 1.43598 4.79004 1.87057 2.79912 3.22561 1.81194L 3.43936 1.65424C 3.97096 1.26946 4.33851 0.682039 4.48837 3.30861e-07" transform="translate(28.4087 13.3821)" stroke="black" stroke-width="3" stroke-miterlimit="10"/>
<path id="Vector_30" d="M 8.83777 1.62423e-07C 8.23281 0.346145 7.78244 0.875217 7.57342 1.49418L 7.48824 1.74649C 7.23269 2.5129 6.67505 3.17049 5.92733 3.59943C 5.17725 4.02521 4.33094 4.17187 3.53747 4.00314L 3.27877 3.94479C 1.95369 3.67039 0.523718 4.49042 0.0828159 5.77171L -8.42459e-07 6.02323" transform="translate(25.9956 10.5625)" stroke="black" stroke-width="3" stroke-miterlimit="10"/>
<path id="Vector_31" d="M 1.59892 0.000175753C -0.376071 0.0175224 0.0356476 2.50361 0.0356476 2.50361L 5.40772 2.50361C 5.40693 2.50361 4.38473 -0.0242672 1.59892 0.000175753Z" transform="translate(15.2539 21.7485)" fill="black"/>
<path id="Vector_32" d="M 1.31935 1.57551e-05C -0.346453 -0.0070806 0.0384499 2.48059 0.0384499 2.48059L 4.56578 2.48059C 4.56578 2.48059 3.67057 0.00868908 1.31935 1.57551e-05Z" transform="translate(5.84863 21.7715)" fill="black"/>
<path id="Vector_33" d="M 8.66529e-07 7.77919C 1.90716 5.91363 2.52868 2.61777 1.90716 1.68438e-07" transform="translate(37.4351 16.3516)" stroke="black" stroke-width="3" stroke-miterlimit="10"/>
<path id="Vector_34" d="M 7.70672 -8.42192e-07C 7.70672 -8.42192e-07 5.23246 4.19158 5.41581e-07 6.06975" transform="translate(20.6006 34.7185)" stroke="black" stroke-width="3" stroke-miterlimit="10"/>
<path id="Vector_35" d="M 1.34794e-06 0.0011028C 1.34794e-06 0.0011028 7.37467 -0.265405 10.5201 7.48776" transform="translate(26.9722 2)" stroke="black" stroke-width="3" stroke-miterlimit="10"/>
<path id="Vector_36" d="M 3.18931e-07 6.03348C 1.13499 2.85826 3.75122 0.984028 6.39742 7.82036e-08" transform="translate(7.26807 3.1405)" stroke="black" stroke-width="3" stroke-miterlimit="10"/>
<path id="Vector_37" d="M 4.60857 5.28127C 1.9111 5.28127 0 3.25881 0 -1.15501e-06" transform="translate(33.2954 28.9751)" stroke="black" stroke-width="3" stroke-miterlimit="10"/>
</g>
</g>
</g>
</svg>
