<svg width="129" height="91" viewBox="0 0 129 91" version="1.1" xmlns="http://www.w3.org/2000/svg" xmlns:xlink="http://www.w3.org/1999/xlink">
<g id="Canvas" fill="none">
<g id="Russia">
<g id="Group">
<g id="Group_2">
<g id="Vector">
<path d="M 6.10352e-07 -4.05312e-09L 6.131 -4.05312e-09C 9.001 -4.05312e-09 10.942 2.106 10.942 5.079C 10.942 8.052 9.002 10.199 6.131 10.199L 3.612 10.199L 3.612 14.762L 6.10352e-07 14.762L 6.10352e-07 -4.05312e-09ZM 5.388 7.102C 6.648 7.102 7.267 6.255 7.267 5.079C 7.267 3.903 6.648 3.097 5.451 3.097L 3.613 3.097L 3.613 7.102L 5.388 7.102Z" transform="translate(18.3601 0.247986)" fill="black"/>
</g>
<g id="Vector_2">
<path d="M 7.722 0C 12.181 0 15.443 3.303 15.443 7.535C 15.443 11.87 12.181 15.256 7.722 15.256C 3.262 15.256 -3.96729e-07 11.87 -3.96729e-07 7.535C -3.96729e-07 3.303 3.262 0 7.722 0ZM 7.722 11.953C 9.931 11.953 11.706 10.054 11.706 7.535C 11.706 5.119 9.931 3.303 7.722 3.303C 5.513 3.303 3.738 5.119 3.738 7.535C 3.738 10.054 5.513 11.953 7.722 11.953Z" transform="translate(31.5911 0)" fill="black"/>
</g>
<g id="Vector_3">
<path d="M 7.741 0C 9.722 0 11.829 0.661 13.274 2.085L 11.602 4.81C 10.653 3.984 9.228 3.303 7.907 3.303C 4.955 3.303 3.737 5.388 3.737 7.514C 3.737 9.702 5.058 11.952 7.907 11.952C 9.373 11.952 10.818 11.147 11.83 10.136L 13.687 12.779C 12.387 14.121 10.446 15.256 7.742 15.256C 2.994 15.256 -1.07647e-06 11.974 -1.07647e-06 7.597C -0.00100108 3.303 3.179 0 7.741 0Z" transform="translate(49.676 0)" fill="black"/>
</g>
<g id="Vector_4">
<path d="M 7.742 0C 9.723 0 11.83 0.661 13.275 2.085L 11.602 4.81C 10.653 3.984 9.228 3.303 7.907 3.303C 4.955 3.303 3.737 5.388 3.737 7.514C 3.737 9.702 5.058 11.952 7.907 11.952C 9.373 11.952 10.818 11.147 11.83 10.136L 13.687 12.779C 12.387 14.121 10.446 15.256 7.742 15.256C 2.994 15.256 -2.50244e-06 11.974 -2.50244e-06 7.597C -2.50244e-06 3.303 3.179 0 7.742 0Z" transform="translate(65.1992 0)" fill="black"/>
</g>
<g id="Vector_5">
<path d="M 1.70898e-06 -4.05312e-09L 3.612 -4.05312e-09L 3.612 6.896C 3.612 7.825 3.447 9.415 3.447 9.415L 3.488 9.415C 3.488 9.415 4.149 7.867 4.727 6.896L 8.815 -4.05312e-09L 12.468 -4.05312e-09L 12.468 14.761L 8.856 14.761L 8.856 7.886C 8.856 6.957 9.021 5.367 9.021 5.367L 8.98 5.367C 8.98 5.367 8.319 6.915 7.741 7.886L 3.633 14.761L 1.70898e-06 14.761L 1.70898e-06 -4.05312e-09Z" transform="translate(81.8582 0.247986)" fill="black"/>
</g>
<g id="Vector_6">
<path d="M 2.826 10.012C 3.239 9.331 3.384 9.124 3.384 9.124L 3.384 9.084C 1.712 8.155 1.01 6.482 1.01 4.707C 1.01 2.436 2.166 0.95 3.736 0.351C 4.376 0.103 5.098 -4.05312e-09 6.605 -4.05312e-09L 11.746 -4.05312e-09L 11.746 14.761L 8.134 14.761L 8.134 9.785L 6.813 9.785L 4.026 14.761L 2.50244e-06 14.761L 2.826 10.012ZM 8.133 6.792L 8.133 3.096L 6.914 3.096C 6.067 3.096 5.511 3.241 5.18 3.509C 4.809 3.819 4.685 4.355 4.685 4.892C 4.685 6.213 5.408 6.791 6.564 6.791L 8.133 6.791L 8.133 6.792Z" transform="translate(97.176 0.247986)" fill="black"/>
</g>
</g>
<g id="Vector_7">
<path d="M 25.289 50.578C 39.2557 50.578 50.578 39.2557 50.578 25.289C 50.578 11.3223 39.2557 0 25.289 0C 11.3223 0 0 11.3223 0 25.289C 0 39.2557 11.3223 50.578 25.289 50.578Z" transform="translate(29.0491 34.764)" fill="#46B4BE"/>
</g>
<g id="Vector_8">
<path d="M 13.285 26.57C 20.6221 26.57 26.57 20.6221 26.57 13.285C 26.57 5.9479 20.6221 0 13.285 0C 5.9479 0 0 5.9479 0 13.285C 0 20.6221 5.9479 26.57 13.285 26.57Z" transform="translate(31.323 27.212)" fill="#46B4BE"/>
</g>
<g id="Vector_9">
<path d="M 1.72 -1.25122e-06L 18.228 9.867L -2.74658e-07 18.922L 1.72 -1.25122e-06Z" transform="translate(20.438 61.412)" fill="#464BD7"/>
</g>
<g id="Vector_10">
<path d="M -2.92969e-06 19.395L 5.999 37.727L 45.999 52.394L 42.031 -3.66211e-07L -2.92969e-06 19.395Z" transform="translate(79.1719 21.209)" fill="#FFB946"/>
</g>
<g id="Vector_11">
<path d="M 1.49502 21.7254L 28.63 8.19237C 24.825 0.851366 15.822 -2.10664 8.39902 1.59736C 0.971016 5.30236 -2.08198 14.2704 1.49502 21.7254Z" transform="translate(0 44.4456)" fill="#FA3778"/>
</g>
<g id="Vector_12">
<path d="M 35.07 43.542L -2.0752e-06 3.41L 2.987 8.23975e-07L 41.404 31.875L 35.07 43.542Z" transform="translate(87.1011 21.061)" fill="#FFB946"/>
</g>
<g id="Group_3">
<g id="Group_4">
<g id="Vector_13">
<path d="M 1.205 2.41C 1.8705 2.41 2.41 1.8705 2.41 1.205C 2.41 0.539497 1.8705 -1.95313e-06 1.205 -1.95313e-06C 0.539496 -1.95313e-06 0 0.539497 0 1.205C 0 1.8705 0.539496 2.41 1.205 2.41Z" transform="translate(35.0461 88.573)" fill="black"/>
</g>
<g id="Vector_14">
<path d="M 1.207 2.414C 1.87361 2.414 2.414 1.87361 2.414 1.207C 2.414 0.540395 1.87361 2.19727e-06 1.207 2.19727e-06C 0.540392 2.19727e-06 0 0.540395 0 1.207C 0 1.87361 0.540392 2.414 1.207 2.414Z" transform="translate(25.998 86.496)" fill="black"/>
</g>
<g id="Vector_15">
<path d="M 1.205 2.41C 1.8705 2.41 2.41 1.8705 2.41 1.205C 2.41 0.539495 1.8705 -3.479e-06 1.205 -3.479e-06C 0.539498 -3.479e-06 0 0.539495 0 1.205C 0 1.8705 0.539498 2.41 1.205 2.41Z" transform="translate(16.9531 84.423)" fill="black"/>
</g>
</g>
<g id="Group_5">
<g id="Vector_16">
<path d="M 1.206 2.412C 1.87206 2.412 2.412 1.87206 2.412 1.206C 2.412 0.539947 1.87206 0 1.206 0C 0.539948 0 2.19727e-06 0.539947 2.19727e-06 1.206C 2.19727e-06 1.87206 0.539948 2.412 1.206 2.412Z" transform="translate(74.9961 80.457)" fill="black"/>
</g>
<g id="Vector_17">
<path d="M 0.0308495 0.939107C 0.17985 0.288107 0.827856 -0.11889 1.47786 0.0311099C 2.12486 0.18011 2.53685 0.828109 2.38585 1.47811C 2.23785 2.12711 1.58486 2.53211 0.936855 2.38411C 0.286855 2.23511 -0.11815 1.58711 0.0308495 0.939107Z" transform="translate(65.9473 78.3809)" fill="black"/>
</g>
<g id="Vector_18">
<path d="M 0.0306413 0.937478C 0.179641 0.287478 0.829639 -0.119528 1.47864 0.0314721C 2.12564 0.177472 2.53564 0.825478 2.38464 1.47848C 2.23664 2.12548 1.58664 2.53148 0.940641 2.38248C 0.290641 2.23548 -0.118359 1.58548 0.0306413 0.937478Z" transform="translate(56.8994 76.3075)" fill="black"/>
</g>
<g id="Vector_19">
<path d="M 1.207 2.414C 1.87361 2.414 2.414 1.87361 2.414 1.207C 2.414 0.540395 1.87361 2.2583e-06 1.207 2.2583e-06C 0.540393 2.2583e-06 0 0.540395 0 1.207C 0 1.87361 0.540393 2.414 1.207 2.414Z" transform="translate(47.854 74.232)" fill="black"/>
</g>
<g id="Vector_20">
<path d="M 1.205 2.41C 1.8705 2.41 2.41 1.8705 2.41 1.205C 2.41 0.539494 1.8705 3.11279e-06 1.205 3.11279e-06C 0.539497 3.11279e-06 0 0.539494 0 1.205C 0 1.8705 0.539497 2.41 1.205 2.41Z" transform="translate(38.8091 72.161)" fill="black"/>
</g>
<g id="Vector_21">
<path d="M 0.0308476 0.938056C 0.181848 0.289056 0.828847 -0.118942 1.47685 0.0310584C 2.12985 0.180058 2.53285 0.827057 2.38485 1.47806C 2.23685 2.12806 1.58785 2.53306 0.938847 2.38406C 0.286847 2.23506 -0.118152 1.58706 0.0308476 0.938056Z" transform="translate(29.7603 70.0819)" fill="black"/>
</g>
<g id="Vector_22">
<path d="M 0.0310125 0.940103C 0.180012 0.288103 0.824014 -0.118894 1.47601 0.031106C 2.12601 0.181106 2.53001 0.828105 2.38001 1.4781C 2.23101 2.1261 1.58701 2.5341 0.934012 2.3851C 0.284012 2.2341 -0.117988 1.5871 0.0310125 0.940103Z" transform="translate(20.717 68.0079)" fill="black"/>
</g>
<g id="Vector_23">
<path d="M 0.0309529 0.938489C 0.180953 0.287489 0.830953 -0.117516 1.47995 0.0304839C 2.12895 0.178484 2.53595 0.827489 2.38595 1.47949C 2.23995 2.12649 1.58695 2.53349 0.939953 2.38349C 0.290953 2.23349 -0.119047 1.58549 0.0309529 0.938489Z" transform="translate(11.6641 65.9335)" fill="black"/>
</g>
</g>
<g id="Group_6">
<g id="Vector_24">
<path d="M 1.209 2.418C 1.87671 2.418 2.418 1.87671 2.418 1.209C 2.418 0.541287 1.87671 0 1.209 0C 0.541287 0 0 0.541287 0 1.209C 0 1.87671 0.541287 2.418 1.209 2.418Z" transform="translate(68.3608 87.57)" fill="black"/>
</g>
<g id="Vector_25">
<path d="M 1.207 2.414C 1.87361 2.414 2.414 1.87361 2.414 1.207C 2.414 0.540394 1.87361 0 1.207 0C 0.540391 0 0 0.540394 0 1.207C 0 1.87361 0.540391 2.414 1.207 2.414Z" transform="translate(59.3159 85.499)" fill="black"/>
</g>
<g id="Vector_26">
<path d="M 1.208 2.416C 1.87516 2.416 2.416 1.87516 2.416 1.208C 2.416 0.540837 1.87516 -2.92969e-06 1.208 -2.92969e-06C 0.540839 -2.92969e-06 0 0.540837 0 1.208C 0 1.87516 0.540839 2.416 1.208 2.416Z" transform="translate(50.2668 83.422)" fill="black"/>
</g>
<g id="Vector_27">
<path d="M 1.206 2.412C 1.87206 2.412 2.412 1.87206 2.412 1.206C 2.412 0.539944 1.87206 0 1.206 0C 0.539946 0 0 0.539944 0 1.206C 0 1.87206 0.539946 2.412 1.206 2.412Z" transform="translate(41.2219 81.35)" fill="black"/>
</g>
<g id="Vector_28">
<path d="M 0.0309095 0.937638C 0.17991 0.284638 0.825909 -0.117359 1.47691 0.0306408C 2.12591 0.178641 2.53191 0.82664 2.38291 1.47664C 2.23391 2.12564 1.58491 2.53264 0.934909 2.38264C 0.285909 2.23364 -0.11809 1.58964 0.0309095 0.937638Z" transform="translate(32.176 79.2744)" fill="black"/>
</g>
<g id="Vector_29">
<path d="M 1.207 2.414C 1.87361 2.414 2.414 1.87361 2.414 1.207C 2.414 0.54039 1.87361 -3.05176e-06 1.207 -3.05176e-06C 0.540391 -3.05176e-06 0 0.54039 0 1.207C 0 1.87361 0.540391 2.414 1.207 2.414Z" transform="translate(23.1279 77.2)" fill="black"/>
</g>
<g id="Vector_30">
<path d="M 0.030901 0.938578C 0.180901 0.285578 0.8249 -0.119427 1.4769 0.0315727C 2.1269 0.178573 2.5349 0.827573 2.3849 1.47557C 2.2359 2.12557 1.5879 2.53258 0.937901 2.38258C 0.285901 2.23358 -0.118099 1.58658 0.030901 0.938578Z" transform="translate(14.0811 75.1254)" fill="black"/>
</g>
</g>
<g id="Group_7">
<g id="Vector_31">
<path d="M 1.209 2.418C 1.87671 2.418 2.418 1.87671 2.418 1.209C 2.418 0.541285 1.87671 -2.86865e-06 1.209 -2.86865e-06C 0.541287 -2.86865e-06 0 0.541285 0 1.209C 0 1.87671 0.541287 2.418 1.209 2.418Z" transform="translate(72.125 71.158)" fill="black"/>
</g>
<g id="Vector_32">
<path d="M 0.0309596 0.936756C 0.18096 0.288756 0.82396 -0.11825 1.47396 0.0307498C 2.12396 0.17975 2.53396 0.828748 2.38496 1.47775C 2.23696 2.12775 1.58396 2.53275 0.934959 2.38375C 0.284959 2.23475 -0.11804 1.58876 0.0309596 0.936756Z" transform="translate(63.0801 69.0843)" fill="black"/>
</g>
<g id="Vector_33">
<path d="M 1.207 2.414C 1.87361 2.414 2.414 1.87361 2.414 1.207C 2.414 0.540395 1.87361 2.13623e-06 1.207 2.13623e-06C 0.540394 2.13623e-06 0 0.540395 0 1.207C 0 1.87361 0.540394 2.414 1.207 2.414Z" transform="translate(54.033 67.01)" fill="black"/>
</g>
<g id="Vector_34">
<path d="M 0.0307448 0.93491C 0.178745 0.28591 0.827747 -0.118089 1.47775 0.0309111C 2.12475 0.176911 2.52975 0.825911 2.37975 1.47591C 2.22975 2.12591 1.58775 2.53191 0.938746 2.38191C 0.288746 2.23191 -0.118255 1.58791 0.0307448 0.93491Z" transform="translate(44.9861 64.9371)" fill="black"/>
</g>
<g id="Vector_35">
<path d="M 0.0308062 0.936854C 0.180806 0.286854 0.825805 -0.118148 1.47681 0.0308515C 2.12581 0.179852 2.5328 0.826852 2.3818 1.47485C 2.2338 2.12785 1.5858 2.53285 0.935805 2.38285C 0.287805 2.23485 -0.118194 1.58785 0.0308062 0.936854Z" transform="translate(35.9392 62.8601)" fill="black"/>
</g>
<g id="Vector_36">
<path d="M 0.0306972 0.935481C 0.177697 0.287481 0.827696 -0.119518 1.4777 0.0314816C 2.1237 0.178482 2.5347 0.826482 2.3847 1.47548C 2.2367 2.12648 1.5857 2.53248 0.938696 2.38348C 0.289696 2.23248 -0.118303 1.58848 0.0306972 0.935481Z" transform="translate(26.8914 60.7865)" fill="black"/>
</g>
<g id="Vector_37">
<path d="M 1.207 2.414C 1.87361 2.414 2.414 1.87361 2.414 1.207C 2.414 0.540392 1.87361 0 1.207 0C 0.540392 0 0 0.540392 0 1.207C 0 1.87361 0.540392 2.414 1.207 2.414Z" transform="translate(17.8459 58.711)" fill="black"/>
</g>
</g>
<g id="Group_8">
<g id="Vector_38">
<path d="M 0.0309574 0.936591C 0.179957 0.285591 0.828956 -0.117407 1.47696 0.0305932C 2.12796 0.178593 2.53596 0.827592 2.38696 1.47659C 2.23796 2.12959 1.58696 2.53259 0.937955 2.38259C 0.290955 2.23459 -0.119043 1.58959 0.0309574 0.936591Z" transform="translate(75.8882 54.7464)" fill="black"/>
</g>
<g id="Vector_39">
<path d="M 1.207 2.414C 1.87361 2.414 2.414 1.87361 2.414 1.207C 2.414 0.540394 1.87361 0 1.207 0C 0.540395 0 0 0.540394 0 1.207C 0 1.87361 0.540395 2.414 1.207 2.414Z" transform="translate(66.844 52.672)" fill="black"/>
</g>
<g id="Vector_40">
<path d="M 0.0311633 0.935221C 0.178163 0.286221 0.825162 -0.118778 1.47816 0.0312217C 2.12616 0.179222 2.53416 0.827221 2.38416 1.47622C 2.23516 2.12822 1.58817 2.53122 0.937165 2.38322C 0.287165 2.23322 -0.118837 1.58922 0.0311633 0.935221Z" transform="translate(57.7959 50.5978)" fill="black"/>
</g>
<g id="Vector_41">
<path d="M 0.0306924 0.936852C 0.181692 0.286852 0.827694 -0.118146 1.47869 0.0308541C 2.12569 0.180854 2.53069 0.825854 2.38069 1.47485C 2.23069 2.12885 1.58769 2.53385 0.939693 2.38285C 0.289693 2.23385 -0.118308 1.58985 0.0306924 0.936852Z" transform="translate(48.7493 48.5222)" fill="black"/>
</g>
<g id="Vector_42">
<path d="M 0.0314786 0.936851C 0.180479 0.286851 0.825479 -0.118147 1.47548 0.0308528C 2.12548 0.179853 2.53248 0.825853 2.38148 1.47585C 2.23248 2.12785 1.58448 2.53185 0.936477 2.38285C 0.287477 2.23385 -0.119521 1.58985 0.0314786 0.936851Z" transform="translate(39.7036 46.4482)" fill="black"/>
</g>
<g id="Vector_43">
<path d="M 0.0306945 0.936219C 0.179694 0.286219 0.828693 -0.118784 1.47869 0.0312161C 2.12469 0.179216 2.5337 0.826216 2.3837 1.47622C 2.2347 2.12922 1.58569 2.53222 0.939693 2.38222C 0.289693 2.23422 -0.118306 1.58922 0.0306945 0.936219Z" transform="translate(30.6553 44.3738)" fill="black"/>
</g>
<g id="Vector_44">
<path d="M 0.0309507 0.936116C 0.179951 0.288116 0.822951 -0.118883 1.47795 0.0311174C 2.12695 0.180117 2.53495 0.827117 2.38295 1.47612C 2.23495 2.12912 1.58695 2.53212 0.937952 2.38212C 0.284952 2.23312 -0.118049 1.59012 0.0309507 0.936116Z" transform="translate(21.6091 42.2989)" fill="black"/>
</g>
</g>
<g id="Group_9">
<g id="Vector_45">
<path d="M 0.0312177 0.934168C 0.177218 0.287168 0.827217 -0.118832 1.47622 0.0311683C 2.12522 0.182168 2.53122 0.82517 2.38222 1.47317C 2.23222 2.12617 1.58722 2.53317 0.936216 2.38317C 0.286216 2.23417 -0.118782 1.58617 0.0312177 0.934168Z" transform="translate(78.7598 64.0448)" fill="black"/>
</g>
<g id="Vector_46">
<path d="M 0.0315227 0.932914C 0.179523 0.285914 0.825523 -0.118086 1.47552 0.0309138C 2.12452 0.179914 2.53553 0.825915 2.38553 1.47391C 2.23753 2.12691 1.58353 2.53191 0.937529 2.38291C 0.286529 2.23491 -0.119477 1.58691 0.0315227 0.932914Z" transform="translate(69.7114 61.9701)" fill="black"/>
</g>
<g id="Vector_47">
<path d="M 0.0313221 0.932964C 0.179322 0.284964 0.828324 -0.118037 1.47932 0.0309633C 2.12532 0.178963 2.53532 0.824965 2.38532 1.47296C 2.23632 2.12596 1.58632 2.53096 0.937324 2.38296C 0.290324 2.23396 -0.119678 1.58596 0.0313221 0.932964Z" transform="translate(60.6636 59.896)" fill="black"/>
</g>
<g id="Vector_48">
<path d="M 0.0303417 0.93333C 0.178342 0.28433 0.829344 -0.118671 1.47734 0.0313292C 2.12534 0.179329 2.53334 0.824326 2.38534 1.47433C 2.23434 2.12533 1.58634 2.53133 0.936344 2.38233C 0.290344 2.23533 -0.117658 1.58633 0.0303417 0.93333Z" transform="translate(51.6177 57.8207)" fill="black"/>
</g>
<g id="Vector_49">
<path d="M 0.0309624 0.933963C 0.179962 0.284963 0.823963 -0.118037 1.47396 0.0309628C 2.12296 0.178963 2.52996 0.823964 2.37996 1.47296C 2.23096 2.12496 1.58196 2.53196 0.933962 2.38196C 0.284962 2.23296 -0.118038 1.58696 0.0309624 0.933963Z" transform="translate(42.573 55.746)" fill="black"/>
</g>
<g id="Vector_50">
<path d="M 0.0312143 0.931968C 0.179214 0.284968 0.825215 -0.118033 1.47521 0.030967C 2.12821 0.179967 2.53322 0.823968 2.38322 1.47397C 2.23422 2.12497 1.58722 2.53197 0.937216 2.38197C 0.286216 2.23297 -0.118786 1.58597 0.0312143 0.931968Z" transform="translate(33.5247 53.672)" fill="black"/>
</g>
<g id="Vector_51">
<path d="M 0.0306484 0.934276C 0.178648 0.285276 0.823648 -0.118724 1.47565 0.0312756C 2.12465 0.180276 2.52965 0.823273 2.37965 1.47327C 2.23065 2.12627 1.58665 2.53227 0.93465 2.38227C 0.28465 2.23427 -0.117352 1.58728 0.0306484 0.934276Z" transform="translate(24.4802 51.5977)" fill="black"/>
</g>
<g id="Vector_52">
<path d="M 0.0310059 0.933329C 0.179006 0.284329 0.830007 -0.118671 1.47701 0.0313289C 2.12601 0.179329 2.53601 0.82533 2.38601 1.47433C 2.23701 2.12533 1.58601 2.53233 0.939007 2.38233C 0.290007 2.23433 -0.118994 1.58633 0.0310059 0.933329Z" transform="translate(15.428 49.5227)" fill="black"/>
</g>
</g>
</g>
<g id="Vector_53">
<path d="M -1.37329e-07 34.168L 5.55 23.96L 5.55 10.979L 22.518 5.49316e-07L 30.842 9.289L 37.35 9.289L 42.943 14.64" stroke-width="3" stroke-miterlimit="10" transform="translate(8.09399 23.624)" stroke="black"/>
</g>
<g id="Vector_54">
<path d="M 13.893 6.417L 1.178 6.71387e-07L 4.27246e-07 12.946" stroke-width="3" stroke-miterlimit="10" transform="translate(20.5271 55.346)" stroke="black"/>
</g>
<g id="Vector_55">
<path d="M -3.66211e-07 4.659L 19.17 14.333L 44.504 7L 49.171 6.40869e-07L 58.171 3.667L 62.061 13.421L 68.961 13.421L 66.171 0.667" stroke-width="3" stroke-miterlimit="10" transform="translate(43.334 61.603)" stroke="black"/>
</g>
<g id="Vector_56">
<path d="M 15.351 5.334L 8.017 1.00708e-06L -4.88281e-07 13.505" stroke-width="3" stroke-miterlimit="10" transform="translate(96.4871 40.269)" stroke="black"/>
</g>
<g id="Vector_57">
<path d="M 1.43433e-06 13.757L 12 13.757L 12 17.825L 31.284 12.883L 48.001 4.57764e-07L 53.156 10.604L 49.721 15.871L 59.001 27.666" stroke-width="3" stroke-miterlimit="10" transform="translate(60.1709 16.27)" stroke="black"/>
</g>
</g>
</g>
</g>
</svg>

