<svg width="26" height="20" viewBox="0 0 26 20" version="1.1" xmlns="http://www.w3.org/2000/svg" xmlns:xlink="http://www.w3.org/1999/xlink">
<g id="Canvas" fill="none">
<path id="Union" fill-rule="evenodd" clip-rule="evenodd" d="M 23.5615 9.75C 22.3447 7.58279 18.7285 2.16666 13 2.16666C 7.27246 2.16666 3.65625 7.61069 2.43848 9.79034C 3.65723 11.9486 7.27246 17.3333 13 17.3333C 18.7266 17.3333 22.3418 11.921 23.5615 9.75ZM 0 9.79495C 0 9.79495 4.33301 0 13 0C 21.667 0 26 9.75 26 9.75C 26 9.75 21.667 19.5 13 19.5C 4.33301 19.5 0 9.79495 0 9.79495ZM 15.167 9.75C 15.167 8.55536 14.1953 7.58331 13 7.58331C 11.8057 7.58331 10.834 8.55536 10.834 9.75C 10.834 10.9446 11.8057 11.9167 13 11.9167C 14.1953 11.9167 15.167 10.9446 15.167 9.75ZM 8.66699 9.75C 8.66699 7.3569 10.6074 5.41666 13 5.41666C 15.3936 5.41666 17.334 7.3569 17.334 9.75C 17.334 12.1433 15.3936 14.0833 13 14.0833C 10.6074 14.0833 8.66699 12.1433 8.66699 9.75Z" fill="#BDBDBD"/>
</g>
</svg>
