<svg width="130" height="108" viewBox="0 0 130 108" version="1.1" xmlns="http://www.w3.org/2000/svg" xmlns:xlink="http://www.w3.org/1999/xlink">
<g id="Canvas" fill="none">
<g id="Udmgirl">
<g id="Group">
<g id="Vector">
<path d="M 7.476 99.193L 2.74658e-06 -4.76837e-08L 28.697 -4.76837e-08L 35.932 99.193L 7.476 99.193Z" transform="translate(82.3501 3.42499)" fill="#FA3778"/>
</g>
<g id="Group_2">
<g id="Vector_2">
<path d="M 9.798 14.551L 14.298 4.051L 4.62 2.44141e-07L 1.2207e-07 3.019L 1.69 22.799L 20.257 22.799L 9.798 14.551Z" transform="translate(15.9519 79.819)" fill="#46B4BE"/>
</g>
<g id="Vector_3">
<path d="M 8.5 12.862L 30.528 34.469L 45.511 -4.76837e-08L -1.297e-07 -4.76837e-08L 1.749 20.467L 8.5 12.862Z" transform="translate(9.16602 3.42499)" fill="#46B4BE"/>
</g>
</g>
<g id="Vector_4">
<path d="M 62.417 81L 65.299 68.594L 56.94 41.504L 41.667 -2.97546e-07L 41.667 24.06L 42.939 31.6L 40.864 35.956L 37.166 35.635L 38.292 48.015L 35.237 56.214L 31.335 67.666L 22.668 66.333L 14.668 60.666L 14 66.333L 11.417 68L 11.417 25.105L 7.667 37.833L 6.40869e-07 70.167L 27.335 81L 62.417 81Z" transform="translate(34.333 13.287)" fill="#FA3778"/>
</g>
<g id="Vector_5">
<path d="M -8.54492e-07 -3.35693e-06C 3.46 6.979 10.472 12.245 19.112 13.407C 27.752 14.567 35.908 11.337 41.086 5.52L -8.54492e-07 -3.35693e-06Z" transform="translate(40.801 92.395)" fill="#FFB946"/>
</g>
<g id="Vector_6">
<path d="M 0.686001 -1.06812e-07L 9.15527e-08 28.801L 11.135 28.801L 9.127 0.964L 0.686001 -1.06812e-07Z" transform="translate(61.584 5.83698)" fill="#FFB946"/>
</g>
<g id="Group_3">
<g id="Vector_7">
<path d="M 3.29099e-05 1.208C -0.00196709 1.877 0.541035 2.413 1.20503 2.412C 1.87503 2.411 2.41603 1.874 2.41503 1.206C 2.41503 0.542 1.86803 0 1.20503 0C 0.541035 0 -0.00496709 0.54 3.29099e-05 1.208Z" transform="translate(45.2461 0)" fill="black"/>
</g>
<g id="Vector_8">
<path d="M 9.15527e-08 1.209C 0.00500009 1.873 0.543001 2.415 1.213 2.416C 1.874 2.415 2.422 1.876 2.418 1.209C 2.421 0.541 1.873 0.001 1.205 0C 0.538998 0.004 0.00200009 0.546 9.15527e-08 1.209Z" transform="translate(35.959 0.00598145)" fill="black"/>
</g>
<g id="Vector_9">
<path d="M -1.2207e-07 1.207C 0.000999878 1.874 0.544001 2.413 1.206 2.415C 1.876 2.417 2.417 1.871 2.419 1.209C 2.417 0.538001 1.872 0.00299934 1.203 -6.56128e-07C 0.539999 -6.56128e-07 0.000999878 0.538 -1.2207e-07 1.207Z" transform="translate(45.2581 16.838)" fill="black"/>
</g>
<g id="Vector_10">
<path d="M 1.64795e-06 1.208C 0.00100165 1.877 0.54 2.415 1.204 2.416C 1.874 2.415 2.418 1.874 2.415 1.206C 2.419 0.538 1.874 0.00100067 1.206 6.71387e-07C 0.536999 0.00200067 0.00100165 0.540001 1.64795e-06 1.208Z" transform="translate(35.9771 16.846)" fill="black"/>
</g>
<g id="Vector_11">
<path d="M 1.54438e-06 1.207C 0.00200154 1.872 0.540002 2.41101 1.211 2.415C 1.873 2.409 2.418 1.86901 2.418 1.20801C 2.413 0.534006 1.875 -0.00199407 1.206 5.92973e-06C 0.537001 5.92973e-06 -0.000998456 0.536005 1.54438e-06 1.207Z" transform="translate(26.6951 16.857)" fill="black"/>
</g>
<g id="Vector_12">
<path d="M 2.17079e-05 1.21001C -0.00397829 1.87401 0.543023 2.41201 1.20602 2.41001C 1.87702 2.41101 2.41602 1.87101 2.41202 1.20501C 2.40902 0.536005 1.87202 -0.00199448 1.20602 5.52001e-06C 0.540023 -0.00199448 -0.00197829 0.539006 2.17079e-05 1.21001Z" transform="translate(50.126 8.41498)" fill="black"/>
</g>
<g id="Vector_13">
<path d="M -4.88281e-07 1.20901C 0.000999512 1.87601 0.541001 2.41401 1.206 2.41201C 1.875 2.41201 2.421 1.87201 2.419 1.20901C 2.419 0.538012 1.869 -0.00298765 1.21 1.23481e-05C 0.540999 -0.00298765 0.000999512 0.542012 -4.88281e-07 1.20901Z" transform="translate(40.842 8.422)" fill="black"/>
</g>
<g id="Vector_14">
<path d="M 4.73022e-07 1.214C 4.73022e-07 1.878 0.547 2.413 1.212 2.416C 1.878 2.416 2.418 1.877 2.419 1.21C 2.419 0.539 1.876 0.00100045 1.209 4.50134e-07C 0.541998 0.00300045 0.00200047 0.544 4.73022e-07 1.214Z" transform="translate(31.5591 8.42798)" fill="black"/>
</g>
</g>
<g id="Group_4">
<g id="Vector_15">
<path d="M -1.19019e-06 1.34277e-06C 2.962 3.746 5.532 5.587 8.502 5.587C 11.472 5.587 13.959 2.967 13.959 1.34277e-06" stroke-width="3" stroke-miterlimit="10" transform="translate(61.5029 94.567)" stroke="black"/>
</g>
<g id="Vector_16">
<path d="M 10.321 3.72C 8.798 4.836 6.898 5.587 5.287 5.587C 2.317 5.587 1.12915e-06 2.967 1.12915e-06 1.34277e-06" stroke-width="3" stroke-miterlimit="10" transform="translate(54.8459 94.567)" stroke="black"/>
</g>
</g>
<g id="Vector_17">
<path d="M -8.8501e-07 1.05225L 0.312999 1.32625C 1.255 2.16725 2.519 2.62925 3.864 2.62925C 5.21 2.62925 6.471 2.16725 7.415 1.32625L 7.722 1.05225C 9.309 -0.350754 11.885 -0.350754 13.471 1.05225L 13.78 1.32625C 15.741 3.06225 18.923 3.06525 20.883 1.32625L 21.195 1.05225" stroke-width="3" stroke-miterlimit="10" transform="translate(54.5581 86.2598)" stroke="black"/>
</g>
<g id="Vector_18">
<path d="M -9.76563e-07 6.10352e-07L 35.901 6.10352e-07" stroke-width="3" stroke-miterlimit="10" transform="translate(47.2041 94.11)" stroke="black"/>
</g>
<g id="Vector_19">
<path d="M 1.695 1.18256e-07L 1.09863e-06 28.65" stroke-width="3" stroke-miterlimit="10" transform="translate(57.103 6.80103)" stroke="black"/>
</g>
<g id="Vector_20">
<path d="M -6.10352e-08 0.00199986L 8.285 6.427L 16.571 3.8147e-09" stroke-width="3" stroke-miterlimit="10" transform="translate(56.8689 5.92102)" stroke="black"/>
</g>
<g id="Vector_21">
<path d="M -1.86157e-06 2.387L 3.622 5.247L 10.386 1.67847e-07" stroke-width="3" stroke-miterlimit="10" transform="translate(61.532 15.024)" stroke="black"/>
</g>
<g id="Vector_22">
<path d="M 9.15527e-07 0.00100034L 7.384 5.728L 14.769 8.8501e-07" stroke-width="3" stroke-miterlimit="10" transform="translate(57.77 22.922)" stroke="black"/>
</g>
<g id="Vector_23">
<path d="M 18.011 9.30786e-07L 4.57764e-07 47.271" stroke-width="3" stroke-miterlimit="10" transform="translate(35.25 20.599)" stroke="black"/>
</g>
<g id="Vector_24">
<path d="M 2.38037e-06 1.28174e-06L 7.128 19.227" stroke-width="3" stroke-miterlimit="10" transform="translate(85.4341 41.206)" stroke="black"/>
</g>
<g id="Vector_25">
<path d="M 4.1926 0.00367609C 1.9726 -0.0903239 0.0985983 1.63067 0.00359834 3.84967C -0.0894017 6.06867 1.6326 7.94368 3.8496 8.03868C 5.0966 8.09168 6.2306 7.57368 7.0056 6.71868" stroke-width="3" stroke-miterlimit="10" transform="translate(52.5493 41.2433)" stroke="black"/>
</g>
<g id="Vector_26">
<path d="M 0.0190091 -1.2207e-06C 0.0190091 -1.2207e-06 -0.191992 4.998 0.792008 8.731C 2.20801 14.115 5.86501 16.652 7.87901 16.652C 9.58701 16.652 11.852 14.882 14.063 11.099" stroke-width="3" stroke-miterlimit="10" transform="translate(57.084 34.405)" stroke="black"/>
</g>
<g id="Vector_27">
<path d="M 3.841 -3.66211e-07L 5.18799e-07 13.816C 5.18799e-07 13.816 11.031 24.759 30.609 24.838L 6.639 24.838" stroke-width="3" stroke-miterlimit="10" transform="translate(34.8611 80.834)" stroke="black"/>
</g>
<g id="Vector_28">
<path d="M 8.251 5.49316e-07L 3.05176e-07 2.888" stroke-width="3" stroke-miterlimit="10" transform="translate(50.2849 56.999)" stroke="black"/>
</g>
<g id="Vector_29">
<path d="M 0.926 1.0376e-06L 1.40381e-06 8.872" stroke-width="3" stroke-miterlimit="10" transform="translate(58.033 48.762)" stroke="black"/>
</g>
<g id="Vector_30">
<path d="M -1.70898e-06 -7.93457e-07C 4.127 4.645 10.145 7.573 16.848 7.573C 22.63 7.573 27.902 5.394 31.889 1.813" stroke-width="3" stroke-miterlimit="10" transform="translate(48.4971 73.432)" stroke="black"/>
</g>
<g id="Vector_31">
<path d="M 1.61743e-06 3.96729e-07C 1.294 2.504 3.907 4.215 6.92 4.215C 9.934 4.215 12.545 2.504 13.84 3.96729e-07" stroke-width="3" stroke-miterlimit="10" transform="translate(58.2339 56.909)" stroke="black"/>
</g>
<g id="Group_5">
<g id="Group_6">
<g id="Vector_32">
<path d="M 1.24261 0.000452395C 0.573609 -0.0175476 0.0186122 0.506451 0.000612228 1.17045C -0.0203878 1.84045 0.50361 2.39345 1.17061 2.41445C 1.83761 2.43445 2.39361 1.91045 2.41261 1.24245C 2.42961 0.576449 1.90961 0.0204524 1.24261 0.000452395Z" transform="translate(100.794 75.7455)" fill="black"/>
</g>
<g id="Vector_33">
<path d="M 1.205 2.41C 1.8705 2.41 2.41 1.87051 2.41 1.205C 2.41 0.539499 1.8705 0 1.205 0C 0.539495 0 3.41797e-06 0.539499 3.41797e-06 1.205C 3.41797e-06 1.87051 0.539495 2.41 1.205 2.41Z" transform="translate(101.071 66.471)" fill="black"/>
</g>
</g>
<g id="Group_7">
<g id="Vector_34">
<path d="M 1.205 2.41C 1.8705 2.41 2.41 1.87051 2.41 1.205C 2.41 0.5395 1.8705 0 1.205 0C 0.539498 0 0 0.5395 0 1.205C 0 1.87051 0.539498 2.41 1.205 2.41Z" transform="translate(83.689 84.526)" fill="black"/>
</g>
<g id="Vector_35">
<path d="M 1.207 2.414C 1.87361 2.414 2.414 1.87361 2.414 1.207C 2.414 0.540394 1.87361 0 1.207 0C 0.540395 0 2.2583e-06 0.540394 2.2583e-06 1.207C 2.2583e-06 1.87361 0.540395 2.414 1.207 2.414Z" transform="translate(83.9619 75.249)" fill="black"/>
</g>
<g id="Vector_36">
<path d="M 1.24255 0.000612166C 0.576554 -0.0203878 0.0215497 0.500611 0.000549678 1.16861C -0.0194503 1.83661 0.505554 2.39062 1.17255 2.40862C 1.83855 2.42862 2.39555 1.90861 2.41455 1.23861C 2.43355 0.572611 1.91055 0.0186122 1.24255 0.000612166Z" transform="translate(84.2354 65.9734)" fill="black"/>
</g>
<g id="Vector_37">
<path d="M 1.208 2.416C 1.87516 2.416 2.416 1.87516 2.416 1.208C 2.416 0.540839 1.87516 0 1.208 0C 0.540838 0 0 0.540839 0 1.208C 0 1.87516 0.540838 2.416 1.208 2.416Z" transform="translate(84.511 56.69)" fill="black"/>
</g>
</g>
<g id="Group_8">
<g id="Vector_38">
<path d="M 1.206 2.412C 1.87206 2.412 2.412 1.87206 2.412 1.206C 2.412 0.539946 1.87206 0 1.206 0C 0.539944 0 0 0.539946 0 1.206C 0 1.87206 0.539944 2.412 1.206 2.412Z" transform="translate(92.2471 79.903)" fill="black"/>
</g>
<g id="Vector_39">
<path d="M 1.24255 0.000552507C 0.575552 -0.0194475 0.0195548 0.506549 0.000554814 1.17455C -0.0194452 1.83655 0.503552 2.39555 1.17155 2.41455C 1.83855 2.43455 2.39356 1.90855 2.41156 1.24455C 2.43256 0.578548 1.90955 0.0215525 1.24255 0.000552507Z" transform="translate(92.5215 70.6235)" fill="black"/>
</g>
<g id="Vector_40">
<path d="M 1.208 2.416C 1.87516 2.416 2.416 1.87516 2.416 1.208C 2.416 0.54084 1.87516 0 1.208 0C 0.540842 0 0 0.54084 0 1.208C 0 1.87516 0.540842 2.416 1.208 2.416Z" transform="translate(92.7961 61.347)" fill="black"/>
</g>
</g>
</g>
<g id="Vector_41">
<path d="M -2.86865e-06 5.617L -2.86865e-06 1.7395e-06C -2.86865e-06 1.7395e-06 3.444 0.0609984 5.111 0.519998" stroke-width="3" stroke-miterlimit="10" transform="translate(65.3879 39.226)" stroke="black"/>
</g>
<g id="Vector_42">
<path d="M 27.5688 36.38C 28.6558 28.301 25.3218 22.089 21.3968 18.715C 9.6368 8.616 0.384796 -2.44141e-07 0.384796 -2.44141e-07C 0.384796 -2.44141e-07 -1.3652 7.914 2.5988 13.814C 6.2938 19.314 11.7308 22.248 16.6388 24.002" stroke-width="3" stroke-miterlimit="10" transform="translate(12.2771 19.556)" stroke="black"/>
</g>
<g id="Vector_43">
<path d="M 21.6696 18.792C 21.6696 18.792 12.1436 18.028 5.73258 12.336C -0.178416 7.086 0.000583805 3.96729e-07 0.000583805 3.96729e-07" stroke-width="3" stroke-miterlimit="10" transform="translate(4.21533 30.534)" stroke="black"/>
</g>
<g id="Vector_44">
<path d="M -1.90735e-08 8.8501e-07C -1.90735e-08 8.8501e-07 2.026 5.104 8.55 7.966C 16.232 11.333 24.384 9.536 24.384 9.536" stroke-width="3" stroke-miterlimit="10" transform="translate(2 47.047)" stroke="black"/>
</g>
<g id="Vector_45">
<path d="M -8.2016e-08 2.74658e-07C -8.2016e-08 2.74658e-07 4.06 3.967 9.296 4.815C 14.875 5.719 19.313 3.038 19.313 3.038" stroke-width="3" stroke-miterlimit="10" transform="translate(3.49097 61.062)" stroke="black"/>
</g>
<g id="Vector_46">
<path d="M 5.34058e-08 4.946C 5.34058e-08 4.946 4.5 6.701 9.08 5.605C 15.093 4.166 17.961 -1.2207e-07 17.961 -1.2207e-07" stroke-width="3" stroke-miterlimit="10" transform="translate(10.374 68.528)" stroke="black"/>
</g>
<g id="Vector_47">
<path d="M 1.79787 -1.12915e-06C 1.79787 -1.12915e-06 -0.848125 8.648 0.279875 18.111C 0.850875 22.899 2.60587 28.265 5.71887 32.073" stroke-width="3" stroke-miterlimit="10" transform="translate(26.1721 42.009)" stroke="black"/>
</g>
<g id="Group_9">
<g id="Vector_48">
<path d="M 0.205523 36.38C -0.868477 28.301 2.42953 22.089 6.31053 18.715C 17.9425 8.616 27.0925 -2.44141e-07 27.0925 -2.44141e-07C 27.0925 -2.44141e-07 28.8225 7.914 24.9025 13.814C 21.2485 19.314 15.7505 22.123 10.8945 23.877" stroke-width="3" stroke-miterlimit="10" transform="translate(90.6946 19.556)" stroke="black"/>
</g>
<g id="Vector_49">
<path d="M 2.80762e-06 17.145C 2.777 16.182 5.903 14.675 8.509 12.336C 14.356 7.086 14.179 3.96729e-07 14.179 3.96729e-07" stroke-width="3" stroke-miterlimit="10" transform="translate(111.961 30.5341)" stroke="black"/>
</g>
<g id="Vector_50">
<path d="M 24.116 8.8501e-07C 24.116 8.8501e-07 22.112 5.104 15.66 7.966C 8.062 11.333 -4.88281e-07 9.536 -4.88281e-07 9.536" stroke-width="3" stroke-miterlimit="10" transform="translate(104.217 47.0471)" stroke="black"/>
</g>
<g id="Vector_51">
<path d="M 19.099 2.74658e-07C 19.099 2.74658e-07 15.084 3.967 9.906 4.815C 4.388 5.719 -1.2207e-07 3.038 -1.2207e-07 3.038" stroke-width="3" stroke-miterlimit="10" transform="translate(107.758 61.062)" stroke="black"/>
</g>
<g id="Vector_52">
<path d="M 17.764 4.946C 17.764 4.946 13.313 6.701 8.784 5.605C 2.837 4.166 -2.44141e-07 -1.2207e-07 -2.44141e-07 -1.2207e-07" stroke-width="3" stroke-miterlimit="10" transform="translate(102.286 68.528)" stroke="black"/>
</g>
<g id="Vector_53">
<path d="M 3.879 -1.12915e-06C 3.879 -1.12915e-06 6.496 8.648 5.38 18.111C 4.815 22.899 3.08 28.265 2.56348e-06 32.073" stroke-width="3" stroke-miterlimit="10" transform="translate(98.7671 42.009)" stroke="black"/>
</g>
</g>
<g id="Group_10">
<g id="Vector_54">
<path d="M -7.32422e-07 3.8147e-08L -7.32422e-07 8.682" stroke-width="3" stroke-miterlimit="10" transform="translate(36.7729 14.585)" stroke="black"/>
</g>
<g id="Vector_55">
<path d="M -3.35693e-07 5.95093e-07L 8.683 5.95093e-07" stroke-width="3" stroke-miterlimit="10" transform="translate(32.4319 18.926)" stroke="black"/>
</g>
</g>
<g id="Vector_56">
<path d="M 1.15967e-06 4.88281e-07L 6.381 4.88281e-07L 6.381 6.381L 1.15967e-06 6.381L 1.15967e-06 4.88281e-07Z" stroke-width="3" stroke-miterlimit="10" transform="matrix(0.7071 -0.7071 0.7071 0.7071 60.6414 70.953)" stroke="black"/>
</g>
<g id="Vector_57">
<path d="M 2.172 1.64795e-06L 1.46484e-06 7.717L 4.101 7.717L 2.172 1.64795e-06Z" transform="translate(53.894 32.122)" fill="black"/>
</g>
<g id="Vector_58">
<path d="M 19.034 -4.27246e-07L 13.532 34.772C 13.532 34.772 6.032 36.022 -1.0376e-06 29.547" stroke-width="3" stroke-miterlimit="10" transform="translate(33.968 46.848)" stroke="black"/>
</g>
<g id="Vector_59">
<path d="M 4.342 1.06812e-07L 3.35693e-07 21.543" stroke-width="3" stroke-miterlimit="10" transform="translate(53.6531 20.788)" stroke="black"/>
</g>
<g id="Vector_60">
<path d="M 3.05176e-08 1.16348e-07C 4.385 1.16348e-07 6.477 1.787 6.477 1.787L 8.277 33.467" stroke-width="3" stroke-miterlimit="10" transform="translate(64.4729 2.65302)" stroke="black"/>
</g>
<g id="Vector_61">
<path d="M 2.813 0.00367609C 5.033 -0.0903239 6.908 1.63067 7.003 3.84967C 7.098 6.06867 5.376 7.94368 3.158 8.03868C 1.912 8.09168 0.774999 7.57368 -1.40381e-06 6.71868" stroke-width="3" stroke-miterlimit="10" transform="translate(70.427 41.2433)" stroke="black"/>
</g>
<g id="Vector_62">
<path d="M 3.72314e-06 20.365C 6.599 17.311 10.121 13.816 10.121 13.816L 6.279 -3.66211e-07" stroke-width="3" stroke-miterlimit="10" transform="translate(85.001 80.834)" stroke="black"/>
</g>
<g id="Vector_63">
<path d="M 3.41797e-06 5.49316e-07L 8.253 2.888" stroke-width="3" stroke-miterlimit="10" transform="translate(71.446 56.999)" stroke="black"/>
</g>
<g id="Vector_64">
<path d="M -3.35693e-06 -1.06812e-06L 0.950001 9.764" stroke-width="3" stroke-miterlimit="10" transform="translate(71 47.87)" stroke="black"/>
</g>
<g id="Group_11">
<g id="Vector_65">
<path d="M -3.72314e-06 3.8147e-08L -3.72314e-06 8.682" stroke-width="3" stroke-miterlimit="10" transform="translate(93.209 14.585)" stroke="black"/>
</g>
<g id="Vector_66">
<path d="M 8.681 5.95093e-07L 4.88281e-07 5.95093e-07" stroke-width="3" stroke-miterlimit="10" transform="translate(88.8679 18.926)" stroke="black"/>
</g>
</g>
<g id="Vector_67">
<path d="M 2.171 9.76563e-07L 3.196 8.386L -1.2207e-06 8.636L -1.2207e-06 0.543L 2.171 9.76563e-07Z" transform="translate(73.01 34.151)" fill="black"/>
</g>
<g id="Vector_68">
<path d="M 5.945 -7.93457e-07L 3 1.438L -3.35693e-06 0.562999L 0.999997 9.063L 8.116 11.814L 5.945 -7.93457e-07Z" transform="translate(70.625 47.557)" fill="black"/>
</g>
<g id="Vector_69">
<path d="M -5.49316e-07 -4.27246e-07L 5.474 35.434" stroke-width="3" stroke-miterlimit="10" transform="translate(76.981 46.848)" stroke="black"/>
</g>
<g id="Vector_70">
<path d="M -3.35693e-06 8.39233e-07L 4.458 21.709" stroke-width="3" stroke-miterlimit="10" transform="translate(71.875 20.745)" stroke="black"/>
</g>
<g id="Vector_71">
<path d="M 3.60107e-06 4.214L 3.60107e-06 8.25L 4.577 13.715L 3.60107e-06 18.71L 3.60107e-06 24.095C 3.60107e-06 24.095 10.846 23.877 15.679 17.21L 13.901 3.105L 6.921 5.83412e-08C 6.92 -0.000999942 6.033 3.554 3.60107e-06 4.214Z" transform="translate(65.1541 56.91)" fill="black"/>
</g>
<g id="Vector_72">
<path d="M 1.23 4.73022e-07L 8.051 5.196L 8.051 12.5L 1.09863e-06 12.5L 1.23 4.73022e-07Z" transform="translate(57.103 23.454)" fill="black"/>
</g>
<g id="Vector_73">
<path d="M 3.60107e-06 4.228L 3.60107e-06 12.151L 5.846 8L 5.596 -1.14441e-07L 3.60107e-06 4.228Z" transform="translate(65.1541 8.12)" fill="black"/>
</g>
</g>
</g>
</g>
</svg>

