<svg width="20" height="12" viewBox="0 0 20 12" version="1.1" xmlns="http://www.w3.org/2000/svg" xmlns:xlink="http://www.w3.org/1999/xlink">
<g fill="none">
<g >
<path d="M 18.6 0.800003C 18.3 2.1 15.7 5.9 15.7 5.9C 15.5 6.3 15.4 6.5 15.7 6.8C 15.8607 7.01422 16.136 7.31448 16.434 7.63934C 16.6924 7.92108 16.9678 8.22133 17.2 8.5C 18.3 9.8 18.8 10.5 19.1 11C 19.3 11.4 19.1 12 18.6 12L 16 12C 15.3869 12 15.1451 11.7216 14.579 11.0699C 14.3141 10.7649 13.9782 10.3782 13.5 9.9C 12.2 8.6 11.6 8.5 11.3 8.5C 11.1753 8.5 11.1024 8.5 11.0598 8.53591C 11 8.58639 11 8.70783 11 9L 11 11C 11 11.1183 11.0155 11.2288 11.0298 11.33C 11.0878 11.7422 11.124 12 10 12C 7.70001 12 5.39999 10.6 3.5 8C 0.700012 4.1 0 1.2 0 0.599998C 0 0.199997 0.299988 0 0.600006 0L 3 0C 3.60001 0 3.79999 0.400002 4 1C 5.10001 4.1 6.79999 6.7 7.60001 6.7C 7.89999 6.7 8 6.6 8 6L 8 3C 8 2.08114 7.66229 1.53752 7.4006 1.1163C 7.23511 0.849899 7.10001 0.632454 7.10001 0.400002C 7.10001 0.199997 7.29999 0 7.60001 0L 10.1 0C 10.6 0 11.1 0.400002 11.1 1L 11.1 5C 11.1 5.14355 11.0918 5.27061 11.0847 5.37881C 11.0673 5.64753 11.0574 5.8 11.2 5.8C 11.3426 5.8 11.4852 5.64753 11.7365 5.37881C 11.8376 5.27061 11.9565 5.14355 12.1 5C 13.6 3.3 15.1 1 15.1 1C 15.1361 0.945877 15.1754 0.878731 15.2186 0.805023C 15.4148 0.4702 15.6902 0 16.1 0L 18.1 0C 18.5 0 18.7 0.400002 18.6 0.800003Z" fill="white"/>
</g>
</g>
</svg>
