<svg width="117" height="122" viewBox="0 0 117 122" version="1.1" xmlns="http://www.w3.org/2000/svg" xmlns:xlink="http://www.w3.org/1999/xlink">
<g id="Canvas" fill="none">
<g id="Win">
<g id="Group">
<g id="Vector">
<path d="M 53.593 79.426C 53.593 70.926 46.703 64.037 38.204 64.037C 36.536 64.037 33.791 64.037 33.791 64.037L 24.098 25.478L 33.588 25.478L 37.104 12.164L 52.021 2.959L 51.542 1.67847e-07L 1.48926e-05 1.67847e-07L 16.072 80.196L 50.857 88.171C 52.579 85.687 53.593 82.678 53.593 79.426Z" transform="translate(0 14.482)" fill="#464BD7"/>
</g>
<g id="Group_2">
<g id="Vector_2">
<path d="M 25.51 8.83C 28.148 8.225 30.522 6.937 32.449 5.172L 2.56401 2.80762e-06L 1.09863e-05 19.748L 20.976 19.748C 21.585 18.209 23.506 13.4 25.51 8.83Z" transform="translate(16.146 100.064)" fill="#46B4BE"/>
</g>
<g id="Vector_3">
<path d="M 1.2207e-07 10.826L 31.805 10.826L 28.471 4.928L 1.2207e-07 -1.2207e-07L 1.2207e-07 10.826Z" transform="translate(70.2629 108.986)" fill="#46B4BE"/>
</g>
</g>
<g id="Vector_4">
<path d="M 19.172 -1.7395e-06C 8.584 -1.7395e-06 -2.44141e-07 8.582 -2.44141e-07 19.172C -2.44141e-07 29.762 8.584 38.344 19.172 38.344C 29.762 38.344 38.344 29.762 38.344 19.172C 38.344 8.582 29.762 -1.7395e-06 19.172 -1.7395e-06ZM 9.64301 28.709C 5.73501 25.102 4.547 19.598 6.317 13.977C 7.928 8.86 14.376 3.483 20.948 5.147L 9.64301 28.709Z" transform="translate(68.5969 64.732)" fill="#FFB946"/>
</g>
<g id="Group_3">
<g id="Group_4">
<g id="Vector_5">
<path d="M 1.20699 2.414C 1.87359 2.414 2.414 1.87361 2.414 1.207C 2.414 0.540394 1.87359 0 1.20699 0C 0.540379 0 -1.3916e-05 0.540394 -1.3916e-05 1.207C -1.3916e-05 1.87361 0.540379 2.414 1.20699 2.414Z" transform="translate(48.9832 91.734)" fill="black"/>
</g>
<g id="Vector_6">
<path d="M 1.208 2.416C 1.87516 2.416 2.41601 1.87516 2.41601 1.208C 2.41601 0.54084 1.87516 0 1.208 0C 0.540838 0 5.12695e-06 0.54084 5.12695e-06 1.208C 5.12695e-06 1.87516 0.540838 2.416 1.208 2.416Z" transform="translate(50.3652 82.556)" fill="black"/>
</g>
<g id="Vector_7">
<path d="M 1.38781 0.0137327C 0.727805 -0.0862673 0.113812 0.370732 0.0138125 1.02973C -0.0861875 1.68573 0.367805 2.30473 1.0278 2.40273C 1.6878 2.50273 2.30081 2.04773 2.40081 1.38873C 2.49881 0.730733 2.04781 0.113733 1.38781 0.0137327Z" transform="translate(51.7505 73.3763)" fill="black"/>
</g>
<g id="Vector_8">
<path d="M 1.38858 0.0137351C 0.727579 -0.0862649 0.113579 0.370734 0.0135792 1.02973C -0.0854208 1.68773 0.367572 2.30274 1.02757 2.40273C 1.68757 2.50273 2.30058 2.04773 2.40158 1.38673C 2.49958 0.730732 2.04858 0.113735 1.38858 0.0137351Z" transform="translate(53.1335 64.1983)" fill="black"/>
</g>
<g id="Vector_9">
<path d="M 1.205 2.41C 1.8705 2.41 2.41 1.8705 2.41 1.205C 2.41 0.539496 1.8705 0 1.205 0C 0.539494 0 -4.27246e-06 0.539496 -4.27246e-06 1.205C -4.27246e-06 1.8705 0.539494 2.41 1.205 2.41Z" transform="translate(54.5212 55.025)" fill="black"/>
</g>
<g id="Vector_10">
<path d="M 1.20699 2.414C 1.8736 2.414 2.41399 1.87361 2.41399 1.207C 2.41399 0.540394 1.8736 0 1.20699 0C 0.540386 0 -7.56836e-06 0.540394 -7.56836e-06 1.207C -7.56836e-06 1.87361 0.540386 2.414 1.20699 2.414Z" transform="translate(55.9021 45.846)" fill="black"/>
</g>
<g id="Vector_11">
<path d="M 1.205 2.41C 1.87051 2.41 2.41 1.8705 2.41 1.205C 2.41 0.539497 1.87051 0 1.205 0C 0.5395 0 0 0.539497 0 1.205C 0 1.8705 0.5395 2.41 1.205 2.41Z" transform="translate(57.2891 36.67)" fill="black"/>
</g>
<g id="Vector_12">
<path d="M 1.38835 0.0135046C 0.726347 -0.0854954 0.113347 0.370505 0.0133471 1.0305C -0.0846529 1.6865 0.367355 2.3035 1.02735 2.4035C 1.68735 2.5025 2.30236 2.0475 2.40036 1.3885C 2.49936 0.731505 2.04835 0.113505 1.38835 0.0135046Z" transform="translate(58.6699 27.4865)" fill="black"/>
</g>
</g>
<g id="Group_5">
<g id="Vector_13">
<path d="M 1.38781 0.0132785C 0.72781 -0.0847215 0.114802 0.370277 0.013802 1.02928C -0.086198 1.68928 0.367809 2.30428 1.02781 2.40428C 1.68581 2.50628 2.30081 2.04728 2.40081 1.38828C 2.49981 0.732278 2.04881 0.113278 1.38781 0.0132785Z" transform="translate(58.0332 88.1677)" fill="black"/>
</g>
<g id="Vector_14">
<path d="M 1.38635 0.0143707C 0.728349 -0.0876293 0.113348 0.364365 0.0133482 1.02437C -0.0846518 1.68237 0.367356 2.30136 1.02736 2.40136C 1.68736 2.50336 2.30236 2.04437 2.40236 1.38537C 2.50136 0.723365 2.04635 0.112371 1.38635 0.0143707Z" transform="translate(59.4177 78.9926)" fill="black"/>
</g>
<g id="Vector_15">
<path d="M 1.208 2.416C 1.87516 2.416 2.41599 1.87516 2.41599 1.208C 2.41599 0.54084 1.87516 0 1.208 0C 0.540842 0 -5.49316e-06 0.54084 -5.49316e-06 1.208C -5.49316e-06 1.87516 0.540842 2.416 1.208 2.416Z" transform="translate(60.801 69.812)" fill="black"/>
</g>
<g id="Vector_16">
<path d="M 1.38879 0.0137823C 0.728787 -0.0862177 0.113787 0.368782 0.0137866 1.02878C -0.0862134 1.68478 0.368779 2.29878 1.02778 2.39778C 1.68778 2.49578 2.30278 2.04578 2.40078 1.38778C 2.49978 0.728783 2.04679 0.113782 1.38879 0.0137823Z" transform="translate(62.1853 60.6362)" fill="black"/>
</g>
<g id="Vector_17">
<path d="M 1.20599 2.412C 1.87205 2.412 2.412 1.87206 2.412 1.206C 2.412 0.539945 1.87205 0 1.20599 0C 0.539937 0 0 0.539945 0 1.206C 0 1.87206 0.539937 2.412 1.20599 2.412Z" transform="translate(63.571 51.46)" fill="black"/>
</g>
<g id="Vector_18">
<path d="M 1.38681 0.0140339C 0.72881 -0.0869661 0.111809 0.368034 0.0138088 1.02803C -0.0861912 1.68403 0.367802 2.30203 1.0258 2.40203C 1.6858 2.50103 2.3008 2.04603 2.4008 1.38903C 2.5008 0.730034 2.04681 0.114034 1.38681 0.0140339Z" transform="translate(64.9541 42.28)" fill="black"/>
</g>
<g id="Vector_19">
<path d="M 1.207 2.414C 1.87361 2.414 2.414 1.87361 2.414 1.207C 2.414 0.540393 1.87361 0 1.207 0C 0.54039 0 -2.92969e-06 0.540393 -2.92969e-06 1.207C -2.92969e-06 1.87361 0.54039 2.414 1.207 2.414Z" transform="translate(66.3379 33.104)" fill="black"/>
</g>
</g>
<g id="Group_6">
<g id="Vector_20">
<path d="M 1.20599 2.412C 1.87204 2.412 2.41201 1.87206 2.41201 1.206C 2.41201 0.539945 1.87204 0 1.20599 0C 0.53993 0 -7.8125e-06 0.539945 -7.8125e-06 1.206C -7.8125e-06 1.87206 0.53993 2.412 1.20599 2.412Z" transform="translate(32.333 89.2241)" fill="black"/>
</g>
<g id="Vector_21">
<path d="M 1.38936 0.0137803C 0.728359 -0.0862197 0.114352 0.36878 0.0133519 1.02778C -0.0846481 1.68378 0.367343 2.30478 1.02934 2.40478C 1.68734 2.50278 2.30236 2.04578 2.40236 1.38678C 2.50136 0.726781 2.04836 0.11378 1.38936 0.0137803Z" transform="translate(33.7136 80.0443)" fill="black"/>
</g>
<g id="Vector_22">
<path d="M 1.38859 0.0137811C 0.72759 -0.0862189 0.11359 0.368784 0.0135901 1.02978C -0.0854099 1.68578 0.367574 2.30278 1.02857 2.40278C 1.68757 2.50278 2.30158 2.04578 2.40058 1.38878C 2.50058 0.730777 2.04659 0.111781 1.38859 0.0137811Z" transform="translate(35.0984 70.8663)" fill="black"/>
</g>
<g id="Vector_23">
<path d="M 1.38802 0.0137807C 0.727021 -0.0862193 0.113028 0.368781 0.0140282 1.02778C -0.0869718 1.68778 0.368043 2.30078 1.02904 2.40078C 1.68704 2.50278 2.30102 2.04578 2.40102 1.38678C 2.49902 0.729782 2.04702 0.110781 1.38802 0.0137807Z" transform="translate(36.4829 61.6893)" fill="black"/>
</g>
<g id="Vector_24">
<path d="M 1.205 2.41C 1.8705 2.41 2.41001 1.8705 2.41001 1.205C 2.41001 0.539498 1.8705 0 1.205 0C 0.539493 0 1.00098e-05 0.539498 1.00098e-05 1.205C 1.00098e-05 1.8705 0.539493 2.41 1.205 2.41Z" transform="translate(37.8701 52.514)" fill="black"/>
</g>
<g id="Vector_25">
<path d="M 1.3888 0.0135774C 0.727804 -0.0854226 0.112804 0.367579 0.0138043 1.02558C -0.0861957 1.68758 0.367812 2.29958 1.02781 2.40158C 1.68681 2.50058 2.3008 2.04658 2.4018 1.38658C 2.4998 0.726579 2.0458 0.112577 1.3888 0.0135774Z" transform="translate(39.2512 43.3345)" fill="black"/>
</g>
<g id="Vector_26">
<path d="M 1.205 2.41C 1.87051 2.41 2.40999 1.8705 2.40999 1.205C 2.40999 0.539496 1.87051 0 1.205 0C 0.539499 0 -1.51367e-05 0.539496 -1.51367e-05 1.205C -1.51367e-05 1.8705 0.539499 2.41 1.205 2.41Z" transform="translate(40.6379 34.16)" fill="black"/>
</g>
</g>
<g id="Group_7">
<g id="Vector_27">
<path d="M 1.20901 2.418C 1.87672 2.418 2.418 1.87671 2.418 1.209C 2.418 0.541284 1.87672 -3.05176e-06 1.20901 -3.05176e-06C 0.541299 -3.05176e-06 -3.66211e-06 0.541284 -3.66211e-06 1.209C -3.66211e-06 1.87671 0.541299 2.418 1.20901 2.418Z" transform="translate(41.3811 85.658)" fill="black"/>
</g>
<g id="Vector_28">
<path d="M 1.20701 2.414C 1.87362 2.414 2.41401 1.87361 2.41401 1.207C 2.41401 0.540395 1.87362 2.0752e-06 1.20701 2.0752e-06C 0.540406 2.0752e-06 1.31836e-05 0.540395 1.31836e-05 1.207C 1.31836e-05 1.87361 0.540406 2.414 1.20701 2.414Z" transform="translate(42.7671 76.482)" fill="black"/>
</g>
<g id="Vector_29">
<path d="M 1.20899 2.418C 1.8767 2.418 2.418 1.87671 2.418 1.209C 2.418 0.541286 1.8767 0 1.20899 0C 0.541274 0 0 0.541286 0 1.209C 0 1.87671 0.541274 2.418 1.20899 2.418Z" transform="translate(44.1492 67.3)" fill="black"/>
</g>
<g id="Vector_30">
<path d="M 1.38779 0.0138045C 0.726793 -0.0861955 0.1138 0.367804 0.0138001 1.0278C -0.0861999 1.6858 0.367815 2.29781 1.02881 2.39781C 1.68781 2.49781 2.30082 2.0458 2.39982 1.3898C 2.49882 0.728804 2.04679 0.112804 1.38779 0.0138045Z" transform="translate(45.5354 58.1262)" fill="black"/>
</g>
<g id="Vector_31">
<path d="M 1.20599 2.412C 1.87205 2.412 2.41199 1.87205 2.41199 1.206C 2.41199 0.539943 1.87205 0 1.20599 0C 0.539936 0 -2.19727e-06 0.539943 -2.19727e-06 1.206C -2.19727e-06 1.87205 0.539936 2.412 1.20599 2.412Z" transform="translate(46.9202 48.949)" fill="black"/>
</g>
<g id="Vector_32">
<path d="M 1.38659 0.0142668C 0.726587 -0.0877331 0.112601 0.368267 0.0136007 1.02827C -0.0853993 1.68427 0.366608 2.30227 1.02761 2.40227C 1.68661 2.50127 2.30059 2.04527 2.39959 1.38927C 2.49959 0.729267 2.04759 0.113267 1.38659 0.0142668Z" transform="translate(48.3035 39.7698)" fill="black"/>
</g>
<g id="Vector_33">
<path d="M 1.207 2.414C 1.87361 2.414 2.414 1.87361 2.414 1.207C 2.414 0.540391 1.87361 0 1.207 0C 0.540396 0 3.17383e-06 0.540391 3.17383e-06 1.207C 3.17383e-06 1.87361 0.540396 2.414 1.207 2.414Z" transform="translate(49.688 30.593)" fill="black"/>
</g>
</g>
<g id="Group_8">
<g id="Vector_34">
<path d="M 1.21001 2.42C 1.87827 2.42 2.42 1.87827 2.42 1.21C 2.42 0.541738 1.87827 3.54004e-06 1.21001 3.54004e-06C 0.541746 3.54004e-06 -1.17188e-05 0.541738 -1.17188e-05 1.21C -1.17188e-05 1.87827 0.541746 2.42 1.21001 2.42Z" transform="translate(24.729 83.1461)" fill="black"/>
</g>
<g id="Vector_35">
<path d="M 1.38584 0.0133974C 0.725836 -0.0846026 0.112827 0.365398 0.0138268 1.0254C -0.0861732 1.6854 0.36682 2.3024 1.02582 2.4024C 1.68582 2.5044 2.29984 2.0434 2.39984 1.3844C 2.49984 0.7254 2.04684 0.112397 1.38584 0.0133974Z" transform="translate(26.1172 73.9706)" fill="black"/>
</g>
<g id="Vector_36">
<path d="M 1.20699 2.414C 1.87359 2.414 2.41399 1.87361 2.41399 1.207C 2.41399 0.540392 1.87359 0 1.20699 0C 0.540377 0 1.48926e-05 0.540392 1.48926e-05 1.207C 1.48926e-05 1.87361 0.540377 2.414 1.20699 2.414Z" transform="translate(27.5 64.793)" fill="black"/>
</g>
<g id="Vector_37">
<path d="M 1.20499 2.41C 1.87049 2.41 2.41 1.8705 2.41 1.205C 2.41 0.539496 1.87049 0 1.20499 0C 0.539485 0 0 0.539496 0 1.205C 0 1.8705 0.539485 2.41 1.20499 2.41Z" transform="translate(28.886 55.6151)" fill="black"/>
</g>
<g id="Vector_38">
<path d="M 1.20599 2.412C 1.87205 2.412 2.41201 1.87206 2.41201 1.206C 2.41201 0.539945 1.87205 0 1.20599 0C 0.539935 0 -3.17383e-06 0.539945 -3.17383e-06 1.206C -3.17383e-06 1.87206 0.539935 2.412 1.20599 2.412Z" transform="translate(30.269 46.439)" fill="black"/>
</g>
<g id="Vector_39">
<path d="M 1.38656 0.0140099C 0.727563 -0.0869901 0.114577 0.369011 0.0135772 1.02901C -0.0854228 1.68501 0.367578 2.30301 1.02658 2.40201C 1.68658 2.50401 2.30057 2.04601 2.40057 1.39001C 2.49857 0.730011 2.04656 0.11401 1.38656 0.0140099Z" transform="translate(31.6523 37.258)" fill="black"/>
</g>
<g id="Vector_40">
<path d="M 1.207 2.414C 1.8736 2.414 2.414 1.87361 2.414 1.207C 2.414 0.540392 1.8736 0 1.207 0C 0.540388 0 -4.88281e-06 0.540392 -4.88281e-06 1.207C -4.88281e-06 1.87361 0.540388 2.414 1.207 2.414Z" transform="translate(33.0361 28.082)" fill="black"/>
</g>
</g>
<g id="Group_9">
<g id="Vector_41">
<path d="M 1.38682 0.0137831C 0.726816 -0.0862169 0.1138 0.368783 0.0137996 1.02778C -0.0862004 1.68778 0.367793 2.30278 1.02579 2.40478C 1.68879 2.50478 2.30082 2.04578 2.39982 1.38878C 2.49882 0.730783 2.04882 0.113783 1.38682 0.0137831Z" transform="translate(8.08228 80.6362)" fill="black"/>
</g>
<g id="Vector_42">
<path d="M 1.38607 0.0138546C 0.726072 -0.0861454 0.114062 0.365857 0.0140625 1.02386C -0.0869375 1.68386 0.367063 2.30286 1.02706 2.40086C 1.68806 2.50086 2.30107 2.04386 2.39907 1.38486C 2.49907 0.724857 2.04807 0.113855 1.38607 0.0138546Z" transform="translate(9.46704 71.4601)" fill="black"/>
</g>
<g id="Vector_43">
<path d="M 1.38658 0.0142635C 0.727585 -0.0877365 0.113568 0.368266 0.0135682 1.03027C -0.0854318 1.68627 0.367569 2.30326 1.02657 2.40126C 1.68957 2.50326 2.30059 2.04726 2.40059 1.38726C 2.50059 0.727265 2.04858 0.114263 1.38658 0.0142635Z" transform="translate(10.8496 62.2798)" fill="black"/>
</g>
<g id="Vector_44">
<path d="M 1.38659 0.0135523C 0.727586 -0.0854477 0.11457 0.368552 0.0135701 1.02855C -0.0854299 1.68655 0.367578 2.29855 1.02758 2.39755C 1.69058 2.49755 2.30156 2.04655 2.40056 1.38855C 2.49856 0.728552 2.04859 0.112552 1.38659 0.0135523Z" transform="translate(12.2334 53.1045)" fill="black"/>
</g>
<g id="Vector_45">
<path d="M 1.38659 0.0136022C 0.727589 -0.0853978 0.114573 0.366599 0.0135728 1.0266C -0.0854272 1.6856 0.36758 2.2996 1.02758 2.3996C 1.68958 2.4996 2.30157 2.0456 2.40057 1.3866C 2.49957 0.726599 2.04959 0.113602 1.38659 0.0136022Z" transform="translate(13.6174 43.9274)" fill="black"/>
</g>
<g id="Vector_46">
<path d="M 1.3868 0.013552C 0.726798 -0.085448 0.113812 0.368553 0.0138122 1.02855C -0.0861878 1.68655 0.367813 2.30155 1.02681 2.40155C 1.68981 2.50155 2.3008 2.04555 2.3998 1.38855C 2.4998 0.729552 2.0488 0.114552 1.3868 0.013552Z" transform="translate(15.0022 34.7474)" fill="black"/>
</g>
<g id="Vector_47">
<path d="M 1.38584 0.0136451C 0.727841 -0.0853549 0.114831 0.364646 0.0138314 1.02865C -0.0861686 1.68665 0.366832 2.30165 1.02683 2.40165C 1.68983 2.50165 2.30082 2.04765 2.39982 1.38665C 2.50082 0.724646 2.04984 0.113645 1.38584 0.0136451Z" transform="translate(16.3853 25.5704)" fill="black"/>
</g>
</g>
<g id="Group_10">
<g id="Vector_48">
<path d="M 1.38287 0.0137795C 0.724873 -0.0862205 0.111885 0.368779 0.0138853 1.02778C -0.0861147 1.68778 0.364865 2.30078 1.02386 2.40078C 1.68586 2.50078 2.29986 2.04678 2.39886 1.38678C 2.49986 0.728781 2.04487 0.11378 1.38287 0.0137795Z" transform="translate(15.6831 86.7122)" fill="black"/>
</g>
<g id="Vector_49">
<path d="M 1.38288 0.0133463C 0.724877 -0.0846537 0.112889 0.367346 0.0138888 1.02735C -0.0861112 1.68535 0.364892 2.30435 1.02289 2.40435C 1.68589 2.50434 2.30088 2.04535 2.39988 1.38835C 2.49888 0.728346 2.04588 0.115346 1.38288 0.0133463Z" transform="translate(17.0671 77.5327)" fill="black"/>
</g>
<g id="Vector_50">
<path d="M 1.38337 0.0137312C 0.726374 -0.0862688 0.113379 0.370733 0.0133791 1.03173C -0.0846209 1.68773 0.366389 2.30273 1.02339 2.40273C 1.68639 2.50273 2.30138 2.04773 2.40138 1.38873C 2.49938 0.729731 2.04637 0.112731 1.38337 0.0137312Z" transform="translate(18.4507 68.3553)" fill="black"/>
</g>
<g id="Vector_51">
<path d="M 1.38364 0.0135073C 0.725635 -0.0854927 0.11264 0.370506 0.0136401 1.02951C -0.0853599 1.68751 0.365619 2.30251 1.02362 2.40251C 1.68662 2.50251 2.29963 2.0475 2.40063 1.3875C 2.49863 0.732504 2.04564 0.113507 1.38364 0.0135073Z" transform="translate(19.8354 59.1775)" fill="black"/>
</g>
<g id="Vector_52">
<path d="M 1.38263 0.0136233C 0.724631 -0.0853767 0.113612 0.365624 0.0136123 1.02562C -0.0853877 1.68462 0.365622 2.29763 1.02362 2.39763C 1.68662 2.49763 2.30064 2.04362 2.40064 1.38562C 2.49964 0.725625 2.04563 0.113623 1.38263 0.0136233Z" transform="translate(21.2192 50.0024)" fill="black"/>
</g>
<g id="Vector_53">
<path d="M 1.38312 0.0135748C 0.724118 -0.0854252 0.113099 0.367575 0.0140992 1.02757C -0.0869008 1.68857 0.365109 2.30258 1.02411 2.40158C 1.68511 2.50158 2.30012 2.04758 2.40012 1.38758C 2.50012 0.728575 2.04612 0.114575 1.38312 0.0135748Z" transform="translate(22.6028 40.8224)" fill="black"/>
</g>
<g id="Vector_54">
<path d="M 1.38364 0.0136235C 0.724635 -0.0853765 0.11264 0.365623 0.0136403 1.02762C -0.0853597 1.68762 0.365627 2.29862 1.02463 2.39762C 1.68763 2.49762 2.29963 2.04762 2.40063 1.38562C 2.49963 0.725623 2.04564 0.112623 1.38364 0.0136235Z" transform="translate(23.9863 31.6484)" fill="black"/>
</g>
<g id="Vector_55">
<path d="M 1.38384 0.0135055C 0.724845 -0.0854945 0.11285 0.370506 0.0138499 1.02951C -0.0861501 1.68751 0.36586 2.3045 1.02386 2.4035C 1.68586 2.5035 2.30087 2.0485 2.39987 1.3895C 2.49887 0.730505 2.04684 0.113505 1.38384 0.0135055Z" transform="translate(25.3711 22.4655)" fill="black"/>
</g>
</g>
</g>
<g id="Vector_56">
<path d="M 48.097 14.313L 32.644 -5.49316e-07L -7.32422e-06 -5.49316e-07L 9.38799 45.484L 32.023 54.97L 48.097 14.313Z" transform="translate(36.5959 39.959)" fill="#FFB946"/>
</g>
<g id="Vector_57">
<path d="M 18.637 37.274C 28.9299 37.274 37.274 28.9299 37.274 18.637C 37.274 8.34407 28.9299 0 18.637 0C 8.34408 0 -1.95313e-06 8.34407 -1.95313e-06 18.637C -1.95313e-06 28.9299 8.34408 37.274 18.637 37.274Z" transform="translate(52.739 22.691)" fill="#FFB946"/>
</g>
<g id="Vector_58">
<path d="M 12.701 28.981C 9.996 26.762 7.881 22.999 7.523 16.758C 4.064 9.063 -5.7373e-06 6.10352e-08 -5.7373e-06 6.10352e-08L -5.7373e-06 31.807L 12.701 31.807L 12.701 28.981Z" transform="translate(67.4819 78.944)" fill="#FFB946"/>
</g>
<g id="Vector_59">
<path d="M 22.48 7.907L 18.162 3.35693e-07L 3.2959e-06 3.35693e-07L 13.588 25.392L 31.029 25.392L 22.48 7.907Z" transform="translate(65.9099 38.506)" fill="#E62D73"/>
</g>
<g id="Vector_60">
<path d="M 18.673 1.52588e-08L 36.835 1.52588e-08L 17.697 38.756L 7.32422e-07 38.756L 18.673 1.52588e-08Z" transform="translate(79.498 25.142)" fill="#FA3778"/>
</g>
<g id="Vector_61">
<path d="M 1.764 1.595C 1.764 1.595 7.511 5.462 8.661 14.38C 10.063 25.249 4.34301 30.837 5.24902e-06 31.398L 17.875 31.398L 14.121 1.64795e-06L 1.764 1.595Z" transform="translate(56.3369 79.955)" fill="#FFB946"/>
</g>
<g id="Vector_62">
<path d="M -7.08008e-06 10.869L 25.178 10.869L 22.28 1.40381e-06L 3.258 1.40381e-06L -7.08008e-06 10.869Z" transform="translate(56.415 109.761)" fill="#FFB946"/>
</g>
<g id="Vector_63">
<path d="M 2.22401 10.26L 18.211 10.26L 15.474 1.70898e-06L -7.56836e-06 1.70898e-06L 2.22401 10.26Z" transform="translate(70.7769 110.066)" fill="black"/>
</g>
<g id="Vector_64">
<path d="M 1.07422e-05 10.26L 4.16099 10.26L 7.69499 1.70898e-06L 3.44099 1.70898e-06L 1.07422e-05 10.26Z" transform="translate(43.0769 110.066)" fill="#FFB946"/>
</g>
<g id="Vector_65">
<path d="M 7.30999 14.62C 11.3472 14.62 14.62 11.3472 14.62 7.31C 14.62 3.2728 11.3472 0 7.30999 0C 3.27279 0 -2.80762e-06 3.2728 -2.80762e-06 7.31C -2.80762e-06 11.3472 3.27279 14.62 7.30999 14.62Z" transform="translate(58.8101 4.479)" fill="#FFB946"/>
</g>
<g id="Vector_66">
<path d="M -6.46973e-06 -1.52588e-06L 12.91 -1.52588e-06" stroke-width="3" stroke-miterlimit="10" transform="translate(60.7749 81.683)" stroke="black"/>
</g>
<g id="Vector_67">
<path d="M 32.548 7.844C 29.349 3.111 23.935 -3.8147e-07 17.794 -3.8147e-07C 7.967 -3.8147e-07 1.41602e-05 7.966 1.41602e-05 17.793" stroke-width="3" stroke-miterlimit="10" transform="translate(46.668 21.483)" stroke="black"/>
</g>
<g id="Vector_68">
<path d="M 13.316 6.658C 13.316 10.3351 10.3351 13.316 6.65801 13.316C 2.98089 13.316 1.83105e-06 10.3351 1.83105e-06 6.658C 1.83105e-06 2.98089 2.98089 -1.83105e-07 6.65801 -1.83105e-07C 10.3351 -1.83105e-07 13.316 2.98089 13.316 6.658Z" stroke-width="3" stroke-miterlimit="10" transform="translate(57.1211 2)" stroke="black"/>
</g>
<g id="Vector_69">
<path d="M 3.67701 -1.15967e-06L 9.27734e-06 10.385" stroke-width="3" stroke-miterlimit="10" transform="translate(43.0381 109.599)" stroke="black"/>
</g>
<g id="Vector_70">
<path d="M 1.46484e-06 -1.15967e-06L 3.675 10.385" stroke-width="3" stroke-miterlimit="10" transform="translate(85.3301 109.599)" stroke="black"/>
</g>
<g id="Vector_71">
<path d="M 17.955 -3.78418e-06L -1.09863e-05 -3.78418e-06" stroke-width="3" stroke-miterlimit="10" transform="translate(32.561 120.326)" stroke="black"/>
</g>
<g id="Vector_72">
<path d="M 1.09863e-06 -3.78418e-06L 47.193 -3.78418e-06" stroke-width="3" stroke-miterlimit="10" transform="translate(59.6641 120.326)" stroke="black"/>
</g>
<g id="Vector_73">
<path d="M 16.742 25.137L 1.09863e-06 25.137L 11.757 3.05176e-07" stroke-width="3" stroke-miterlimit="10" transform="translate(79.5391 38.763)" stroke="black"/>
</g>
<g id="Vector_74">
<path d="M 3.78418e-06 33.393L 15.743 0" stroke-width="3" stroke-miterlimit="10" transform="translate(88.5481 30.833)" stroke="black"/>
</g>
<g id="Vector_75">
<path d="M 37.592 23.941L 25.988 -5.49316e-07L 1.3916e-05 -5.49316e-07L 8.54799 41.724L 14.191 41.724" stroke-width="3" stroke-miterlimit="10" transform="translate(42.2241 39.959)" stroke="black"/>
</g>
<g id="Vector_76">
<path d="M 6.34766e-06 1.34277e-06L 29.668 1.34277e-06" stroke-width="3" stroke-miterlimit="10" transform="translate(74.71 63.9)" stroke="black"/>
</g>
<g id="Group_11">
<g id="Vector_77">
<path d="M 5.354 17.564L 5.354 3.05176e-08L 1.2207e-07 4.233" stroke-width="3" stroke-miterlimit="10" transform="translate(60.2629 52.826)" stroke="black"/>
</g>
<g id="Vector_78">
<path d="M -6.46973e-06 1.86157e-06L 9.527 1.86157e-06" stroke-width="3" stroke-miterlimit="10" transform="translate(60.7749 70.781)" stroke="black"/>
</g>
</g>
<g id="Vector_79">
<path d="M 7.08008e-06 -5.49316e-07L 7.08008e-06 41.38L 6.307 41.38C 6.307 41.38 7.75801 36.593 11.03 33.515C 14.3 30.437 21.567 29.411 21.567 29.411L 22.659 24.622L 12.524 23.94L 1.454 -5.49316e-07L 7.08008e-06 -5.49316e-07Z" transform="translate(66.417 39.959)" fill="black"/>
</g>
<g id="Vector_80">
<path d="M 7.08008e-06 -3.78418e-06L 7.08008e-06 29.926L 16.672 29.926C 16.672 29.926 4.873 25.393 5.387 14.877C 5.737 7.688 8.465 4.617 8.465 4.617L 7.695 -3.78418e-06L 7.08008e-06 -3.78418e-06Z" transform="translate(66.417 80.826)" fill="black"/>
</g>
<g id="Vector_81">
<path d="M -9.76562e-07 4.789L -9.76562e-07 5.49316e-07" stroke-width="3" stroke-miterlimit="10" transform="translate(88.3899 64.582)" stroke="black"/>
</g>
<g id="Vector_82">
<path d="M 2.92969e-06 30.657L 0.384997 30.511C 1.555 30.048 2.53699 29.146 3.14299 27.958C 3.75399 26.764 3.91599 25.441 3.60199 24.221L 3.5 23.827C 2.975 21.787 4.14099 19.51 6.09999 18.746L 6.485 18.594C 8.909 17.646 10.352 14.829 9.702 12.308L 9.59999 11.909C 9.07499 9.875 10.243 7.594 12.202 6.828L 12.585 6.679C 13.757 6.226 14.735 5.321 15.345 4.13C 15.958 2.935 16.116 1.615 15.802 0.395L 15.697 -5.95093e-07" stroke-width="3" stroke-miterlimit="10" transform="translate(96.6189 33.282)" stroke="black"/>
</g>
<g id="Vector_83">
<path d="M 28.042 14.021C 28.042 6.277 21.765 -1.80054e-06 14.021 -1.80054e-06C 6.277 -1.80054e-06 -4.88281e-07 6.277 -4.88281e-07 14.021C -4.88281e-07 21.763 6.277 28.042 14.021 28.042C 16.449 28.042 18.732 27.425 20.722 26.339" stroke-width="3" stroke-miterlimit="10" transform="translate(74.0281 69.371)" stroke="black"/>
</g>
<g id="Vector_84">
<path d="M 16.733 1.49536e-06L -1.00098e-05 1.49536e-06L 5.95 25.957C 9.516 25.906 11.991 27.309 12.612 30.365C 13.236 33.426 11.261 36.408 8.204 37.031L 7.204 37.281" stroke-width="3" stroke-miterlimit="10" transform="translate(30.9619 46.115)" stroke="black"/>
</g>
<g id="Vector_85">
<path d="M 6.44401 -1.58691e-06C 14.072 3.396 17.504 12.336 14.104 19.965C 11.557 25.686 5.89201 29.047 5.61523e-06 28.936L 12.661 28.936L 16.422 28.936L 19.756 28.936L 41.225 28.936C 35.334 29.047 29.67 25.686 27.121 19.965C 23.723 12.336 27.154 3.397 34.781 -1.58691e-06" stroke-width="3" stroke-miterlimit="10" transform="translate(45.3779 81.697)" stroke="black"/>
</g>
<g id="Vector_86">
<path d="M 7.32422e-06 -7.62939e-07L 19.75 -7.62939e-07" stroke-width="3" stroke-miterlimit="10" transform="translate(39.4861 33.633)" stroke="black"/>
</g>
</g>
</g>
</g>
</svg>

