<svg width="54" height="64" viewBox="0 0 54 64" version="1.1" xmlns="http://www.w3.org/2000/svg" xmlns:xlink="http://www.w3.org/1999/xlink">
<g id="Canvas" fill="none">
<g id="wo">
<g id="Group">
<g id="Group_2">
<g id="Group_3">
<path id="Vector" d="M 0.975484 1.96573C 1.51423 1.96573 1.95097 1.52569 1.95097 0.982867C 1.95097 0.440045 1.51423 0 0.975484 0C 0.436739 0 0 0.440045 0 0.982867C 0 1.52569 0.436739 1.96573 0.975484 1.96573Z" transform="translate(24.106 0)" fill="black"/>
<path id="Vector_2" d="M 1.93945 1.10986C 1.86752 1.65056 1.38099 2.02759 0.845971 1.95593C 0.310949 1.8859 -0.0624349 1.38998 0.00868589 0.852542C 0.0806148 0.313471 0.567954 -0.0635527 1.10298 0.00892054C 1.63881 0.0797652 2.00977 0.574049 1.93945 1.10986Z" transform="translate(31.543 1.00165)" fill="black"/>
<path id="Vector_3" d="M 1.94171 1.11214C 1.86978 1.64876 1.38082 2.02904 0.847418 1.95576C 0.31078 1.88491 -0.0617962 1.39063 0.00851618 0.852372C 0.0796368 0.313301 0.570207 -0.0629081 1.10361 0.00875082C 1.63944 0.0795954 2.01363 0.573879 1.94171 1.11214Z" transform="translate(38.9771 2.00095)" fill="black"/>
</g>
<g id="Group_4">
<path id="Vector_4" d="M 0.976293 1.96736C 1.51548 1.96736 1.95259 1.52695 1.95259 0.983681C 1.95259 0.440409 1.51548 0 0.976293 0C 0.437101 0 0 0.440409 0 0.983681C 0 1.52695 0.437101 1.96736 0.976293 1.96736Z" transform="translate(4.80225 4.32153)" fill="black"/>
<path id="Vector_5" d="M 1.94403 1.11227C 1.87129 1.6489 1.38557 2.02837 0.849739 1.95671C 0.316334 1.88505 -0.0618987 1.38995 0.0084138 0.851697C 0.0795345 0.315069 0.574146 -0.063583 1.10836 0.00889026C 1.64338 0.0805492 2.01515 0.574019 1.94403 1.11227Z" transform="translate(12.2373 5.32239)" fill="black"/>
<path id="Vector_6" d="M 0.975485 1.96574C 1.51423 1.96574 1.95097 1.52569 1.95097 0.982867C 1.95097 0.440045 1.51423 0 0.975485 0C 0.436739 0 0 0.440045 0 0.982867C 0 1.52569 0.436739 1.96574 0.975485 1.96574Z" transform="translate(19.6738 6.3223)" fill="black"/>
<path id="Vector_7" d="M 1.94437 1.1139C 1.87244 1.65134 1.38107 2.02918 0.846047 1.95589C 0.315876 1.88668 -0.0631645 1.39321 0.00876433 0.854138C 0.0790768 0.315068 0.57288 -0.0635844 1.10386 0.00888876C 1.63807 0.0829906 2.01549 0.574831 1.94437 1.1139Z" transform="translate(41.981 9.32062)" fill="black"/>
</g>
<g id="Group_5">
<path id="Vector_8" d="M 1.94293 1.11313C 1.871 1.64976 1.38447 2.0276 0.849446 1.95513C 0.316041 1.88428 -0.0638078 1.39081 0.00892925 0.851743C 0.0800499 0.312673 0.573853 -0.0635366 1.10564 0.0089366C 1.64066 0.0797812 2.01566 0.570807 1.94293 1.11313Z" transform="translate(10.437 18.9147)" fill="black"/>
<path id="Vector_9" d="M 1.94345 1.11424C 1.87152 1.65168 1.38337 2.02789 0.845924 1.95705C 0.313328 1.88539 -0.0624797 1.39029 0.00864095 0.85285C 0.0805698 0.312966 0.570332 -0.0616156 1.10454 0.00841469C 1.63957 0.0817022 2.01376 0.571914 1.94345 1.11424Z" transform="translate(17.8745 19.9136)" fill="black"/>
<path id="Vector_10" d="M 1.9388 1.11349C 1.86687 1.65093 1.37791 2.02796 0.842891 1.95711C 0.31191 1.88464 -0.0630893 1.3928 0.00883959 0.854544C 0.0815767 0.312216 0.567299 -0.0648078 1.1007 0.00929403C 1.63492 0.0801386 2.01073 0.573607 1.9388 1.11349Z" transform="translate(25.3125 20.9135)" fill="black"/>
<path id="Vector_11" d="M 1.94078 1.11215C 1.86885 1.65204 1.38232 2.02825 0.846492 1.95659C 0.310663 1.88493 -0.064336 1.39227 0.0092091 0.853202C 0.0811379 0.312502 0.571708 -0.0628938 1.1035 0.00876519C 1.63852 0.0812385 2.01352 0.573079 1.94078 1.11215Z" transform="translate(32.7451 21.9132)" fill="black"/>
<path id="Vector_12" d="M 1.94341 1.11233C 1.87148 1.6514 1.38011 2.02843 0.845894 1.95596C 0.314914 1.8843 -0.062509 1.39083 0.0086116 0.852572C 0.0813486 0.311874 0.571919 -0.0635222 1.1029 0.008951C 1.63792 0.0789813 2.01453 0.57245 1.94341 1.11233Z" transform="translate(40.1802 22.9138)" fill="black"/>
<path id="Vector_13" d="M 1.94254 1.11398C 1.87061 1.64979 1.38408 2.02763 0.845018 1.95597C 0.312422 1.88431 -0.0650021 1.39084 0.00935128 0.852588C 0.0788555 0.311074 0.571042 -0.0635062 1.10445 0.00896702C 1.64028 0.080626 2.01366 0.571653 1.94254 1.11398Z" transform="translate(47.6157 23.9137)" fill="black"/>
</g>
<g id="Group_6">
<path id="Vector_14" d="M 1.94043 1.11618C 1.87173 1.65199 1.37873 2.02983 0.84533 1.95817C 0.311117 1.88407 -0.0630749 1.39304 0.00885394 0.855597C 0.0807828 0.314898 0.568121 -0.0629402 1.10476 0.00871875C 1.63736 0.081192 2.01155 0.575476 1.94043 1.11618Z" transform="translate(0 10.5903)" fill="black"/>
<path id="Vector_15" d="M 1.94357 1.11682C 1.87244 1.65182 1.38268 2.02884 0.849277 1.95637C 0.315873 1.8839 -0.063168 1.39206 0.00876078 0.854615C 0.0798814 0.31473 0.574494 -0.0622929 1.10628 0.00855171C 1.6413 0.0818392 2.01469 0.575308 1.94357 1.11682Z" transform="translate(7.43359 11.5904)" fill="black"/>
<path id="Vector_16" d="M 1.94296 1.11618C 1.87184 1.6528 1.38046 2.02738 0.84463 1.95573C 0.314458 1.88407 -0.0637753 1.39223 0.00896175 0.855598C 0.0792742 0.314899 0.571462 -0.0629404 1.10487 0.00871857C 1.63666 0.0811918 2.0157 0.575476 1.94296 1.11618Z" transform="translate(14.8706 12.591)" fill="black"/>
<path id="Vector_17" d="M 1.94486 1.11618C 1.87294 1.65362 1.37913 2.02901 0.847344 1.95654C 0.314747 1.88488 -0.0618694 1.39385 0.00844311 0.854783C 0.0819883 0.314898 0.570943 -0.0629394 1.10596 0.00871954C 1.63694 0.0795642 2.01437 0.574663 1.94486 1.11618Z" transform="translate(22.3047 13.591)" fill="black"/>
<path id="Vector_18" d="M 1.93959 1.11572C 1.86766 1.65316 1.37951 2.02774 0.8453 1.95608C 0.312703 1.88524 -0.0631051 1.39421 0.00882377 0.855139C 0.0807527 0.314439 0.570515 -0.0642126 1.10473 0.00907493C 1.63733 0.0815482 2.0099 0.575017 1.93959 1.11572Z" transform="translate(29.7422 14.5906)" fill="black"/>
<path id="Vector_19" d="M 1.94204 1.11699C 1.87173 1.65199 1.38197 2.02739 0.847753 1.95573C 0.311116 1.88488 -0.0630771 1.39304 0.00885164 0.853156C 0.0799722 0.3149 0.570542 -0.062939 1.10395 0.00871993C 1.63978 0.0811932 2.01478 0.575477 1.94204 1.11699Z" transform="translate(37.1753 15.5909)" fill="black"/>
<path id="Vector_20" d="M 1.93943 1.11556C 1.86993 1.65219 1.38097 2.0284 0.845145 1.95592C 0.31174 1.88426 -0.0624512 1.39405 0.0086694 0.855796C 0.0805983 0.313469 0.567936 -0.0635539 1.10296 0.00891927C 1.63798 0.0813925 2.01055 0.574861 1.93943 1.11556Z" transform="translate(44.6123 16.5899)" fill="black"/>
<path id="Vector_21" d="M 1.94406 1.11553C 1.87294 1.65297 1.37994 2.02918 0.848958 1.95671C 0.314744 1.88505 -0.0618667 1.3924 0.00844582 0.854953C 0.0803747 0.315068 0.573366 -0.0635841 1.10596 0.0088892C 1.63856 0.0789196 2.01679 0.574831 1.94406 1.11553Z" transform="translate(52.0469 17.5907)" fill="black"/>
</g>
</g>
<path id="Vector_22" d="M -1.51067e-07 5.96416e-07C -1.51067e-07 5.96416e-07 0.101023 3.76617 3.03071 7.73591C 3.23276 11.9092 3.4348 16.3545 3.4348 16.3545L 6.65625 15.8098" transform="translate(3.43164 22.4602)" stroke="black" stroke-width="3" stroke-miterlimit="10"/>
<path id="Vector_23" d="M 0.000745303 0.441353C 0.000745303 0.441353 -0.0784566 2.31914 1.39568 3.20673C 2.94094 2.57809 4.9994 1.63268 4.9994 1.63268L 1.17747 -8.44922e-07L 0.000745303 0.441353Z" transform="translate(9.58057 28.7963)" fill="black"/>
<path id="Vector_24" d="M 1.8498e-07 -7.4552e-07L 1.80711 2.37289C 1.80711 2.37289 1.50404 5.29055 3.12042 6.00307C 5.38012 6.99978 10.5622 4.27348 10.5622 4.27348" transform="translate(11.5249 41.1917)" stroke="black" stroke-width="3" stroke-miterlimit="10"/>
<path id="Vector_25" d="M 3.75727 9.03757C 6.14466 6.65736 6.85021 2.92132 5.02936 0.969429C 3.16649 -1.02725 0.561691 0.414887 0.224676 2.11109L -2.09644e-07 3.0109" transform="translate(23.2329 25.1486)" stroke="black" stroke-width="3" stroke-miterlimit="10"/>
<path id="Vector_26" d="M 14.2007 1.11828e-06L 12.729 6.43058C 12.729 6.43058 8.58701 6.43058 4.95016 8.97528C 1.39008 11.4662 -5.67271e-07 16.7112 -5.67271e-07 16.7112" transform="translate(16.8999 43.6142)" stroke="black" stroke-width="3" stroke-miterlimit="10"/>
<path id="Vector_27" d="M 7.2147 17.028C 7.2147 17.028 5.55953 15.6542 3.89305 13.3074C 2.74703 11.6951 1.59456 9.62184 0.968212 7.21638C 0.210939 4.30849 0.0105061 1.79066 -3.20632e-07 1.01888e-06" transform="translate(38.5635 32.6439)" stroke="black" stroke-width="3" stroke-miterlimit="10"/>
<path id="Vector_28" d="M 23.7414 22.1971C 23.7414 22.1971 26.8052 19.1108 27.3378 14.01C 27.8163 9.4328 26.3171 6.07623 22.8087 4.75054C 19.1121 3.35319 15.8833 6.22688 15.8833 6.22688C 15.8833 6.22688 13.4604 2.477 9.09051 0.891546C 4.09509 -0.920285 2.58972e-07 0.590253 2.58972e-07 0.590253" transform="translate(16.2559 5.40222)" stroke="black" stroke-width="3" stroke-miterlimit="10"/>
<path id="Vector_29" d="M 6.16599e-08 0.803762C 2.02047 -0.163632 4.38766 -0.196207 6.80414 0.378692" transform="translate(8.52246 27.9494)" stroke="black" stroke-width="3" stroke-miterlimit="10"/>
<path id="Vector_30" d="M 2.23721 5.96416e-07C 2.23721 5.96416e-07 0.205421 6.39475 0.0146888 13.2846C -0.228576 22.0685 2.62999 27.3623 2.62999 27.3623" transform="translate(32.6128 28.9746)" stroke="black" stroke-width="3" stroke-miterlimit="10"/>
<path id="Vector_31" d="M 5.61611 26.1751L 5.4181 26.022C 4.40221 25.2215 4.11611 23.6621 4.78206 22.5506L 4.91379 22.334C 5.31142 21.6679 5.44881 20.8552 5.30091 20.0433C 5.1522 19.2323 4.73437 18.5206 4.12661 18.0426L 3.9278 17.8862C 3.43723 17.5019 3.10264 16.927 2.98141 16.2707C 2.8618 15.6111 2.96929 14.9547 3.29256 14.4181L 3.42349 14.1999C 4.24865 12.8237 3.89547 10.8995 2.63631 9.90929L 2.43831 9.75457C 1.4216 8.95248 1.13551 7.39634 1.80145 6.28319L 1.93319 6.06658C 2.33243 5.40211 2.46902 4.58862 2.32031 3.77594C 2.1716 2.96326 1.75458 2.25074 1.14763 1.77519L 0.947197 1.61803C 0.455818 1.23286 0.122037 0.657146 2.71304e-07 6.58542e-07" transform="translate(20.7485 18.4253)" stroke="black" stroke-width="3" stroke-miterlimit="10"/>
<path id="Vector_32" d="M 18.3806 9.66663C 17.6024 9.37022 16.9283 8.79369 16.5655 8.0201L 16.4572 7.78884C 16.1905 7.22127 15.7072 6.76607 15.0994 6.50386C 14.4884 6.24247 13.8289 6.2042 13.2381 6.40289L 12.9965 6.48432C 12.2675 6.73106 11.4472 6.68627 10.6932 6.36136C 9.93911 6.03645 9.34267 5.47051 9.01454 4.76776L 8.90867 4.53813C 8.35748 3.36308 6.91325 2.74096 5.68723 3.15055L 5.44881 3.23117C 3.93426 3.73929 2.14897 2.9714 1.46686 1.51705L 1.35937 1.28742C 1.0951 0.717404 0.610991 0.264649 -1.07905e-07 -4.97013e-07" transform="translate(4.86133 18.6395)" stroke="black" stroke-width="3" stroke-miterlimit="10"/>
<g id="Group_7">
<path id="Vector_33" d="M 0.509284 0.121934C 0.0356867 0.382512 -0.139689 0.981027 0.120547 1.4574C 0.379167 1.93458 0.973183 2.1064 1.44759 1.84663C 1.91957 1.58605 2.09414 0.985094 1.83552 0.514425C 1.57286 0.0339849 0.979649 -0.140272 0.509284 0.121934Z" transform="translate(35.6304 62.0324)" fill="black"/>
<path id="Vector_34" d="M 0.508832 0.121671C 0.0344244 0.382249 -0.139336 0.980764 0.120901 1.4555C 0.38033 1.9335 0.972732 2.10369 1.44633 1.84555C 1.91751 1.58498 2.09288 0.98565 1.83265 0.510096C 1.57241 0.0320985 0.976773 -0.138907 0.508832 0.121671Z" transform="translate(42.0576 50.6593)" fill="black"/>
<path id="Vector_35" d="M 1.44688 1.84506C 1.91725 1.58285 2.09424 0.987596 1.8332 0.509598C 1.57457 0.0340424 0.981363 -0.139409 0.506955 0.121169C 0.0309308 0.383376 -0.137982 0.97782 0.121447 1.45582C 0.381685 1.93382 0.974091 2.10808 1.44688 1.84506Z" transform="translate(35.48 54.294)" fill="black"/>
<path id="Vector_36" d="M 0.974675 1.96411C 1.51297 1.96411 1.94935 1.52443 1.94935 0.982055C 1.94935 0.439682 1.51297 0 0.974675 0C 0.436377 0 0 0.439682 0 0.982055C 0 1.52443 0.436377 1.96411 0.974675 1.96411Z" transform="translate(42.0889 35.0038)" fill="black"/>
<path id="Vector_37" d="M 1.44652 1.84486C 1.91608 1.58429 2.09145 0.990658 1.83041 0.510218C 1.5734 0.0346636 0.97777 -0.139598 0.508212 0.120979C 0.0346133 0.383186 -0.138338 0.980886 0.119474 1.45563C 0.381327 1.93362 0.973728 2.10463 1.44652 1.84486Z" transform="translate(35.5112 38.6375)" fill="black"/>
<path id="Vector_38" d="M 1.82847 0.508879C 1.57066 0.0325102 0.978257 -0.139307 0.504657 0.122085C 0.035098 0.382663 -0.138665 0.978734 0.119957 1.45347C 0.381811 1.93066 0.971791 2.10655 1.44377 1.84516C 1.91576 1.58539 2.08871 0.987692 1.82847 0.508879Z" transform="translate(48.8149 39.1039)" fill="black"/>
<path id="Vector_39" d="M 0.507785 0.123891C 0.0349951 0.386097 -0.138765 0.98054 0.119855 1.45447C 0.3809 1.93328 0.974109 2.10835 1.44609 1.84533C 1.91807 1.58476 2.09103 0.987055 1.83079 0.509871C 1.57217 0.0326876 0.983 -0.140759 0.507785 0.123891Z" transform="translate(42.2383 42.7395)" fill="black"/>
<path id="Vector_40" d="M 0.506127 0.122226C 0.0341443 0.382804 -0.138809 0.978875 0.12062 1.45361C 0.380857 1.93161 0.971644 2.1075 1.44444 1.84448C 1.91803 1.58309 2.08856 0.987017 1.82832 0.509834C 1.56889 0.0318368 0.980535 -0.139166 0.506127 0.122226Z" transform="translate(35.6636 46.3763)" fill="black"/>
</g>
<path id="Vector_41" d="M 0.282187 0.252359C -0.306174 0.602511 0.105194 1.36796 0.785689 1.73032C 0.797812 1.75475 0.806702 1.77267 0.806702 1.77267C 0.806702 1.77267 1.26575 1.9852 2.11597 1.85329C 4.08633 1.54792 6.10681 0.784101 6.10681 0.784101C 6.10681 0.784101 1.61085 -0.539146 0.282187 0.252359Z" transform="translate(9.79053 40.2341)" fill="black"/>
<path id="Vector_42" d="M 8.75593 6.44605C 3.63685 7.12518 0.471981 4.27511 -1.40585e-06 6.70967e-07" transform="translate(38.6104 33.4362)" stroke="black" stroke-width="3" stroke-miterlimit="10"/>
</g>
</g>
</g>
</svg>
