<svg width="96" height="74" viewBox="0 0 96 74" fill="none" xmlns="http://www.w3.org/2000/svg">
<path d="M91.4871 73.6452H4.51291C2.02456 73.6452 1.1012e-07 71.6206 1.1012e-07 69.1323V11.417C1.1012e-07 8.92864 2.02456 6.90408 4.51291 6.90408H28.1716C29.0376 6.90408 30.4463 6.2642 31.0159 5.61372L33.6486 2.60575C34.9506 1.12005 37.4187 8.66276e-07 39.3913 8.66276e-07H56.3653C58.3388 8.66276e-07 60.807 1.12005 62.1089 2.60575L64.7396 5.61372C65.3103 6.26516 66.7199 6.90408 67.585 6.90408H91.4871C93.9754 6.90408 96 8.92864 96 11.417V69.1313C96 71.6206 93.9754 73.6452 91.4871 73.6452ZM4.51291 10.7521C4.15304 10.7521 3.84897 11.0562 3.84897 11.416V39.6954H16.3513C16.3513 39.6954 18.5 39.7397 18.5 41.6199C18.5 43.5 16.3513 43.5443 16.3513 43.5443H3.84897L3.84897 69.1303C3.84897 69.4912 4.15304 69.7943 4.51291 69.7943H91.4871C91.847 69.7943 92.151 69.4912 92.151 69.1303V43.5443H80.5104C80.5104 43.5443 78.5859 43.5443 78.5859 41.6199C78.5859 39.6954 80.5104 39.6954 80.5104 39.6954H92.151V11.417C92.151 11.0562 91.847 10.7531 91.4871 10.7531H67.585C65.6114 10.7531 63.1443 9.63397 61.8433 8.14827L59.2125 5.1403C58.641 4.48982 57.2303 3.84897 56.3653 3.84897H39.3913C38.5262 3.84897 37.1166 4.48982 36.545 5.14126L33.9133 8.14827C32.6142 9.63301 30.1461 10.7531 28.1716 10.7531L4.51291 10.7521Z" fill="white"/>
<path d="M48.351 63.7C36.0266 63.7 26 53.6734 26 41.349C26 29.0256 36.0266 19 48.351 19C60.6763 19 70.7029 29.0256 70.7029 41.349C70.7029 53.6734 60.6754 63.7 48.351 63.7ZM48.351 22.8499C38.1483 22.8499 29.849 31.1493 29.849 41.35C29.849 51.5526 38.1483 59.852 48.351 59.852C58.5546 59.852 66.8539 51.5526 66.8539 41.35C66.8539 31.1483 58.5536 22.8499 48.351 22.8499Z" fill="white"/>
<path d="M48.0036 53.1215C41.3719 53.1215 35.9766 47.7272 35.9766 41.0954C35.9766 34.4637 41.3719 29.0684 48.0036 29.0684C54.6344 29.0684 60.0288 34.4627 60.0288 41.0945C60.0288 47.7262 54.6335 53.1215 48.0036 53.1215ZM48.0036 32.9173C43.4936 32.9173 39.8255 36.5854 39.8255 41.0945C39.8255 45.6045 43.4946 49.2716 48.0036 49.2716C52.5127 49.2716 56.1798 45.6035 56.1798 41.0945C56.1798 36.5854 52.5117 32.9173 48.0036 32.9173Z" fill="white"/>
</svg>
