<?xml version="1.0" encoding="utf-8"?><svg xmlns="http://www.w3.org/2000/svg" xmlns:xlink="http://www.w3.org/1999/xlink"><symbol viewBox="0 0 112 15" id="arrow" xmlns="http://www.w3.org/2000/svg"><path d="M7.074 14.142l1.414-1.414L3.831 8.07h107.672v-2H3.832l4.656-4.657L7.074 0 .003 7.07l7.071 7.072z" fill="#fff"/></symbol><symbol viewBox="0 0 32 23" id="eye" xmlns="http://www.w3.org/2000/svg"><g fill="none"><path d="M29.648 15.497c-.062-.078-6.3-7.805-13.648-7.805S2.412 15.419 2.35 15.497L0 13.63c.289-.365 7.191-8.94 16-8.94 8.809 0 15.709 8.574 16 8.939l-2.352 1.868z" fill="#262626"/><path d="M16 22.096c-4.258 0-7.723-3.465-7.723-7.724S11.742 6.648 16 6.648s7.723 3.465 7.723 7.724-3.465 7.724-7.723 7.724zM16 9.65a4.726 4.726 0 0 0-4.721 4.722A4.727 4.727 0 0 0 16 19.095a4.727 4.727 0 0 0 4.721-4.723A4.726 4.726 0 0 0 16 9.65zM17.5 0h-3.002v6.279H17.5V0zM7.705 8.148L3.918 3.136 1.523 4.945l3.788 5.012 2.394-1.81zM30.474 4.945l-2.394-1.81-3.788 5.013 2.394 1.809 3.788-5.012z" fill="#262626"/></g></symbol><symbol viewBox="0 0 8 16" id="f" xmlns="http://www.w3.org/2000/svg"><path d="M8 2.5a.5.5 0 0 1-.5.5H6c-1 0-1 .6-1 1v1.9a.1.1 0 0 0 .1.1h2.4a.5.5 0 0 1 .5.5v2a.5.5 0 0 1-.5.5H5.1a.1.1 0 0 0-.1.1v6.4a.5.5 0 0 1-.5.5h-2a.5.5 0 0 1-.5-.5V9.1a.1.1 0 0 0-.1-.1H.5a.5.5 0 0 1-.5-.5v-2A.5.5 0 0 1 .5 6h1.4a.1.1 0 0 0 .1-.1V3c0-1.8 0-3 3-3h2.5a.5.5 0 0 1 .5.5v2z" fill="#fff"/></symbol><symbol viewBox="0 0 160 160" id="icon1" xmlns="http://www.w3.org/2000/svg"><g fill="none"><path d="M98.844 41.43l1.09 15.563-7.45 2.931 1.09 8.067 20.35-32.08-15.08 5.518z" fill="#46B4BE"/><path d="M104.308 79.215c.558 0 1.01-.456 1.01-1.019 0-.562-.452-1.018-1.01-1.018-.557 0-1.009.456-1.009 1.018 0 .563.452 1.019 1.01 1.019zM112.07 79.215c.558 0 1.01-.456 1.01-1.019s-.452-1.02-1.01-1.02-1.01.457-1.01 1.02.452 1.02 1.01 1.02zM120.845 78.196c0-.562-.454-1.018-1.013-1.018-.555 0-1.009.455-1.009 1.018s.454 1.019 1.01 1.019c.558-.001 1.012-.456 1.012-1.019zM127.596 79.215c.558 0 1.01-.456 1.01-1.019 0-.562-.452-1.018-1.01-1.018-.557 0-1.009.456-1.009 1.018 0 .563.452 1.019 1.01 1.019zM135.359 79.214c.557 0 1.008-.456 1.008-1.018s-.451-1.017-1.008-1.017c-.557 0-1.009.455-1.009 1.017 0 .562.452 1.018 1.009 1.018zM108.384 86.32c.558 0 1.01-.457 1.01-1.02s-.452-1.02-1.01-1.02-1.01.457-1.01 1.02.452 1.02 1.01 1.02zM117.156 85.3c0-.563-.45-1.019-1.007-1.019-.558 0-1.014.455-1.014 1.019 0 .563.455 1.018 1.014 1.018a1.01 1.01 0 0 0 1.007-1.018zM123.91 86.318c.558 0 1.01-.456 1.01-1.018 0-.563-.452-1.019-1.01-1.019-.557 0-1.009.456-1.009 1.019 0 .562.452 1.018 1.01 1.018zM131.673 86.317c.557 0 1.008-.455 1.008-1.017 0-.562-.451-1.018-1.008-1.018-.557 0-1.009.456-1.009 1.018s.452 1.017 1.009 1.017zM104.308 65.006c.558 0 1.01-.456 1.01-1.018 0-.563-.452-1.019-1.01-1.019-.557 0-1.009.456-1.009 1.019 0 .562.452 1.018 1.01 1.018zM112.07 65.007c.558 0 1.01-.456 1.01-1.02 0-.562-.452-1.019-1.01-1.019s-1.01.457-1.01 1.02.452 1.019 1.01 1.019zM120.845 63.988c0-.563-.454-1.019-1.013-1.019-.555 0-1.009.455-1.009 1.019 0 .563.454 1.018 1.01 1.018.558 0 1.012-.455 1.012-1.018zM127.596 65.006c.558 0 1.01-.456 1.01-1.018 0-.563-.452-1.019-1.01-1.019-.557 0-1.009.456-1.009 1.019 0 .562.452 1.018 1.01 1.018zM135.359 65.005c.557 0 1.008-.455 1.008-1.017 0-.562-.451-1.018-1.008-1.018-.557 0-1.009.456-1.009 1.018s.452 1.017 1.009 1.017zM108.384 72.112c.558 0 1.01-.457 1.01-1.02s-.452-1.019-1.01-1.019-1.01.456-1.01 1.02c0 .562.452 1.019 1.01 1.019zM117.156 71.092c0-.562-.45-1.018-1.007-1.018a1.018 1.018 0 1 0 0 2.037c.558 0 1.007-.456 1.007-1.019zM123.91 72.11c.558 0 1.01-.455 1.01-1.018 0-.562-.452-1.018-1.01-1.018-.557 0-1.009.456-1.009 1.018 0 .563.452 1.019 1.01 1.019zM131.673 72.11c.557 0 1.008-.456 1.008-1.018s-.451-1.017-1.008-1.017c-.557 0-1.009.455-1.009 1.017 0 .562.452 1.018 1.009 1.018zM108.384 57.903c.558 0 1.01-.456 1.01-1.02 0-.562-.452-1.018-1.01-1.018s-1.01.456-1.01 1.019.452 1.02 1.01 1.02zM117.156 56.884c0-.562-.45-1.018-1.007-1.018-.558 0-1.014.455-1.014 1.018s.455 1.02 1.014 1.02c.558-.002 1.007-.457 1.007-1.02zM123.91 57.902c.558 0 1.01-.456 1.01-1.018 0-.563-.452-1.019-1.01-1.019-.557 0-1.009.456-1.009 1.019 0 .562.452 1.018 1.01 1.018zM131.673 57.901c.557 0 1.008-.455 1.008-1.017 0-.562-.451-1.017-1.008-1.017-.557 0-1.009.455-1.009 1.017 0 .562.452 1.017 1.009 1.017zM109.395 42.675c0-.561-.454-1.018-1.01-1.018-.557 0-1.011.456-1.011 1.018 0 .565.453 1.019 1.011 1.019.556 0 1.01-.453 1.01-1.019zM117.156 42.675c0-.561-.45-1.018-1.007-1.018-.558 0-1.014.456-1.014 1.018a1.01 1.01 0 1 0 2.02 0zM124.92 42.675c0-.561-.452-1.018-1.01-1.018-.557 0-1.009.456-1.009 1.018 0 .565.45 1.019 1.01 1.019.557 0 1.009-.453 1.009-1.019zM132.681 42.675c0-.561-.452-1.018-1.01-1.018-.557 0-1.007.456-1.007 1.018a1.01 1.01 0 0 0 1.008 1.019c.557 0 1.01-.453 1.01-1.019zM105.317 49.78c0-.563-.452-1.016-1.01-1.016-.557 0-1.009.453-1.009 1.016 0 .565.45 1.02 1.01 1.02.557 0 1.009-.455 1.009-1.02zM113.08 49.78c0-.563-.451-1.016-1.01-1.016-.556 0-1.011.453-1.011 1.016 0 .565.455 1.02 1.011 1.02.559 0 1.01-.455 1.01-1.02zM120.845 49.78c0-.563-.454-1.016-1.013-1.016-.555 0-1.009.453-1.009 1.016 0 .565.454 1.02 1.01 1.02.558 0 1.012-.455 1.012-1.02zM128.605 49.78c0-.563-.454-1.016-1.01-1.016-.557 0-1.009.453-1.009 1.016 0 .565.45 1.02 1.01 1.02.555 0 1.009-.455 1.009-1.02zM136.367 49.78a1.01 1.01 0 0 0-1.008-1.016c-.556 0-1.009.453-1.009 1.016 0 .565.452 1.02 1.01 1.02s1.007-.455 1.007-1.02z" fill="#000"/><g><path d="M75.132 74.976l26.164-5.5 5.135 56.075-13.038 9.918-15.263-6.05-2.726-21.447-.272-32.996z" fill="#464BD7"/></g><g><path d="M105.422 132.77c.558 0 1.01-.456 1.01-1.019 0-.562-.452-1.018-1.01-1.018-.557 0-1.009.456-1.009 1.018 0 .563.452 1.019 1.01 1.019zM105.422 124.94c.558 0 1.01-.457 1.01-1.02s-.452-1.019-1.01-1.019-1.01.456-1.01 1.02c0 .562.452 1.019 1.01 1.019zM105.422 115.068c-.557 0-1.009.458-1.009 1.021 0 .561.45 1.019 1.01 1.019.558 0 1.009-.458 1.009-1.019-.001-.563-.452-1.021-1.01-1.021zM105.422 109.275c.558 0 1.01-.456 1.01-1.019 0-.562-.452-1.018-1.01-1.018-.557 0-1.009.456-1.009 1.018 0 .563.452 1.019 1.01 1.019zM105.422 101.443c.557 0 1.008-.456 1.008-1.018s-.451-1.017-1.008-1.017c-.557 0-1.009.455-1.009 1.017 0 .562.452 1.018 1.009 1.018zM105.422 93.613c.558 0 1.01-.456 1.01-1.019 0-.562-.452-1.018-1.01-1.018-.557 0-1.009.456-1.009 1.018 0 .563.452 1.019 1.01 1.019zM105.422 83.746c-.557 0-1.009.453-1.009 1.018 0 .563.45 1.017 1.01 1.017a1.01 1.01 0 0 0 1.009-1.017c-.001-.564-.452-1.018-1.01-1.018zM105.422 77.95c.558 0 1.01-.456 1.01-1.019s-.452-1.02-1.01-1.02-1.01.457-1.01 1.02.452 1.02 1.01 1.02z" fill="#000"/><g><path d="M112.462 126.619c-.556 0-1.009.458-1.009 1.018 0 .563.452 1.022 1.01 1.022.557 0 1.01-.458 1.01-1.022 0-.56-.452-1.018-1.01-1.018zM112.462 120.828c.558 0 1.01-.457 1.01-1.02s-.452-1.019-1.01-1.019-1.01.456-1.01 1.02c0 .562.452 1.019 1.01 1.019zM112.462 112.994c.558 0 1.01-.456 1.01-1.019 0-.562-.452-1.018-1.01-1.018-.557 0-1.009.456-1.009 1.018 0 .563.452 1.019 1.01 1.019zM112.463 105.161c.557 0 1.008-.456 1.008-1.018 0-.561-.451-1.017-1.008-1.017-.557 0-1.009.456-1.009 1.017 0 .562.452 1.018 1.009 1.018zM112.463 97.331c.557 0 1.008-.455 1.008-1.017 0-.562-.451-1.018-1.008-1.018-.557 0-1.009.456-1.009 1.018s.452 1.017 1.009 1.017zM112.462 89.5c.558 0 1.01-.455 1.01-1.018s-.452-1.02-1.01-1.02-1.01.457-1.01 1.02.452 1.019 1.01 1.019zM112.462 79.633c-.556 0-1.009.453-1.009 1.019 0 .561.452 1.018 1.01 1.018.557 0 1.01-.456 1.01-1.018 0-.566-.452-1.019-1.01-1.019z" fill="#000"/></g><g><path d="M91.339 132.77c.558 0 1.01-.456 1.01-1.019 0-.562-.452-1.018-1.01-1.018-.557 0-1.01.456-1.01 1.018 0 .563.453 1.019 1.01 1.019zM91.339 124.94c.558 0 1.01-.457 1.01-1.02s-.452-1.019-1.01-1.019-1.01.456-1.01 1.02c0 .562.452 1.019 1.01 1.019zM91.339 115.068c-.558 0-1.01.458-1.01 1.021 0 .561.451 1.019 1.01 1.019.557 0 1.01-.458 1.01-1.019 0-.563-.452-1.021-1.01-1.021zM91.339 109.275c.558 0 1.01-.456 1.01-1.019 0-.562-.452-1.018-1.01-1.018-.557 0-1.01.456-1.01 1.018 0 .563.453 1.019 1.01 1.019zM91.339 101.443c.557 0 1.008-.456 1.008-1.018s-.451-1.017-1.008-1.017c-.557 0-1.009.455-1.009 1.017 0 .562.452 1.018 1.009 1.018zM91.339 93.613c.558 0 1.01-.456 1.01-1.019 0-.562-.452-1.018-1.01-1.018-.557 0-1.01.456-1.01 1.018 0 .563.453 1.019 1.01 1.019zM91.339 83.746c-.558 0-1.01.453-1.01 1.018 0 .563.451 1.017 1.01 1.017.557 0 1.01-.453 1.01-1.017 0-.564-.452-1.018-1.01-1.018zM91.34 77.95c.557 0 1.01-.456 1.01-1.019s-.453-1.02-1.01-1.02c-.559 0-1.011.457-1.011 1.02s.452 1.02 1.01 1.02z" fill="#000"/></g><g><path d="M98.38 126.619c-.558 0-1.01.458-1.01 1.018 0 .563.451 1.022 1.01 1.022.559 0 1.01-.458 1.01-1.022 0-.56-.452-1.018-1.01-1.018zM98.38 120.828c.558 0 1.01-.457 1.01-1.02s-.452-1.019-1.01-1.019-1.01.456-1.01 1.02c0 .562.452 1.019 1.01 1.019zM98.38 112.994c.558 0 1.01-.456 1.01-1.019 0-.562-.452-1.018-1.01-1.018-.557 0-1.01.456-1.01 1.018 0 .563.453 1.019 1.01 1.019zM98.38 105.161c.557 0 1.009-.456 1.009-1.018 0-.561-.452-1.017-1.009-1.017-.557 0-1.008.456-1.008 1.017 0 .562.451 1.018 1.008 1.018zM98.38 97.331c.557 0 1.009-.455 1.009-1.017 0-.562-.452-1.018-1.009-1.018-.557 0-1.008.456-1.008 1.018s.451 1.017 1.008 1.017zM98.38 89.5c.558 0 1.01-.455 1.01-1.018s-.452-1.02-1.01-1.02-1.01.457-1.01 1.02.452 1.019 1.01 1.019zM98.38 79.633c-.558 0-1.01.453-1.01 1.019 0 .561.451 1.018 1.01 1.018.559 0 1.01-.456 1.01-1.018 0-.566-.452-1.019-1.01-1.019z" fill="#000"/></g><g><path d="M84.298 126.619c-.558 0-1.01.458-1.01 1.018 0 .563.451 1.022 1.01 1.022.558 0 1.01-.458 1.01-1.022-.002-.56-.453-1.018-1.01-1.018zM84.298 120.828c.558 0 1.01-.457 1.01-1.02s-.452-1.019-1.01-1.019-1.01.456-1.01 1.02c0 .562.452 1.019 1.01 1.019zM84.298 112.994c.557 0 1.01-.456 1.01-1.019 0-.562-.453-1.018-1.01-1.018-.558 0-1.01.456-1.01 1.018 0 .563.452 1.019 1.01 1.019zM84.298 105.161c.557 0 1.009-.456 1.009-1.018 0-.561-.452-1.017-1.009-1.017-.557 0-1.008.456-1.008 1.017 0 .562.451 1.018 1.008 1.018zM84.298 97.331c.557 0 1.009-.455 1.009-1.017 0-.562-.452-1.018-1.009-1.018-.557 0-1.008.456-1.008 1.018s.451 1.017 1.008 1.017zM84.298 89.5c.558 0 1.01-.455 1.01-1.018s-.452-1.02-1.01-1.02-1.01.457-1.01 1.02.452 1.019 1.01 1.019zM84.298 79.633c-.558 0-1.01.453-1.01 1.019 0 .561.451 1.018 1.01 1.018.559 0 1.01-.456 1.01-1.018-.001-.566-.452-1.019-1.01-1.019z" fill="#000"/></g><g><path d="M70.214 126.619c-.558 0-1.01.458-1.01 1.018 0 .563.451 1.022 1.01 1.022.56 0 1.01-.458 1.01-1.022 0-.56-.45-1.018-1.01-1.018zM70.214 118.789c-.558 0-1.01.453-1.01 1.017 0 .561.451 1.022 1.01 1.022.56 0 1.01-.46 1.01-1.022a1.01 1.01 0 0 0-1.01-1.017zM70.214 110.956c-.558 0-1.01.456-1.01 1.02 0 .561.451 1.018 1.01 1.018.56 0 1.01-.456 1.01-1.019 0-.562-.45-1.019-1.01-1.019zM70.214 103.126c-.558 0-1.01.456-1.01 1.02a1.01 1.01 0 0 0 2.019 0c0-.563-.448-1.02-1.009-1.02zM70.214 95.296c-.558 0-1.01.453-1.01 1.017 0 .563.451 1.018 1.01 1.018.56 0 1.01-.455 1.01-1.018a1.01 1.01 0 0 0-1.01-1.017zM70.214 87.463c-.558 0-1.01.457-1.01 1.02 0 .561.451 1.019 1.01 1.019.56 0 1.01-.458 1.01-1.019 0-.563-.45-1.02-1.01-1.02zM70.214 79.633c-.558 0-1.01.453-1.01 1.019 0 .561.451 1.018 1.01 1.018.56 0 1.01-.456 1.01-1.018a1.01 1.01 0 0 0-1.01-1.019z" fill="#000"/></g><g><path d="M77.255 130.733c-.556 0-1.006.456-1.006 1.018 0 .563.449 1.019 1.006 1.019.56 0 1.013-.455 1.013-1.019 0-.562-.453-1.018-1.013-1.018zM77.255 122.901c-.556 0-1.006.455-1.006 1.018 0 .561.449 1.02 1.006 1.02.56 0 1.013-.459 1.013-1.02 0-.563-.453-1.018-1.013-1.018zM77.255 115.068c-.556 0-1.006.458-1.006 1.021 0 .561.449 1.019 1.006 1.019.56 0 1.013-.458 1.013-1.019 0-.563-.453-1.021-1.013-1.021zM77.255 107.238c-.556 0-1.006.458-1.006 1.018 0 .563.449 1.02 1.006 1.02.56 0 1.013-.456 1.013-1.02 0-.56-.453-1.018-1.013-1.018zM77.255 99.408a1.01 1.01 0 0 0-1.006 1.016 1.01 1.01 0 0 0 1.006 1.019c.56 0 1.013-.455 1.013-1.019 0-.563-.453-1.016-1.013-1.016zM77.255 91.576c-.556 0-1.006.455-1.006 1.018a1.01 1.01 0 0 0 1.006 1.019c.56 0 1.013-.455 1.013-1.019 0-.563-.453-1.018-1.013-1.018zM77.255 83.746a1.01 1.01 0 0 0-1.006 1.018 1.01 1.01 0 1 0 2.019 0c0-.564-.453-1.018-1.013-1.018zM77.255 75.912c-.556 0-1.006.457-1.006 1.02 0 .562.449 1.02 1.006 1.02.56 0 1.013-.458 1.013-1.02 0-.563-.453-1.02-1.013-1.02z" fill="#000"/></g></g><g><path d="M99.39 97.944l-16.354 7.83 9.812 7.698 9.266-7.15-2.725-8.378z" fill="#fff"/></g><g><path d="M71.046 86.873L58.324 100.07 38.883 79.723s-8.177.477-11.72-5.572" stroke-width="3" stroke-miterlimit="10" stroke="#000"/></g><g><path d="M80.492 56.506l1.726 30.019" stroke-width="3" stroke-miterlimit="10" stroke="#000"/></g><g><path d="M57.054 86.322l11.628-15.764 12.719-3.3" stroke-width="3" stroke-miterlimit="10" stroke="#000"/></g><g><path d="M68.863 131.069l5.725-22.108-5.362-37.487" stroke-width="3" stroke-miterlimit="10" stroke="#000"/></g><g><path d="M104.474 55.526c-1.09 2.016-2.375 2.837-3.996 2.656-1.62-.178-2.708-1.372-3.167-3.336-1.829-7.825-3.01-14.718-3.01-14.718H76.313l.364 5.133-3.22 7.198" stroke-width="3" stroke-miterlimit="10" stroke="#000"/></g><g><path d="M84.308 52.226l-3.633.981-6.36-2.566-1.862 4.47 1.316.598-2.907 9.35 10.902-2.384.363-5.865 2.18-4.584z" fill="#000"/></g><g><path d="M83.295 108.537l-.258.234c-.798.717-1.863 1.108-2.998 1.108-1.134 0-2.202-.392-2.996-1.108l-.264-.234c-.643-.578-1.506-.892-2.423-.892-.915 0-1.776.314-2.42.892l-.263.234c-.88.788-2.05 1.15-3.202 1.102" stroke-width="3" stroke-miterlimit="10" stroke="#000"/></g><g><path d="M74.899 35.777c2.128 0 3.854-1.74 3.854-3.888 0-2.148-1.726-3.889-3.854-3.889-2.13 0-3.855 1.741-3.855 3.889 0 2.147 1.726 3.888 3.855 3.888z" fill="#000"/></g><g><path d="M84.536 35.777c2.128 0 3.854-1.74 3.854-3.888 0-2.148-1.726-3.889-3.854-3.889-2.13 0-3.855 1.741-3.855 3.889 0 2.147 1.726 3.888 3.855 3.888z" fill="#000"/></g><g><path d="M80.175 72.486c2.128 0 3.854-1.741 3.854-3.889 0-2.148-1.726-3.889-3.854-3.889-2.13 0-3.855 1.741-3.855 3.889 0 2.148 1.726 3.889 3.855 3.889z" fill="#FA3778"/></g><g><path d="M83.446 104.106c2.129 0 3.854-1.74 3.854-3.888 0-2.148-1.725-3.889-3.854-3.889s-3.854 1.741-3.854 3.889c0 2.147 1.725 3.888 3.854 3.888z" fill="#000"/></g><g><path d="M94.173 35.777c2.128 0 3.854-1.74 3.854-3.888 0-2.148-1.726-3.889-3.854-3.889-2.129 0-3.855 1.741-3.855 3.889 0 2.147 1.726 3.888 3.855 3.888z" fill="#000"/></g><g><path d="M75.582 44.578h4.454l1.182 3.434h-6.905l1.27-3.434z" fill="#000"/></g><g><path d="M100.915 58.182l-13.882 2.843" stroke-width="3" stroke-miterlimit="10" stroke="#000"/></g><g><path d="M99.026 133.618L82.22 106.212l6.54-4.675h6.815" stroke-width="3" stroke-miterlimit="10" stroke="#000"/></g><g><path d="M125.183 119.803L104.55 68.46H93.135l-.833-8.535" stroke-width="3.028" stroke-miterlimit="10" stroke="#000"/></g><g><path d="M97.208 108.136s-3.661.86-7.224 2.866c-2.812 1.582-5.675 4.65-6.948 8.316" stroke-width="3" stroke-miterlimit="10" stroke="#000"/></g><g><path d="M80.492 68.724l23.97-4.884 7.703 5.551 20.475 47.727L105.106 136 80.492 68.724z" fill="#FA3778"/></g><g><path d="M87.67 53.392s-1.181-6.298-1.727-9.415c-.426-2.437-1.633-3.85-4.269-3.85" stroke-width="3" stroke-miterlimit="10" stroke="#000"/></g><g><path d="M69.227 70.558l2.18 15.213-11.991 13.383s.181-8.8-1.636-13.383c4.36-6.414 11.447-15.213 11.447-15.213z" fill="#000"/></g><g><path d="M34.159 67.807c3.27 0 9.267 1.1 10.54 7.7 0 0 6.721 5.244 12.718 9.642 4.26 3.127 1.816 11.897.725 13.271" stroke-width="3" stroke-miterlimit="10" stroke="#000"/></g><g><path d="M41.428 74.772l-4.524.374c-3.323.276-4.572-.794-5.853-4.288-1.065-2.918-2.217-6.147-2.217-6.147l10.34.713 2.254 9.348z" fill="#FFB946"/><path d="M39.36 64.13a2.589 2.589 0 0 1-2.785-2.383c-.116-1.435.94-2.693 2.363-2.81.233-.02.456.003.676.044-.976-2.69-3.631-4.508-6.597-4.263l-8.076 1.81c-3.44.947-6.211 3.446-5.92 7.038l.067.817c.29 3.592 3.414 6.266 6.975 5.97l8.168-.674c3.126-.258 5.548-2.72 5.896-5.748a2.444 2.444 0 0 1-.767.2z" fill="#FFB946"/></g><g><path d="M32.38 66.586c1.425 0 2.581-1.166 2.581-2.605s-1.156-2.605-2.582-2.605-2.582 1.166-2.582 2.605 1.156 2.605 2.582 2.605z" fill="#000"/></g><g><path d="M71.116 83.17l.291 3.518-14.264 12.76-15.709-10.172c-3.525 3.06-7.961 5.073-12.851 5.548l13.568 22.244 19.521 7.205 12.28-20.333-2.836-20.77zM49.512 71.566c0 2.456-.38 4.822-1.076 7.045l8.982 6.796 11.9-15.398-2.362-17.305-20.273 7.667a23.423 23.423 0 0 1 2.83 11.195z" fill="#46B4BE"/></g><g><path d="M66.139 67.44l2.362 4.217" stroke-width="3" stroke-miterlimit="10" stroke="#000"/></g><g><path d="M89.759 76.864l34.522 18.147 12.72 18.332-23.914 7.836-23.328-44.315zM116.204 73.35c-1.008-4.552-4.823-10.601-12.929-10.824L90.62 70.021s14.765 2.077 25.584 3.33zM120.828 86.579l-1.09-8.981-24.71-2.2 25.8 11.18z" fill="#E62D73"/></g><g><path d="M48.512 78.643c-1.091 4.033-3.633 7.699-3.633 7.699l13.808 13.932 2-13.382s-6.36-4.4-12.175-8.25z" fill="#000"/></g></g></symbol><symbol viewBox="0 0 160 160" id="icon2" xmlns="http://www.w3.org/2000/svg"><g fill="none"><path d="M108.726 57.63l-5.038 45.018h24.133v-66.17l-23.746-2.91 4.651 24.062z" fill="#FA3778"/><path d="M72.577 41.717s0-9.022 6.979-10.187c5.233-.874 12.793 2.039 13.52 8.296.838 7.21 1.308 24.597 1.308 24.597l6.688 17.461 9.206-3.105s-6.59-8.73-8.529-24.641c-.602-4.947-1.937-16.009-4.264-20.958C95.548 29.06 91.775 26 86.242 26c-5.812 0-15.408 3.784-13.665 15.717z" fill="#000"/><path d="M106.596 133.26h19.627s-3.392-30.707-4.7-41.477c-1.302-10.71-7.222-14.555-13.91-14.555-5.524 0-12.688 3.656-20.061 10.478-7.706 7.13-13.086 16.882-13.086 16.882l19.046 15.135s4.944-1.018 9.014 1.893c4.97 3.555 4.07 11.643 4.07 11.643z" fill="#464BD7"/><path d="M118.372 93.528l-35.763 12.225 43.178 2.765-7.415-14.99z" fill="#1437A0"/><path d="M71.533 111.454c-3.725-1.492-6.497 1.516-7.45 3.579-1.787 3.878-.446 7.009-.149 7.906-1.041.596-2.085 1.938-2.384 3.428-.298 1.493-.15 3.133.3 5.222-3.576 4.028-12.816 2.983-16.24-3.134-3.88-6.923-1.34-16.3 3.576-20.58 6.852-5.966 14.505-3.992 18.118-1.488 3.613 2.506 4.528 3.675 4.528 3.675l-.299 1.392z" fill="#FFB946"/><path d="M67.828 77.617l2.906 31.63s-3.537-1.02-6.007-1.31c-2.472-.291-4.36 1.02-4.36 1.02s-3.136-8.266.435-19.211c2.325-7.134 7.026-12.13 7.026-12.13z" fill="#FFB946"/><path d="M65.695 33.569L36.618 28.91l-1.355 77.038S40.107 93.72 53.29 94.886c2.713-9.702 5.624-10.09 5.624-10.09l8.333-8.537 7.948-8.732-4.652-13.388-1.744-13.196-3.104-7.374z" fill="#46B4BE"/><path d="M68.214 64.566c-7.953-6.877 0-16.735 0-16.735-1.742-1.602-2.325-5.531-1.452-7.86 1.013-2.703 3.78-4.22 6.106-4.074l-1.164 7.566.873 11.498 2.18 5.531 4.216 3.202.208 6.548-11.838 8.15s-.97 1.378-2.326.292c-2.18-7.714 3.197-14.118 3.197-14.118z" fill="#000"/><path d="M93.853 36.185l.255.292c.632.71.977 1.66.977 2.674 0 1.017-.344 1.967-.977 2.676l-.255.29c-.78.881-1.213 2.058-1.213 3.31 0 1.254.43 2.431 1.213 3.313l.255.285c1.307 1.478 1.307 3.881 0 5.355l-.255.29c-1.617 1.825-1.617 4.795 0 6.621l.255.291c1.307 1.472 1.307 3.876 0 5.353l-.255.287c-.783.88-1.213 2.055-1.213 3.312 0 1.255.432 2.428 1.213 3.31l.255.287c.632.715.977 1.665.977 2.679 0 1.015-.344 1.965-.977 2.676l-.255.288M52.078 100.222c1.89-10.768 8.14-17.753 14.394-21.83.435-3.347 2.18-6.84 4.303-8.724" stroke-width="3" stroke-miterlimit="10" stroke="#000"/><path d="M67.79 108.131s-1.777-7.064-10.332-8.491c-7.851-1.31-14.974 5.24-15.704 13.195-.762 8.32 6.87 13.394 6.87 13.394" stroke-width="3" stroke-miterlimit="10" stroke="#000"/><path d="M95.814 125.054c-3.174-5.135-8.97-7.549-13.836-9.984-8.53-4.27-13.957-6.599-13.957-6.599s-5.04-2.573-10.418 1.212c-4.26 2.996-4.218 9.8-1.308 12.515M85.028 122.545c1.759.895 5.513 3.222 7.366 7.529M81.52 125.84c1.297.55 4.093 2.13 5.693 5.915M71.85 130.203c-3.199.146-4.507 2.473-4.421 5.797" stroke-width="3" stroke-miterlimit="10" stroke="#000"/><path d="M62.28 133.114s-1.706-4.691-.142-8.102c.952-2.083 3.647-3.719 6.164-4.06" stroke-width="2.93" stroke-miterlimit="10" stroke="#000"/><path d="M90.702 119.142s5.15-.922 12.018-1.358c3.99-.255 7.579 2.993 8.563 9.543" stroke-width="3" stroke-miterlimit="10" stroke="#000"/><path d="M41.675 83.837c-.15-.56-.724-.89-1.283-.74a1.052 1.052 0 0 0-.742 1.287 1.049 1.049 0 1 0 2.025-.547zM48.44 83.06a1.049 1.049 0 1 0-.002-2.098 1.049 1.049 0 0 0 .002 2.097zM56.216 80.956a1.048 1.048 0 1 0-.001-2.096 1.048 1.048 0 0 0 0 2.096zM65 77.535a1.045 1.045 0 1 0-2.018.547A1.046 1.046 0 0 0 65 77.535zM39.886 91.897a1.046 1.046 0 1 0-2.022.545c.152.56.725.89 1.283.738.561-.15.89-.725.739-1.283zM46.65 91.117a1.048 1.048 0 1 0 0-2.096 1.048 1.048 0 0 0 0 2.096zM54.426 89.016a1.049 1.049 0 1 0 0-2.097 1.049 1.049 0 0 0 0 2.097zM69.978 84.813a1.047 1.047 0 1 0-.001-2.094 1.047 1.047 0 0 0 0 2.094zM36.856 71.037a1.048 1.048 0 1 0-.001-2.096 1.048 1.048 0 0 0 0 2.096zM45.643 67.614a1.048 1.048 0 1 0-2.023.544 1.048 1.048 0 0 0 2.023-.544zM52.408 66.832a1.046 1.046 0 1 0-.001-2.092 1.046 1.046 0 0 0 .001 2.092zM60.183 64.734a1.046 1.046 0 1 0-.001-2.093 1.046 1.046 0 0 0 .001 2.093zM67.96 62.633a1.048 1.048 0 1 0-.002-2.095 1.048 1.048 0 0 0 .001 2.095zM43.855 75.673c-.15-.56-.724-.89-1.284-.74-.555.151-.89.728-.74 1.286.15.559.73.889 1.287.74a1.05 1.05 0 0 0 .737-1.286zM51.632 73.57a1.047 1.047 0 0 0-1.286-.736c-.556.15-.888.725-.74 1.285.152.559.73.89 1.286.739.56-.15.89-.727.74-1.288zM58.396 72.792a1.047 1.047 0 1 0-.002-2.094 1.047 1.047 0 0 0 .002 2.094zM66.172 70.69a1.046 1.046 0 1 0-.001-2.092 1.046 1.046 0 0 0 0 2.092zM73.946 68.591a1.048 1.048 0 1 0-.001-2.095 1.048 1.048 0 0 0 0 2.095z" fill="#000"/><g><path d="M39.036 62.874a1.048 1.048 0 1 0-.001-2.096 1.048 1.048 0 0 0 0 2.096zM47.824 59.45a1.047 1.047 0 0 0-2.023.548 1.047 1.047 0 1 0 2.023-.549zM54.589 58.673a1.048 1.048 0 1 0-.001-2.096 1.048 1.048 0 0 0 0 2.096zM62.364 56.57a1.047 1.047 0 1 0-.001-2.094 1.047 1.047 0 0 0 .001 2.094zM70.14 54.471a1.049 1.049 0 1 0-.002-2.097 1.049 1.049 0 0 0 .001 2.097z" fill="#000"/></g><g><path d="M35.23 48.752a1.048 1.048 0 1 0-.002-2.096 1.048 1.048 0 0 0 .001 2.096zM43.005 46.652a1.049 1.049 0 1 0 0-2.098 1.049 1.049 0 0 0 0 2.098zM51.792 43.228a1.05 1.05 0 0 0-1.284-.738 1.05 1.05 0 0 0 .546 2.025c.556-.152.888-.727.738-1.287zM58.557 42.448a1.046 1.046 0 1 0 0-2.093 1.046 1.046 0 0 0 0 2.093zM67.342 39.026a1.046 1.046 0 1 0-2.02.548 1.047 1.047 0 1 0 2.02-.548z" fill="#000"/></g><g><path d="M34.061 55.594a1.048 1.048 0 1 0-.737 1.286c.56-.15.887-.724.737-1.286zM41.836 53.494a1.04 1.04 0 0 0-1.281-.737 1.047 1.047 0 1 0 1.282.737zM48.6 52.713a1.047 1.047 0 1 0 0-2.094 1.047 1.047 0 0 0 0 2.094zM57.386 49.293a1.047 1.047 0 0 0-2.02.544c.151.562.726.892 1.284.74.56-.15.888-.724.736-1.284zM65.165 47.19a1.05 1.05 0 1 0-.74 1.288c.558-.15.89-.726.74-1.288z" fill="#000"/></g><g><path d="M111.441 71.213c-3.615-3.62-7.089-9.759-8.528-15.524-1.781-7.134-2.62-11.56-3.877-17.85C98.067 32.988 95.998 26 84.79 26c-7.005 0-10.88 4.755-12.696 9.508-1.303 3.406-.985 6.229-.897 9.92.122 5.024.27 10.673 1.816 13.899 1.165 2.425 3.925 4.438 7.415 4.438 1.964 0 3.999-.362 5.162-.655" stroke-width="3" stroke-miterlimit="10" stroke="#000"/></g><g><path d="M81.309 41.51h7.72l-2.125 2.536-3.642.218-1.284 7.06-3.876.583L81.31 41.51z" fill="#000"/></g><g><path d="M77.52 45.17l-1.57-3.66h-4.583v1.843l6.153 1.817z" fill="#000"/></g><g><path d="M76.357 42.978l1.117 2.192s-1.06.56-1.976.268c-.601-.194-1.42-.778-1.552-2.11l2.411-.35z" fill="#000"/></g><g><path d="M67.053 77.228s-.52 5.13 5.089 8.295c2.646 1.493 5.326 2.27 7.725 2.639" stroke-width="3" stroke-miterlimit="10" stroke="#000"/></g><g><path d="M109.358 79.412s8.096-1.165 12.359 5.82c-10.614 5.677-35.618 14.99-35.618 14.99l23.26-20.81z" fill="#1437A0"/></g><g><path d="M107.574 67.241a1.047 1.047 0 1 0-.735 1.285c.554-.15.889-.723.735-1.285zM115.35 65.141c-.15-.56-.723-.89-1.281-.738a1.051 1.051 0 0 0-.743 1.286 1.048 1.048 0 1 0 2.025-.547zM122.116 64.364a1.05 1.05 0 1 0-.001-2.099 1.05 1.05 0 0 0 .001 2.1zM102.756 54.443a1.049 1.049 0 1 0 0-2.098 1.049 1.049 0 0 0 0 2.098zM110.532 52.342a1.049 1.049 0 1 0 0-2.097 1.049 1.049 0 0 0 0 2.097zM119.32 48.92a1.048 1.048 0 0 0-1.285-.741 1.048 1.048 0 0 0-.736 1.285 1.046 1.046 0 1 0 2.02-.544z" fill="#000"/><g><path d="M108.742 60.4a1.047 1.047 0 1 0 0-2.094 1.047 1.047 0 0 0 0 2.094zM117.53 56.977c-.15-.56-.724-.89-1.284-.74-.555.151-.89.729-.74 1.287.15.559.73.888 1.287.74a1.05 1.05 0 0 0 .736-1.287zM125.307 54.875a1.047 1.047 0 0 0-1.286-.736 1.049 1.049 0 1 0 1.286.736z" fill="#000"/></g><g><path d="M104.936 46.278a1.047 1.047 0 1 0 0-2.094 1.047 1.047 0 0 0 0 2.094zM112.712 44.18a1.049 1.049 0 1 0 0-2.098 1.049 1.049 0 0 0 0 2.097zM121.5 40.755a1.048 1.048 0 1 0-2.023.55 1.048 1.048 0 0 0 2.022-.55z" fill="#000"/></g><g><path d="M99.963 39a1.046 1.046 0 0 0-1.285-.738 1.047 1.047 0 1 0 .545 2.023 1.05 1.05 0 0 0 .74-1.285zM107.736 36.899a1.05 1.05 0 1 0-.737 1.286c.56-.151.887-.724.737-1.286zM115.512 34.798a1.042 1.042 0 0 0-1.282-.737 1.047 1.047 0 1 0 1.283.737z" fill="#000"/></g></g><g><path d="M67.978 125.608c-2.193.344-6.145 1.809-5.723 7.943" stroke-width="3" stroke-miterlimit="10" stroke="#000"/></g><g><path d="M94.675 113.902s-5.38 3.93-9.451 2.912" stroke-width="3" stroke-miterlimit="10" stroke="#000"/></g><g><path d="M36.813 120.307s3.199 6.402 10.759 5.675" stroke-width="3" stroke-miterlimit="10" stroke="#000"/></g><g><path d="M77.937 55.416l7.68-1.086s-1.574 3.36-4.7 3.868c-2.847.466-2.98-2.782-2.98-2.782z" fill="#000"/></g><g><path d="M109.941 111.573s9.304-.146 14.247 5.532c5.331 6.121 4.797 13.972 4.797 13.972" stroke-width="3" stroke-miterlimit="10" stroke="#000"/></g><g><path d="M87.06 43.494c0-1.121-.908-1.151-2.025-1.151-1.12 0-2.026.03-2.026 1.151a2.026 2.026 0 1 0 4.05 0z" fill="#000"/></g></g></symbol><symbol viewBox="0 0 160 160" id="icon3" xmlns="http://www.w3.org/2000/svg"><g fill="none"><path d="M80.95 77.98l1.847-8.034.668-3.27 8.012 1.927 1.544.715-2.414 14.207-1.034 5.89-1.725 5.89-24.831-7.623 6.209-13.167 11.724 3.466z" fill="#464BD7"/><path d="M34.05 131l20.617-74.137s9.432 5.03 14.523 9.057c4.892 3.867 9.724 11.41 8.931 18.451-2.837 25.18-29.047 43.274-44.07 46.629z" fill="#464BD7"/><path d="M26.036 116.575L50.41 88.061l7.436-23.074 26.64 19.49-10.087 2.599-9.053 1.3-9.258 19.476-30.05 8.723z" fill="#464BD7"/><path d="M101.828 86.382l-11.351-1.677-1.595 10.427-10.864-3.379 4.194 37.569 33.57-7.163 15.865-70.773-29.15 8.772-.67 26.225z" fill="#46B4BE"/><path d="M81.402 113.69a.957.957 0 0 0-1.076-.824.962.962 0 0 0 .255 1.905.959.959 0 0 0 .82-1.08zM88.703 112.704a.957.957 0 0 0-1.076-.825.962.962 0 1 0 .257 1.907.962.962 0 0 0 .819-1.082zM95.055 112.81a.96.96 0 0 0 .958-.963.96.96 0 0 0-.958-.963.96.96 0 0 0-.959.963.96.96 0 0 0 .959.962zM102.356 111.822a.96.96 0 0 0 .957-.961.96.96 0 0 0-.957-.962.96.96 0 0 0-.957.962.96.96 0 0 0 .957.961zM109.655 110.836c.528 0 .956-.43.956-.961 0-.53-.428-.961-.956-.961a.959.959 0 0 0-.956.96c0 .531.428.962.956.962zM116.957 109.851a.96.96 0 0 0 .958-.962.96.96 0 0 0-.958-.963.96.96 0 0 0-.958.963.96.96 0 0 0 .958.962zM125.206 107.773a.955.955 0 0 0-1.075-.825.961.961 0 0 0-.823 1.081.958.958 0 1 0 1.898-.256zM131.56 107.878a.96.96 0 0 0 .957-.962.96.96 0 0 0-.958-.963.96.96 0 0 0-.958.963.96.96 0 0 0 .958.962zM85.177 120.916a.96.96 0 0 0 .957-.961.96.96 0 0 0-.957-.962.96.96 0 0 0-.957.962.96.96 0 0 0 .957.961zM92.477 119.932a.96.96 0 0 0 .958-.962.96.96 0 0 0-.958-.963.96.96 0 0 0-.958.963.96.96 0 0 0 .958.962zM99.78 118.945a.96.96 0 0 0 .957-.962.96.96 0 0 0-.958-.963.96.96 0 0 0-.958.963.96.96 0 0 0 .958.962zM107.08 117.958a.96.96 0 0 0 .956-.961.96.96 0 0 0-.957-.962.96.96 0 0 0-.957.962.96.96 0 0 0 .957.961zM114.381 116.972a.96.96 0 0 0 .957-.961.96.96 0 0 0-.957-.962.96.96 0 0 0-.957.962.96.96 0 0 0 .957.961zM121.681 115.985a.96.96 0 0 0 .957-.961.96.96 0 0 0-.957-.962.96.96 0 0 0-.957.962.96.96 0 0 0 .957.961zM128.982 115a.96.96 0 0 0 .957-.962.96.96 0 0 0-.957-.962.96.96 0 0 0-.957.962.96.96 0 0 0 .957.961zM79.621 100.383a.958.958 0 1 0-1.9.256.96.96 0 1 0 1.9-.256zM86.92 99.395a.957.957 0 0 0-1.074-.825.963.963 0 0 0 .254 1.909.96.96 0 0 0 .82-1.084zM93.274 99.5a.96.96 0 0 0 .958-.962.96.96 0 0 0-.958-.962.96.96 0 0 0-.958.962.96.96 0 0 0 .958.963zM100.574 98.512c.528 0 .956-.43.956-.96 0-.532-.428-.962-.956-.962a.959.959 0 0 0-.956.961c0 .53.428.96.956.96zM107.874 97.527c.528 0 .956-.43.956-.961 0-.53-.428-.961-.956-.961a.959.959 0 0 0-.956.96c0 .531.428.962.956.962zM115.176 96.542a.96.96 0 0 0 .958-.962.96.96 0 0 0-.958-.963.96.96 0 0 0-.958.963.96.96 0 0 0 .958.962zM122.477 95.556a.96.96 0 0 0 .958-.963.96.96 0 0 0-.958-.962.96.96 0 0 0-.958.962.96.96 0 0 0 .958.963zM129.78 94.57a.96.96 0 0 0 .957-.963.96.96 0 0 0-.958-.963.96.96 0 0 0-.958.963.96.96 0 0 0 .958.963zM83.396 107.61a.96.96 0 0 0 .958-.963.96.96 0 0 0-.958-.963.96.96 0 0 0-.959.963.96.96 0 0 0 .959.962zM91.648 105.532a.96.96 0 0 0-1.078-.827.965.965 0 0 0-.823 1.084.962.962 0 0 0 1.078.826.963.963 0 0 0 .823-1.083zM97.997 105.637c.53 0 .96-.431.96-.963a.961.961 0 0 0-.96-.964c-.53 0-.959.431-.959.964 0 .532.43.963.96.963zM105.3 104.65a.96.96 0 0 0 .957-.962.96.96 0 0 0-.958-.963.96.96 0 0 0-.958.963.96.96 0 0 0 .958.962zM112.6 103.664c.528 0 .956-.43.956-.961 0-.53-.428-.961-.956-.961a.959.959 0 0 0-.956.96c0 .531.428.962.956.962zM119.901 102.678a.96.96 0 0 0 .958-.962.96.96 0 0 0-.958-.963.96.96 0 0 0-.958.963.96.96 0 0 0 .958.962zM128.15 100.601a.958.958 0 0 0-1.077-.826.96.96 0 0 0-.82 1.081c.071.529.551.899 1.075.828a.96.96 0 0 0 .821-1.083z" fill="#000"/><g><path d="M81.615 94.3a.96.96 0 0 0 .957-.961.96.96 0 0 0-.957-.962.96.96 0 0 0-.958.962.96.96 0 0 0 .958.961zM88.916 93.316a.96.96 0 0 0 .958-.963.96.96 0 0 0-.958-.962.96.96 0 0 0-.958.962.96.96 0 0 0 .958.963zM97.168 91.238a.958.958 0 1 0-1.9.256.96.96 0 1 0 1.9-.256zM104.468 90.253a.96.96 0 0 0-1.077-.826.962.962 0 0 0 .255 1.907.964.964 0 0 0 .822-1.081zM110.82 90.357a.96.96 0 0 0 .956-.962.96.96 0 0 0-.957-.962.96.96 0 0 0-.957.962.96.96 0 0 0 .957.962zM118.12 89.37a.96.96 0 0 0 .958-.962.96.96 0 0 0-.958-.963.96.96 0 0 0-.958.963.96.96 0 0 0 .958.962zM125.421 88.383a.96.96 0 0 0 .957-.961.96.96 0 0 0-.957-.962.96.96 0 0 0-.957.962.96.96 0 0 0 .957.961z" fill="#000"/></g><g><path d="M79.834 80.993a.96.96 0 0 0 .958-.963.96.96 0 0 0-.958-.962.96.96 0 0 0-.958.962.96.96 0 0 0 .958.963zM88.086 78.916a.958.958 0 1 0-1.9.257.957.957 0 1 0 1.9-.257zM94.437 79.021c.53 0 .959-.431.959-.963a.961.961 0 0 0-.96-.964c-.53 0-.958.432-.958.964s.429.963.959.963zM101.738 78.034a.96.96 0 0 0 .958-.962.96.96 0 0 0-.958-.963.96.96 0 0 0-.958.963.96.96 0 0 0 .958.962zM109.04 77.047c.527 0 .955-.43.955-.96 0-.531-.428-.962-.956-.962a.959.959 0 0 0-.956.961c0 .53.428.961.956.961zM116.34 76.062a.96.96 0 0 0 .957-.963.96.96 0 0 0-.958-.963.96.96 0 0 0-.958.963.96.96 0 0 0 .958.963zM124.588 73.985a.957.957 0 0 0-1.896.255.956.956 0 1 0 1.896-.255z" fill="#000"/></g><g><path d="M77.841 87.075a.96.96 0 0 0-1.901.255.962.962 0 0 0 1.079.828.964.964 0 0 0 .822-1.083zM85.141 86.088a.956.956 0 0 0-1.075-.824.963.963 0 0 0 .255 1.907.961.961 0 0 0 .82-1.083zM92.442 85.103a.957.957 0 1 0-1.897.255.956.956 0 1 0 1.897-.255zM98.794 85.204c.528 0 .956-.43.956-.96 0-.531-.428-.961-.956-.961a.959.959 0 0 0-.956.96c0 .531.428.961.956.961zM106.094 84.219c.528 0 .956-.43.956-.96 0-.531-.428-.962-.956-.962a.959.959 0 0 0-.956.961c0 .53.428.961.956.961zM114.346 82.143a.957.957 0 0 0-1.078-.824.963.963 0 0 0 .255 1.907.96.96 0 0 0 .823-1.083zM120.696 82.247a.96.96 0 0 0 .957-.962.96.96 0 0 0-.957-.962.96.96 0 0 0-.957.962.96.96 0 0 0 .957.962zM127.998 81.262a.96.96 0 0 0 .958-.962.96.96 0 0 0-.958-.963.96.96 0 0 0-.958.963.96.96 0 0 0 .958.962z" fill="#000"/></g><g><path d="M129.205 26L74.7 51.83l.083 6.375 50.31-8.811L129.205 26z" fill="#FFB946"/></g><g><path d="M82.964 70.7l-17.28-5.786" stroke-width="3" stroke-miterlimit="10" stroke="#000"/></g><g><path d="M82.797 41.767l4.675 7.044 6.01-1.004-.336 12.075-1.334 9.729-8.347-3.691 2.002-6.708s-5.342-10.401-2.67-17.445z" fill="#fff"/></g><g><path d="M127.55 41.513a3.666 3.666 0 0 0 3.656-3.675 3.666 3.666 0 0 0-3.657-3.674 3.666 3.666 0 0 0-3.657 3.674 3.666 3.666 0 0 0 3.657 3.675zM138.93 36.8c1.143 0 2.07-.931 2.07-2.08 0-1.148-.927-2.08-2.07-2.08-1.143 0-2.07.932-2.07 2.08 0 1.149.927 2.08 2.07 2.08z" fill="#000"/></g><g><path d="M56.683 39.36c2.616-.613 5.468-.84 7.875.52 1.574.889 2.866 2.675 3.758 5.157a931.468 931.468 0 0 1 3.686 5.62l-2.31.67s.878 2.266 1.001 5.16c.104 2.418-1.503 5.66-1.503 5.66" stroke-width="3" stroke-miterlimit="10" stroke="#000"/></g><g><path d="M94.983 57.616l6.761 29.312-11.518-2.264" stroke-width="3" stroke-miterlimit="10" stroke="#000"/></g><g><path d="M59.57 87.336l29.054 8.056 4.356-26.2-9.515-2.517" stroke-width="3" stroke-miterlimit="10" stroke="#000"/></g><g><path d="M82.963 40.006c-2.128 5.157-1.026 8.529-.374 10.693.937 3.114 2.835 9.4 2.835 9.4L80.21 77.997l-21.33-6.254" stroke-width="3" stroke-miterlimit="10" stroke="#000"/></g><g><path d="M90.727 69.694l2.21-10.6-.08-10.912" stroke-width="3" stroke-miterlimit="10" stroke="#000"/></g><g><path d="M77.364 91.702s-.418 8.19-4.918 16.235c-6.067 10.843-15.526 17.36-15.526 17.36" stroke-width="3" stroke-miterlimit="10" stroke="#000"/></g><g><path d="M33.232 42.616l.275.164c1.748 1.039 4.17.568 5.408-1.05l.196-.255c.998-1.307 2.96-1.687 4.373-.849l.274.165c.842.504 1.868.67 2.894.473 1.028-.199 1.914-.738 2.511-1.521l.195-.255c.485-.632 1.207-1.064 2.034-1.225.828-.16 1.657-.03 2.338.375l.277.166c.854.507 1.872.651 2.832.48" stroke-width="3" stroke-miterlimit="10" stroke="#000"/></g><g><path d="M21 53.05c.83-.163 1.66-.03 2.339.375l.277.167c.843.5 1.87.67 2.892.47 1.027-.199 1.918-.737 2.515-1.52l.193-.256c1-1.308 2.96-1.688 4.372-.846l.277.163c1.747 1.039 4.171.569 5.408-1.05l.196-.256c.996-1.306 2.958-1.687 4.371-.847l.276.164c.84.505 1.867.67 2.892.472 1.028-.199 1.915-.738 2.514-1.52l.191-.256c.487-.631 1.209-1.063 2.035-1.225.829-.16 1.658-.028 2.338.377l.278.163c.855.51 1.872.653 2.835.482" stroke-width="3" stroke-miterlimit="10" stroke="#000"/></g><g><path d="M29.081 58.949l.194-.256c1-1.306 2.962-1.687 4.372-.848l.278.165c1.745 1.039 4.17.568 5.408-1.049l.194-.256c.996-1.306 2.959-1.686 4.372-.848l.275.164c.842.503 1.868.672 2.894.474 1.027-.2 1.914-.74 2.513-1.521l.194-.255c.484-.632 1.204-1.064 2.032-1.228" stroke-width="3" stroke-miterlimit="10" stroke="#000"/></g><g><path d="M76.704 76.489c-1.253-4.026-4.09-9.12-10.519-11.323-10.266-3.522-16.273-5.55-16.273-5.55" stroke-width="3" stroke-miterlimit="10" stroke="#000"/></g><g><path d="M118.33 47.17l-4.232-12.738c-1.822 4.818-3.576 7.586-8.834 9.6l-9.015 3.018" stroke-width="3" stroke-miterlimit="10" stroke="#000"/></g><g><path d="M70.956 55.101l6.262-1.76" stroke-width="3" stroke-miterlimit="10" stroke="#000"/></g><g><path d="M92.698 57.332l7.546-2.609c2.256-.658 3.554-3.032 2.894-5.302a4.252 4.252 0 0 0-5.276-2.91l-10.878 3.307s-1.379-4.151.374-6.794" stroke-width="3" stroke-miterlimit="10" stroke="#000"/></g><g><path d="M86.176 59.021l-1.75.52a4.251 4.251 0 0 1-5.277-2.91 4.283 4.283 0 0 1 2.897-5.303" stroke-width="3" stroke-miterlimit="10" stroke="#000"/></g><g><path d="M102.496 49.567c1.128-.378 2.437-.691 3.725-1.04 6.51-1.761 12.77 1.007 14.024 3.272" stroke-width="3" stroke-miterlimit="10" stroke="#000"/></g><g><path d="M61.18 50.1l3.91-3.46 1.095 4.09-5.006-.63z" fill="#000"/></g><g><path d="M72.497 63.478l-9.593-4.696 1.044 11.112 8.549-6.416z" fill="#000"/></g><g><path d="M94.372 42.807a1.807 1.807 0 0 0-2.22-1.277 1.822 1.822 0 0 0-1.269 2.233 1.81 1.81 0 0 0 2.222 1.274 1.817 1.817 0 0 0 1.267-2.23z" fill="#000"/></g><g><path d="M75.778 122.332l1.724-29.539" stroke-width="3" stroke-miterlimit="10" stroke="#000"/></g><g><path d="M65.863 88.635s-2.328 4.158-6.466 5.977" stroke-width="3" stroke-miterlimit="10" stroke="#000"/></g><g><path d="M45.43 102.147c.997 0 1.807-.813 1.807-1.816 0-1.003-.81-1.816-1.808-1.816s-1.807.813-1.807 1.816c0 1.003.809 1.816 1.807 1.816z" fill="#000"/></g><g><path d="M101.744 86.928l-6.309-27.659-2.288.613-1.67 8.72 1.503.59-2.503 15.513 11.267 2.223z" fill="#000"/></g><g><path d="M71.985 67.584l9.31 3.12-.345 7.277-4.827-2.773-4.138-7.624z" fill="#000"/></g></g></symbol><symbol viewBox="0 0 160 160" id="icon4" xmlns="http://www.w3.org/2000/svg"><g fill="none"><path d="M111.076 99.283L94.53 91.167l-26.575 8.7-18.5-52.87 73.48-20.243-11.858 72.529z" fill="#FFB946"/><path d="M97.808 26.251l-7.567 24.93L85.194 26l12.614.251z" fill="#fff"/><path d="M72.76 59.003s2.572-4.42.936-10.703c-.825-3.164-3.131-7.777-9.824-9.075-9.592-1.861-15.204 10.47-14.97 13.264.233 2.79 16.84 6.747 23.858 6.514z" fill="#000"/><path d="M77.84 88.765c-4.528 10.557-8.7 17.216-8.7 17.216-5.133 3.404-20.177 15.221-25.323 20.029-2.41 2.254-5.55 4.392-9.46 6.023M63.622 101.918s-6.685 2.259-9.98 4.657c-5.244 3.817-8.816 12.785-13.105 15.922" stroke-width="3" stroke-miterlimit="10" stroke="#000"/><path d="M40.028 79.478s-5.496 30.48 25.847 36.995l-1.17-26.757-24.677-10.238z" fill="#FA3778"/><path d="M64.748 80.386s-.137-5.128 3.068-9.127c2.201-2.748 6.137-4.886 11.354-4.853v13.98H64.748z" fill="#464BD7"/><path d="M36.397 70.418L48.492 52.63s20.39-2.821 24.534-3.905c.871 2.82 1.051 10.133-5.235 16.487-6.91 6.986-31.394 5.206-31.394 5.206z" fill="#000"/><path d="M34.205 59.428c1.746-5.713 10.904-20.9 25.516-20.9 8.724 0 13.175 5.32 13.666 9.474.656 5.548-6.032 11.426-11.92 11.426H34.204z" fill="#000"/><path d="M57.61 99.1c-.31 0-6.705.388-11.852-4.73-7.06-7.023-5.73-14.891-5.73-14.891h44.207s-4.327 12.41-8.537 18.692c-4.325 6.452-9.666 17.372-9.666 17.372s-9.67-4.654-8.422-16.442z" fill="#FA3778"/><path d="M95.033 107.437c2.746 2.01 8.304 8.842 13.945 20.88h-9.122L80.454 110.19l.702-3.49 5.847-6.98 1.833 5.505c1.53.33 3.8.456 6.197 2.211zM63.735 134s1.42-4.048 1.528-5.48c.108-1.432-5.028-3.782-6.03-2.976-2.927 2.349-7.089 5.235-7.089 5.235s-3.1 1.004-3.91 1.506c-.812.502-.703 1.715-.703 1.715h6.805l4.275-.894.09.894h5.034z" fill="#000"/><path d="M90.357 131.983h5.847l4.444-1.396v1.396h4.351s.883-1.776.883-4.719c0-.94-.52-2.185-.869-2.725l-6.079.776-5.036 3.957s-1.92.584-2.523 1.004c-1.262.879-1.018 1.707-1.018 1.707z" fill="#000"/><path d="M72.327 101.918c1.852-3.5 10.076-18.173 10.076-18.173s15.547-.625 13.568 4.031c-1.715 4.033-14.657 18.926-14.657 18.926s-1.234 6.078-3.51 10.12c-3.82 6.786-12.243 12.37-12.243 12.37l-8.373-3.182s10.459-15.251 15.139-24.092z" fill="#fff"/><path d="M63.37 129.775c7.695-6.525 17.282-14.431 18.207-23.884 0 0 6.266-6.985 12.32-13.636 2.702-2.967 5.677-7.278 2.902-15.686" stroke-width="3" stroke-miterlimit="10" stroke="#000"/><path d="M103.298 90.178c-10.292.705-18.245-1.86-22.922-6.744.936-4.917 1.662-6.095 1.286-12.386-.641-10.7-2.144-14.054-2.144-14.054 1.64-1.254 5.55-2.51 9.082-2.384 4.415.158 6.514.92 6.514.92s5.61 22.006 8.184 34.648z" fill="#464BD7"/><path d="M84.69 59.63c.101 7.96-.148 15.512-1.767 21.582C80.11 91.761 71.32 90.26 71.32 90.26V67.66l4.845-3.074s4.235-2.698 8.524-4.957z" fill="#FA3778"/><path d="M83.34 69.008c6.362-3.673 2.908-10.936 2.908-10.936s-3.872 2.492-6.834 4.078c-2.99 1.602 2.017 7.961 3.926 6.858z" fill="#FA3778"/><path d="M55.423 127.766l17.534-26.225" stroke-width="3" stroke-miterlimit="10" stroke="#000"/><path d="M95.328 70.458s9.588 3.636 10.327 16.178l-9.34.545-.987-16.723zM104.703 44.57v18.454l6.04 3.047s.839-4.686.166-11.378c-.58-5.787-3.363-12.13-3.363-12.13l-2.843 2.008z" fill="#464BD7"/><path d="M81.545 54.582l29.005 10.704-.254-6.534s-8.199-5.02-13.371-8.032c-1.192-.692-4.08-2.718-8.957.126a6497.672 6497.672 0 0 1-6.423 3.736z" fill="#464BD7"/><path d="M71.653 82.801L36.25 84.67s-2.271 11.099 2.018 18.629L71.653 82.8z" fill="#E62D73"/><path d="M74.513 56.869l33.975-16.731-.044 4.44-37.19 23.498c-.701-1.395-1.282-8.53 3.26-11.207z" fill="#fff"/><path d="M99.196 77.071l-2.27-15.81" stroke-width="3" stroke-miterlimit="10" stroke="#000"/><path d="M70.787 40.827s5.955-4.537 16.424-7.048c3.153-.756 5.815-.991 6.308 1.13.395 1.702-.883 3.137-4.163 3.89-10.32 2.37-18.569 2.028-18.569 2.028z" fill="#000"/><path d="M85.259 47.383c-1.579 1.533-7.599 3.555-7.599 3.555s-.814-4.293-1.121-7.297c-.556-5.436-.671-8.186 5.425-8.005 3.856.117 6.12.974 6.569 3.02.959 4.37-1.693 7.193-3.274 8.727z" fill="#fff"/><path d="M81.662 45.324l6.181-2.76 4.669 9.452-8.747 4.686-2.103-11.378z" fill="#fff"/><path d="M75.733 40.808s3.532-2.007 7.57-3.43c.84 2.26 3.152 6.567 3.152 6.567l3.197 1.714s2.145-5.312 1.514-8.197c-.544-2.49-2.7-5.978-6.098-6.192-2.61-.166-6.793.745-8.577 3.515-.837 1.297-.828 4.609-.758 6.023z" fill="#000"/><path d="M76.116 38.812l2.518 11.281 5.468-2.092" stroke-width="3" stroke-miterlimit="10" stroke="#000"/><path d="M80.19 36.457l4.626-.752-.588 5.646-2.818 1.295-1.22-6.189z" fill="#000"/><path d="M83.428 41.811c.252-1.632 1.497-2.762 2.692-2.343 1.892.661 1.426 5.373-.673 5.521-1.177.083-2.226-1.844-2.019-3.178z" fill="#fff"/><path d="M75.563 38.465l1.81-9.705 12.74.503-.081 6.512-14.469 2.69z" fill="#000"/><path d="M50.63 103.298s4.289 5.27 8.577 6.524l13.456-23.34-22.034 16.816z" fill="#E62D73"/><path d="M67.745 79.494h7.272s.084-5.308-5.045-6.632c-.925 2.83-2.227 6.632-2.227 6.632zM67.953 42.648c-4.366-1.24-7.334 3.567-7.864 6.315-.408 2.123-.003 3.636 1.514 5.145 2.144 2.133 6.35 5.522 6.35 5.522s2.102-3.138 2.859-4.895c.387-.9.883-2.635 1.18-5.7.306-1.963-1.22-5.585-4.039-6.387z" fill="#fff"/><path d="M80.063 57.873L68.29 45.828l-5.214 3.68 12.616 14.055 4.372-5.688zM104.703 44.112v-7.91s4.117-.006 5.3 2.932c.672 1.673-1.514 5.521-1.514 5.521l-3.786-.543z" fill="#fff"/><path d="M104.873 37.043s5.929-2.636 8.074 1.757l-6.606 3.218-1.468-4.975z" fill="#fff"/><path d="M41.547 74.436l20.436 3.765s1.514-5.773 6.812-8.533M94.696 60.215l17.367 6.442s2.906-7.384.799-18.32" stroke-width="3" stroke-miterlimit="10" stroke="#000"/><g><path d="M80.147 86.86c5.467-11.085 5.467-18.613 5.467-18.613s4.204-4.016 2.018-10.207" stroke-width="3" stroke-miterlimit="10" stroke="#000"/></g><g><path d="M35.87 125.258l4.627 5.176s-4.783 3.873-7.894 3.48c-3.107-.394-1.527-6.272 3.266-8.656z" fill="#000"/></g><g><path d="M107.374 98.84a.932.932 0 1 0 .475 1.226.927.927 0 0 0-.475-1.225zM110.291 92.31a.935.935 0 0 0-1.234.472.93.93 0 0 0 .476 1.228.938.938 0 0 0 1.233-.474.928.928 0 0 0-.475-1.227zM113.207 85.777a.937.937 0 0 0-1.233.473.924.924 0 0 0 .477 1.226.936.936 0 0 0 1.231-.47.928.928 0 0 0-.475-1.229zM115.743 81.023a.93.93 0 0 0 .933-.928.93.93 0 0 0-.933-.928.93.93 0 0 0-.933.928.93.93 0 0 0 .933.928zM118.66 74.491a.932.932 0 0 0 .935-.93.932.932 0 0 0-.934-.93.932.932 0 0 0-.935.93c0 .514.418.93.935.93zM121.956 66.18a.935.935 0 0 0-1.233.472.929.929 0 0 0 .473 1.228.939.939 0 0 0 1.235-.475.927.927 0 0 0-.475-1.226zM124.874 59.648a.934.934 0 0 0-1.233.472.925.925 0 0 0 .474 1.226.936.936 0 0 0 1.234-.472.924.924 0 0 0-.475-1.226z" fill="#000"/><g><path d="M111.566 106.354a.931.931 0 0 0 .934-.929.931.931 0 0 0-.934-.929.931.931 0 0 0-.934.929c0 .513.418.929.934.929zM114.863 98.044a.935.935 0 0 0-1.233.471.925.925 0 0 0 .475 1.226.932.932 0 0 0 1.233-.472.923.923 0 0 0-.475-1.225zM117.78 91.509a.936.936 0 0 0-1.232.475.927.927 0 0 0 .473 1.226.935.935 0 0 0 1.231-.472.929.929 0 0 0-.473-1.23zM120.697 84.979a.93.93 0 1 0-.76 1.7.937.937 0 0 0 1.233-.475.926.926 0 0 0-.473-1.225zM123.612 78.447a.93.93 0 1 0-.758 1.697.936.936 0 0 0 1.233-.473.923.923 0 0 0-.475-1.224zM126.527 71.914a.937.937 0 0 0-1.233.471.934.934 0 1 0 1.71.755.925.925 0 0 0-.477-1.226zM129.066 67.158a.931.931 0 0 0 .934-.929.931.931 0 0 0-.934-.929.931.931 0 0 0-.934.93c0 .512.418.928.934.928z" fill="#000"/></g><g><path d="M95.458 93.58a.934.934 0 0 0-1.231.47.929.929 0 0 0 .473 1.23.938.938 0 0 0 1.235-.475.925.925 0 0 0-.477-1.226zM97.998 88.826a.932.932 0 0 0 .934-.93.932.932 0 0 0-.934-.93.932.932 0 0 0-.935.93c0 .513.418.93.935.93zM101.29 80.512a.936.936 0 0 0-1.231.474.925.925 0 0 0 .477 1.225.93.93 0 1 0 .755-1.7zM104.207 73.983a.935.935 0 0 0-1.233.47.937.937 0 0 0 1.712.756.927.927 0 0 0-.479-1.226zM107.125 67.447a.94.94 0 0 0-1.233.475.926.926 0 0 0 .475 1.225.932.932 0 1 0 .758-1.7zM110.043 60.916a.935.935 0 0 0-1.233.473c-.21.47 0 1.018.473 1.227a.938.938 0 0 0 1.235-.473.928.928 0 0 0-.475-1.227zM112.958 54.384a.935.935 0 0 0-1.232.47.927.927 0 0 0 .474 1.229.94.94 0 0 0 1.235-.472.927.927 0 0 0-.477-1.227z" fill="#000"/></g><g><path d="M99.653 101.093a.933.933 0 0 0 .935-.93.933.933 0 0 0-.935-.931.933.933 0 0 0-.936.93c0 .514.419.93.936.93zM102.95 92.78a.931.931 0 1 0-.76 1.701.941.941 0 0 0 1.235-.475.928.928 0 0 0-.476-1.227zM105.866 86.245a.937.937 0 0 0-1.233.475c-.21.467.001 1.019.474 1.227a.938.938 0 0 0 1.234-.472.932.932 0 0 0-.475-1.23zM108.4 81.492a.931.931 0 0 0 .935-.93.931.931 0 0 0-.934-.928.931.931 0 0 0-.934.929c0 .513.418.929.934.929zM111.698 73.183a.935.935 0 0 0-1.231.47.926.926 0 0 0 .473 1.228.94.94 0 0 0 1.236-.473.93.93 0 0 0-.478-1.225zM114.614 66.65a.937.937 0 0 0-1.234.472.927.927 0 0 0 .477 1.226.93.93 0 1 0 .757-1.698zM117.53 60.12a.935.935 0 0 0-1.233.471.926.926 0 0 0 .478 1.225.934.934 0 0 0 1.231-.47.927.927 0 0 0-.477-1.226z" fill="#000"/></g><g><path d="M88.117 94.05a.929.929 0 1 0-.756 1.7.934.934 0 0 0 1.23-.473.925.925 0 0 0-.474-1.227zM90.655 89.296a.932.932 0 0 0 .935-.93.932.932 0 0 0-.935-.93.932.932 0 0 0-.935.93c0 .514.419.93.935.93zM93.95 80.985a.93.93 0 1 0-.758 1.7.936.936 0 0 0 1.233-.474.924.924 0 0 0-.474-1.226zM96.49 76.23a.932.932 0 0 0 .934-.929.932.932 0 0 0-.934-.93.932.932 0 0 0-.935.93c0 .514.418.93.935.93zM99.783 67.92a.931.931 0 0 0-1.23.472c-.21.469 0 1.018.474 1.225a.937.937 0 0 0 1.235-.472.93.93 0 0 0-.479-1.226zM102.7 61.387a.936.936 0 0 0-1.233.473.928.928 0 0 0 .476 1.225.936.936 0 0 0 1.234-.474.928.928 0 0 0-.476-1.224zM105.237 56.633a.931.931 0 0 0 .934-.929.931.931 0 0 0-.934-.929.931.931 0 0 0-.934.93c0 .512.418.928.934.928z" fill="#000"/></g><g><path d="M87.49 64.434a.93.93 0 0 0 .934-.928.93.93 0 0 0-.933-.929.93.93 0 0 0-.933.929.93.93 0 0 0 .933.928zM90.786 56.123a.935.935 0 0 0-1.233.475.926.926 0 0 0 .475 1.225.939.939 0 0 0 1.234-.473.931.931 0 0 0-.476-1.227z" fill="#000"/></g><g><path d="M83.545 88.316a.932.932 0 1 0-.76 1.7.94.94 0 0 0 1.237-.475.925.925 0 0 0-.477-1.225zM86.462 81.783a.93.93 0 0 0-1.23.473.92.92 0 0 0 .473 1.224.929.929 0 1 0 .757-1.698zM89.377 75.251a.933.933 0 0 0-1.231.474.922.922 0 0 0 .476 1.222.929.929 0 0 0 .755-1.696zM92.295 68.72a.933.933 0 0 0-1.232.47.933.933 0 0 0 1.706.755.924.924 0 0 0-.474-1.224zM95.211 62.184a.931.931 0 1 0-.758 1.703.938.938 0 0 0 1.235-.474.929.929 0 0 0-.477-1.229zM98.127 55.654a.935.935 0 0 0-1.231.471.935.935 0 0 0 1.71.755.925.925 0 0 0-.479-1.226zM100.665 50.9a.932.932 0 0 0 .935-.93.932.932 0 0 0-.935-.93.932.932 0 0 0-.934.93c0 .514.418.93.934.93z" fill="#000"/></g></g><g><path d="M59.88 43.315c-1.85 1.674-3.364 5.269-4.205 8.448h8.93c3.18 0 7.553-1.085 8.477-3.177.592-1.338-2.102-6.106-5.298-7.026-3.867-1.114-6.271.279-7.903 1.755z" fill="#000"/></g><g><path d="M68.29 52.717c2.154 0 3.9-1.737 3.9-3.88 0-2.141-1.746-3.878-3.9-3.878-2.153 0-3.9 1.737-3.9 3.879s1.747 3.879 3.9 3.879z" fill="#FA3778"/></g><g><path d="M84.437 107.396l15.138-8.7-5.55-5.855" stroke-width="3" stroke-miterlimit="10" stroke="#000"/></g><g><path d="M104.389 33.613v11.211s4.603-1.506 4.603-5.856c0-4.517-4.603-5.355-4.603-5.355z" fill="#fff"/></g><g><path d="M79.054 63.73l24.557-15.392" stroke-width="3" stroke-miterlimit="10" stroke="#000"/></g></g></symbol><symbol viewBox="0 0 111 108" id="icon5" xmlns="http://www.w3.org/2000/svg"><g fill="none"><path d="M94.19 44.567c-2.677-8.113-6.658-10.716-13.519-10.716H70.636l-.369 19.41 16.55 5.936-.41 5.352H70.053l-.716 37.784 40.42-8.791S99.379 60.297 94.19 44.567z" fill="#46B4BE"/><path d="M111 68.092s-2.092-14.787-16.102-14.506c-7.585.154-16.807.846-16.807.846v13.66H111z" fill="#46B4BE"/><path d="M66.33 54.823l-.206-.16c-1.579-1.241-2.001-3.552-.973-5.266l.142-.233c.25-.416.335-.947.237-1.485-.098-.537-.368-1.002-.757-1.308l-.207-.163c-.75-.585-1.266-1.455-1.448-2.447-.182-.995-.01-1.992.484-2.812l.136-.227c.53-.881.294-2.163-.515-2.798l-.203-.16c-1.572-1.238-1.997-3.547-.969-5.26l.142-.234c.25-.416.337-.947.237-1.486-.098-.54-.366-1.003-.753-1.306l-.21-.165c-.75-.586-1.265-1.456-1.45-2.449-.18-.988-.01-1.985.483-2.807l.14-.23c.266-.445.346-1.026.219-1.588l2.457-.568c.278 1.215.093 2.447-.518 3.469l-.14.23c-.172.287-.23.654-.16 1.033.07.378.254.702.517.909l.21.165c.877.684 1.475 1.696 1.686 2.848.21 1.15.01 2.31-.565 3.265l-.141.231c-.356.595-.188 1.507.366 1.943l.201.158c1.829 1.435 2.321 4.12 1.125 6.114l-.137.228c-.174.288-.231.657-.161 1.038.069.377.253.699.517.905l.21.165c.876.688 1.474 1.699 1.685 2.847.21 1.147.01 2.307-.562 3.263l-.143.234c-.357.595-.19 1.506.365 1.942l.196.153-1.537 2.012zM74.948 93.91l-2.16-1.31c.256-.426.341-.956.243-1.495-.098-.537-.368-1.002-.757-1.308l-.207-.162c-.75-.586-1.265-1.456-1.448-2.447-.181-.997-.009-1.995.485-2.813l.133-.223c.53-.884.295-2.166-.513-2.802l-.205-.16c-1.57-1.237-1.994-3.546-.966-5.26l.14-.23c.252-.42.338-.95.239-1.49-.099-.538-.367-1.002-.754-1.305l-.211-.166c-.75-.585-1.264-1.455-1.448-2.448-.181-.99-.01-1.987.483-2.809l.136-.227c.269-.448.35-1.028.222-1.59l2.458-.568c.277 1.216.092 2.447-.52 3.47l-.137.227c-.174.29-.23.657-.161 1.035.07.379.255.703.518.91l.212.165c.873.684 1.472 1.696 1.683 2.847.21 1.15.01 2.31-.565 3.265l-.14.23c-.357.598-.19 1.51.365 1.945l.203.16c1.826 1.432 2.32 4.116 1.122 6.111l-.134.225c-.176.292-.233.66-.163 1.041.069.376.253.699.517.905l.21.165c.875.687 1.474 1.699 1.685 2.845.209 1.151.009 2.31-.565 3.267z" fill="#000"/><path d="M59.529 21.566l9.806 4.229 1.681-4.229-3.432-1.762-5.464-4.44-2.591 6.202z" fill="#000"/><path d="M49.84 45.417a33.164 33.164 0 0 0-10.315 2.827l8.67 16.45-6.095 6.554-19.22-6.308a33.802 33.802 0 0 0-3.039 14.044c0 1.865.157 3.693.447 5.479l35.027 11.145 9.38-6.043L49.84 45.417z" fill="#464BD7"/><path d="M34.237 39.677l-27.82 8.628v-37.31l28.094 4.792-.274 23.89z" fill="#FFB946"/><path d="M49.786 100.394l-1.314-2.166 14.042-8.631-7.655-55.233h-8.806l-1.394-7.468-3.445-1.49 3.439-7.75c.079-.69.355-3.01.7-4.783l2.475.487c-.381 1.96-.689 4.746-.691 4.774l-.022.197-2.556 5.761 2.329 1.007 1.257 6.728h8.908l8.185 59.066-15.452 9.501z" fill="#000"/><path d="M43.025 58.323l-15.68-14.29h-4.416v-2.537h5.388l14.353 13.08 12.825-17.16 2.016 1.525-14.486 19.382z" fill="#000"/><path d="M43.879 78.255l-17.47-23.237 2.012-1.531 15.577 20.72 14.309-16.862 1.918 1.646L43.88 78.255zM85.518 35.32h-16.13L66.737 22.08l2.472-.5 2.243 11.201h14.066v2.537zM18.499 50.745c-2.857-2.09-3.487-4.987-3.586-6.712h-4.236v-2.537h6.98l-.21 1.452c-.018.138-.44 3.57 2.535 5.745l-1.483 2.052zM37.312 38.408H14.797l-3.592-18.053h14.02v2.537H14.282l2.582 12.979h20.448v2.537z" fill="#000"/><path d="M0 38.666V20.162l9.273 4.49-1.094 2.287-5.657-2.74v10.428l5.916-2.866h6.495v2.537H9.015L0 38.666zM24.727 21.42c-.168 0-.336-.005-.506-.015a8.925 8.925 0 0 1-6.214-3 9.026 9.026 0 0 1-2.284-6.539c.274-4.987 4.539-8.809 9.484-8.548 1.44.08 2.8.49 4.04 1.216l-1.272 2.192a6.384 6.384 0 0 0-2.906-.874c-3.548-.203-6.631 2.562-6.827 6.153a6.496 6.496 0 0 0 1.643 4.707 6.425 6.425 0 0 0 4.473 2.16 6.438 6.438 0 0 0 4.679-1.653 6.491 6.491 0 0 0 2.147-4.498l2.518.139a9.019 9.019 0 0 1-2.982 6.249 8.9 8.9 0 0 1-5.993 2.31z" fill="#000"/><path d="M24.714 33.202c3.36 0 6.083-2.74 6.083-6.12s-2.723-6.12-6.083-6.12c-3.36 0-6.084 2.74-6.084 6.12s2.724 6.12 6.084 6.12zM34.774 31.906l-2.54-11.828h9.153v2.537h-6.03l1.881 8.757-2.464.534zM33.561 47.865l-6.76 6.8L43.94 75.684l14.747-17.586-2.047-20.331L42.847 55.9l-9.286-8.036zM82.893 63.956H67.425v2.537h15.468v-2.537zM72.706 23.028c-2.273 0-4.472-.743-6.312-2.153l-11.86-8.753 1.493-2.045 11.877 8.767c1.703 1.306 3.789 1.862 5.885 1.573a7.855 7.855 0 0 0 4.376-2.097l-2.844-2.068 1.478-2.057 5.024 3.654-.783 1.035a10.37 10.37 0 0 1-6.913 4.048c-.475.064-.95.096-1.421.096zM22.855 61.688l-7.872-3.16 3.934-10.51 2.36.894-3.063 8.182 3.16 1.268.76-2.11 2.371.866-1.65 4.57zM61.29 0H55.9v2.537h5.39V0zM98.493 89.844L94.01 70.38h15.317v2.537H97.183l3.766 16.353-2.456.573z" fill="#000"/><path d="M60.291 25.608c3.676 0 6.657-2.998 6.657-6.696 0-3.699-2.98-6.697-6.657-6.697-3.676 0-6.657 2.998-6.657 6.697 0 3.698 2.98 6.697 6.657 6.697zM75.96 66.441c-4.588 0-7.341-4.982-7.457-5.194l2.213-1.217c.02.039 2.16 3.874 5.243 3.874v2.537zM47.898 18.534l3.428 1.847-3.428 1.76v-3.607zM51.04 59.747l7.1-9.066 6.009 38.464-1.093.825L51.04 59.746zM89.113 92.234a.992.992 0 0 0 .989-.994.992.992 0 0 0-.989-.995.992.992 0 0 0-.988.995c0 .549.442.994.988.994zM89.113 84.584c.547 0 .99-.445.99-.995a.992.992 0 0 0-.99-.995.992.992 0 0 0-.989.995c0 .55.443.995.99.995zM89.113 74.942a.994.994 0 0 0-.989.998c0 .546.441.994.99.994a.992.992 0 0 0 .987-.994.993.993 0 0 0-.988-.998zM89.113 69.283c.547 0 .99-.446.99-.995a.992.992 0 0 0-.99-.996.992.992 0 0 0-.989.996c0 .55.443.995.99.995zM89.113 61.632a.99.99 0 0 0 .988-.994.99.99 0 0 0-.988-.993.99.99 0 0 0-.987.993.99.99 0 0 0 .987.994zM89.113 53.982a.992.992 0 0 0 .989-.994.992.992 0 0 0-.989-.995.992.992 0 0 0-.988.995c0 .549.442.994.988.994zM89.113 44.344a.99.99 0 0 0-.989.995.99.99 0 1 0 1.977 0 .99.99 0 0 0-.988-.995zM89.113 38.682c.547 0 .99-.446.99-.997a.993.993 0 0 0-.99-.996.993.993 0 0 0-.99.996c0 .55.443.997.99.997z" fill="#000"/><g><path d="M96.01 86.227a.993.993 0 0 0-.988.995c0 .549.442.997.989.997.546 0 .989-.447.989-.997a.994.994 0 0 0-.99-.995zM96.01 78.578a.99.99 0 0 0-.988.992c0 .55.442 1 .989 1 .546 0 .989-.45.989-1a.99.99 0 0 0-.99-.992zM96.01 72.916c.547 0 .99-.446.99-.995a.992.992 0 0 0-.99-.996.992.992 0 0 0-.989.996c0 .55.443.995.99.995zM96.01 65.263a.99.99 0 0 0 .988-.993.99.99 0 0 0-.988-.994.99.99 0 0 0-.988.994.99.99 0 0 0 .988.993zM96.01 57.615a.992.992 0 0 0 .99-.994.992.992 0 0 0-.99-.995.992.992 0 0 0-.988.995c0 .549.443.994.989.994zM96.01 49.965c.547 0 .99-.445.99-.995a.992.992 0 0 0-.99-.995.992.992 0 0 0-.989.995c0 .55.443.995.99.995zM96.01 42.315a.992.992 0 0 0 .99-.995.992.992 0 0 0-.99-.994.992.992 0 0 0-.988.994c0 .55.443.995.989.995z" fill="#000"/></g><g><path d="M75.317 92.234a.992.992 0 0 0 .988-.994.992.992 0 0 0-.988-.995.992.992 0 0 0-.989.995c0 .549.443.994.989.994zM75.317 84.584c.546 0 .99-.445.99-.995a.992.992 0 0 0-.99-.995.992.992 0 0 0-.99.995c0 .55.444.995.99.995zM75.317 74.942a.994.994 0 0 0-.99.998c0 .546.442.994.99.994a.993.993 0 0 0 .989-.994.994.994 0 0 0-.989-.998zM75.317 69.283c.546 0 .99-.446.99-.995a.992.992 0 0 0-.99-.996.992.992 0 0 0-.99.996c0 .55.444.995.99.995zM75.317 53.982a.992.992 0 0 0 .988-.994.992.992 0 0 0-.988-.995.992.992 0 0 0-.989.995c0 .549.443.994.989.994zM75.317 44.344a.99.99 0 0 0-.99.995.99.99 0 1 0 1.979 0 .99.99 0 0 0-.989-.995zM75.317 38.682c.547 0 .99-.446.99-.997a.993.993 0 0 0-.99-.996.993.993 0 0 0-.99.996c0 .55.443.997.99.997z" fill="#000"/></g><g><path d="M82.214 86.227a.993.993 0 0 0-.989.995c0 .549.441.997.99.997a.993.993 0 0 0 .988-.997.993.993 0 0 0-.989-.995zM82.214 80.568c.547 0 .99-.445.99-.995a.992.992 0 0 0-.99-.995.992.992 0 0 0-.989.995c0 .55.443.995.99.995zM82.214 72.916c.547 0 .99-.446.99-.995a.992.992 0 0 0-.99-.996.992.992 0 0 0-.989.996c0 .55.443.995.99.995zM82.215 57.615a.992.992 0 0 0 .988-.994.992.992 0 0 0-.988-.995.992.992 0 0 0-.989.995c0 .549.443.994.989.994zM82.214 49.965c.547 0 .99-.445.99-.995a.992.992 0 0 0-.99-.995.992.992 0 0 0-.989.995c0 .55.443.995.99.995zM82.215 42.315a.992.992 0 0 0 .988-.995.992.992 0 0 0-.988-.994.992.992 0 0 0-.989.994c0 .55.443.995.989.995z" fill="#000"/></g><g><path d="M68.417 86.227a.993.993 0 0 0-.988.995c0 .549.442.997.988.997.547 0 .99-.447.99-.997a.994.994 0 0 0-.99-.995zM68.417 78.578a.989.989 0 0 0-.988.992c0 .55.442 1 .988 1 .547 0 .99-.45.99-1a.99.99 0 0 0-.99-.992zM68.417 72.916c.547 0 .99-.446.99-.995a.992.992 0 0 0-.99-.996.992.992 0 0 0-.99.996c0 .55.444.995.99.995z" fill="#000"/></g><g><path d="M53.77 108a.992.992 0 0 0 .989-.995.992.992 0 0 0-.989-.994.992.992 0 0 0-.988.994c0 .55.442.995.988.995zM53.77 98.36a.991.991 0 0 0-.988.995c0 .547.441.997.988.997.547 0 .989-.45.989-.997a.991.991 0 0 0-.989-.996zM53.77 90.708a.993.993 0 0 0-.988.998c0 .546.441.994.988.994a.992.992 0 0 0 .989-.994.993.993 0 0 0-.989-.998zM53.77 83.059a.993.993 0 0 0-.988.994c0 .55.441.997.988.997a.991.991 0 0 0 .989-.997.993.993 0 0 0-.989-.994zM53.77 77.397a.99.99 0 0 0 .988-.994.99.99 0 0 0-.988-.993.99.99 0 0 0-.987.993.99.99 0 0 0 .987.994zM53.77 69.747a.992.992 0 0 0 .989-.994.992.992 0 0 0-.989-.995.992.992 0 0 0-.988.995c0 .549.442.994.988.994zM53.77 62.096a.99.99 0 0 0 .988-.993.99.99 0 0 0-.988-.994.99.99 0 0 0-.987.994.99.99 0 0 0 .987.993zM53.77 54.448c.547 0 .99-.446.99-.996a.993.993 0 0 0-.99-.996.993.993 0 0 0-.99.996c0 .55.444.996.99.996z" fill="#000"/><g><path d="M60.669 101.992a.993.993 0 0 0-.99.995c0 .55.442.997.99.997.547 0 .989-.447.989-.997a.994.994 0 0 0-.99-.995zM60.669 96.334c.546 0 .989-.446.989-.995a.992.992 0 0 0-.99-.996.992.992 0 0 0-.989.996c0 .55.443.995.99.995zM60.669 88.682c.546 0 .989-.446.989-.996a.992.992 0 0 0-.99-.995.992.992 0 0 0-.989.995c0 .55.443.996.99.996zM60.668 81.03a.99.99 0 0 0 .988-.994.99.99 0 0 0-.988-.994.99.99 0 0 0-.987.994.99.99 0 0 0 .987.993zM60.668 73.38a.99.99 0 0 0 .988-.994.99.99 0 0 0-.988-.993.99.99 0 0 0-.987.993.99.99 0 0 0 .987.994zM60.669 63.74a.993.993 0 0 0-.99.997c0 .547.442.995.99.995.547 0 .989-.447.989-.995a.993.993 0 0 0-.99-.997zM60.669 56.09a.99.99 0 0 0-.99.996c0 .548.442.994.99.994.547 0 .989-.445.989-.994a.99.99 0 0 0-.99-.995z" fill="#000"/></g><g><path d="M39.974 108a.992.992 0 0 0 .989-.995.992.992 0 0 0-.989-.994.992.992 0 0 0-.988.994c0 .55.442.995.988.995zM39.975 98.36a.992.992 0 0 0-.99.995c0 .547.442.997.99.997.545 0 .988-.45.988-.997a.992.992 0 0 0-.988-.996zM39.975 90.708a.994.994 0 0 0-.99.998c0 .546.442.994.99.994a.993.993 0 0 0 .988-.994.994.994 0 0 0-.988-.998zM39.975 83.059a.993.993 0 0 0-.99.994c0 .55.442.997.99.997a.992.992 0 0 0 .988-.997.994.994 0 0 0-.988-.994zM39.975 77.397a.99.99 0 0 0 .987-.994.99.99 0 0 0-.987-.993.99.99 0 0 0-.988.993.99.99 0 0 0 .988.994zM39.974 69.747a.992.992 0 0 0 .989-.994.992.992 0 0 0-.989-.995.992.992 0 0 0-.988.995c0 .549.442.994.988.994zM39.975 62.096a.99.99 0 0 0 .987-.993.99.99 0 0 0-.987-.994.99.99 0 0 0-.988.994.99.99 0 0 0 .988.993zM39.975 54.448c.547 0 .99-.446.99-.996a.993.993 0 0 0-.99-.996.993.993 0 0 0-.99.996c0 .55.443.996.99.996z" fill="#000"/></g><g><path d="M46.872 101.992a.993.993 0 0 0-.989.995c0 .55.442.997.989.997a.993.993 0 0 0 .988-.997.993.993 0 0 0-.988-.995zM46.872 96.334c.546 0 .99-.446.99-.995a.992.992 0 0 0-.99-.996.992.992 0 0 0-.99.996c0 .55.443.995.99.995zM46.872 88.682c.546 0 .99-.446.99-.996a.992.992 0 0 0-.99-.995.992.992 0 0 0-.99.995c0 .55.443.996.99.996zM46.871 81.03a.99.99 0 0 0 .988-.994.99.99 0 0 0-.988-.994.99.99 0 0 0-.987.994.99.99 0 0 0 .988.993zM46.871 73.38a.99.99 0 0 0 .988-.994.99.99 0 0 0-.988-.993.99.99 0 0 0-.987.993.99.99 0 0 0 .988.994zM46.872 63.74a.993.993 0 0 0-.989.997c0 .547.442.995.989.995a.992.992 0 0 0 .988-.995.993.993 0 0 0-.988-.997zM46.872 56.09a.99.99 0 0 0-.989.996c0 .548.442.994.989.994a.991.991 0 0 0 .988-.994.99.99 0 0 0-.988-.995z" fill="#000"/></g><g><path d="M33.075 101.992a.993.993 0 0 0-.988.995c0 .55.441.997.988.997.547 0 .989-.447.989-.997a.994.994 0 0 0-.99-.995zM33.075 94.343a.989.989 0 0 0-.988.993c0 .55.441.999.988.999.547 0 .989-.45.989-.999a.99.99 0 0 0-.99-.993zM33.075 88.682c.546 0 .99-.446.99-.996a.992.992 0 0 0-.99-.995.992.992 0 0 0-.99.995c0 .55.443.996.99.996zM33.075 81.03a.99.99 0 0 0 .987-.994.99.99 0 0 0-.987-.994.99.99 0 0 0-.988.994.99.99 0 0 0 .988.993zM33.075 73.38a.99.99 0 0 0 .987-.994.99.99 0 0 0-.987-.993.99.99 0 0 0-.988.993.99.99 0 0 0 .988.994zM33.075 63.74a.992.992 0 0 0-.988.997c0 .547.441.995.988.995.547 0 .989-.447.989-.995a.993.993 0 0 0-.99-.997zM33.075 56.09a.99.99 0 0 0-.988.996c0 .548.441.994.988.994.547 0 .989-.445.989-.994a.99.99 0 0 0-.99-.995z" fill="#000"/></g><g><path d="M19.279 101.992a.993.993 0 0 0-.988.995c0 .55.44.997.988.997s.99-.447.99-.997a.993.993 0 0 0-.99-.995zM19.279 94.343a.989.989 0 0 0-.988.993c0 .55.44.999.988.999s.99-.45.99-.999a.99.99 0 0 0-.99-.993zM19.279 86.69a.991.991 0 0 0-.988.997c0 .549.44.995.988.995s.99-.445.99-.995a.992.992 0 0 0-.99-.996zM19.279 79.042a.992.992 0 0 0-.988.996.989.989 0 1 0 1.977 0 .992.992 0 0 0-.989-.996zM19.279 71.393a.99.99 0 0 0-.988.993c0 .55.44.995.988.995a.99.99 0 0 0 .99-.995.99.99 0 0 0-.99-.993zM19.279 63.74a.993.993 0 0 0-.988.997c0 .547.44.995.988.995s.99-.447.99-.995a.993.993 0 0 0-.99-.997zM19.279 56.09a.99.99 0 0 0-.988.996c0 .548.44.994.988.994s.99-.445.99-.994a.99.99 0 0 0-.99-.995z" fill="#000"/></g><g><path d="M26.177 106.01a.99.99 0 0 0-.986.995c0 .55.44.995.986.995a.992.992 0 0 0 .991-.995.994.994 0 0 0-.991-.995zM26.177 98.36a.99.99 0 0 0-.986.995c0 .547.44.997.986.997.548 0 .991-.45.991-.997a.993.993 0 0 0-.991-.996zM26.177 90.708a.992.992 0 0 0-.986.998c0 .546.44.994.986.994a.994.994 0 0 0 .991-.994.995.995 0 0 0-.991-.998zM26.177 83.059a.991.991 0 0 0-.986.994c0 .55.44.997.986.997a.993.993 0 0 0 .991-.997.994.994 0 0 0-.991-.994zM26.177 75.41a.987.987 0 0 0-.986.993.989.989 0 1 0 1.977 0 .99.99 0 0 0-.991-.993zM26.177 67.758a.99.99 0 0 0-.986.995.988.988 0 1 0 1.977 0 .992.992 0 0 0-.991-.995zM26.177 60.11a.988.988 0 0 0-.986.994c0 .551.44.993.986.993a.99.99 0 0 0 .991-.993.991.991 0 0 0-.991-.995zM26.177 52.455a.992.992 0 0 0-.986.997c0 .548.44.996.986.996a.994.994 0 0 0 .991-.996.995.995 0 0 0-.991-.997z" fill="#000"/></g></g><g><path d="M58.48 2.11c-4.108 0-7.784 1.849-10.257 4.758l1.046 5.873h-3.944c-.214.947-.34 1.928-.34 2.942h26.989c0-7.497-6.043-13.574-13.494-13.574z" fill="#000"/></g></g></symbol><symbol viewBox="0 0 97 98" id="icon6" xmlns="http://www.w3.org/2000/svg"><g fill="none"><path d="M36.896 27.747l-5.67 2.565-14.784-3.636L12.24 0h32.022l-7.366 27.747z" fill="#46B4BE"/><path d="M74.685 74.919l-44.396-1.703L23.69 98l54.907-6.16-3.912-16.921z" fill="#FFB946"/><path d="M13.524 66.974L4.794 88.35h46.19L37.678 66.974H13.524z" fill="#464BD7"/><path d="M36.734 86.111l7.265-36.228-9.816-15.865H23.581s9.394 12.144 6.764 32.778H17.147l.176 19.315h19.41z" fill="#464BD7"/><path d="M35.19 66.632H7.482s1.044-2.139 3.052-5.836c2.626-4.84 9.592-7.255 14.71-5.872 7.215 1.95 16.156 3.738 16.156 3.738l-6.208 7.97z" fill="#464BD7"/><path d="M57.4 7.946l21.298-4.351 4.266 60.367-26.44-6.26-4.76-20.242L57.4 7.945z" fill="#46B4BE"/><path d="M84.83 55.432L72.556 36.01l-11.023-4.415 8.08 31.764h15.105l.112-7.927z" fill="#fff"/><path d="M11.592 40.866c.502 0 .908-.41.908-.914a.911.911 0 0 0-.908-.915.911.911 0 0 0-.907.915c0 .504.406.914.907.914zM18.738 43.302a.903.903 0 0 1-1.206.442.917.917 0 0 1-.44-1.213.906.906 0 0 1 1.205-.442.914.914 0 0 1 .44 1.213zM25.062 46.268a.905.905 0 0 1-1.206.442.918.918 0 0 1-.44-1.214.906.906 0 0 1 1.206-.442.917.917 0 0 1 .44 1.214zM31.384 49.233a.905.905 0 0 1-1.205.442.917.917 0 0 1-.44-1.214.904.904 0 0 1 1.206-.44c.452.211.65.754.44 1.212zM36.886 52.725a.91.91 0 0 0 .906-.913.91.91 0 0 0-.906-.912.91.91 0 0 0-.907.912.91.91 0 0 0 .907.913zM18.406 36.119a.906.906 0 0 1-1.205.442.917.917 0 0 1-.44-1.214.906.906 0 0 1 1.207-.44c.451.21.65.754.438 1.212zM24.73 39.083a.903.903 0 0 1-1.205.444.918.918 0 0 1-.442-1.215.907.907 0 0 1 1.208-.44c.455.213.65.754.438 1.211zM30.232 42.577a.91.91 0 0 0 .907-.913.91.91 0 0 0-.907-.913.91.91 0 0 0-.907.913.91.91 0 0 0 .907.913zM36.555 45.54c.5 0 .906-.408.906-.912a.909.909 0 0 0-.906-.912c-.5 0-.906.409-.906.912 0 .504.406.912.906.912zM6.249 52.418a.91.91 0 0 0 .907-.913.91.91 0 0 0-.907-.914.91.91 0 0 0-.907.914.91.91 0 0 0 .907.913zM12.572 55.382c.502 0 .908-.409.908-.914a.911.911 0 0 0-.908-.914.911.911 0 0 0-.907.914c0 .505.406.914.907.914zM19.72 57.82a.904.904 0 0 1-1.207.44.915.915 0 0 1-.44-1.212.905.905 0 0 1 1.206-.443.917.917 0 0 1 .44 1.215zM25.22 61.313a.91.91 0 0 0 .907-.913.91.91 0 0 0-.907-.914.91.91 0 0 0-.907.914.91.91 0 0 0 .907.913zM31.543 64.278a.91.91 0 0 0 .907-.913.91.91 0 0 0-.907-.914.91.91 0 0 0-.907.914.91.91 0 0 0 .907.913zM12.242 48.198c.501 0 .908-.41.908-.914a.911.911 0 0 0-.908-.914.911.911 0 0 0-.908.914c0 .505.406.914.908.914zM19.387 50.635a.903.903 0 0 1-1.203.444.92.92 0 0 1-.443-1.216.907.907 0 0 1 1.208-.44c.454.213.65.755.438 1.212zM24.889 54.129a.91.91 0 0 0 .907-.914.91.91 0 0 0-.907-.913.91.91 0 0 0-.907.913.91.91 0 0 0 .907.914zM31.213 57.093a.91.91 0 0 0 .906-.913.91.91 0 0 0-.906-.913.91.91 0 0 0-.907.913.91.91 0 0 0 .907.913zM6.899 59.751c.5 0 .907-.409.907-.914a.911.911 0 0 0-.907-.914.911.911 0 0 0-.908.914c0 .505.406.914.908.914zM14.044 62.189a.902.902 0 0 1-1.202.442.92.92 0 0 1-.444-1.215.907.907 0 0 1 1.209-.441c.455.213.65.754.437 1.214zM19.546 65.68a.91.91 0 0 0 .907-.912.91.91 0 0 0-.907-.913.91.91 0 0 0-.906.913.91.91 0 0 0 .906.913zM26.691 68.119a.904.904 0 0 1-1.204.441.912.912 0 0 1-.438-1.212.903.903 0 0 1 1.203-.444c.454.213.65.755.44 1.215zM1.557 71.302a.91.91 0 0 0 .907-.913.91.91 0 0 0-.907-.913.91.91 0 0 0-.908.913.91.91 0 0 0 .908.913zM8.702 73.74a.904.904 0 0 1-1.204.443.919.919 0 0 1-.443-1.215.907.907 0 0 1 1.209-.442c.455.213.65.754.438 1.213zM15.026 76.705a.904.904 0 0 1-1.205.441.915.915 0 0 1-.44-1.212.903.903 0 0 1 1.206-.443.915.915 0 0 1 .44 1.214zM21.348 79.67a.905.905 0 0 1-1.204.442.913.913 0 0 1-.438-1.213.901.901 0 0 1 1.203-.443.916.916 0 0 1 .44 1.214zM1.73 63.441a.903.903 0 0 1-1.205.44.915.915 0 0 1-.44-1.212.904.904 0 0 1 1.206-.443.917.917 0 0 1 .438 1.215zM8.054 66.406a.901.901 0 0 1-1.205.44.914.914 0 0 1-.441-1.212.906.906 0 0 1 1.206-.442.915.915 0 0 1 .44 1.214zM14.378 69.373a.905.905 0 0 1-1.206.44.916.916 0 0 1-.44-1.213.905.905 0 0 1 1.205-.444.919.919 0 0 1 .44 1.217zM20.7 72.337a.904.904 0 0 1-1.205.44.914.914 0 0 1-.44-1.211.905.905 0 0 1 1.205-.444.918.918 0 0 1 .44 1.215zM27.023 75.302a.902.902 0 0 1-1.204.442.916.916 0 0 1-.44-1.213.907.907 0 0 1 1.206-.444c.454.214.65.755.438 1.215z" fill="#000"/><g><path d="M69.9 13.387c.5 0 .907-.41.907-.914a.911.911 0 0 0-.907-.914.911.911 0 0 0-.908.914c0 .505.406.914.908.914zM77.045 15.824a.903.903 0 0 1-1.205.442.917.917 0 0 1-.44-1.214.906.906 0 0 1 1.205-.441.914.914 0 0 1 .44 1.213zM83.37 18.79a.905.905 0 0 1-1.207.442.918.918 0 0 1-.44-1.214.906.906 0 0 1 1.206-.442.917.917 0 0 1 .44 1.214zM83.036 11.605a.903.903 0 0 1-1.204.443.918.918 0 0 1-.442-1.214.907.907 0 0 1 1.208-.44c.455.213.65.753.438 1.21z" fill="#000"/><g><path d="M70.88 27.905c.5 0 .907-.41.907-.915a.911.911 0 0 0-.907-.914.911.911 0 0 0-.908.914c0 .505.406.915.908.915zM78.026 30.342a.904.904 0 0 1-1.206.44.915.915 0 0 1-.44-1.212.905.905 0 0 1 1.206-.443.916.916 0 0 1 .44 1.215z" fill="#000"/></g><g><path d="M70.549 20.72c.501 0 .908-.41.908-.914a.911.911 0 0 0-.908-.914.911.911 0 0 0-.908.914c0 .505.407.914.908.914zM77.694 23.158a.903.903 0 0 1-1.203.443.92.92 0 0 1-.443-1.216.907.907 0 0 1 1.208-.44c.454.212.65.755.438 1.213zM83.196 26.65a.91.91 0 0 0 .907-.913.91.91 0 0 0-.907-.914.91.91 0 0 0-.907.914.91.91 0 0 0 .907.913z" fill="#000"/></g></g><g><path d="M44.369 20.866l2.765 2.783 5.075-1.265.162-1.146-1.626-2.783-3.415 2.457-2.961-.046z" fill="#000"/></g><g><path d="M25.321 30.824H38.73l6.477-25.162-.351-1.95H32.412l-7.09 27.112z" fill="#000"/></g><g><path d="M49.99 12.96v3.5l-3.205-1.609 3.205-1.892z" fill="#000"/></g><g><path d="M90.163 64.92H48.849v-2.271h41.314c3.462 0 4.583-2.604 4.583-3.865 0-1.252-.692-3.115-2.597-3.115-1.57 0-2.411 1.258-2.423 1.932l-2.254-.038c.033-2.011 1.921-4.164 4.677-4.164 3.15 0 4.851 2.774 4.851 5.385 0 2.547-2.121 6.135-6.837 6.135z" fill="#000"/></g><g><path d="M44.002 28.19l9.64-3.974 1.504 5.865-11.144-1.891z" fill="#000"/></g><g><path d="M70.426 63.784H51.782l.913-10.632 21.297 5.883-3.566 4.749z" fill="#000"/></g><g><path d="M77.711 56.724c-1.178-3.71-2.51-8.342-3.579-12.064-.749-2.61-1.396-4.863-1.775-6.043-1.418-4.427-3.566-6.721-6.86-7.246l5.125 16.535-2.151.677-6.075-19.6h1.532c5.189 0 8.648 2.923 10.575 8.937.39 1.215 1.04 3.484 1.795 6.11 1.065 3.709 2.392 8.324 3.56 12.004l-2.147.69z" fill="#000"/></g><g><path d="M82.946 67.88c-.15-.136-1.502-1.437-2.934-5.372l2.116-.782c1.23 3.377 2.33 4.469 2.34 4.48l-1.522 1.674z" fill="#000"/></g><g><path d="M70.59 42.814c-.112-.147-2.822-3.614-8.196-3.332l-.117-2.268c6.598-.35 9.97 4.043 10.11 4.23l-1.797 1.37z" fill="#000"/></g><g><path d="M84.967 64.745c-.154-.38-3.891-9.301-14.366-10.288l.21-2.26c11.87 1.118 16.073 11.265 16.245 11.696l-2.089.852z" fill="#000"/></g><g><path d="M79.503 57.47l-1.231-1.903-8.097 5.315 1.232 1.902 8.096-5.314z" fill="#000"/></g><g><path d="M47.807 27.883l-2.2-.5-6.795 30.241 2.199.502 6.796-30.243z" fill="#000"/></g><g><path d="M28.837 56.788c-.027-10.234-4.11-16.75-11.807-18.842l.587-2.191c8.784 2.387 13.444 9.66 13.474 21.028l-2.254.005z" fill="#000"/></g><g><path d="M39.657 40.554l-7.534-12.049-1.908 1.21 7.534 12.049 1.908-1.21z" fill="#000"/></g><g><path d="M41.994 66.974h12.988s-1.472-4.386-6.687-6.026a35.154 35.154 0 0 0-4.542-1.062l-1.76 7.088z" fill="#fff"/></g><g><path d="M53.647 29.667L43.205 28.05l.343-2.244 7.844 1.216v-7.61h2.178l-2.412-5.736v-.23c0-3.35-1.067-7.366-6.15-7.482a245.291 245.291 0 0 0-9.207-.016c-.677 1.93-2.518 7.168-3.577 10.138-1.437 4.031-4.183 6.636-7.94 7.532l-.52-2.21c3.765-.898 5.525-3.806 6.339-6.09a3177.435 3177.435 0 0 0 3.835-10.869l.259-.738.777-.019c.05-.001 5.035-.115 10.086 0 5.24.122 8.274 3.586 8.351 9.52l3.562 8.47h-3.327v7.986h.001z" fill="#000"/></g><g><path d="M42.313 49.43l4.445.076 2.751 11.729-10.012-2.766 2.816-9.038z" fill="#000"/></g><g><path d="M34.827 75.581s13.486-1.768 17.688-2.176c5.636 1.703 9.77 8.892 10.4 14.946-.067 0-32.127 3.406-32.127 3.406l4.039-16.176z" fill="#000"/></g><g><path d="M40.552 83.985l-9.764 7.772 5.95-24.872 6.278-.088-2.464 17.188z" fill="#000"/></g><g><path d="M54.474 68.467c-1.551-3.906-5.215-6.683-10.318-7.819a673.454 673.454 0 0 1-20.227-4.873l.564-2.197c.098.025 9.941 2.58 20.15 4.853C50.495 59.735 54.73 63 56.566 67.624l-2.092.843z" fill="#000"/></g><g><path d="M51.2 73.264c-.162-3.942-3.337-6.54-3.369-6.566l1.4-1.781c.163.13 4.016 3.248 4.223 8.252l-2.253.095z" fill="#000"/></g><g><path d="M19.233 67.492l-2.109-.8-9.433 25.236 2.109.8 9.433-25.236z" fill="#000"/></g><g><path d="M49.704 72.438l-16.38 1.913 9.164-7.377 1.936.176 5.28 5.288z" fill="#fff"/></g><g><path d="M36.713 76.24l-.202-2.262 47.414-4.283c3.86-.736 5.821-2.552 6.357-5.884l2.225.363c-1.03 6.416-6.443 7.43-8.22 7.763l-.107.015-47.467 4.287z" fill="#000"/></g><g><path d="M45.43 70.68c-1.095-1.705-2.179-2.571-5.065-2.571H11.061v-2.27h29.304c3.34 0 5.29 1.011 6.96 3.609L45.43 70.68z" fill="#000"/></g><g><path d="M25.335 56.045l-2.244-.216c.665-7.034-3.502-11.298-7.654-12.281l.517-2.21c5.235 1.24 10.138 6.69 9.38 14.707z" fill="#000"/></g><g><path d="M40.576 13.022l-.547-2.203c4.691-1.181 7.42-4.114 8.114-8.718l2.23.34c-.83 5.519-4.218 9.177-9.797 10.58z" fill="#000"/></g><g><path d="M40.115 57.855l5.166-23.837s0 .015 1.116.015c3.863 0 6.966 1.707 7.997 6.417 1.22 5.581 3.945 17.027 3.945 17.027l-5.448 6.054-4.343-2.911-8.433-2.764z" fill="#000"/></g></g></symbol><symbol viewBox="0 0 20 12" id="vk" xmlns="http://www.w3.org/2000/svg"><path d="M18.6.8c-.3 1.3-2.9 5.1-2.9 5.1-.2.4-.3.6 0 .9.16.214.436.514.734.84.258.281.534.581.766.86 1.1 1.3 1.6 2 1.9 2.5.2.4 0 1-.5 1H16c-.613 0-.855-.278-1.421-.93-.265-.305-.6-.692-1.079-1.17-1.3-1.3-1.9-1.4-2.2-1.4-.125 0-.198 0-.24.036-.06.05-.06.172-.06.464v2c0 .118.015.229.03.33.058.412.094.67-1.03.67-2.3 0-4.6-1.4-6.5-4C.7 4.1 0 1.2 0 .6 0 .2.3 0 .6 0H3c.6 0 .8.4 1 1 1.1 3.1 2.8 5.7 3.6 5.7.3 0 .4-.1.4-.7V3c0-.919-.338-1.462-.6-1.884C7.236.85 7.1.632 7.1.4c0-.2.2-.4.5-.4h2.5c.5 0 1 .4 1 1v4c0 .144-.008.27-.015.379-.018.269-.028.421.115.421.143 0 .285-.152.537-.421.1-.108.22-.235.363-.379 1.5-1.7 3-4 3-4 .036-.054.075-.121.119-.195C15.415.47 15.69 0 16.1 0h2c.4 0 .6.4.5.8z" fill="#fff"/></symbol></svg>